<svg width="320" height="320" viewBox="0 0 320 320" fill="none" xmlns="http://www.w3.org/2000/svg">
<rect width="320" height="320" rx="11.4286" fill="white"/>
<rect x="0.357143" y="0.357143" width="319.286" height="319.286" rx="11.0714" stroke="black" stroke-opacity="0.3" stroke-width="0.714286"/>
<path d="M203.219 43.0371C203.219 43.0371 159.457 27.4765 116.5 52.2502C73.5435 77.0245 51.8681 126.203 33.2549 165.598C14.6418 204.992 25.3555 245.063 58.1475 263.334C90.9395 281.605 113.237 254.671 159.239 253.36C205.241 252.049 217.613 258.625 255.785 232.638C293.958 206.651 300.858 145.278 270.746 99.8668C240.634 54.4548 203.219 43.0371 203.219 43.0371Z" fill="#92E3A9"/>
<path opacity="0.8" d="M203.219 43.0371C203.219 43.0371 159.457 27.4765 116.5 52.2502C73.5435 77.0245 51.8681 126.203 33.2549 165.598C14.6418 204.992 25.3555 245.063 58.1475 263.334C90.9395 281.605 113.237 254.671 159.239 253.36C205.241 252.049 217.613 258.625 255.785 232.638C293.958 206.651 300.858 145.278 270.746 99.8668C240.634 54.4548 203.219 43.0371 203.219 43.0371Z" fill="white"/>
<path d="M27.2725 279.094H292.415" stroke="#263238" stroke-width="0.571429" stroke-miterlimit="10" stroke-linecap="round" stroke-linejoin="round"/>
<path d="M227.658 36.8401H175.429V233.134H227.658V36.8401Z" stroke="#263238" stroke-width="0.571429" stroke-miterlimit="10" stroke-linecap="round" stroke-linejoin="round"/>
<path d="M294.001 36.8402H174.102C173.662 36.8402 173.306 36.4836 173.306 36.0442C173.306 35.6047 173.662 35.2482 174.102 35.2482H294.001C294.44 35.2482 294.797 35.6042 294.797 36.0442C294.797 36.4842 294.44 36.8402 294.001 36.8402Z" fill="#263238" stroke="#263238" stroke-width="0.571429" stroke-miterlimit="10" stroke-linecap="round" stroke-linejoin="round"/>
<path d="M227.573 184.857H291.599" stroke="#263238" stroke-width="0.571429" stroke-miterlimit="10" stroke-linecap="round" stroke-linejoin="round"/>
<path d="M227.573 181.047H291.599" stroke="#263238" stroke-width="0.571429" stroke-miterlimit="10" stroke-linecap="round" stroke-linejoin="round"/>
<path d="M227.573 107.142H291.599" stroke="#263238" stroke-width="0.571429" stroke-miterlimit="10" stroke-linecap="round" stroke-linejoin="round"/>
<path d="M227.573 110.496H291.599" stroke="#263238" stroke-width="0.571429" stroke-miterlimit="10" stroke-linecap="round" stroke-linejoin="round"/>
<path d="M179.216 37.1327V52.2035" stroke="#263238" stroke-width="0.571429" stroke-miterlimit="10" stroke-linecap="round" stroke-linejoin="round"/>
<path d="M181.658 39.366V136.65" stroke="#263238" stroke-width="0.571429" stroke-miterlimit="10" stroke-linecap="round" stroke-linejoin="round"/>
<path d="M187.59 36.947V48.6682" stroke="#263238" stroke-width="0.571429" stroke-miterlimit="10" stroke-linecap="round" stroke-linejoin="round"/>
<path d="M187.59 51.459V57.971" stroke="#263238" stroke-width="0.571429" stroke-miterlimit="10" stroke-linecap="round" stroke-linejoin="round"/>
<path d="M222.304 54.0642V56.8545" stroke="#263238" stroke-width="0.571429" stroke-miterlimit="10" stroke-linecap="round" stroke-linejoin="round"/>
<path d="M222.304 37.1327V51.459" stroke="#263238" stroke-width="0.571429" stroke-miterlimit="10" stroke-linecap="round" stroke-linejoin="round"/>
<path d="M194.044 68.3899V70.623" stroke="#263238" stroke-width="0.571429" stroke-miterlimit="10" stroke-linecap="round" stroke-linejoin="round"/>
<path d="M194.044 39.5515V65.7852" stroke="#263238" stroke-width="0.571429" stroke-miterlimit="10" stroke-linecap="round" stroke-linejoin="round"/>
<path d="M197.882 39.366V47.5523" stroke="#263238" stroke-width="0.571429" stroke-miterlimit="10" stroke-linecap="round" stroke-linejoin="round"/>
<path d="M217.769 39.366V47.5523" stroke="#263238" stroke-width="0.571429" stroke-miterlimit="10" stroke-linecap="round" stroke-linejoin="round"/>
<path d="M202.767 36.947V106.936" stroke="#263238" stroke-width="0.571429" stroke-miterlimit="10" stroke-linecap="round" stroke-linejoin="round"/>
<path d="M209.22 37.319V41.0401" stroke="#263238" stroke-width="0.571429" stroke-miterlimit="10" stroke-linecap="round" stroke-linejoin="round"/>
<path d="M213.058 37.319V86.9355" stroke="#263238" stroke-width="0.571429" stroke-miterlimit="10" stroke-linecap="round" stroke-linejoin="round"/>
<path d="M207.127 40.2961V50.715" stroke="#263238" stroke-width="0.571429" stroke-miterlimit="10" stroke-linecap="round" stroke-linejoin="round"/>
<path d="M239.942 96.9478L238.59 98.6312" stroke="#263238" stroke-width="0.571429" stroke-miterlimit="10" stroke-linecap="round" stroke-linejoin="round"/>
<path d="M268.162 63.2402L242.119 94.2357" stroke="#263238" stroke-width="0.571429" stroke-miterlimit="10" stroke-linecap="round" stroke-linejoin="round"/>
<path d="M262.323 81.2031L252.311 93.0688" stroke="#263238" stroke-width="0.571429" stroke-miterlimit="10" stroke-linecap="round" stroke-linejoin="round"/>
<path d="M239.942 170.852L238.59 172.536" stroke="#263238" stroke-width="0.571429" stroke-miterlimit="10" stroke-linecap="round" stroke-linejoin="round"/>
<path d="M269.152 134.502L242.119 168.14" stroke="#263238" stroke-width="0.571429" stroke-miterlimit="10" stroke-linecap="round" stroke-linejoin="round"/>
<path d="M262.323 155.108L252.311 166.974" stroke="#263238" stroke-width="0.571429" stroke-miterlimit="10" stroke-linecap="round" stroke-linejoin="round"/>
<path d="M273.112 110.528V180.03" stroke="#263238" stroke-width="0.571429" stroke-miterlimit="10" stroke-linecap="round" stroke-linejoin="round"/>
<path d="M273.112 36.5172V107.008" stroke="#263238" stroke-width="0.571429" stroke-miterlimit="10" stroke-linecap="round" stroke-linejoin="round"/>
<path d="M276.576 110.613V180.03" stroke="#263238" stroke-width="0.571429" stroke-miterlimit="10" stroke-linecap="round" stroke-linejoin="round"/>
<path d="M276.576 36.5172V106.97" stroke="#263238" stroke-width="0.571429" stroke-miterlimit="10" stroke-linecap="round" stroke-linejoin="round"/>
<path d="M154.927 93.7886H37.0938V96.7051H154.927V93.7886Z" stroke="#263238" stroke-width="0.571429" stroke-miterlimit="10" stroke-linecap="round" stroke-linejoin="round"/>
<path d="M166.594 121.205H25.4268V124.122H166.594V121.205Z" stroke="#263238" stroke-width="0.571429" stroke-miterlimit="10" stroke-linecap="round" stroke-linejoin="round"/>
<path d="M48.9551 61.0433V93.7102H76.5665V61.0433H48.9551ZM75.4648 92.4068H50.0568V62.3462H75.4648V92.4068Z" fill="#263238" stroke="#263238" stroke-width="0.571429" stroke-miterlimit="10" stroke-linecap="round" stroke-linejoin="round"/>
<path d="M95.8164 98.6498V120.933H114.651V98.6498H95.8164ZM113.899 120.044H96.5678V99.5389H113.899V120.044Z" fill="#263238" stroke="#263238" stroke-width="0.571429" stroke-miterlimit="10" stroke-linecap="round" stroke-linejoin="round"/>
<path d="M82.3994 74.2656V93.7102H98.8348V74.2656H82.3994ZM96.8783 91.3948H84.356V76.5799H96.8783V91.3948Z" fill="#263238" stroke="#263238" stroke-width="0.571429" stroke-miterlimit="10" stroke-linecap="round" stroke-linejoin="round"/>
<path d="M34.1768 101.488V120.933H50.6122V101.488H34.1768ZM48.6556 118.618H36.1333V103.803H48.6556V118.618Z" fill="#263238" stroke="#263238" stroke-width="0.571429" stroke-miterlimit="10" stroke-linecap="round" stroke-linejoin="round"/>
<path d="M55.1768 108.28V120.933H65.871V108.28H55.1768ZM64.5985 119.426H56.4499V109.786H64.5979L64.5985 119.426Z" fill="#263238" stroke="#263238" stroke-width="0.571429" stroke-miterlimit="10" stroke-linecap="round" stroke-linejoin="round"/>
<path d="M78.8994 108.28V120.933H89.5937V108.28H78.8994ZM88.3211 119.426H80.1731V109.786H88.3211V119.426Z" fill="#263238" stroke="#263238" stroke-width="0.571429" stroke-miterlimit="10" stroke-linecap="round" stroke-linejoin="round"/>
<path d="M126.193 85.0139H119.965C119.152 85.0139 118.493 85.6728 118.493 86.4853V93.7105H127.664V86.4853C127.664 85.6728 127.005 85.0139 126.193 85.0139Z" stroke="#263238" stroke-width="0.571429" stroke-miterlimit="10" stroke-linecap="round" stroke-linejoin="round"/>
<path d="M125.846 82.9584H120.312V84.9469H125.846V82.9584Z" stroke="#263238" stroke-width="0.571429" stroke-miterlimit="10" stroke-linecap="round" stroke-linejoin="round"/>
<path d="M124.205 82.8995C124.205 82.8995 125.761 79.0103 127.122 76.8715C128.483 74.7326 131.789 72.9829 133.927 72.9829C136.066 72.9829 140.15 75.3161 142.872 78.4275" stroke="#263238" stroke-width="0.571429" stroke-miterlimit="10" stroke-linecap="round" stroke-linejoin="round"/>
<path d="M131.788 73.5663C131.788 73.5663 132.955 69.6771 136.455 68.1217C139.955 66.5663 143.455 67.1497 144.038 66.5663" stroke="#263238" stroke-width="0.571429" stroke-miterlimit="10" stroke-linecap="round" stroke-linejoin="round"/>
<path d="M122.379 82.8344C122.379 82.8344 122.455 80.3721 120.899 78.4275C119.344 76.4829 115.649 75.7052 113.316 77.2607C110.983 78.8161 109.427 80.9549 109.427 80.9549" stroke="#263238" stroke-width="0.571429" stroke-miterlimit="10" stroke-linecap="round" stroke-linejoin="round"/>
<path d="M116.233 76.6771C116.233 76.6771 113.705 79.2051 113.122 81.7326C112.539 84.2606 113.317 86.9828 113.317 86.9828" stroke="#263238" stroke-width="0.571429" stroke-miterlimit="10" stroke-linecap="round" stroke-linejoin="round"/>
<path d="M127.121 76.8721C129.131 73.0949 128.682 68.6681 130.198 64.7435C131.762 60.6938 135.293 58.5052 139.566 58.2052" stroke="#263238" stroke-width="0.571429" stroke-miterlimit="10" stroke-linecap="round" stroke-linejoin="round"/>
<path d="M109.756 80.5126C109.756 80.5126 108.16 80.5126 107.627 81.7897C107.095 83.0669 107.308 84.3446 107.308 84.3446C107.308 84.3446 108.692 84.1314 109.33 82.6417C109.969 81.1509 109.756 80.5126 109.756 80.5126Z" fill="#92E3A9"/>
<path d="M112.686 77.6057C112.686 77.6057 112.069 76.1332 110.686 76.1349C109.302 76.1372 108.206 76.8269 108.206 76.8269C108.206 76.8269 108.937 78.0212 110.558 78.0349C112.179 78.0486 112.686 77.6057 112.686 77.6057Z" fill="#92E3A9"/>
<path d="M112.66 83.8303C112.66 83.8303 111.286 83.016 110.177 83.844C109.068 84.6714 108.6 85.8789 108.6 85.8789C108.6 85.8789 109.898 86.4011 111.208 85.4451C112.517 84.488 112.66 83.8303 112.66 83.8303Z" fill="#92E3A9"/>
<path d="M113.255 86.4589C113.255 86.4589 112.05 87.5069 112.487 88.82C112.923 90.1331 113.923 90.9571 113.923 90.9571C113.923 90.9571 114.828 89.8886 114.331 88.3446C113.835 86.8011 113.255 86.4589 113.255 86.4589Z" fill="#92E3A9"/>
<path d="M113.19 80.8836C113.19 80.8836 112.785 82.4276 113.885 83.267C114.985 84.1064 116.274 84.2247 116.274 84.2247C116.274 84.2247 116.42 82.8322 115.141 81.8362C113.862 80.8402 113.19 80.8836 113.19 80.8836Z" fill="#92E3A9"/>
<path d="M114.631 76.3143C114.631 76.3143 115.114 74.792 114.056 73.8989C112.999 73.0057 111.718 72.8229 111.718 72.8229C111.718 72.8229 111.503 74.2063 112.73 75.2652C113.958 76.3246 114.631 76.3143 114.631 76.3143Z" fill="#92E3A9"/>
<path d="M117.493 76.4681C117.493 76.4681 118.678 75.3989 118.218 74.0938C117.758 72.7886 116.745 71.9829 116.745 71.9829C116.745 71.9829 115.86 73.0675 116.384 74.6023C116.907 76.1366 117.493 76.4681 117.493 76.4681Z" fill="#92E3A9"/>
<path d="M133.673 70.0817C133.673 70.0817 134.859 69.0126 134.399 67.7074C133.939 66.4023 132.925 65.5966 132.925 65.5966C132.925 65.5966 132.04 66.6811 132.564 68.216C133.087 69.7497 133.673 70.0817 133.673 70.0817Z" fill="#92E3A9"/>
<path d="M138.356 67.6332C138.356 67.6332 139.542 66.5641 139.082 65.2589C138.622 63.9538 137.608 63.1481 137.608 63.1481C137.608 63.1481 136.723 64.2332 137.247 65.7675C137.77 67.3018 138.356 67.6332 138.356 67.6332Z" fill="#92E3A9"/>
<path d="M142.295 66.888C142.295 66.888 143.48 65.8188 143.02 64.5137C142.56 63.2085 141.547 62.4028 141.547 62.4028C141.547 62.4028 140.661 63.4874 141.185 65.0223C141.709 66.5565 142.295 66.888 142.295 66.888Z" fill="#92E3A9"/>
<path d="M115.788 80.6983C115.788 80.6983 117.384 80.648 117.876 79.3543C118.367 78.0606 118.114 76.7909 118.114 76.7909C118.114 76.7909 116.738 77.0475 116.147 78.5572C115.555 80.0669 115.788 80.6983 115.788 80.6983Z" fill="#92E3A9"/>
<path d="M141.544 70.4583C141.544 70.4583 141.903 68.9023 140.778 68.0966C139.653 67.2909 138.36 67.2114 138.36 67.2114C138.36 67.2114 138.257 68.6074 139.565 69.5646C140.875 70.5223 141.544 70.4583 141.544 70.4583Z" fill="#92E3A9"/>
<path d="M145.377 70.3521C145.377 70.3521 145.736 68.7961 144.611 67.9904C143.486 67.1847 142.193 67.1052 142.193 67.1052C142.193 67.1052 142.09 68.5012 143.398 69.4584C144.708 70.4161 145.377 70.3521 145.377 70.3521Z" fill="#92E3A9"/>
<path d="M111.55 82.5047C111.55 82.5047 112.962 81.7595 112.836 80.3812C112.71 79.0029 111.926 77.9727 111.926 77.9727C111.926 77.9727 110.802 78.8069 110.932 80.4229C111.063 82.0395 111.55 82.5047 111.55 82.5047Z" fill="#92E3A9"/>
<path d="M127.835 80.163C127.835 80.163 129.247 79.4178 129.122 78.0396C128.996 76.6613 128.212 75.631 128.212 75.631C128.212 75.631 127.088 76.4653 127.219 78.0813C127.349 79.6978 127.835 80.163 127.835 80.163Z" fill="#92E3A9"/>
<path d="M124.769 75.2024C124.769 75.2024 123.621 76.3121 124.126 77.6007C124.632 78.8893 125.673 79.6595 125.673 79.6595C125.673 79.6595 126.52 78.5447 125.943 77.0293C125.366 75.5138 124.769 75.2024 124.769 75.2024Z" fill="#92E3A9"/>
<path d="M131.774 77.8212C131.774 77.8212 133.186 77.076 133.061 75.6978C132.935 74.3195 132.151 73.2892 132.151 73.2892C132.151 73.2892 131.026 74.1235 131.157 75.7395C131.287 77.356 131.774 77.8212 131.774 77.8212Z" fill="#92E3A9"/>
<path d="M136.544 77.8281C136.544 77.8281 137.719 76.7463 137.245 75.4463C136.771 74.1463 135.749 73.3503 135.749 73.3503C135.749 73.3503 134.876 74.4441 135.415 75.9732C135.955 77.5023 136.544 77.8281 136.544 77.8281Z" fill="#92E3A9"/>
<path d="M140.269 79.8509C140.269 79.8509 141.444 78.7692 140.97 77.4692C140.497 76.1692 139.475 75.3732 139.475 75.3732C139.475 75.3732 138.601 76.4669 139.141 77.996C139.68 79.5252 140.269 79.8509 140.269 79.8509Z" fill="#92E3A9"/>
<path d="M145.04 75.2647C145.04 75.2647 144.03 74.0282 142.704 74.4236C141.378 74.819 140.523 75.7922 140.523 75.7922C140.523 75.7922 141.563 76.7293 143.122 76.2819C144.68 75.8333 145.04 75.2647 145.04 75.2647Z" fill="#92E3A9"/>
<path d="M140.027 61.3846C140.027 61.3846 140.023 59.788 138.744 59.2588C137.465 58.7303 136.188 58.9463 136.188 58.9463C136.188 58.9463 136.405 60.3297 137.897 60.964C139.389 61.5983 140.027 61.3846 140.027 61.3846Z" fill="#92E3A9"/>
<path d="M138.105 54.9023C138.105 54.9023 136.524 55.1201 136.171 56.4578C135.817 57.7955 136.203 59.0321 136.203 59.0321C136.203 59.0321 137.544 58.6326 137.974 57.0692C138.403 55.5058 138.105 54.9023 138.105 54.9023Z" fill="#92E3A9"/>
<path d="M135.663 63.5138C135.663 63.5138 135.659 61.9173 134.381 61.3881C133.102 60.8595 131.825 61.0755 131.825 61.0755C131.825 61.0755 132.042 62.459 133.534 63.0938C135.025 63.7281 135.663 63.5138 135.663 63.5138Z" fill="#92E3A9"/>
<path d="M133.741 57.0309C133.741 57.0309 132.159 57.2486 131.806 58.5863C131.453 59.924 131.838 61.1606 131.838 61.1606C131.838 61.1606 133.18 60.7612 133.61 59.1977C134.039 57.6343 133.741 57.0309 133.741 57.0309Z" fill="#92E3A9"/>
<path d="M134.035 66.1607C134.035 66.1607 133.043 64.9087 131.712 65.2847C130.38 65.6607 129.511 66.6201 129.511 66.6201C129.511 66.6201 130.536 67.5727 132.102 67.1481C133.667 66.7235 134.035 66.1607 134.035 66.1607Z" fill="#92E3A9"/>
<path d="M128.515 62.2566C128.515 62.2566 127.407 63.4063 127.957 64.676C128.507 65.9457 129.575 66.6789 129.575 66.6789C129.575 66.6789 130.382 65.5349 129.752 64.0406C129.123 62.5463 128.515 62.2566 128.515 62.2566Z" fill="#92E3A9"/>
<path d="M132.863 71.5892C132.863 71.5892 131.872 70.3373 130.54 70.7133C129.208 71.0887 128.339 72.0487 128.339 72.0487C128.339 72.0487 129.365 73.0013 130.93 72.5767C132.495 72.1527 132.863 71.5892 132.863 71.5892Z" fill="#92E3A9"/>
<path d="M127.344 67.6852C127.344 67.6852 126.236 68.8349 126.786 70.1046C127.336 71.3743 128.404 72.1075 128.404 72.1075C128.404 72.1075 129.211 70.9635 128.581 69.4692C127.951 67.9749 127.344 67.6852 127.344 67.6852Z" fill="#92E3A9"/>
<path d="M140.57 72.9229C140.57 72.9229 139.561 71.6864 138.234 72.0818C136.908 72.4772 136.054 73.4504 136.054 73.4504C136.054 73.4504 137.094 74.3875 138.652 73.9401C140.21 73.4915 140.57 72.9229 140.57 72.9229Z" fill="#92E3A9"/>
<path d="M138.015 70.2618C138.015 70.2618 137.005 69.0252 135.679 69.4207C134.353 69.8161 133.498 70.7892 133.498 70.7892C133.498 70.7892 134.538 71.7264 136.096 71.2789C137.655 70.8304 138.015 70.2618 138.015 70.2618Z" fill="#92E3A9"/>
<path d="M148.02 66.1103C148.02 66.1103 147.011 64.8737 145.684 65.2692C144.359 65.6646 143.504 66.6377 143.504 66.6377C143.504 66.6377 144.544 67.5749 146.102 67.1275C147.66 66.6789 148.02 66.1103 148.02 66.1103Z" fill="#92E3A9"/>
<path d="M143.656 57.7013C143.656 57.7013 142.647 56.4647 141.32 56.8601C139.994 57.2555 139.14 58.2287 139.14 58.2287C139.14 58.2287 140.18 59.1658 141.738 58.7184C143.296 58.2704 143.656 57.7013 143.656 57.7013Z" fill="#92E3A9"/>
<path d="M143.676 82.8309C143.676 82.8309 144.85 81.7492 144.377 80.4492C143.903 79.1492 142.881 78.3538 142.881 78.3538C142.881 78.3538 142.008 79.4475 142.547 80.9766C143.086 82.5052 143.676 82.8309 143.676 82.8309Z" fill="#92E3A9"/>
<path d="M128.646 120.933H134.737C136.799 119.529 138.205 116.749 138.205 113.543C138.205 111.462 137.609 109.562 136.629 108.099H126.754C125.774 109.562 125.178 111.462 125.178 113.543C125.178 116.749 126.584 119.529 128.646 120.933Z" stroke="#263238" stroke-width="0.571429" stroke-miterlimit="10" stroke-linecap="round" stroke-linejoin="round"/>
<path d="M148.317 99.8165H144.428V121.206H148.317V99.8165Z" stroke="#263238" stroke-width="0.571429" stroke-miterlimit="10" stroke-linecap="round" stroke-linejoin="round"/>
<path d="M152.594 99.8165H148.705V121.206H152.594V99.8165Z" stroke="#263238" stroke-width="0.571429" stroke-miterlimit="10" stroke-linecap="round" stroke-linejoin="round"/>
<path d="M156.873 99.8165H152.983V121.206H156.873V99.8165Z" stroke="#263238" stroke-width="0.571429" stroke-miterlimit="10" stroke-linecap="round" stroke-linejoin="round"/>
<path d="M50.245 219.488C50.245 219.488 47.7581 215.012 49.2644 209.076C50.7707 203.14 51.3232 204.135 49.7472 200.722C48.1712 197.309 46.8198 196.606 47.7524 193.672C48.685 190.739 50.3032 186.159 49.7204 183.38C49.1375 180.601 47.8678 179.47 48.4421 176.467C49.0158 173.465 50.777 172.024 49.9181 168.748C49.0587 165.472 47.5438 165.627 48.1175 162.624C48.6912 159.623 49.4884 159.386 49.2638 156.675C49.0392 153.965 49.6667 152.649 49.6667 152.649C49.6667 152.649 50.6992 156.895 51.3638 159.244C52.029 161.594 52.141 162.95 51.813 164.665C51.485 166.38 55.3747 169.347 55.4872 170.702C55.5998 172.057 56.4284 173.55 55.1381 176.414C53.8478 179.279 53.5198 180.995 54.2667 182.916C55.0135 184.837 55.8124 184.545 55.0741 188.404C54.3364 192.264 52.1044 192.282 53.7621 195.266C55.4198 198.25 56.413 198.884 55.645 200.96C54.8764 203.036 53.6684 205.472 54.1387 206.896C54.3152 207.43 54.709 208.192 55.1324 208.938C56.0872 210.618 56.393 212.59 56.0301 214.488L55.8061 215.66L56.5318 221.578L53.0095 224.461C53.0084 224.462 51.3804 223.261 50.245 219.488Z" fill="#92E3A9"/>
<path d="M46.1763 219.998C46.1763 219.998 42.8928 216.714 43.258 211.607C43.6226 206.5 44.3523 207.23 42.1637 204.676C39.9751 202.122 38.5157 201.758 38.8803 199.204C39.2448 196.65 39.9746 192.638 38.8803 190.449C37.786 188.26 36.3266 187.531 36.3266 184.977C36.3266 182.423 37.786 180.965 36.3266 178.411C34.8671 175.857 33.4083 176.222 33.4083 173.669C33.4083 171.115 34.138 168.926 33.4083 166.737C32.6786 164.549 33.1568 164.998 33.1568 164.998C33.1568 164.998 34.8671 168.561 35.9614 170.385C37.0557 172.209 37.4208 173.303 37.4208 174.763C37.4208 176.222 41.7986 178.046 42.1631 179.141C42.5277 180.235 43.6226 181.329 42.8928 183.883C42.1631 186.437 42.1631 187.895 43.258 189.355C44.3523 190.814 45.082 190.449 45.082 193.733C45.082 197.016 42.8934 197.381 45.082 199.57C47.2706 201.758 48.3654 202.123 48.0003 203.947C47.6357 205.771 46.906 207.96 47.6357 209.055C47.8346 209.353 48.1694 209.733 48.5511 210.128C50.0648 211.694 50.9191 213.782 50.9191 215.96V215.986L52.7431 220.728L49.8248 223.646C49.8248 223.645 48.0003 222.916 46.1763 219.998Z" fill="#92E3A9"/>
<path d="M66.9696 219.998C66.9696 219.998 70.253 216.714 69.8879 211.607C69.5233 206.5 68.7936 207.23 70.9822 204.676C73.1707 202.122 74.6302 201.758 74.2656 199.204C73.901 196.65 73.1713 192.638 74.2656 190.449C75.3599 188.26 76.8193 187.531 76.8193 184.977C76.8193 182.423 75.3599 180.965 76.8193 178.411C78.2787 175.857 79.7376 176.222 79.7376 173.669C79.7376 171.115 79.0079 168.926 79.7376 166.737C80.4673 164.549 79.5942 165.803 79.5942 165.803C79.5942 165.803 78.2782 168.561 77.1839 170.385C76.0896 172.209 75.725 173.303 75.725 174.763C75.725 176.222 71.3473 178.046 70.9827 179.141C70.6182 180.235 69.5233 181.329 70.253 183.883C70.9827 186.437 70.9827 187.895 69.8879 189.355C68.7936 190.814 68.0639 190.449 68.0639 193.733C68.0639 197.016 70.2525 197.381 68.0639 199.57C65.8753 201.758 64.7805 202.123 65.1456 203.947C65.5102 205.771 66.2399 207.96 65.5102 209.055C65.3142 209.349 64.9867 209.722 64.613 210.109C63.0902 211.689 62.2273 213.791 62.2273 215.986L60.4033 220.728L63.3216 223.646C63.3216 223.645 65.1456 222.916 66.9696 219.998Z" fill="#92E3A9"/>
<path d="M60.5392 220.914C60.5392 220.914 62.7215 217.868 61.7592 213.849C60.7969 209.831 60.3118 210.507 61.7192 208.186C63.1261 205.865 64.2398 205.383 63.6135 203.398C62.9872 201.413 61.8787 198.313 62.4621 196.426C63.0455 194.539 64.1112 193.767 63.7758 191.734C63.4398 189.701 62.0861 188.731 62.9124 186.505C63.7387 184.28 64.9484 184.379 64.6124 182.345C64.2764 180.312 63.4078 178.665 63.7009 176.826C63.9941 174.987 63.3552 175.465 63.3552 175.465C63.3552 175.465 62.7792 178.471 62.1472 180.067C61.5158 181.663 61.3689 182.582 61.5609 183.745C61.7529 184.906 58.5072 186.934 58.3609 187.854C58.2141 188.773 57.4867 189.789 58.4038 191.726C59.3204 193.663 59.5124 194.825 58.8329 196.131C58.1535 197.437 57.5244 197.242 57.9564 199.857C58.3884 202.471 60.1787 202.473 58.7238 204.504C57.2689 206.535 56.4455 206.969 56.9758 208.373C57.5061 209.778 58.3752 211.425 57.9381 212.391C57.5009 213.359 55.7558 215.438 55.7558 215.438L56.2358 218.342L55.4072 222.358L58.1147 224.298C58.1147 224.298 59.4707 223.478 60.5392 220.914Z" fill="#92E3A9"/>
<path d="M71.2414 217.942L70.3814 239.335H68.0083V255.832H43.9334V239.335H41.71L40.8506 217.942H71.2414Z" fill="#263238" stroke="#263238" stroke-width="0.571429" stroke-miterlimit="10"/>
<path d="M41.0068 221.855L41.1314 224.954H70.9583L71.0828 221.855H41.0068Z" fill="white" stroke="#263238" stroke-width="0.571429" stroke-miterlimit="10"/>
<path d="M70.732 230.589L70.8115 228.617H41.2783L41.3577 230.589H70.732Z" fill="white" stroke="#263238" stroke-width="0.571429" stroke-miterlimit="10"/>
<path d="M41.7088 239.332H40.6465V279.094H43.9293V255.832" stroke="#263238" stroke-width="0.571429" stroke-miterlimit="10"/>
<path d="M70.3813 239.332H71.2893V279.094H68.0059V255.832" stroke="#263238" stroke-width="0.571429" stroke-miterlimit="10"/>
<path d="M95.3975 197.695C95.3975 197.695 88.9277 160.838 88.9277 152.552C88.9277 144.266 97.4403 131.123 117.19 125.981C136.94 120.838 162.137 124.266 169.628 127.981C177.12 131.695 181.546 139.695 183.249 152.838C184.951 165.981 188.356 218.838 188.356 218.838L98.462 220.266L95.3975 197.695Z" fill="#666666" stroke="#263238" stroke-width="0.571429" stroke-miterlimit="10" stroke-linecap="round" stroke-linejoin="round"/>
<path d="M202.416 268.75C202.416 268.75 199.672 271.916 195.662 273.816C191.652 275.715 189.752 277.826 189.963 279.304C190.174 280.781 192.496 280.992 196.507 281.203C200.517 281.414 214.659 280.781 216.981 280.781C219.303 280.781 221.203 280.148 221.203 278.248C221.203 276.348 220.78 271.493 220.78 271.493L202.416 268.75Z" fill="white" stroke="#263238" stroke-width="0.571429" stroke-miterlimit="10" stroke-linecap="round" stroke-linejoin="round"/>
<path d="M210.859 279.093C203.395 279.093 193.369 278.665 190.039 278.513C189.957 278.791 189.928 279.057 189.963 279.304C190.174 280.782 192.496 280.993 196.506 281.204C200.517 281.414 214.659 280.781 216.981 280.781C219.075 280.781 220.821 280.262 221.144 278.766C218.903 278.928 215.489 279.093 210.859 279.093Z" fill="white" stroke="#263238" stroke-width="0.571429" stroke-miterlimit="10" stroke-linecap="round" stroke-linejoin="round"/>
<path d="M222.469 176.087C222.469 176.087 214.659 208.171 214.659 210.704C214.659 213.237 222.047 224.846 222.258 233.922C222.469 242.998 219.092 260.729 219.725 262.628C220.358 264.528 221.414 265.794 221.203 267.483C220.992 269.172 220.358 273.604 220.358 273.604C220.358 273.604 217.403 273.815 211.282 272.549C205.161 271.282 201.151 269.382 201.151 269.382C201.151 269.382 200.728 264.95 200.728 264.105C200.728 263.261 201.572 261.15 201.784 259.462C201.995 257.773 201.151 241.309 199.462 232.655C197.774 224.001 194.607 212.814 194.607 206.904C194.607 200.993 194.396 180.097 194.396 180.097C194.396 180.097 199.674 176.297 207.272 172.709C214.871 169.121 220.148 171.021 220.148 171.021L222.469 176.087Z" fill="#92E3A9" stroke="#263238" stroke-width="0.571429" stroke-miterlimit="10" stroke-linecap="round" stroke-linejoin="round"/>
<path d="M210.08 171.585C209.185 171.88 208.249 172.248 207.272 172.71C202.265 175.074 198.28 177.522 196.134 178.923L197.516 181.9C197.516 181.9 212.457 186.696 219.836 185.774C219.944 185.76 220.047 185.741 220.153 185.725C221.453 180.266 222.47 176.088 222.47 176.088L221.033 172.953C220.184 172.488 219.482 172.167 219.098 172.124C218.256 172.03 214.194 171.794 210.08 171.585Z" fill="#263238" stroke="#263238" stroke-width="0.571429" stroke-miterlimit="10" stroke-linecap="round" stroke-linejoin="round"/>
<path d="M225.632 268.75C225.632 268.75 222.888 271.916 218.878 273.816C214.868 275.715 212.968 277.826 213.179 279.304C213.39 280.781 215.712 280.992 219.722 281.203C223.733 281.414 237.875 280.781 240.197 280.781C242.518 280.781 244.418 280.148 244.418 278.248C244.418 276.348 243.996 271.493 243.996 271.493L225.632 268.75Z" fill="white" stroke="#263238" stroke-width="0.571429" stroke-miterlimit="10" stroke-linecap="round" stroke-linejoin="round"/>
<path d="M234.075 279.093C226.611 279.093 216.584 278.665 213.255 278.513C213.172 278.791 213.144 279.057 213.179 279.304C213.389 280.782 215.712 280.993 219.722 281.204C223.732 281.414 237.875 280.781 240.196 280.781C242.291 280.781 244.037 280.262 244.36 278.766C242.118 278.928 238.704 279.093 234.075 279.093Z" fill="white" stroke="#263238" stroke-width="0.571429" stroke-miterlimit="10" stroke-linecap="round" stroke-linejoin="round"/>
<path d="M245.685 176.087C245.685 176.087 237.875 208.171 237.875 210.704C237.875 213.237 245.263 224.846 245.474 233.922C245.685 242.998 242.308 260.729 242.941 262.628C243.574 264.528 244.629 265.794 244.419 267.483C244.208 269.172 243.575 273.604 243.575 273.604C243.575 273.604 240.62 273.815 234.498 272.549C228.376 271.282 224.367 269.382 224.367 269.382C224.367 269.382 223.944 264.95 223.944 264.105C223.944 263.261 224.789 261.15 225 259.462C225.211 257.773 224.367 241.309 222.678 232.655C220.989 224.001 217.823 212.814 217.823 206.904C217.823 200.993 217.612 180.097 217.612 180.097C217.612 180.097 222.889 176.297 230.488 172.709C238.087 169.121 243.364 171.021 243.364 171.021L245.685 176.087Z" fill="#92E3A9" stroke="#263238" stroke-width="0.571429" stroke-miterlimit="10" stroke-linecap="round" stroke-linejoin="round"/>
<path d="M238.704 170.545C236.538 170.652 233.727 171.18 230.487 172.71C222.888 176.298 217.611 180.097 217.611 180.097C217.611 180.097 217.636 182.507 217.668 185.918C219.011 186.198 222.718 186.751 229.796 186.326C237.603 185.858 242.488 184.336 243.808 183.879C243.949 183.288 244.086 182.718 244.216 182.174L244.368 174.89C244.368 174.89 240.859 172.001 238.704 170.545Z" fill="#263238" stroke="#263238" stroke-width="0.571429" stroke-miterlimit="10" stroke-linecap="round" stroke-linejoin="round"/>
<path d="M200.261 109.981C200.261 109.981 195.119 111.552 193.833 112.409C192.547 113.266 190.547 119.981 189.976 121.552C189.404 123.124 186.404 131.266 186.404 131.266L191.261 132.266C191.261 132.266 191.119 137.124 191.833 139.124C192.547 141.124 197.69 147.124 197.69 147.124L199.547 152.124L197.547 179.838C197.547 179.838 204.833 183.695 217.119 184.838C229.404 185.981 237.833 184.838 238.833 184.266C239.833 183.695 240.69 183.409 240.69 183.409L241.547 179.409L242.833 183.124C242.833 183.124 245.833 182.838 247.547 182.124C249.261 181.409 251.833 179.981 251.833 179.981C251.833 179.981 246.547 159.981 244.261 154.552C241.976 149.124 238.119 140.695 238.119 140.695C238.119 140.695 236.404 121.124 232.976 114.552C229.547 107.981 223.119 106.266 218.547 105.838C213.976 105.409 200.261 109.981 200.261 109.981Z" fill="#92E3A9" stroke="#263238" stroke-width="0.571429" stroke-miterlimit="10" stroke-linecap="round" stroke-linejoin="round"/>
<path d="M198.848 110.684C198.848 110.684 197.263 115.794 197.263 120.728L198.848 110.684Z" fill="white"/>
<path d="M198.848 110.684C198.848 110.684 197.263 115.794 197.263 120.728" stroke="#263238" stroke-width="1.14286" stroke-miterlimit="10" stroke-linecap="round" stroke-linejoin="round"/>
<path d="M197.968 142.269C197.908 142.269 197.847 142.26 197.787 142.24C197.749 142.228 197.376 142.1 196.899 141.83C196.64 141.999 196.432 142.124 196.318 142.191C196.046 142.351 195.696 142.26 195.537 141.988C195.377 141.716 195.467 141.365 195.74 141.205C195.792 141.175 195.845 141.143 195.897 141.111C195.426 140.681 194.993 140.117 194.777 139.395C194.23 137.573 193.841 122.199 194.84 120.601C195.397 119.709 196.478 119.268 197.472 119.525C198.066 119.68 199.462 120.327 199.596 122.99C199.759 126.273 199.959 137.433 199.766 138.783C199.655 139.566 198.797 140.416 197.953 141.078C198.072 141.129 198.146 141.155 198.149 141.156C198.448 141.257 198.609 141.581 198.508 141.88C198.428 142.119 198.205 142.269 197.968 142.269ZM196.893 120.595C196.468 120.595 196.049 120.823 195.809 121.207C195.089 122.445 195.351 137.331 195.872 139.067C196.05 139.66 196.461 140.117 196.885 140.45C197.804 139.779 198.574 139.044 198.634 138.621C198.805 137.427 198.629 126.572 198.454 123.048C198.387 121.705 197.924 120.824 197.184 120.632C197.088 120.607 196.99 120.595 196.893 120.595Z" fill="white" stroke="#263238" stroke-width="0.571429" stroke-miterlimit="10" stroke-linecap="round" stroke-linejoin="round"/>
<path d="M195.898 141.11L196.899 141.829C196.899 141.829 196.056 142.513 195.523 142.62C194.991 142.726 194.567 142.264 195.898 141.11Z" fill="#263238" stroke="#263238" stroke-width="0.571429" stroke-miterlimit="10" stroke-linecap="round" stroke-linejoin="round"/>
<path d="M197.953 141.078L196.898 141.829C196.898 141.829 197.972 143.259 199.144 142.726C200.315 142.194 197.953 141.078 197.953 141.078Z" fill="#263238" stroke="#263238" stroke-width="0.571429" stroke-miterlimit="10" stroke-linecap="round" stroke-linejoin="round"/>
<path d="M213.122 105.75C213.122 105.75 210.831 117.204 210.831 126.19" stroke="#263238" stroke-width="1.14286" stroke-miterlimit="10" stroke-linecap="round" stroke-linejoin="round"/>
<path d="M213.475 128.305C213.475 130.544 212.173 132.358 210.568 132.358C208.962 132.358 207.66 130.544 207.66 128.305C207.66 126.067 208.962 124.252 210.568 124.252C212.173 124.253 213.475 126.067 213.475 128.305Z" fill="white" stroke="#263238" stroke-width="0.571429" stroke-miterlimit="10" stroke-linecap="round" stroke-linejoin="round"/>
<path d="M211.36 127.777C211.36 129.201 210.531 130.356 209.509 130.356C208.488 130.356 207.659 129.201 207.659 127.777C207.659 126.352 208.488 125.197 209.509 125.197C210.531 125.198 211.36 126.352 211.36 127.777Z" fill="white" stroke="#263238" stroke-width="0.571429" stroke-miterlimit="10" stroke-linecap="round" stroke-linejoin="round"/>
<path d="M239.595 120.838L235.262 125.124L232.833 120.695L239.595 120.838Z" fill="#263238" stroke="#263238" stroke-width="0.571429" stroke-miterlimit="10" stroke-linecap="round" stroke-linejoin="round"/>
<path d="M220.739 124.457L222.453 139.504C222.453 139.504 197.691 144.266 195.024 144.076C192.358 143.885 189.5 143.885 185.691 145.6C181.882 147.314 179.977 148.266 180.167 149.218C180.358 150.171 182.072 153.218 182.072 153.218C182.072 153.218 185.31 153.409 185.5 152.837C185.691 152.266 185.691 151.504 185.691 151.504C185.691 151.504 189.119 151.694 190.643 150.933C192.167 150.171 193.31 149.028 193.31 149.028C193.31 149.028 213.31 150.552 220.929 150.742C228.548 150.933 237.31 150.361 238.262 149.028C239.215 147.695 234.834 120.457 234.834 120.457L220.739 124.457Z" fill="white" stroke="#263238" stroke-width="0.571429" stroke-miterlimit="10" stroke-linecap="round" stroke-linejoin="round"/>
<path d="M222.453 139.505C222.453 139.505 230.146 136.749 234.436 138.417" stroke="#263238" stroke-width="0.571429" stroke-miterlimit="10" stroke-linecap="round" stroke-linejoin="round"/>
<path d="M195.024 144.076L195.468 149.142L197.733 149.5L197.256 143.78L195.024 144.076Z" fill="white" stroke="#263238" stroke-width="0.571429" stroke-miterlimit="10" stroke-linecap="round" stroke-linejoin="round"/>
<path d="M198.087 143.673C198.119 144.198 197.345 144.672 196.36 144.731C195.374 144.791 194.55 144.413 194.519 143.887C194.487 143.361 195.26 142.887 196.246 142.828C197.231 142.769 198.055 143.147 198.087 143.673Z" fill="white" stroke="#263238" stroke-width="0.571429" stroke-miterlimit="10" stroke-linecap="round" stroke-linejoin="round"/>
<path d="M185.691 151.505L183.671 150.93" stroke="#263238" stroke-width="0.571429" stroke-miterlimit="10" stroke-linecap="round" stroke-linejoin="round"/>
<path d="M219.214 115.885L220.167 126.742L239.595 120.838C239.595 120.838 233.119 109.6 229.5 106.742C225.881 103.885 218.453 106.361 217.5 107.124" fill="#92E3A9"/>
<path d="M219.214 115.885L220.167 126.742L239.595 120.838C239.595 120.838 233.119 109.6 229.5 106.742C225.881 103.885 218.453 106.361 217.5 107.124" stroke="#263238" stroke-width="0.571429" stroke-miterlimit="10" stroke-linecap="round" stroke-linejoin="round"/>
<path d="M182.119 79.8378C182.119 79.8378 175.119 86.4093 177.976 89.5521C180.834 92.695 184.834 94.695 185.405 98.2664C185.976 101.838 187.119 103.981 185.548 107.124C183.976 110.266 182.834 110.981 182.834 110.981C182.834 110.981 189.548 114.409 193.834 114.124C198.119 113.838 204.262 108.981 204.262 108.981C204.262 108.981 214.262 108.838 218.691 104.981C223.119 101.124 222.976 94.5521 221.119 89.9807C219.262 85.4093 212.834 79.9807 209.691 76.5521C206.548 73.1236 200.405 70.8379 193.976 71.5521C187.548 72.2664 182.119 79.8378 182.119 79.8378Z" fill="#263238" stroke="#263238" stroke-width="0.571429" stroke-miterlimit="10" stroke-linecap="round" stroke-linejoin="round"/>
<path d="M198.262 110.409C198.262 110.409 199.547 113.695 200.405 116.695C201.262 119.695 203.547 127.266 203.547 126.838C203.547 126.409 208.119 114.981 209.262 111.695C210.405 108.409 210.547 105.695 210.547 105.695L206.69 96.6949C206.69 96.6949 204.976 100.838 201.547 103.838C198.119 106.838 197.262 108.266 197.262 108.266L198.262 110.409Z" fill="white" stroke="#263238" stroke-width="0.571429" stroke-miterlimit="10" stroke-linecap="round" stroke-linejoin="round"/>
<path d="M198.926 111.701C198.926 111.701 204.829 110.04 207.412 107.826C209.995 105.613 210.179 105.059 210.179 105.059L207.043 99.1555L198.926 111.701Z" fill="#263238" stroke="#263238" stroke-width="0.571429" stroke-miterlimit="10" stroke-linecap="round" stroke-linejoin="round"/>
<path d="M182.977 91.2665C182.977 91.2665 185.548 97.6951 185.977 99.5522C186.405 101.409 187.977 104.981 190.405 107.124C192.834 109.266 194.405 112.124 198.262 111.552C202.119 110.981 206.834 104.124 207.691 101.981C208.548 99.8379 206.548 93.9808 206.548 93.2665C206.548 92.5522 205.834 92.2665 205.834 92.2665C205.834 92.2665 198.977 94.9808 194.262 92.9808C189.548 90.9808 185.405 87.6951 185.405 87.6951L182.977 91.2665Z" fill="white" stroke="#263238" stroke-width="0.571429" stroke-miterlimit="10" stroke-linecap="round" stroke-linejoin="round"/>
<path d="M202.548 94.6951C202.548 94.6951 204.405 89.838 207.119 90.4094C209.834 90.9808 209.548 95.6951 208.119 97.4094C206.691 99.1237 205.548 98.2666 205.548 98.2666" fill="white"/>
<path d="M202.548 94.6951C202.548 94.6951 204.405 89.838 207.119 90.4094C209.834 90.9808 209.548 95.6951 208.119 97.4094C206.691 99.1237 205.548 98.2666 205.548 98.2666" stroke="#263238" stroke-width="0.571429" stroke-miterlimit="10" stroke-linecap="round" stroke-linejoin="round"/>
<path d="M190.834 95.9808C190.834 95.9808 191.12 97.2665 191.12 98.6951C191.12 100.124 190.405 102.409 191.691 102.981C192.977 103.552 194.834 102.981 195.263 102.267" stroke="#263238" stroke-width="0.571429" stroke-miterlimit="10" stroke-linecap="round" stroke-linejoin="round"/>
<path d="M193.262 105.124C193.262 105.124 197.119 105.981 199.262 101.552" stroke="#263238" stroke-width="0.571429" stroke-miterlimit="10" stroke-linecap="round" stroke-linejoin="round"/>
<path d="M194.977 96.9808C194.977 96.9808 197.262 97.9808 198.977 95.6951" stroke="#263238" stroke-width="0.571429" stroke-miterlimit="10" stroke-linecap="round" stroke-linejoin="round"/>
<path d="M187.263 97.9808C187.263 97.9808 189.12 98.838 190.263 97.5522" stroke="#263238" stroke-width="0.571429" stroke-miterlimit="10" stroke-linecap="round" stroke-linejoin="round"/>
<path d="M190.12 95.2666C190.12 95.2666 188.263 93.9809 186.691 95.5523" stroke="#263238" stroke-width="0.571429" stroke-miterlimit="10" stroke-linecap="round" stroke-linejoin="round"/>
<path d="M192.69 93.838C192.69 93.838 193.548 92.4094 196.262 92.6951" stroke="#263238" stroke-width="0.571429" stroke-miterlimit="10" stroke-linecap="round" stroke-linejoin="round"/>
<path d="M165.568 131.19C165.568 131.19 170.711 132.333 172.425 139C174.14 145.666 182.502 172.554 182.502 172.554C182.502 172.554 191.353 177.612 194.02 177.993C196.687 178.374 198.973 178.565 199.163 181.422C199.354 184.279 198.592 188.85 197.068 189.612C195.544 190.374 189.83 190.374 185.639 190.184C181.449 189.993 178.782 189.041 176.496 187.517C174.211 185.993 171.735 170.945 169.068 163.707C166.401 156.469 160.997 141.475 161.568 137.665C162.14 133.857 163.664 131.19 165.568 131.19Z" fill="#92E3A9" stroke="#263238" stroke-width="0.571429" stroke-miterlimit="10" stroke-linecap="round" stroke-linejoin="round"/>
<path d="M185.706 193.704L182.026 193.427C175.778 192.957 170.471 197.944 170.554 204.209L171.238 278.423C171.249 279.602 172.207 280.551 173.386 280.551H183.662H206.998L215.638 193.426L185.706 193.704Z" fill="#333333" stroke="#263238" stroke-width="0.571429" stroke-miterlimit="10" stroke-linecap="round" stroke-linejoin="round"/>
<path d="M206.998 280.552C205.819 280.552 204.86 279.602 204.85 278.424L204.165 204.21C204.083 197.944 209.39 192.957 215.638 193.427L219.317 193.704C225.433 194.165 229.903 199.673 229.095 205.753L219.403 278.688C219.262 279.755 218.351 280.553 217.274 280.553H206.998V280.552Z" fill="#666666" stroke="#263238" stroke-width="0.571429" stroke-miterlimit="10" stroke-linecap="round" stroke-linejoin="round"/>
<path d="M200.642 280.552H129.214V210.266H193.785C197.573 210.266 200.642 213.337 200.642 217.123V280.552Z" fill="#666666" stroke="#263238" stroke-width="0.571429" stroke-miterlimit="10" stroke-linecap="round" stroke-linejoin="round"/>
<path d="M200.928 234.552H133.499" stroke="#263238" stroke-width="0.571429" stroke-miterlimit="10" stroke-linecap="round" stroke-linejoin="round"/>
<path d="M173.308 182.933L176.355 186.171C176.355 186.171 185.879 186.362 195.403 190.362C204.927 194.362 217.117 199.123 217.879 204.647C218.641 210.171 208.546 241.219 206.831 248.838C205.117 256.457 204.927 259.123 204.927 259.123C204.927 259.123 206.641 260.647 206.26 261.981C205.879 263.314 203.784 269.79 203.784 269.79C203.784 269.79 199.022 270.933 194.641 271.123C190.26 271.314 185.308 270.362 185.308 270.362C185.308 270.362 184.737 263.886 185.308 262.362C185.879 260.838 187.975 259.123 188.165 257.981C188.355 256.838 189.118 238.742 189.118 231.695C189.118 224.647 193.118 213.409 193.118 213.409C193.118 213.409 174.261 212.647 168.737 212.076C163.213 211.505 149.879 198.743 149.498 192.457C149.118 186.171 164.165 179.314 173.308 182.933Z" fill="#263238" stroke="#263238" stroke-width="0.571429" stroke-miterlimit="10" stroke-linecap="round" stroke-linejoin="round"/>
<path d="M203.974 267.505C203.974 267.505 202.26 264.266 200.165 265.79C198.069 267.314 197.689 269.409 196.546 269.409C195.403 269.409 185.308 267.505 185.308 267.505C185.308 267.505 182.641 277.981 183.593 279.123C184.546 280.266 193.308 281.219 197.117 281.79C200.927 282.362 209.308 284.457 214.832 284.457C220.356 284.457 219.403 280.457 218.07 279.124C216.737 277.791 207.213 272.648 205.88 270.934C204.546 269.219 203.974 267.505 203.974 267.505Z" fill="white" stroke="#263238" stroke-width="0.571429" stroke-miterlimit="10" stroke-linecap="round" stroke-linejoin="round"/>
<path d="M219.072 282.017C217.549 282.343 215.094 282.742 212.165 282.742C207.213 282.742 203.213 280.838 196.927 279.695C191.981 278.795 185.859 277.307 183.472 276.714C183.344 277.911 183.348 278.829 183.593 279.123C184.546 280.266 193.307 281.219 197.117 281.79C200.927 282.362 209.307 284.457 214.831 284.457C217.807 284.457 218.902 283.296 219.072 282.017Z" fill="white" stroke="#263238" stroke-width="0.571429" stroke-miterlimit="10" stroke-linecap="round" stroke-linejoin="round"/>
<path d="M134.071 129.6C134.071 129.6 122.643 133.981 118.452 136.838C114.262 139.695 116.928 150.552 116.928 156.648C116.928 162.743 115.785 179.124 115.595 182.362C115.405 185.6 119.595 189.981 122.452 191.695C125.309 193.409 149.691 194.362 156.167 194.362C162.643 194.362 176.548 190.172 175.405 177.79C174.262 165.409 170.262 155.886 169.691 153.79C169.119 151.695 168.929 144.838 169.119 142.933C169.309 141.029 170.833 135.314 167.976 132.648C165.119 129.981 153.119 126.933 147.595 127.124C142.071 127.314 134.071 129.6 134.071 129.6Z" fill="#92E3A9" stroke="#263238" stroke-width="0.571429" stroke-miterlimit="10" stroke-linecap="round" stroke-linejoin="round"/>
<path d="M135.566 142.154C135.844 142.937 136.247 143.661 136.763 144.313C137.647 145.429 139.321 147.415 141.932 150.026C146.089 154.183 152.621 156.954 152.621 156.954C152.621 156.954 154.799 145.473 155.194 140.326C155.59 135.179 152.819 131.022 148.266 129.439C143.712 127.855 135.399 129.637 134.211 132.804C133.314 135.198 134.792 139.968 135.566 142.154Z" fill="white" stroke="#263238" stroke-width="0.571429" stroke-miterlimit="10" stroke-linecap="round" stroke-linejoin="round"/>
<path d="M136.191 126.073C136.191 126.073 135.696 126.073 135.077 126.37C134.458 126.668 133.716 127.261 133.221 128.449C132.231 130.824 131.439 133.397 131.439 133.397C131.439 133.397 132.033 136.96 133.815 142.107C135.597 147.254 135.993 150.421 135.993 150.421C135.993 150.421 143.119 145.076 144.505 143.888C145.89 142.701 148.662 141.315 148.662 141.315C148.662 141.315 153.413 143.69 155.59 145.076C157.768 146.462 159.549 147.649 159.549 147.649C159.549 147.649 159.351 142.106 157.174 136.168C154.996 130.229 154.006 128.448 152.819 127.26C151.631 126.073 142.525 122.708 136.191 126.073Z" fill="white" stroke="#263238" stroke-width="0.571429" stroke-miterlimit="10" stroke-linecap="round" stroke-linejoin="round"/>
<path d="M152.553 97.7058C152.553 97.7058 153.96 95.9052 154.77 97.324C155.581 98.7423 156.391 99.5532 156.391 99.5532C156.391 99.5532 158.013 100.364 158.215 101.782C158.418 103.201 158.418 103.809 158.418 104.417C158.418 105.025 160.242 105.43 160.242 106.443C160.242 107.456 159.229 107.861 159.026 108.875C158.823 109.888 159.697 110.785 158.823 112.117C157.95 113.45 158.902 112.958 157.95 113.45C156.999 113.941 155.986 114.549 155.986 114.549L151.325 99.148L152.553 97.7058Z" fill="#C7C7C7" stroke="#7D7D7D" stroke-width="0.571429" stroke-miterlimit="10" stroke-linecap="round" stroke-linejoin="round"/>
<path d="M137.258 90.733C137.258 90.733 131.861 92.3073 129.612 96.8056C127.362 101.304 127.137 104.678 128.262 108.501C129.386 112.324 133.66 123.12 135.009 126.269C136.359 129.418 136.809 135.266 139.508 138.864C142.206 142.463 148.729 145.611 148.729 145.611C148.729 145.611 153.677 138.864 154.577 135.49C155.476 132.116 153.677 125.369 153.677 125.369C153.677 125.369 158.625 119.296 157.95 113.448C157.276 107.6 153.677 99.9536 152.553 97.7045C151.428 95.4565 147.38 88.4839 137.258 90.733Z" fill="white" stroke="#263238" stroke-width="0.571429" stroke-miterlimit="10" stroke-linecap="round" stroke-linejoin="round"/>
<path d="M141.139 99.7451C141.139 99.7451 145.098 97.7657 147.671 98.3594" stroke="#263238" stroke-width="0.571429" stroke-miterlimit="10" stroke-linecap="round" stroke-linejoin="round"/>
<path d="M139.556 98.9536C139.556 98.9536 143.119 97.1719 145.692 97.1719" stroke="#263238" stroke-width="0.571429" stroke-miterlimit="10" stroke-linecap="round" stroke-linejoin="round"/>
<path d="M153.677 125.37C153.677 125.37 150.641 127.261 147.87 127.261C145.098 127.261 139.952 125.083 138.368 123.499C138.368 123.499 143.057 128.87 148.041 130.213C153.026 131.555 154.368 129.446 154.368 129.446L153.677 125.37Z" fill="#263238" stroke="#263238" stroke-width="0.571429" stroke-miterlimit="10" stroke-linecap="round" stroke-linejoin="round"/>
<path d="M129.439 113.738C129.439 113.738 129.621 113.632 129.881 113.441C130.572 112.932 131.816 111.821 131.668 110.496C131.465 108.672 131.668 107.659 130.655 106.241C129.642 104.822 128.021 101.782 128.021 101.782C128.021 101.782 125.995 101.579 124.576 102.593C123.157 103.606 123.563 104.417 123.157 105.835C122.752 107.254 121.739 106.241 121.131 108.267C120.523 110.294 121.334 111.51 122.144 111.915C122.955 112.32 122.347 113.536 122.347 115.36C122.347 117.184 124.171 117.994 124.779 117.994C125.387 117.994 125.59 118.805 126.4 119.615C127.211 120.426 129.837 119.522 129.837 119.522C129.837 119.522 131.061 118.805 131.264 117.994C131.465 117.183 129.439 113.738 129.439 113.738Z" fill="#C7C7C7" stroke="#7D7D7D" stroke-width="0.571429" stroke-miterlimit="10" stroke-linecap="round" stroke-linejoin="round"/>
<path d="M131.185 113.45C131.185 113.45 128.486 109.851 126.687 111.875C124.887 113.899 128.036 118.848 129.835 119.522C131.635 120.197 133.884 118.398 133.884 118.398" fill="white"/>
<path d="M131.185 113.45C131.185 113.45 128.486 109.851 126.687 111.875C124.887 113.899 128.036 118.848 129.835 119.522C131.635 120.197 133.884 118.398 133.884 118.398" stroke="#263238" stroke-width="0.571429" stroke-miterlimit="10" stroke-linecap="round" stroke-linejoin="round"/>
<path d="M147.605 102.654C147.605 102.654 147.379 104.678 147.83 105.353C148.28 106.027 150.978 107.152 150.529 109.176C150.079 111.2 147.38 112.999 146.03 111.2" stroke="#263238" stroke-width="0.571429" stroke-miterlimit="10" stroke-linecap="round" stroke-linejoin="round"/>
<path d="M144.23 114.799C144.23 114.799 148.504 116.149 151.428 112.325" stroke="#263238" stroke-width="0.571429" stroke-miterlimit="10" stroke-linecap="round" stroke-linejoin="round"/>
<path d="M137.483 105.497C137.421 105.497 137.357 105.487 137.295 105.466C136.984 105.362 136.815 105.026 136.919 104.715C137.926 101.696 141.745 101.185 141.907 101.165C142.237 101.126 142.529 101.355 142.57 101.68C142.611 102.005 142.381 102.302 142.056 102.343C142.023 102.347 138.814 102.786 138.046 105.091C137.963 105.339 137.731 105.497 137.483 105.497Z" fill="#C7C7C7" stroke="#7D7D7D" stroke-width="0.571429" stroke-miterlimit="10" stroke-linecap="round" stroke-linejoin="round"/>
<path d="M152.102 101.754C151.95 101.754 151.798 101.696 151.682 101.58C150.215 100.114 148.393 100.98 148.316 101.018C148.023 101.161 147.667 101.041 147.522 100.748C147.377 100.455 147.495 100.101 147.787 99.9543C148.698 99.4994 150.859 99.0777 152.522 100.741C152.754 100.973 152.754 101.349 152.522 101.581C152.406 101.696 152.254 101.754 152.102 101.754Z" fill="#C7C7C7" stroke="#7D7D7D" stroke-width="0.571429" stroke-miterlimit="10" stroke-linecap="round" stroke-linejoin="round"/>
<path d="M143.781 108.051C143.781 108.051 143.556 110.526 141.082 112.1" stroke="#263238" stroke-width="0.571429" stroke-miterlimit="10" stroke-linecap="round" stroke-linejoin="round"/>
<path d="M150.753 106.927C150.753 106.927 152.552 108.277 154.802 108.501" stroke="#263238" stroke-width="0.571429" stroke-miterlimit="10" stroke-linecap="round" stroke-linejoin="round"/>
<path d="M142.292 107.319C142.49 108.035 142.325 108.705 141.922 108.817C141.52 108.929 141.033 108.439 140.834 107.724C140.636 107.009 140.801 106.338 141.203 106.226C141.606 106.115 142.093 106.604 142.292 107.319Z" fill="#263238"/>
<path d="M151.248 104.775C151.447 105.49 151.281 106.161 150.879 106.273C150.477 106.384 149.989 105.895 149.791 105.179C149.592 104.464 149.758 103.794 150.16 103.682C150.562 103.57 151.049 104.059 151.248 104.775Z" fill="#263238"/>
<path d="M142.383 105.631L139.505 107.55" stroke="#263238" stroke-width="0.571429" stroke-miterlimit="10" stroke-linecap="round" stroke-linejoin="round"/>
<path d="M149.235 103.986L152.388 103.849" stroke="#263238" stroke-width="0.571429" stroke-miterlimit="10" stroke-linecap="round" stroke-linejoin="round"/>
<path d="M210.082 184.811C210.082 184.811 214.309 186.711 215.086 187.259C215.863 187.807 217.999 191.141 218.179 192.182C218.359 193.223 218.141 193.65 217.491 193.275C216.841 192.901 214.997 190.686 213.566 189.179C212.136 187.672 210.315 186.72 209.867 185.823C209.42 184.926 209.371 184.642 210.082 184.811Z" fill="white" stroke="#263238" stroke-width="0.571429" stroke-miterlimit="10" stroke-linecap="round" stroke-linejoin="round"/>
<path d="M197.411 180.286C197.411 180.286 204.377 182.561 206.823 183.297C209.27 184.034 211.064 185.463 211.757 186.117C212.45 186.77 216.297 191.13 216.712 192.412C217.127 193.694 217.711 197.072 216.993 197.389C216.274 197.707 215.549 196.866 215.231 196.147C214.914 195.429 213.936 194.245 213.936 194.245C213.936 194.245 214.798 196.995 214.65 198.374C214.502 199.753 214.069 200.601 212.943 200.796C211.817 200.991 210.521 199.089 209.634 197.309C208.746 195.53 207.581 194.378 207.581 194.378L204.849 193.111C204.849 193.111 205.646 195.486 206.689 197.045C207.731 198.605 208.955 198.973 208.522 199.821C208.089 200.669 205.991 200.839 205.014 199.655C204.035 198.471 202.462 197.197 201.607 195.605C200.751 194.013 198.659 189.735 198.659 189.735L193.079 188.767C193.079 188.767 189.816 187.785 189.607 184.342C189.398 180.898 195.902 179.387 197.411 180.286Z" fill="white" stroke="#263238" stroke-width="0.571429" stroke-miterlimit="10" stroke-linecap="round" stroke-linejoin="round"/>
<path d="M208.815 191.458C208.815 191.458 211.309 194.7 212.132 196.104C212.955 197.508 212.943 200.796 212.943 200.796" stroke="#263238" stroke-width="0.571429" stroke-miterlimit="10" stroke-linecap="round" stroke-linejoin="round"/>
<path d="M213.936 194.246L211.714 189.217" stroke="#263238" stroke-width="0.571429" stroke-miterlimit="10" stroke-linecap="round" stroke-linejoin="round"/>
<path d="M141.118 192.076C141.118 192.076 153.88 190.552 160.356 192.838C166.832 195.123 173.118 203.123 173.118 209.79C173.118 216.457 171.785 253.029 172.165 253.981C172.547 254.933 174.641 255.123 174.641 257.028C174.641 258.933 173.117 268.838 173.117 268.838C173.117 268.838 164.165 272.076 161.117 272.076C158.07 272.076 158.07 272.076 158.07 272.076C158.07 272.076 153.689 260.457 153.88 258.552C154.07 256.647 155.213 255.123 155.213 254.171C155.213 253.218 149.689 233.218 149.689 227.314C149.689 221.409 149.689 214.171 149.689 214.171L139.022 211.885C139.022 211.885 134.261 198.362 141.118 192.076Z" fill="#263238" stroke="#263238" stroke-width="0.571429" stroke-miterlimit="10" stroke-linecap="round" stroke-linejoin="round"/>
<path d="M180.926 277.409C180.926 277.409 175.212 270.742 172.926 267.124C170.641 263.505 166.45 261.409 163.974 263.314C161.498 265.218 161.498 269.981 161.498 269.981L157.308 269.219C157.308 269.219 158.832 274.362 159.593 277.219C160.355 280.076 161.498 281.981 166.45 282.743C171.403 283.505 179.593 284.076 181.879 281.79C184.165 279.505 180.926 277.409 180.926 277.409Z" fill="white" stroke="#263238" stroke-width="0.571429" stroke-miterlimit="10" stroke-linecap="round" stroke-linejoin="round"/>
<path d="M181.879 281.79C182.803 280.866 182.818 279.975 182.515 279.238C181.653 279.734 180.563 280.285 179.212 280.838C175.022 282.552 169.307 282.171 164.545 280.648C162.177 279.89 160.705 278.849 159.822 277.995C160.605 280.421 161.962 282.053 166.45 282.743C171.403 283.505 179.593 284.076 181.879 281.79Z" fill="white" stroke="#263238" stroke-width="0.571429" stroke-miterlimit="10" stroke-linecap="round" stroke-linejoin="round"/>
<path d="M188.409 181.393C188.409 181.393 188.032 185.913 187.907 187.293C187.781 188.674 188.534 190.306 189.036 190.557C189.539 190.808 189.789 190.306 189.789 189.176C189.789 188.046 189.789 187.67 189.789 187.293C189.79 186.917 188.409 181.393 188.409 181.393Z" fill="white" stroke="#263238" stroke-width="0.571429" stroke-miterlimit="10" stroke-linecap="round" stroke-linejoin="round"/>
<path d="M195.918 172.118C195.918 170.156 198.535 166.013 198.535 166.013L199.547 152.124L198.866 149.437C197.703 149.353 196.664 149.278 195.813 149.215C194.606 153.262 190.372 167.48 189.812 169.72C189.158 172.336 188.504 177.788 188.504 178.878C188.504 179.968 188.504 184.984 188.94 186.946C189.376 188.908 192.428 190.871 192.428 190.871C192.428 190.871 196.542 190.868 197.195 190.432C197.85 189.996 196.191 188.549 196.191 188.549C195.945 188.554 195.223 183.168 196.789 181.495C198.033 180.165 201.586 181.713 201.586 181.713C201.586 181.713 200.714 179.314 199.624 177.134C198.535 174.953 195.918 174.081 195.918 172.118Z" fill="white" stroke="#263238" stroke-width="0.571429" stroke-miterlimit="10" stroke-linecap="round" stroke-linejoin="round"/>
<path d="M196.569 190.808C196.569 190.808 193.305 189.05 192.928 188.297C192.551 187.544 192.426 181.769 192.426 181.769" stroke="#263238" stroke-width="0.571429" stroke-miterlimit="10" stroke-linecap="round" stroke-linejoin="round"/>
<path d="M193.178 190.808C193.178 190.808 190.542 188.046 190.542 187.042C190.542 186.037 189.915 181.769 189.915 181.769" stroke="#263238" stroke-width="0.571429" stroke-miterlimit="10" stroke-linecap="round" stroke-linejoin="round"/>
<path d="M130.767 193.704L108.991 193.447C108.437 193.401 107.876 193.384 107.303 193.427L103.624 193.704C97.5077 194.165 93.0374 199.673 93.8454 205.753L103.538 278.688C103.68 279.755 104.591 280.553 105.667 280.553H115.943H132.81L130.767 193.704Z" fill="#333333" stroke="#263238" stroke-width="0.571429" stroke-miterlimit="10" stroke-linecap="round" stroke-linejoin="round"/>
<path d="M143.085 280.552C144.264 280.552 145.222 279.602 145.233 278.424L145.918 204.21C146 197.945 140.693 192.957 134.445 193.427L130.766 193.705C124.65 194.165 120.18 199.673 120.988 205.753L130.681 278.688C130.822 279.755 131.733 280.553 132.81 280.553H143.085V280.552Z" fill="#666666" stroke="#263238" stroke-width="0.571429" stroke-miterlimit="10" stroke-linecap="round" stroke-linejoin="round"/>
<path d="M123.786 134.742C123.786 134.742 115.786 134.933 112.738 139.504C109.691 144.075 107.214 159.694 106.643 163.694C106.072 167.694 103.596 181.79 104.548 184.456C105.5 187.123 107.976 187.503 112.548 187.694C117.119 187.885 119.214 185.409 120.166 182.551C121.119 179.694 123.595 153.027 123.595 153.027" fill="#92E3A9"/>
<path d="M123.786 134.742C123.786 134.742 115.786 134.933 112.738 139.504C109.691 144.075 107.214 159.694 106.643 163.694C106.072 167.694 103.596 181.79 104.548 184.456C105.5 187.123 107.976 187.503 112.548 187.694C117.119 187.885 119.214 185.409 120.166 182.551C121.119 179.694 123.595 153.027 123.595 153.027" stroke="#263238" stroke-width="0.571429" stroke-miterlimit="10" stroke-linecap="round" stroke-linejoin="round"/>
<path d="M112.929 174.933C114.072 175.314 124.357 177.79 125.119 179.886C125.881 181.981 124.548 183.124 124.548 183.124C124.548 183.124 121.119 191.314 118.072 192.077C115.024 192.838 108.167 190.743 104.739 189.219C101.31 187.695 104.739 176.077 105.12 175.505" fill="#92E3A9"/>
<path d="M112.929 174.933C114.072 175.314 124.357 177.79 125.119 179.886C125.881 181.981 124.548 183.124 124.548 183.124C124.548 183.124 121.119 191.314 118.072 192.077C115.024 192.838 108.167 190.743 104.739 189.219C101.31 187.695 104.739 176.077 105.12 175.505" stroke="#263238" stroke-width="0.571429" stroke-miterlimit="10" stroke-linecap="round" stroke-linejoin="round"/>
<path d="M126.834 185.409C126.834 185.409 127.595 184.266 126.643 183.695C125.691 183.123 124.167 181.409 122.453 181.409C120.739 181.409 117.691 182.933 116.929 186.171C116.167 189.409 116.739 191.695 118.072 192.075C119.405 192.457 122.262 193.218 123.596 193.218C124.929 193.218 125.882 190.361 126.072 189.79C126.262 189.219 126.834 185.409 126.834 185.409Z" fill="#92E3A9" stroke="#263238" stroke-width="0.571429" stroke-miterlimit="10" stroke-linecap="round" stroke-linejoin="round"/>
<path d="M139.215 186.552C139.215 186.552 142.453 190.552 143.977 191.314C145.501 192.075 146.834 193.028 145.691 194.171C144.548 195.314 141.881 194.742 140.738 193.218C139.595 191.695 139.215 186.552 139.215 186.552Z" fill="white" stroke="#263238" stroke-width="0.571429" stroke-miterlimit="10" stroke-linecap="round" stroke-linejoin="round"/>
<path d="M128.167 185.409C128.167 185.409 137.12 184.076 138.453 184.076C139.786 184.076 141.882 193.6 142.072 195.123C142.262 196.647 143.024 197.599 142.072 198.362C141.119 199.123 140.548 199.123 140.548 199.123C140.548 199.123 139.405 200.076 138.834 200.266C138.262 200.457 136.167 200.076 136.167 200.076C136.167 200.076 135.976 200.838 134.452 200.647C132.928 200.457 127.786 193.981 127.786 193.981C127.786 193.981 123.976 193.028 122.452 191.695C120.928 190.362 121.5 188.076 122.452 186.552C123.405 185.028 125.5 184.647 125.5 184.647L128.167 185.409Z" fill="white" stroke="#263238" stroke-width="0.571429" stroke-miterlimit="10" stroke-linecap="round" stroke-linejoin="round"/>
<path d="M136.549 188.457L141.311 198.742" stroke="#263238" stroke-width="0.571429" stroke-miterlimit="10" stroke-linecap="round" stroke-linejoin="round"/>
<path d="M132.93 190.171L138.834 200.266" stroke="#263238" stroke-width="0.571429" stroke-miterlimit="10" stroke-linecap="round" stroke-linejoin="round"/>
<path d="M136.167 200.076L130.644 192.076" stroke="#263238" stroke-width="0.571429" stroke-miterlimit="10" stroke-linecap="round" stroke-linejoin="round"/>
</svg>
