<svg width="320" height="320" viewBox="0 0 320 320" fill="none" xmlns="http://www.w3.org/2000/svg">
<rect width="320" height="320" rx="11.4286" fill="white"/>
<rect x="0.357143" y="0.357143" width="319.286" height="319.286" rx="11.0714" stroke="black" stroke-opacity="0.3" stroke-width="0.714286"/>
<path d="M246.896 238.608H266.986V232.214H246.896V238.608Z" fill="#EBEBEB"/>
<path d="M197.993 175.534H218.083V169.14H197.993V175.534Z" fill="#EBEBEB"/>
<path d="M258.104 246.671L268.218 246.503L273.217 246.435L278.194 246.41L277.934 246.671L277.909 240.277L278.194 240.562L268.149 240.523L263.126 240.474L258.104 240.412L258.24 240.277L258.104 246.671ZM258.104 246.671L257.969 240.277L257.966 240.143L258.105 240.141L263.127 240.079L268.149 240.03L278.194 239.991L278.481 239.99L278.48 240.277L278.455 246.671L278.454 246.933L278.194 246.931L273.127 246.907L268.08 246.838L258.104 246.671Z" fill="#EBEBEB"/>
<path d="M130.567 90.7828L140.681 90.6154L145.68 90.5468L150.657 90.5223L150.397 90.7828L150.372 84.3885L150.657 84.6737L140.612 84.6348L135.589 84.5863L130.567 84.524L130.702 84.3885L130.567 90.7828ZM130.567 90.7828L130.432 84.3885L130.429 84.2543L130.567 84.2525L135.589 84.1903L140.612 84.1417L150.657 84.1028L150.943 84.1017L150.942 84.3885L150.917 90.7828L150.916 91.0445L150.656 91.0434L145.589 91.0188L140.542 90.9503L130.567 90.7828Z" fill="#EBEBEB"/>
<path d="M141.774 98.8451L151.888 98.6777L156.887 98.6091L161.864 98.5846L161.603 98.8451L161.578 92.4508L161.863 92.736L151.818 92.6971L146.796 92.6486L141.773 92.5863L141.909 92.4508L141.774 98.8451ZM141.774 98.8451L141.639 92.4508L141.636 92.3171L141.774 92.3154L146.796 92.2531L151.819 92.2046L161.864 92.1657L162.151 92.1646L162.149 92.4514L162.124 98.8457L162.123 99.1074L161.864 99.1063L156.796 99.0817L151.749 99.0131L141.774 98.8451Z" fill="#EBEBEB"/>
<path d="M152.937 90.7825H173.027V84.3882H152.937V90.7825Z" fill="#EBEBEB"/>
<path d="M41.8048 246.671H61.8945V240.276H41.8048V246.671Z" fill="#EBEBEB"/>
<path d="M53.0103 49.2134H73.1006V42.8191H53.0103V49.2134Z" fill="#EBEBEB"/>
<path d="M41.8033 57.2759L51.9176 57.1084L56.9159 57.0399L61.8936 57.0153L61.633 57.2759L61.6079 50.8816L61.893 51.1667L51.8479 51.1279L46.8256 51.0793L41.8033 51.017L41.9388 50.8816L41.8033 57.2759ZM41.8033 57.2759L41.6679 50.8816L41.665 50.7473L41.8033 50.7456L46.8256 50.6833L51.8479 50.6347L61.893 50.5959L62.1799 50.5947L62.1788 50.8816L62.1536 57.2759L62.1525 57.5376L61.893 57.5364L56.8256 57.5119L51.7788 57.4433L41.8033 57.2759Z" fill="#EBEBEB"/>
<path d="M246.897 49.2131L257.011 49.0457L262.01 48.9771L266.987 48.9526L266.727 49.2131L266.702 42.8188L266.987 43.104L256.942 43.0651L251.919 43.0166L246.897 42.9543L247.033 42.8188L246.897 49.2131ZM246.897 49.2131L246.762 42.8188L246.759 42.6846L246.898 42.6828L251.92 42.6206L256.942 42.572L266.987 42.5331L267.274 42.532L267.272 42.8183L267.247 49.2126L267.246 49.4743L266.987 49.4731L261.919 49.4486L256.873 49.38L246.897 49.2131Z" fill="#EBEBEB"/>
<path d="M196.437 41.8022V153.219H268.855V41.8022H196.437ZM266.182 150.547H199.109V44.4748H266.182V150.547Z" fill="#EBEBEB"/>
<path d="M266.182 44.4749H199.108V150.547H266.182V44.4749Z" fill="white"/>
<path d="M199.106 98.8456L266.18 98.8456V96.1742L199.106 96.1742V98.8456Z" fill="#EBEBEB"/>
<path d="M191.513 160.887H273.771V153.219H191.513V160.887Z" fill="#DBDBDB"/>
<path d="M199.106 44.4719H266.18V113.099H199.106V44.4719ZM263.706 46.9462H201.581V110.625H263.706V46.9462Z" fill="#DBDBDB"/>
<path d="M244.773 44.4719H243.438V110.625H244.773V44.4719Z" fill="#DBDBDB"/>
<path d="M221.849 44.4719H220.514V110.625H221.849V44.4719Z" fill="#DBDBDB"/>
<path d="M51.1504 41.8026V153.22H123.569V41.8026H51.1504ZM120.896 150.548H53.823V44.4752H120.896V150.548Z" fill="#EBEBEB"/>
<path d="M120.895 44.4752H53.8223V150.548H120.895V44.4752Z" fill="white"/>
<path d="M53.8208 98.8459L120.895 98.8459V96.1745L53.8208 96.1745V98.8459Z" fill="#EBEBEB"/>
<path d="M46.228 160.887H128.486V153.219H46.228V160.887Z" fill="#DBDBDB"/>
<path d="M53.8193 44.4723H120.893V113.1H53.8193V44.4723ZM118.419 46.9466H56.2936V110.625H118.419V46.9466Z" fill="#DBDBDB"/>
<path d="M99.4858 44.4723H98.1504V110.625H99.4858V44.4723Z" fill="#DBDBDB"/>
<path d="M76.562 44.4723H75.2266V110.625H76.562V44.4723Z" fill="#DBDBDB"/>
<path d="M40.8301 271.406L70.6227 271.266L100.415 271.216L160 271.121L219.586 271.215L249.378 271.266L279.171 271.406L249.378 271.545L219.586 271.595L160 271.69L100.415 271.595L70.6227 271.545L40.8301 271.406Z" fill="#263238"/>
<path d="M278.818 187.478H206.309V197.77H278.818V187.478Z" fill="#455A64"/>
<path d="M277.089 197.769H208.038V201.111H277.089V197.769Z" fill="#455A64"/>
<path d="M277.089 197.769H208.038V198.875H277.089V197.769Z" fill="#263238"/>
<path d="M208.718 271.69H205.957L213.993 201.111H221.04L208.718 271.69Z" fill="#455A64"/>
<path d="M221.039 201.113L220.213 205.835H213.458L213.993 201.113H221.039Z" fill="#263238"/>
<path d="M276.409 271.69H279.17L271.134 201.111H264.087L276.409 271.69Z" fill="#455A64"/>
<path d="M264.089 201.113L264.914 205.835H271.669L271.134 201.113H264.089Z" fill="#263238"/>
<path d="M260.335 229.183C259.848 231.251 259.334 233.287 259.234 235.409C259.29 235.513 259.28 235.898 259.217 235.793C259.205 236.135 258.684 236.073 258.684 235.736C258.689 235.516 258.695 235.296 258.705 235.082C257.489 233.572 255.722 232.615 254.294 231.302C253.14 230.24 252.314 228.973 251.877 227.455C250.693 223.373 251.803 219.048 250.378 214.976C249.151 211.466 246.948 208.414 245.084 205.234C243.117 201.871 241.665 198.336 241.52 194.397C241.404 191.38 241.764 187.36 244.061 185.101C246.496 182.703 249.515 184.5 251.381 186.638C256.788 192.843 259.289 200.684 260.301 208.702C260.858 213.14 261.437 217.604 261.304 222.083C261.227 224.491 260.881 226.844 260.335 229.183Z" fill="#FFC727"/>
<path d="M259.258 237.038C259.538 232.844 259.52 228.644 259.109 224.466C259.116 224.451 259.13 224.441 259.13 224.421C259.198 221.023 259.468 217.638 259.334 214.236C259.19 210.54 258.648 206.918 257.838 203.312C257.828 203.27 257.764 203.28 257.772 203.323C258.438 206.84 258.826 210.429 258.954 214.006C259.023 215.925 259.01 217.847 258.908 219.765C258.875 220.389 258.818 221.019 258.776 221.648C258.776 221.646 258.775 221.644 258.775 221.642C257.405 212.079 253.875 203.006 248.665 194.888C248.594 194.777 248.399 194.896 248.468 195.009C252.22 201.135 254.986 207.864 256.697 214.846C254.097 210.029 250.17 206.068 247.257 201.44C247.241 201.414 247.199 201.44 247.212 201.467C249.83 206.62 254.154 210.683 256.91 215.76C257.388 217.829 257.779 219.917 258.071 222.018C258.471 224.904 258.659 227.806 258.698 230.713C257.114 227.753 255.47 224.922 254.175 221.791C254.14 221.708 254.02 221.765 254.048 221.848C255.151 225.1 256.632 228.603 258.706 231.376C258.718 233.434 258.656 235.493 258.535 237.549C258.212 243.038 257.275 248.453 256.841 253.923C256.828 254.088 257.06 254.107 257.092 253.95C258.232 248.429 258.883 242.661 259.258 237.038Z" fill="#263238"/>
<path d="M253.43 194.712C253.413 194.672 253.354 194.7 253.368 194.74C254.371 197.512 254.937 200.32 255.662 203.162C255.695 203.292 255.882 203.264 255.868 203.128C255.574 200.245 254.545 197.369 253.43 194.712Z" fill="#263238"/>
<path d="M278.885 206.33C278.236 207.958 277.429 209.535 276.58 211.067C274.774 214.345 272.892 217.349 272.551 221.166C272.398 222.87 272.345 224.582 271.825 226.225C271.377 227.646 270.648 228.958 269.809 230.185C267.853 233.035 265.408 235.49 263.594 238.448C261.708 241.522 260.317 244.903 259.465 248.405C259.42 248.597 259.118 248.545 259.163 248.354C259.17 248.338 259.172 248.326 259.174 248.31C259.168 248.3 259.157 248.29 259.157 248.269C258.869 240.085 259.522 231.836 262.019 223.996C263.111 220.568 264.457 217.157 265.985 213.899C267.322 211.056 268.989 208.322 271.337 206.199C272.86 204.827 276.164 202.226 278.333 203.602C279.373 204.264 279.295 205.309 278.885 206.33Z" fill="#FFC727"/>
<path d="M270.659 224.884C269.256 227.284 267.591 229.517 265.903 231.721C265.111 232.756 264.307 233.782 263.516 234.818C263.143 235.308 262.724 235.794 262.38 236.32C262.597 235.46 262.807 234.598 263.027 233.738C264.083 229.603 265.098 225.431 266.671 221.455C268.208 217.569 270.253 213.919 272.354 210.315C272.409 210.22 272.256 210.152 272.2 210.243C270.471 213.087 268.716 215.928 267.262 218.926C266.449 220.601 265.767 222.324 265.166 224.078C265.873 220.318 266.72 216.709 267.956 213.07C267.967 213.038 267.921 213.014 267.907 213.047C266.399 216.616 265.313 220.629 265.011 224.497C265.011 224.505 265.014 224.51 265.017 224.516C264.662 225.578 264.336 226.652 264.032 227.733C262.743 232.312 261.611 236.938 260.561 241.581C260.579 238.516 260.772 235.505 261.351 232.48C261.364 232.411 261.26 232.394 261.243 232.462C260.483 235.577 260.139 238.856 260.453 242.056C260.056 243.822 259.67 245.589 259.293 247.357C258.488 251.13 257.5 254.97 257.03 258.801C257.018 258.9 257.156 258.921 257.181 258.826C257.743 256.761 258.081 254.621 258.541 252.53C259.001 250.433 259.476 248.34 259.964 246.249C260.675 243.204 261.419 240.167 262.177 237.133C262.684 236.021 263.665 235.033 264.399 234.101C265.204 233.077 266.01 232.053 266.794 231.013C268.254 229.075 269.593 227.062 270.732 224.918C270.756 224.872 270.685 224.841 270.659 224.884Z" fill="#263238"/>
<path d="M271.008 221.384C269.233 223.662 267.622 226.184 266.354 228.78C266.337 228.813 266.389 228.849 266.41 228.816C267.977 226.361 269.517 223.888 271.08 221.43C271.106 221.389 271.038 221.346 271.008 221.384Z" fill="#263238"/>
<path d="M236.167 214.09C237.228 215.917 238.439 218.111 237.983 220.304C237.695 221.692 236.678 222.819 236.495 224.235C236.084 227.361 239.2 229.427 241.454 230.904C247.074 234.592 254.782 237.879 255.803 245.409C255.842 245.676 256.303 245.609 256.27 245.348C256.27 245.331 256.264 245.315 256.259 245.298C256.27 245.281 256.287 245.276 256.287 245.253C257.014 241.439 256.998 237.551 256.181 233.753C255.343 229.871 253.649 226.384 251.65 222.975C248.268 217.205 244.686 211.296 239.571 206.876C238.155 205.655 235.256 203.456 234.129 206.216C233.035 208.898 234.868 211.863 236.167 214.09Z" fill="#FFC727"/>
<path d="M241.311 226.323C245.037 230.357 250.961 232.618 254.169 237.136C252.268 230.211 249.123 223.984 244.287 218.575C244.163 218.436 244.357 218.239 244.492 218.369C248.032 221.772 250.654 225.749 252.567 230.064C251.707 226.983 250.503 224.069 249.09 221.172C249.037 221.063 249.191 220.968 249.254 221.075C251.055 224.146 252.253 227.594 253.002 231.071C257.228 241.302 257.62 253.301 256.734 264.084C256.722 264.238 256.487 264.243 256.491 264.084C256.734 255.586 256.597 246.94 254.56 238.64C254.518 238.467 254.47 238.296 254.426 238.124C250.937 233.26 245.039 231.005 241.246 226.387C241.21 226.343 241.271 226.28 241.311 226.323Z" fill="#263238"/>
<path d="M240.448 222.859C242.404 224.653 244.329 226.489 246.288 228.283C246.308 228.3 246.282 228.335 246.259 228.32C244.126 226.877 241.961 224.97 240.33 222.976C240.265 222.895 240.368 222.786 240.448 222.859Z" fill="#263238"/>
<path d="M240.138 215.084C241.914 217.932 243.778 220.602 245.99 223.134C246.019 223.168 245.974 223.215 245.941 223.183C243.566 220.895 241.456 218.128 240.033 215.145C240 215.076 240.096 215.017 240.138 215.084Z" fill="#263238"/>
<path d="M248.946 271.69H266.079L263.77 248.639H251.585L248.946 271.69Z" fill="#455A64"/>
<path d="M251.154 252.386H264.147L263.771 248.639H251.583L251.154 252.386Z" fill="#263238"/>
<path d="M249.482 249.766H265.542V246.085H249.482V249.766Z" fill="#455A64"/>
<path d="M63.0878 114.519H60.001V268.603H63.0878V114.519Z" fill="#263238"/>
<path d="M114.163 60.0288L40.8301 133.362L43.0128 135.544L116.346 62.2116L114.163 60.0288Z" fill="#263238"/>
<path d="M44.8154 268.604V271.69H78.2743V268.604H44.8154Z" fill="#263238"/>
<path d="M116.659 71.4051L127 61.6908L117.262 53.7805L109.518 61.0639L116.659 71.4051Z" fill="#FFC727"/>
<path opacity="0.1" d="M127 61.6891L116.659 71.4034L113.819 67.2914L122.684 58.1857L127 61.6891Z" fill="black"/>
<path d="M115.589 87.6297L143.5 61.4022L130.169 54.2234L109.252 73.8777L115.589 87.6297Z" fill="#FFC727"/>
<path opacity="0.6" d="M224.464 170.608C224.464 170.608 214.548 166.039 214.548 159.916C214.548 153.792 227.408 149.85 227.408 145.064C227.408 140.278 221.8 137.462 221.8 137.462C221.8 137.462 230.659 140.489 230.659 146.542C230.659 152.596 222.181 156.698 221.37 160.55C220.244 165.899 224.464 170.608 224.464 170.608Z" fill="#DBDBDB"/>
<path opacity="0.6" d="M223.975 170.608C223.975 170.608 233.891 167.016 233.891 162.201C233.891 157.386 221.031 154.287 221.031 150.524C221.031 146.761 226.639 144.547 226.639 144.547C226.639 144.547 217.78 146.926 217.78 151.686C217.78 156.445 227.516 159.717 228.212 163.584C228.895 167.377 223.975 170.608 223.975 170.608Z" fill="#DBDBDB"/>
<path d="M229.074 186.006H219.642V187.478H229.074V186.006Z" fill="#FFC727"/>
<path opacity="0.1" d="M229.074 186.006H219.642V186.976H229.074V186.006Z" fill="black"/>
<path d="M240.271 182.048C239.156 183.615 237.181 184.738 234.96 184.319C234.644 184.26 234.327 184.171 234.003 184.045C233.563 183.875 233.12 183.646 232.669 183.343L233.867 181.567C234.111 181.736 234.347 181.868 234.575 181.969C236.822 182.987 238.243 181.216 238.523 180.811C239.816 178.994 240.279 174.844 238.969 173.247C238.882 173.13 238.504 172.942 236.985 173.266C236.704 173.329 236.387 173.399 236.027 173.499C235.628 173.612 235.391 173.677 235.164 173.685L235.126 172.618L235.022 171.553C235.12 171.535 235.273 171.491 235.472 171.435C236.046 171.282 236.818 171.071 237.617 170.99C238.735 170.874 239.907 171.008 240.626 171.891C242.754 174.498 241.89 179.77 240.271 182.048Z" fill="#FFC727"/>
<path opacity="0.1" d="M233.867 181.567C234.111 181.736 234.347 181.868 234.575 181.969L234.003 184.045C233.563 183.875 233.12 183.646 232.669 183.343L233.867 181.567Z" fill="black"/>
<path opacity="0.1" d="M237.617 170.99L236.985 173.266C236.705 173.329 236.387 173.399 236.027 173.499C235.628 173.612 235.391 173.677 235.165 173.685L235.126 172.618L235.022 171.553C235.12 171.535 235.273 171.491 235.473 171.435C236.046 171.282 236.818 171.072 237.617 170.99Z" fill="black"/>
<path d="M211.809 168.213C211.809 168.213 211.89 168.914 212.052 170.021C212.082 170.191 212.103 170.375 212.133 170.56C212.244 171.321 212.391 172.221 212.561 173.188C212.569 173.24 212.583 173.299 212.591 173.358C212.842 174.746 213.145 176.259 213.499 177.684C213.514 177.75 213.536 177.81 213.55 177.869C213.646 178.253 213.75 178.629 213.853 178.991C213.957 179.353 214.067 179.707 214.178 180.046C214.407 180.726 214.643 181.346 214.894 181.87C216.851 185.915 219.582 186.366 221.273 186.366C222.97 186.366 222.815 186.366 224.358 186.366C225.901 186.366 225.739 186.366 227.444 186.366C229.134 186.366 231.866 185.915 233.815 181.87C233.874 181.744 233.934 181.611 233.993 181.471C234.037 181.375 234.081 181.271 234.118 181.168C234.162 181.065 234.207 180.961 234.244 180.85C234.274 180.777 234.303 180.695 234.333 180.622C234.709 179.588 235.049 178.37 235.344 177.115C235.359 177.063 235.374 177.019 235.381 176.967C235.389 176.945 235.389 176.93 235.396 176.909C235.514 176.407 235.625 175.897 235.728 175.395C235.905 174.569 236.06 173.757 236.193 172.981C236.252 172.627 236.311 172.28 236.37 171.947C236.385 171.851 236.4 171.763 236.415 171.674C236.452 171.453 236.489 171.231 236.518 171.025C236.548 170.818 236.578 170.618 236.607 170.427C236.637 170.235 236.658 170.05 236.688 169.881C236.836 168.854 236.91 168.212 236.91 168.212H211.809V168.213Z" fill="#FFC727"/>
<path opacity="0.1" d="M212.591 173.358C212.842 174.746 213.145 176.259 213.499 177.684C213.654 177.707 213.809 177.736 213.964 177.773C214.71 177.95 215.441 178.253 216.083 178.688C216.733 179.11 217.309 179.641 217.855 180.165C218.409 180.689 218.955 181.221 219.575 181.627C220.195 182.033 220.903 182.276 221.642 182.299C222.358 182.336 223.007 181.915 223.524 181.406C224.055 180.882 224.498 180.268 224.934 179.648C225.369 179.028 225.805 178.394 226.322 177.803C226.58 177.515 226.868 177.234 227.193 177.005C227.362 176.894 227.554 176.806 227.739 176.724C227.946 176.687 228.145 176.591 228.351 176.621C228.772 176.584 229.171 176.747 229.533 176.916C229.879 177.116 230.197 177.344 230.478 177.618C231.054 178.142 231.541 178.74 232.05 179.301C232.559 179.84 233.098 180.431 233.8 180.6C233.977 180.645 234.154 180.652 234.331 180.623C234.708 179.589 235.047 178.371 235.343 177.116C235.143 177.064 234.937 177.012 234.738 176.946C234.007 176.703 233.313 176.326 232.715 175.831C232.11 175.344 231.593 174.768 231.091 174.192C230.589 173.616 230.102 173.034 229.526 172.568C228.95 172.103 228.263 171.793 227.533 171.697C226.824 171.594 226.137 171.948 225.569 172.406C224.993 172.871 224.498 173.439 224.003 174.015C223.501 174.591 223.007 175.181 222.438 175.72C222.158 175.986 221.841 176.23 221.493 176.428C221.316 176.524 221.117 176.591 220.925 176.658C220.718 176.672 220.504 176.746 220.297 176.702C219.876 176.694 219.5 176.487 219.16 176.288C218.835 176.059 218.533 175.794 218.281 175.498C217.757 174.922 217.336 174.28 216.878 173.675C216.428 173.084 215.948 172.449 215.269 172.206C214.575 171.962 213.837 172.346 213.261 172.804C213.034 172.982 212.812 173.166 212.591 173.358Z" fill="black"/>
<path d="M212.562 173.188C212.569 173.24 212.584 173.299 212.591 173.358C212.813 173.166 213.034 172.981 213.263 172.804C213.839 172.346 214.578 171.962 215.271 172.206C215.951 172.449 216.43 173.085 216.88 173.675C217.338 174.28 217.759 174.922 218.283 175.498C218.534 175.794 218.837 176.059 219.162 176.289C219.502 176.488 219.878 176.695 220.299 176.702C220.506 176.746 220.72 176.672 220.927 176.658C221.119 176.591 221.318 176.525 221.495 176.429C221.842 176.229 222.16 175.986 222.44 175.72C223.009 175.181 223.503 174.59 224.006 174.015C224.5 173.439 224.995 172.87 225.571 172.406C226.139 171.948 226.826 171.594 227.535 171.697C228.266 171.793 228.952 172.103 229.528 172.569C230.104 173.034 230.591 173.617 231.093 174.193C231.595 174.769 232.112 175.344 232.717 175.831C233.315 176.326 234.009 176.702 234.74 176.946C234.939 177.013 235.146 177.065 235.345 177.116C235.36 177.065 235.375 177.02 235.382 176.969C235.19 176.91 234.991 176.85 234.799 176.777C233.352 176.289 232.252 175.189 231.314 174.008C230.827 173.425 230.34 172.819 229.727 172.317C229.122 171.823 228.368 171.475 227.586 171.365C226.744 171.239 225.954 171.653 225.356 172.133C224.736 172.62 224.226 173.203 223.724 173.779C223.223 174.355 222.743 174.945 222.204 175.462C221.665 175.957 221.03 176.444 220.328 176.363C219.62 176.326 219.007 175.839 218.52 175.285C218.018 174.731 217.582 174.104 217.11 173.499C216.63 172.915 216.128 172.251 215.338 171.985C214.947 171.845 214.519 171.911 214.15 172.051C213.78 172.191 213.455 172.421 213.153 172.664C212.946 172.834 212.754 173.004 212.562 173.188Z" fill="white"/>
<path d="M213.499 177.684C213.514 177.75 213.536 177.81 213.55 177.869C213.676 177.891 213.801 177.92 213.92 177.95C215.404 178.297 216.607 179.279 217.662 180.364C218.201 180.903 218.74 181.457 219.397 181.892C220.054 182.328 220.829 182.601 221.627 182.63C222.469 182.682 223.222 182.195 223.768 181.656C224.337 181.11 224.787 180.482 225.237 179.862C225.673 179.235 226.094 178.6 226.588 178.039C227.068 177.493 227.658 176.946 228.36 176.954C229.069 176.924 229.726 177.353 230.265 177.854C230.818 178.357 231.313 178.94 231.845 179.493C232.376 180.025 232.937 180.638 233.749 180.829C233.912 180.866 234.081 180.873 234.244 180.851C234.274 180.778 234.303 180.697 234.333 180.623C234.156 180.653 233.978 180.645 233.801 180.601C233.1 180.431 232.561 179.84 232.052 179.301C231.542 178.74 231.055 178.142 230.479 177.618C230.198 177.345 229.881 177.116 229.534 176.917C229.172 176.747 228.773 176.585 228.353 176.621C228.146 176.592 227.946 176.688 227.74 176.725C227.556 176.806 227.364 176.894 227.194 177.005C226.869 177.234 226.581 177.515 226.323 177.803C225.806 178.394 225.37 179.029 224.935 179.649C224.5 180.269 224.057 180.882 223.525 181.406C223.009 181.915 222.359 182.336 221.643 182.299C220.905 182.277 220.196 182.033 219.576 181.627C218.956 181.221 218.41 180.689 217.856 180.165C217.31 179.641 216.734 179.11 216.084 178.689C215.442 178.253 214.711 177.95 213.965 177.773C213.809 177.736 213.654 177.706 213.499 177.684Z" fill="white"/>
<path d="M113.647 236.224L70.0166 271.406H72.4743L122.865 236.224H113.647Z" fill="#C7C7C7"/>
<path d="M117.747 236.224L96.1875 271.406H98.6458L125.07 236.224H117.747Z" fill="#C7C7C7"/>
<path d="M128.318 236.224L149.877 271.406H147.419L120.994 236.224H128.318Z" fill="#C7C7C7"/>
<path d="M132.084 236.224L175.714 271.406H173.256L122.865 236.224H132.084Z" fill="#C7C7C7"/>
<path d="M204.904 223.319V213.026L144.988 210.568L113.341 126.071H40.8271L66.4831 223.319L127.782 240.526H131.623L204.904 223.319Z" fill="#455A64"/>
<path d="M40.8271 126.071H49.1231L75.8546 214.716L130.086 230.079L204.904 213.026V223.319L131.623 240.526H127.782L66.4831 223.319L40.8271 126.071Z" fill="#37474F"/>
<path d="M248.968 271.053C247.035 271.097 196.894 255.597 195.358 253.801C195.192 253.602 195.975 246.178 197.27 240.283C197.33 240.002 179.464 216.593 179.464 216.593L211.767 204.027L227.219 236.046L231.24 244.372C231.24 244.372 247.966 261.187 249.447 263.341C250.911 265.497 250.902 271.009 248.968 271.053Z" fill="#EBEBEB"/>
<path d="M250.38 271.335C248.365 271.389 196.019 255.41 194.408 253.539C193.793 252.833 194.729 249.594 197.27 240.283L231.588 244.416C231.588 244.416 249.3 261.048 250.847 263.29C252.382 265.527 252.395 271.281 250.38 271.335Z" fill="#FFC727"/>
<path d="M250.269 269.012C241.56 266.118 206.161 255.268 197.332 253.069C197.261 253.05 197.246 253.099 197.316 253.124C205.885 256.181 241.371 266.744 250.226 269.156C250.412 269.206 250.453 269.073 250.269 269.012Z" fill="#263238"/>
<path d="M248.055 260.379C246 259.659 243.664 260.026 242.151 260.92C240.697 261.777 239.253 263.168 238.76 265.006C238.746 265.058 238.842 265.089 238.867 265.038C240.416 261.757 244.46 259.694 248.021 260.489C248.093 260.505 248.125 260.404 248.055 260.379Z" fill="#263238"/>
<path d="M235.132 247.878C231.635 246.757 227.185 246.754 224.125 248.96C224.007 249.046 224.13 249.213 224.25 249.191C227.925 248.524 231.315 248.225 235.06 248.329C235.325 248.336 235.382 247.958 235.132 247.878Z" fill="#263238"/>
<path d="M237.521 249.762C234.023 248.642 229.573 248.638 226.514 250.845C226.395 250.93 226.519 251.097 226.639 251.076C230.314 250.408 233.704 250.11 237.449 250.213C237.713 250.221 237.771 249.843 237.521 249.762Z" fill="#263238"/>
<path d="M239.909 251.647C236.411 250.526 231.961 250.523 228.902 252.729C228.783 252.814 228.906 252.982 229.027 252.96C232.702 252.293 236.092 251.994 239.837 252.098C240.101 252.105 240.159 251.728 239.909 251.647Z" fill="#263238"/>
<path d="M242.299 253.532C238.802 252.41 234.351 252.408 231.292 254.613C231.174 254.699 231.297 254.866 231.418 254.844C235.092 254.177 238.482 253.878 242.227 253.982C242.491 253.99 242.549 253.612 242.299 253.532Z" fill="#263238"/>
<path d="M241.788 239.665C240.461 237.648 237.781 238.405 236.218 239.601C233.686 241.538 231.405 244.641 230.285 247.608C230.258 247.681 230.305 247.729 230.365 247.742C230.363 248.016 230.596 248.318 230.91 248.218C233.938 247.252 237.296 246.594 239.937 244.727C241.479 243.637 243.044 241.572 241.788 239.665ZM235.201 245.814C233.723 246.325 232.229 246.761 230.77 247.327C231.932 245.769 233.02 244.168 234.338 242.727C234.967 242.04 235.626 241.345 236.344 240.75C237.461 239.822 241.804 237.94 240.987 241.868C240.537 244.033 236.962 245.204 235.201 245.814Z" fill="#263238"/>
<path d="M221.162 246.246C224.076 247.65 227.496 247.742 230.643 248.193C230.969 248.24 231.148 247.904 231.101 247.633C231.157 247.61 231.196 247.555 231.157 247.488C229.56 244.746 226.797 242.065 223.979 240.574C222.239 239.654 219.471 239.352 218.496 241.561C217.574 243.65 219.46 245.427 221.162 246.246ZM219.651 243.6C218.195 239.862 222.79 241 224.046 241.729C224.852 242.197 225.618 242.773 226.351 243.346C227.89 244.549 229.228 245.947 230.632 247.292C229.099 246.975 227.554 246.793 226.011 246.533C224.174 246.224 220.454 245.661 219.651 243.6Z" fill="#263238"/>
<path d="M228.855 237.54L193.246 242.8C193.246 242.8 173.814 207.514 165.965 198.738L165.946 198.723C165.431 198.144 164.95 197.676 164.51 197.321L164.495 197.316C163.998 197.031 163.13 196.818 161.926 196.674L161.911 196.669C151.382 195.389 115.944 198.833 91.4561 197.253L102.892 181.965L107.96 175.185C135.548 172.038 169.402 160.759 184.679 168.422C201.273 176.746 228.855 237.54 228.855 237.54Z" fill="#263238"/>
<path d="M224.393 231.493C218.34 232.272 220.067 231.967 214.023 232.811C211.065 233.223 196.193 235.263 193.498 236.107C193.438 236.126 193.453 236.223 193.515 236.224C196.34 236.246 211.163 233.886 214.114 233.419C220.142 232.466 218.401 232.677 224.418 231.659C224.531 231.641 224.507 231.478 224.393 231.493Z" fill="#37474F"/>
<path d="M193.429 235.61C189.399 228.872 171.051 195.615 167.399 194.306C164.076 193.114 97.5669 194.497 96.5829 194.503C96.5126 194.504 96.5069 194.613 96.5778 194.612C104.45 194.511 165.242 194.295 166.976 194.981C170.58 196.406 192.522 234.986 193.061 235.79C193.204 236.006 193.567 235.841 193.429 235.61Z" fill="#37474F"/>
<path d="M72.8546 183.343C72.8546 183.343 70.7518 203.398 80.9278 213.373C93.1061 225.311 173.473 222.295 185.928 218.27C198.383 214.244 198.772 194.146 185.157 189.489C172.208 185.06 114.781 182.514 113.421 181.971C112.061 181.428 108.08 175.074 108.08 175.074L72.8546 183.343Z" fill="#263238"/>
<path d="M89.8624 182.778C89.8464 182.682 89.6979 182.712 89.6979 182.804C89.7087 185.336 88.7704 188.001 87.1076 189.922C85.2002 192.124 82.3882 193.357 79.8396 194.646C79.5944 194.77 79.7801 195.153 80.0339 195.077C81.587 194.611 83.1179 193.934 84.5339 193.138C85.8236 192.414 87.015 191.506 87.9184 190.324C89.5847 188.147 90.3133 185.492 89.8624 182.778Z" fill="#37474F"/>
<path d="M112.873 180.721C112.304 179.995 111.684 179.304 111.091 178.598C109.688 176.928 108.278 175.251 106.807 173.64C106.668 173.488 106.395 173.704 106.523 173.871C107.514 175.166 108.562 176.419 109.593 177.682C110.122 178.329 110.652 178.974 111.186 179.616C111.686 180.216 112.303 180.812 112.673 181.503C113.057 182.22 112.552 182.834 111.808 182.914C111.142 182.984 110.527 182.646 110.017 182.254C108.855 181.365 107.943 180.092 106.977 179.005C106.386 178.34 105.796 177.676 105.196 177.019C104.558 176.321 103.878 175.659 103.242 174.962C103.201 174.917 103.122 174.98 103.159 175.03C103.715 175.791 104.228 176.589 104.785 177.352C105.342 178.116 105.906 178.872 106.481 179.622C107.025 180.331 107.588 181.026 108.167 181.707C108.659 182.286 109.219 182.85 109.878 183.238C110.944 183.865 112.794 184 113.361 182.624C113.641 181.945 113.291 181.256 112.873 180.721Z" fill="#37474F"/>
<path d="M184.224 218.345C179.936 218.425 175.651 218.674 171.362 218.766C167.108 218.857 162.853 218.881 158.599 218.841C150.054 218.76 141.512 218.434 132.986 217.845C124.371 217.249 115.079 216.391 106.522 215.206C102.427 214.639 98.2764 214.167 94.2301 213.296C90.5787 212.511 87.2678 210.994 84.5347 208.343C78.9924 202.968 76.8375 195.064 75.9524 187.513C75.8335 186.5 75.7364 185.485 75.6541 184.468C75.6484 184.399 75.5444 184.401 75.549 184.471C76.0495 192.214 77.253 200.286 82.1233 206.511C84.2301 209.204 86.9113 211.41 90.0558 212.67C93.8884 214.205 98.1421 214.565 102.188 215.115C110.78 216.28 120.109 217.18 128.75 217.851C137.446 218.525 146.163 218.945 154.883 219.074C163.602 219.203 172.331 219.08 181.042 218.652C182.106 218.599 183.166 218.537 184.227 218.444C184.287 218.437 184.286 218.344 184.224 218.345Z" fill="#37474F"/>
<path d="M195.673 199.603C194.855 196.204 192.808 193.354 189.93 191.389C186.844 189.282 183.151 188.322 179.497 187.791C175.362 187.189 171.175 186.883 167.017 186.479C158.486 185.65 149.948 184.885 141.405 184.182C132.868 183.48 114.479 182.052 113.444 182.012C113.355 182.008 113.336 182.161 113.427 182.171C121.668 183.087 129.167 183.874 137.424 184.624C145.723 185.378 154.019 186.168 162.311 186.987C166.442 187.396 170.574 187.809 174.703 188.236C178.53 188.631 182.466 189.021 186.056 190.499C189.136 191.767 191.904 193.807 193.475 196.803C194.992 199.697 195.312 203.156 194.706 206.338C194.142 209.293 192.752 212.172 190.722 214.4C188.721 216.595 186.183 218.276 183.256 218.907C182.502 219.07 181.59 219.186 180.895 219.325C180.843 219.335 180.788 219.447 180.842 219.448C187.015 219.604 192.724 215.097 194.954 209.459C196.182 206.351 196.456 202.856 195.673 199.603Z" fill="#37474F"/>
<path d="M96.8524 133.99C100.936 150.002 109.054 169.117 112.396 172.171C116.622 176.034 142.478 181.103 143.844 181.237C146.086 181.455 150.709 158.409 148.614 158.455C143.082 158.579 126.042 156.847 124.819 155.65C123.55 154.399 114.896 144.007 105.969 132.244C99.8095 124.115 94.3187 124.055 96.8524 133.99Z" fill="#EB9481"/>
<path d="M141.745 180.277C142.12 180.456 147.439 182.973 150.711 183.837C153.153 184.482 160.23 186.149 161.207 183.531C161.875 181.747 157.829 180.277 154.99 179.173C153.495 178.592 151.634 177.086 152.047 176.123C152.77 174.441 156.621 176.021 159.162 177.417C164.077 180.117 170.654 185.031 173.555 182.501C174.651 181.545 173.311 179.883 171.37 178.27C174.501 180.13 177.83 181.637 179.089 180.623C179.811 180.046 179.827 179.276 179.396 178.408C180.356 178.695 181.196 178.614 181.768 177.979C182.746 176.906 182.22 175.369 181.085 173.807C181.435 173.762 181.747 173.576 181.981 173.187C184.026 169.899 173.176 160.859 169.48 160.078C158.605 157.767 147.222 158.519 147.222 158.519C143.058 162.015 141.737 180.27 141.745 180.277Z" fill="#EB9481"/>
<path d="M157.407 169.942C159.963 170.279 162.493 171.171 164.686 172.545C167.471 174.289 169.34 176.363 171.692 178.44C171.753 178.495 171.67 178.593 171.608 178.538C170.488 177.55 165.855 173.848 164.661 173.01C162.473 171.474 160.045 170.417 157.399 169.986C157.37 169.981 157.378 169.938 157.407 169.942Z" fill="#263238"/>
<path d="M159.312 165.305C162.172 166.014 165.103 166.73 167.773 168.011C170.695 169.413 173.011 171.757 175.288 174.011C176.655 175.365 177.994 176.748 179.297 178.163C179.352 178.222 179.273 178.32 179.215 178.261C176.904 175.93 174.523 173.667 172.074 171.482C169.77 169.427 167.218 167.873 164.305 166.843C162.664 166.262 160.981 165.808 159.301 165.356C159.271 165.347 159.279 165.297 159.312 165.305Z" fill="#263238"/>
<path d="M162.251 161.219C165.026 161.72 167.447 162.147 169.927 163.569C173.211 165.45 176.415 168.675 177.539 169.819C178.781 171.082 179.98 172.386 181.159 173.708C181.207 173.762 181.114 173.847 181.065 173.793C178.373 170.905 175.483 168.17 172.441 165.654C170.988 164.451 169.414 163.411 167.658 162.704C165.922 162.005 164.071 161.63 162.248 161.238C162.236 161.236 162.239 161.218 162.251 161.219Z" fill="#263238"/>
<path d="M146.803 156.91L139.033 183.75C139.033 183.75 116.111 177.798 111.843 173.41C107.575 169.023 99.3412 146.04 96.8127 134.865C94.2841 123.691 99.9692 123.832 105.357 130.786C110.746 137.741 124.149 154.588 124.884 154.944C125.62 155.299 146.803 156.91 146.803 156.91Z" fill="#FFC727"/>
<path d="M136.565 171.969C137.507 168.803 138.476 165.645 139.302 162.444C139.771 160.626 140.25 158.809 140.702 156.986C140.719 156.918 140.604 156.879 140.581 156.947C139.509 160.086 138.44 163.237 137.511 166.425C136.587 169.597 135.637 172.761 134.754 175.946C134.253 177.757 133.807 179.575 133.415 181.415C133.407 181.451 133.465 181.471 133.479 181.435C134.658 178.33 135.615 175.155 136.565 171.969Z" fill="#263238"/>
<path opacity="0.1" d="M135.727 182.852C129.221 181.018 115.097 176.757 111.841 173.413C107.574 169.022 99.339 146.041 96.8122 134.868C95.6013 129.502 96.2773 126.739 97.911 126.099C98.0813 126.175 98.2579 126.275 98.4339 126.381C106.845 137.947 124.307 165.554 135.727 182.852Z" fill="black"/>
<path d="M70.5394 186.816C70.668 186.947 119.121 176.334 119.569 175.769C120.196 174.975 111.537 138.542 102.401 127.668C100.117 124.949 92.8434 125.137 89.588 127.881C73.4566 141.48 70.0806 186.346 70.5394 186.816Z" fill="#FFC727"/>
<path d="M85.8239 130.488C76.1616 137.921 50.6953 167.97 56.0187 175.1C61.3799 182.281 97.8262 179.855 108.472 176.787C111.638 175.875 103.512 155.729 100.133 154.73C97.3199 153.899 81.5233 158.187 81.2387 157.271C80.917 156.238 84.4153 149.576 90.0593 137.403C96.5667 123.366 90.0913 127.205 85.8239 130.488Z" fill="#EB9481"/>
<path d="M114.983 152.382C122.024 152.562 123.803 153.69 129.826 150.686C133.778 148.715 136.733 150.393 134.047 154.119C129.655 160.214 120.523 161.889 117.19 161.558L114.983 152.382Z" fill="#EB9481"/>
<path d="M95.6084 155.982C95.6084 155.982 104.051 152.968 111.573 152.418C116.775 152.038 128.183 152.471 137.05 165.266C139.153 168.301 139.998 174.116 134.763 170.407C131.044 167.773 129.482 164.979 127.04 163.84C127.04 163.84 127.236 171.365 124.114 173.353C122.719 174.242 118.854 176.578 115.584 177.967C115.584 177.967 115.09 177.337 114.578 176.449C114.578 176.449 111.486 178.03 106.382 176.678L95.6084 155.982Z" fill="#EB9481"/>
<path d="M116.595 152.847C118.78 154.49 123.352 158.049 126.08 162.261C129.11 166.94 133.685 176.769 130.208 178.97C127.659 180.584 125.582 176.985 125.582 176.985C125.582 176.985 126.617 181.447 123.995 182.401C121.606 183.27 120.166 180.389 120.166 180.389C120.166 180.389 120.328 183.203 117.866 183.598C114.904 184.072 115.05 178.096 111.634 175.984C110.867 175.51 116.595 152.847 116.595 152.847Z" fill="#EB9481"/>
<path d="M120.602 164.638C122.404 166.519 125.399 171.842 125.637 176.883C125.642 176.997 125.559 177.062 125.532 176.959C124.091 171.466 121.696 166.649 120.558 164.666C120.543 164.64 120.582 164.617 120.602 164.638Z" fill="#263238"/>
<path d="M115.969 167.834C117.357 169.617 120.199 175.242 120.265 180.357C120.267 180.471 120.178 180.531 120.156 180.427C118.887 174.625 116.942 169.907 115.924 167.859C115.91 167.832 115.951 167.811 115.969 167.834Z" fill="#263238"/>
<path d="M127.048 163.795C129.181 164.826 130.458 166.168 132.134 167.795C132.962 168.601 133.806 169.394 134.72 170.103C135.552 170.748 136.775 171.718 137.876 171.105C138.489 170.764 138.611 169.979 138.593 169.342C138.572 168.625 138.099 167.23 137.783 166.586C137.767 166.553 137.823 166.524 137.84 166.557C138.135 167.132 138.69 168.415 138.812 169.052C138.921 169.629 138.973 170.286 138.725 170.836C138.191 172.018 136.705 171.939 135.729 171.429C135.146 171.123 134.615 170.698 134.106 170.282C133.614 169.881 133.141 169.455 132.679 169.018C131.732 168.122 130.838 167.171 129.901 166.264C128.872 165.267 128.135 164.741 127.003 163.865C126.964 163.834 127.006 163.774 127.048 163.795Z" fill="#263238"/>
<path d="M130.438 172.462C130.069 171.088 127.808 165.242 126.993 163.841C126.972 163.805 127.021 163.771 127.046 163.805C128.52 165.751 130.601 170.617 131.022 172.135C131.439 173.636 131.889 175.54 131.633 177.093C131.245 179.437 129.618 179.624 129.024 179.643C128.316 179.666 127.647 179.408 127.084 178.986C126.457 178.518 125.916 177.672 125.558 176.989C125.539 176.953 125.589 176.916 125.612 176.952C126.27 178.009 127.469 179.144 128.77 179.187C129.334 179.206 129.935 179.047 130.348 178.645C130.834 178.172 130.982 177.469 131.035 176.819C131.153 175.348 130.817 173.874 130.438 172.462Z" fill="#263238"/>
<path d="M95.6073 154.969L102.937 180.483C102.937 180.483 57.321 183.083 54.7924 174.8C52.2638 166.517 74.3038 139.378 83.4444 131.926C94.0376 123.289 94.6078 126.917 91.1587 135.555C87.5478 144.599 81.3296 157.514 81.3296 157.514L95.6073 154.969Z" fill="#FFC727"/>
<path d="M66.9206 161.599C69.1869 160.511 71.5594 159.642 73.9577 158.893C76.3332 158.152 78.7772 157.669 81.232 157.285C82.6349 157.066 84.0429 156.915 85.4532 156.754C85.496 156.749 85.5017 156.815 85.4594 156.821C82.9886 157.168 80.5372 157.734 78.1252 158.363C75.7223 158.99 73.3349 159.659 70.9566 160.373C69.6114 160.777 68.2857 161.245 66.9549 161.694C66.8926 161.715 66.8629 161.627 66.9206 161.599Z" fill="#263238"/>
<path d="M95.501 154.88C95.2701 154.901 82.5856 156.882 82.1604 157C82.2404 156.827 85.4564 150.788 85.9347 149.906C85.9821 149.818 86.0256 149.728 86.0724 149.64C86.3604 149.259 86.6513 148.879 86.9244 148.486C87.2747 147.983 87.6216 147.476 87.9684 146.971C87.9793 146.955 87.957 146.937 87.9456 146.952C87.5764 147.44 87.2061 147.928 86.8393 148.419C86.6696 148.646 86.5079 148.878 86.3467 149.11C86.6679 148.484 86.981 147.854 87.2941 147.222C87.7936 146.213 88.2599 145.192 88.7239 144.166C88.7387 144.133 88.6896 144.113 88.6724 144.144C87.7256 145.904 86.7239 147.632 85.7719 149.389C84.8216 151.143 81.2096 157.601 81.2296 157.599C81.2484 157.62 95.2507 155.116 95.5233 155.051C95.6301 155.027 95.6147 154.87 95.501 154.88Z" fill="#263238"/>
<path d="M93.7584 170.445C92.9578 167.599 92.179 164.747 91.2727 161.932C90.7578 160.333 90.251 158.729 89.7207 157.134C89.7007 157.074 89.595 157.1 89.6098 157.162C90.3007 160.049 91.0001 162.943 91.823 165.799C92.6412 168.639 93.4361 171.487 94.2921 174.318C94.779 175.928 95.3115 177.517 95.8955 179.095C95.907 179.127 95.9607 179.114 95.9538 179.081C95.3595 176.167 94.5653 173.309 93.7584 170.445Z" fill="#263238"/>
<path d="M103.443 180.947C103.123 180.146 102.741 179.004 102.388 178.218C102.295 178.01 102.143 178.025 102.211 178.238C102.436 178.955 102.591 179.744 102.81 180.478C102.172 180.498 101.534 180.505 100.896 180.532C100.159 180.564 99.4208 180.599 98.6831 180.628C97.2385 180.685 95.7928 180.727 94.3471 180.754C91.4197 180.808 88.4905 180.801 85.5631 180.732C79.6951 180.593 73.8174 180.239 67.9939 179.493C66.3648 179.284 64.7385 179.044 63.1225 178.754C61.4808 178.459 59.7088 178.13 58.3762 177.732C58.3339 177.72 58.3128 177.792 58.3551 177.808C59.7185 178.332 61.0019 178.728 62.4271 179.037C63.8814 179.352 65.3454 179.627 66.8162 179.853C69.7454 180.303 72.6979 180.598 75.6528 180.812C81.5128 181.237 87.3934 181.407 93.2682 181.344C94.9145 181.326 96.5602 181.289 98.2054 181.232C99.0351 181.204 99.8659 181.175 100.696 181.131C101.526 181.086 103.497 181.083 103.443 180.947Z" fill="#263238"/>
<path d="M164.972 184.305H106.605V186.659H164.972V184.305Z" fill="#455A64"/>
<path d="M138.901 184.305H106.605V186.659H138.901V184.305Z" fill="#A6A6A6"/>
<path d="M137.922 186.657H189.076L196.304 151.914H145.149L137.922 186.657Z" fill="#A6A6A6"/>
<path d="M140.241 186.657H191.395L198.623 151.914H147.469L140.241 186.657Z" fill="#C7C7C7"/>
<path d="M166.023 170.062C165.825 171.945 167.191 173.471 169.074 173.471C170.957 173.471 172.644 171.945 172.842 170.062C173.04 168.179 171.674 166.652 169.791 166.652C167.908 166.652 166.221 168.179 166.023 170.062Z" fill="#EBEBEB"/>
<path d="M98.7348 139.322C98.7348 139.322 90.2033 130.838 84.6291 130.983L79.8656 135.143C79.8656 135.143 78.3085 135.639 77.8365 134.651C76.6691 132.209 76.4805 126.321 81.5736 122.542C86.2376 119.082 93.8262 119.404 100.145 121.125C106.213 122.778 111.456 126.857 109.558 130.809C107.659 134.759 98.7348 139.322 98.7348 139.322Z" fill="#FFC727"/>
<path opacity="0.1" d="M99.3599 137.462C99.3599 137.462 106.376 132.541 107.121 129.589C107.866 126.638 101.976 123.771 98.1674 122.634C92.2714 120.875 88.2434 121.221 84.9062 124.348C81.5691 127.475 99.3599 137.462 99.3599 137.462Z" fill="black"/>
<path d="M99.3597 137.462C99.3597 137.462 92.5597 125.733 83.958 124.509L84.6289 130.984C84.6289 130.984 89.766 131.039 98.7346 139.322L99.3597 137.462Z" fill="#FFC727"/>
<path d="M82.3066 131.083C83.8849 130.9 85.4478 131.262 86.9232 131.741C88.4078 132.226 89.8066 132.941 91.1398 133.75C92.4855 134.541 93.7404 135.48 94.9718 136.444L96.7598 137.969L98.4786 139.577L98.6712 139.758L98.8889 139.649C100.513 138.834 102.062 137.911 103.553 136.889C104.296 136.374 105.031 135.848 105.708 135.247C106.388 134.653 107.047 134.028 107.597 133.314C106.312 134.575 104.81 135.551 103.294 136.486C102.533 136.95 101.751 137.381 100.961 137.795C100.173 138.209 99.3792 138.625 98.5786 138.995L98.9889 139.066L97.2678 137.406C96.6723 136.875 96.0632 136.359 95.4529 135.845C94.8129 135.365 94.1826 134.873 93.5255 134.418C92.8512 133.985 92.1935 133.529 91.4809 133.158C90.0935 132.358 88.5952 131.741 87.0484 131.318C86.6644 131.206 86.2666 131.135 85.8758 131.053C85.4781 131 85.0821 130.937 84.6821 130.915C83.8878 130.855 83.0741 130.874 82.3066 131.083Z" fill="#263238"/>
<path d="M79.8652 135.143C80.7584 134.563 81.5755 133.897 82.3744 133.209C83.1635 132.511 83.9349 131.791 84.6287 130.983C83.7349 131.562 82.9178 132.229 82.1195 132.917C81.3304 133.617 80.5601 134.336 79.8652 135.143Z" fill="#263238"/>
<path d="M95.8749 135.352C95.8749 135.352 95.1578 138.683 95.0544 143.503C95.0132 145.411 95.7452 152.255 97.8664 152.008C99.9869 151.761 96.5344 147.344 95.9292 143.734C95.3149 140.07 96.2892 137.482 96.4189 135.321L95.8749 135.352Z" fill="#FFC727"/>
<g opacity="0.1">
<path d="M95.8749 135.352C95.8749 135.352 95.1578 138.683 95.0544 143.503C95.0132 145.411 95.7452 152.255 97.8664 152.008C99.9869 151.761 96.5344 147.344 95.9292 143.734C95.3149 140.07 96.2892 137.482 96.4189 135.321L95.8749 135.352Z" fill="black"/>
</g>
<path d="M103.398 135.731C103.398 135.731 104.387 139.336 104.975 143.668C105.208 145.383 105.251 151.624 103.314 151.619C101.378 151.615 104.036 147.28 104.21 143.966C104.388 140.601 103.244 137.692 102.906 135.758L103.398 135.731Z" fill="#FFC727"/>
<g opacity="0.1">
<path d="M103.398 135.731C103.398 135.731 104.387 139.336 104.975 143.668C105.208 145.383 105.251 151.624 103.314 151.619C101.378 151.615 104.036 147.28 104.21 143.966C104.388 140.601 103.244 137.692 102.906 135.758L103.398 135.731Z" fill="black"/>
</g>
<path d="M100.074 136.146C97.8605 136.002 93.736 131.38 92.332 127.713C92.2371 127.461 92.9314 125.044 93.636 122.066C94.0565 120.258 94.4823 118.234 94.7371 116.359L106.106 120.815C106.106 120.815 104.415 124.587 103.991 127.858C103.958 128.132 103.951 128.39 103.967 128.638C103.966 128.674 103.97 128.718 103.966 128.768C104.006 130.262 103.541 136.372 100.074 136.146Z" fill="#EB9481"/>
<path d="M103.966 128.64C103.965 128.677 103.973 128.716 103.969 128.77C103.59 128.771 103.191 128.739 102.749 128.669C96.0851 127.606 95.5577 119.239 95.5606 116.682L106.111 120.814C106.111 120.814 104.42 124.586 103.987 127.861C103.962 128.131 103.95 128.386 103.966 128.64Z" fill="#263238"/>
<path d="M97.051 101.695C94.6687 105.393 93.4933 117.692 95.6339 121.115C98.7373 126.077 105.468 128.375 110.101 124.268C114.592 120.286 115.841 104.23 113.296 100.949C109.548 96.1174 100.57 96.2322 97.051 101.695Z" fill="#EB9481"/>
<path d="M104.727 110.666C105.102 110.621 105.44 110.517 105.805 110.434C106.218 110.34 106.557 110.308 106.86 109.988C107.023 109.816 107.009 109.468 106.856 109.294C106.502 108.889 105.968 108.878 105.466 108.971C104.922 109.071 104.528 109.287 104.17 109.708C103.823 110.115 104.233 110.725 104.727 110.666Z" fill="#263238"/>
<path d="M113.063 111.804C112.701 111.696 112.385 111.537 112.039 111.394C111.647 111.232 111.319 111.144 111.073 110.777C110.941 110.58 111.014 110.24 111.193 110.093C111.611 109.754 112.139 109.833 112.618 110.008C113.138 110.198 113.489 110.477 113.772 110.952C114.046 111.413 113.54 111.945 113.063 111.804Z" fill="#263238"/>
<path d="M104.09 120.336C104.264 120.555 104.427 120.846 104.723 120.909C105.007 120.97 105.361 120.884 105.637 120.815C105.664 120.808 105.687 120.839 105.667 120.862C105.412 121.152 104.936 121.293 104.562 121.177C104.197 121.064 104.053 120.717 104.005 120.364C104 120.314 104.065 120.304 104.09 120.336Z" fill="#263238"/>
<path d="M105.273 117.975C105.644 118.75 106.274 119.229 106.99 119.465C107.31 119.572 107.654 119.628 107.995 119.64C108.062 119.646 108.13 119.648 108.191 119.642C108.253 119.642 108.308 119.642 108.376 119.637C108.474 119.636 108.537 119.562 108.565 119.473L108.566 119.468C108.569 119.437 108.571 119.413 108.569 119.382C108.569 119.382 108.569 119.382 108.569 119.376L108.577 119.303C108.675 118.669 108.737 117.695 108.737 117.695C108.954 117.841 110.07 118.525 110.094 118.19C110.28 115.42 110.487 112.34 110.087 109.544C110.078 109.451 109.937 109.454 109.934 109.545C109.65 112.2 109.834 114.888 109.591 117.559C109.232 117.368 108.649 117.023 108.316 116.987C108.222 117.001 108.231 118.873 108.164 119.153C108.164 119.153 108.163 119.166 108.155 119.183C107.07 119.184 106.306 118.758 105.36 117.909C105.304 117.856 105.231 117.903 105.273 117.975Z" fill="#263238"/>
<path d="M107.661 119.27C107.661 119.27 107.001 119.959 106.194 120.135C105.897 120.2 105.586 120.202 105.276 120.075C104.638 119.818 104.699 119.211 104.886 118.709C105.038 118.296 105.282 117.954 105.282 117.954C105.282 117.954 106.13 118.978 107.661 119.27Z" fill="#263238"/>
<path d="M106.193 120.135C105.896 120.2 105.585 120.202 105.275 120.075C104.637 119.818 104.698 119.211 104.885 118.709C105.583 118.871 106.221 119.44 106.193 120.135Z" fill="#FF9ABB"/>
<path d="M106.349 112.916C106.348 112.884 106.279 112.945 106.274 112.978C106.17 113.798 105.913 114.721 105.132 114.874C105.108 114.879 105.104 114.921 105.132 114.921C106.053 114.938 106.382 113.71 106.349 112.916Z" fill="#263238"/>
<path d="M105.755 111.948C104.458 111.639 103.936 114.256 105.138 114.542C106.32 114.824 106.842 112.206 105.755 111.948Z" fill="#263238"/>
<path d="M111.128 113.543C111.141 113.514 111.184 113.595 111.176 113.628C110.982 114.432 110.896 115.385 111.572 115.806C111.593 115.819 111.583 115.859 111.556 115.85C110.689 115.539 110.816 114.274 111.128 113.543Z" fill="#263238"/>
<path d="M112.027 112.848C113.349 113.019 112.909 115.651 111.685 115.492C110.479 115.336 110.919 112.704 112.027 112.848Z" fill="#263238"/>
<path d="M98.2229 109.616C99.9132 107.504 99.9949 102.973 101.589 102.329C105.041 100.933 108.741 107.351 112.39 108.7C115.927 110.008 117.939 108.158 118.342 105.049C118.745 101.941 117.003 99.1214 113.24 97.0848C109.347 94.9774 104.994 95.2757 102.481 95.8431C102.481 95.8431 103.897 94.7317 103.724 94.1637C103.551 93.5962 101.314 94.3471 100.57 94.7431C99.8143 95.1454 99.0829 96.1368 99.0829 96.1368C99.0829 96.1368 98.5058 95.7099 97.5252 95.3825C96.6155 95.0785 95.2235 95.3728 95.0823 95.5614C94.9412 95.7499 96.172 96.3825 97.0595 96.7562C97.0595 96.7562 94.5612 98.3848 93.9023 100.314C93.2435 102.244 92.924 112.429 93.6052 112.788C94.4795 113.247 97.5366 110.473 98.2229 109.616Z" fill="#455A64"/>
<path d="M97.4946 96.6505C97.5328 96.6431 97.5603 96.7025 97.5197 96.718C96.3871 97.15 95.374 97.7643 94.6191 98.7334C93.742 99.8608 93.3288 101.27 93.1477 102.668C92.7957 105.389 93.1974 108.119 93.4243 110.83C93.4306 110.909 93.2968 110.923 93.2848 110.844C92.8603 107.987 92.4888 104.917 92.9791 102.049C93.3974 99.6037 94.8871 97.1574 97.4946 96.6505Z" fill="#455A64"/>
<path d="M101.787 101.348C102.88 101.58 104.002 102.098 104.926 102.724C105.836 103.341 106.467 104.276 107.188 105.089C108.804 106.913 110.706 108.562 113.085 109.264C113.116 109.273 113.101 109.317 113.071 109.31C110.846 108.806 108.996 107.418 107.448 105.793C106.668 104.973 106.015 103.967 105.14 103.247C104.146 102.428 102.911 101.999 101.727 101.542C101.604 101.494 101.659 101.32 101.787 101.348Z" fill="#455A64"/>
<path d="M105.031 95.6277C106.721 95.4162 108.446 95.5014 110.124 95.7745C111.734 96.0368 113.336 96.4785 114.767 97.2785C117.238 98.6591 119.047 101.208 118.684 104.128C118.5 105.608 117.813 107.057 116.664 108.029C116.586 108.095 116.486 107.985 116.558 107.913C118.494 105.943 119.109 102.926 117.737 100.459C116.262 97.8094 113.289 96.5682 110.446 96.0225C108.657 95.6791 106.851 95.6122 105.034 95.6488C105.022 95.6482 105.019 95.6288 105.031 95.6277Z" fill="#455A64"/>
<path d="M103.427 116.984C101.779 116.526 100.583 114.994 100.622 113.208C100.669 111.094 102.425 109.414 104.537 109.46C106.651 109.506 108.331 111.262 108.285 113.376C108.238 115.488 106.482 117.169 104.369 117.122C104.043 117.116 103.728 117.068 103.427 116.984ZM105.343 110.093C105.083 110.02 104.809 109.979 104.527 109.973C102.696 109.932 101.175 111.389 101.134 113.219C101.095 115.049 102.551 116.573 104.38 116.611C106.211 116.651 107.732 115.195 107.773 113.365C107.807 111.817 106.771 110.49 105.343 110.093Z" fill="#37474F"/>
<path d="M112.124 118.29C110.711 117.897 109.832 116.094 110.139 114.118C110.294 113.121 110.725 112.225 111.351 111.596C111.999 110.944 112.779 110.65 113.547 110.77C114.319 110.889 114.97 111.406 115.39 112.224C115.795 113.015 115.932 113.999 115.777 114.996C115.452 117.083 113.923 118.585 112.369 118.344C112.286 118.33 112.205 118.313 112.124 118.29ZM113.659 111.318C113.597 111.301 113.534 111.286 113.469 111.277C112.867 111.183 112.244 111.424 111.714 111.956C111.164 112.51 110.784 113.306 110.645 114.197C110.364 116.006 111.168 117.639 112.448 117.837C113.723 118.036 114.989 116.725 115.271 114.917C115.41 114.026 115.29 113.153 114.934 112.458C114.628 111.861 114.18 111.463 113.659 111.318Z" fill="#37474F"/>
<path d="M108.09 113.794L107.825 113.356C108.474 112.963 109.903 112.521 110.674 113.654L110.251 113.942C109.562 112.926 108.15 113.759 108.09 113.794Z" fill="#37474F"/>
<path d="M91.067 112.143L90.6533 111.841C90.795 111.648 92.0647 109.957 93.2242 109.949C94.307 109.945 100.994 111.636 101.278 111.709L101.152 112.205C99.235 111.718 94.0642 110.456 93.2276 110.461C92.4625 110.466 91.4087 111.677 91.067 112.143Z" fill="#37474F"/>
<path d="M96.8502 111.933C96.8502 111.933 95.1868 107.434 93.2136 107.931C91.2399 108.428 91.7965 114.462 93.6251 115.746C95.4531 117.03 96.6748 115.361 96.6748 115.361L96.8502 111.933Z" fill="#EB9481"/>
<path d="M93.4154 109.657C93.384 109.646 93.3657 109.69 93.3903 109.709C94.66 110.656 95.0629 112.168 95.2292 113.671C94.9446 113.035 94.4446 112.596 93.6092 112.914C93.5652 112.931 93.5857 112.998 93.628 113C94.2423 113.028 94.6354 113.238 94.9069 113.808C95.0989 114.21 95.1794 114.677 95.2794 115.11C95.3126 115.255 95.5594 115.247 95.5497 115.088C95.5492 115.076 95.548 115.064 95.5469 115.052C96.056 113.251 95.312 110.348 93.4154 109.657Z" fill="#263238"/>
</svg>
