<svg width="180" height="181" viewBox="0 0 180 181" fill="none" xmlns="http://www.w3.org/2000/svg">
<rect y="0.660156" width="180" height="180" rx="6.42857" fill="white"/>
<rect x="0.200893" y="0.861049" width="179.598" height="179.598" rx="6.22768" stroke="black" stroke-opacity="0.3" stroke-width="0.401786"/>
<g clip-path="url(#clip0_123_490)">
<path d="M221.039 154.487C223.482 145.753 236.777 96.0521 226.586 83.7632C215.402 70.2764 200.27 102.184 195.665 103.171C191.06 104.158 195.665 38.0397 158.823 26.1976C121.981 14.3556 125.928 78.829 120.007 90.3422C114.086 101.855 58.8231 24.882 45.994 48.237C33.1651 71.5923 53.8886 106.789 47.4314 105.884C40.9739 104.978 25.9285 83.1056 15.402 104.816C5.81185 124.596 18.3363 150.105 20.64 154.487H221.039Z" fill="#92E3A9"/>
<path opacity="0.7" d="M221.039 154.487C223.482 145.753 236.777 96.0521 226.586 83.7632C215.402 70.2764 200.27 102.184 195.665 103.171C191.06 104.158 195.665 38.0397 158.823 26.1976C121.981 14.3556 125.928 78.829 120.007 90.3422C114.086 101.855 58.8231 24.882 45.994 48.237C33.1651 71.5923 53.8886 106.789 47.4314 105.884C40.9739 104.978 25.9285 83.1056 15.402 104.816C5.81185 124.596 18.3363 150.105 20.64 154.487H221.039Z" fill="white"/>
<path d="M166.418 41.5186H92.7891V153.865H166.418V41.5186Z" fill="white" stroke="#263238" stroke-width="0.321429" stroke-miterlimit="10" stroke-linecap="round" stroke-linejoin="round"/>
<path d="M111.535 44.9561H95.5049" stroke="#263238" stroke-width="0.321429" stroke-miterlimit="10" stroke-linecap="round" stroke-linejoin="round"/>
<path d="M98.2119 46.7402H101.543" stroke="#263238" stroke-width="0.321429" stroke-miterlimit="10" stroke-linecap="round" stroke-linejoin="round"/>
<path d="M98.2119 48.7114H101.543" stroke="#263238" stroke-width="0.321429" stroke-miterlimit="10" stroke-linecap="round" stroke-linejoin="round"/>
<path d="M98.2119 50.6821H101.543" stroke="#263238" stroke-width="0.321429" stroke-miterlimit="10" stroke-linecap="round" stroke-linejoin="round"/>
<path d="M98.2119 52.6533H101.543" stroke="#263238" stroke-width="0.321429" stroke-miterlimit="10" stroke-linecap="round" stroke-linejoin="round"/>
<path d="M95.8936 54.6243H101.543" stroke="#263238" stroke-width="0.321429" stroke-miterlimit="10" stroke-linecap="round" stroke-linejoin="round"/>
<path d="M98.2119 56.6763H101.543" stroke="#263238" stroke-width="0.321429" stroke-miterlimit="10" stroke-linecap="round" stroke-linejoin="round"/>
<path d="M98.2119 58.6472H101.543" stroke="#263238" stroke-width="0.321429" stroke-miterlimit="10" stroke-linecap="round" stroke-linejoin="round"/>
<path d="M98.2119 60.6182H101.543" stroke="#263238" stroke-width="0.321429" stroke-miterlimit="10" stroke-linecap="round" stroke-linejoin="round"/>
<path d="M98.2119 62.5891H101.543" stroke="#263238" stroke-width="0.321429" stroke-miterlimit="10" stroke-linecap="round" stroke-linejoin="round"/>
<path d="M95.8936 64.5603H101.543" stroke="#263238" stroke-width="0.321429" stroke-miterlimit="10" stroke-linecap="round" stroke-linejoin="round"/>
<path d="M98.2119 66.6125H101.543" stroke="#263238" stroke-width="0.321429" stroke-miterlimit="10" stroke-linecap="round" stroke-linejoin="round"/>
<path d="M98.2119 68.5835H101.543" stroke="#263238" stroke-width="0.321429" stroke-miterlimit="10" stroke-linecap="round" stroke-linejoin="round"/>
<path d="M98.2119 70.5547H101.543" stroke="#263238" stroke-width="0.321429" stroke-miterlimit="10" stroke-linecap="round" stroke-linejoin="round"/>
<path d="M98.2119 72.5256H101.543" stroke="#263238" stroke-width="0.321429" stroke-miterlimit="10" stroke-linecap="round" stroke-linejoin="round"/>
<path d="M95.8936 74.4966H101.543" stroke="#263238" stroke-width="0.321429" stroke-miterlimit="10" stroke-linecap="round" stroke-linejoin="round"/>
<path d="M98.2119 76.5486H101.543" stroke="#263238" stroke-width="0.321429" stroke-miterlimit="10" stroke-linecap="round" stroke-linejoin="round"/>
<path d="M98.2119 78.5195H101.543" stroke="#263238" stroke-width="0.321429" stroke-miterlimit="10" stroke-linecap="round" stroke-linejoin="round"/>
<path d="M98.2119 80.4905H101.543" stroke="#263238" stroke-width="0.321429" stroke-miterlimit="10" stroke-linecap="round" stroke-linejoin="round"/>
<path d="M98.2119 82.4617H101.543" stroke="#263238" stroke-width="0.321429" stroke-miterlimit="10" stroke-linecap="round" stroke-linejoin="round"/>
<path d="M95.8936 84.4326H101.543" stroke="#263238" stroke-width="0.321429" stroke-miterlimit="10" stroke-linecap="round" stroke-linejoin="round"/>
<path d="M98.2119 86.4849H101.543" stroke="#263238" stroke-width="0.321429" stroke-miterlimit="10" stroke-linecap="round" stroke-linejoin="round"/>
<path d="M98.2119 88.4558H101.543" stroke="#263238" stroke-width="0.321429" stroke-miterlimit="10" stroke-linecap="round" stroke-linejoin="round"/>
<path d="M98.2119 90.4268H101.543" stroke="#263238" stroke-width="0.321429" stroke-miterlimit="10" stroke-linecap="round" stroke-linejoin="round"/>
<path d="M98.2119 92.3979H101.543" stroke="#263238" stroke-width="0.321429" stroke-miterlimit="10" stroke-linecap="round" stroke-linejoin="round"/>
<path d="M95.8936 94.3689H101.543" stroke="#263238" stroke-width="0.321429" stroke-miterlimit="10" stroke-linecap="round" stroke-linejoin="round"/>
<path d="M98.2119 96.4211H101.543" stroke="#263238" stroke-width="0.321429" stroke-miterlimit="10" stroke-linecap="round" stroke-linejoin="round"/>
<path d="M98.2119 98.3918H101.543" stroke="#263238" stroke-width="0.321429" stroke-miterlimit="10" stroke-linecap="round" stroke-linejoin="round"/>
<path d="M98.2119 100.363H101.543" stroke="#263238" stroke-width="0.321429" stroke-miterlimit="10" stroke-linecap="round" stroke-linejoin="round"/>
<path d="M98.2119 102.334H101.543" stroke="#263238" stroke-width="0.321429" stroke-miterlimit="10" stroke-linecap="round" stroke-linejoin="round"/>
<path d="M95.8936 104.305H101.543" stroke="#263238" stroke-width="0.321429" stroke-miterlimit="10" stroke-linecap="round" stroke-linejoin="round"/>
<path d="M98.2119 106.357H101.543" stroke="#263238" stroke-width="0.321429" stroke-miterlimit="10" stroke-linecap="round" stroke-linejoin="round"/>
<path d="M98.2119 108.328H101.543" stroke="#263238" stroke-width="0.321429" stroke-miterlimit="10" stroke-linecap="round" stroke-linejoin="round"/>
<path d="M98.2119 110.299H101.543" stroke="#263238" stroke-width="0.321429" stroke-miterlimit="10" stroke-linecap="round" stroke-linejoin="round"/>
<path d="M98.2119 112.27H101.543" stroke="#263238" stroke-width="0.321429" stroke-miterlimit="10" stroke-linecap="round" stroke-linejoin="round"/>
<path d="M95.8936 114.241H101.543" stroke="#263238" stroke-width="0.321429" stroke-miterlimit="10" stroke-linecap="round" stroke-linejoin="round"/>
<path d="M98.2119 116.293H101.543" stroke="#263238" stroke-width="0.321429" stroke-miterlimit="10" stroke-linecap="round" stroke-linejoin="round"/>
<path d="M98.2119 118.265H101.543" stroke="#263238" stroke-width="0.321429" stroke-miterlimit="10" stroke-linecap="round" stroke-linejoin="round"/>
<path d="M98.2119 120.235H101.543" stroke="#263238" stroke-width="0.321429" stroke-miterlimit="10" stroke-linecap="round" stroke-linejoin="round"/>
<path d="M98.2119 122.206H101.543" stroke="#263238" stroke-width="0.321429" stroke-miterlimit="10" stroke-linecap="round" stroke-linejoin="round"/>
<path d="M95.8936 124.177H101.543" stroke="#263238" stroke-width="0.321429" stroke-miterlimit="10" stroke-linecap="round" stroke-linejoin="round"/>
<path d="M98.2119 126.229H101.543" stroke="#263238" stroke-width="0.321429" stroke-miterlimit="10" stroke-linecap="round" stroke-linejoin="round"/>
<path d="M98.2119 128.2H101.543" stroke="#263238" stroke-width="0.321429" stroke-miterlimit="10" stroke-linecap="round" stroke-linejoin="round"/>
<path d="M98.2119 130.171H101.543" stroke="#263238" stroke-width="0.321429" stroke-miterlimit="10" stroke-linecap="round" stroke-linejoin="round"/>
<path d="M98.2119 132.142H101.543" stroke="#263238" stroke-width="0.321429" stroke-miterlimit="10" stroke-linecap="round" stroke-linejoin="round"/>
<path d="M95.8936 134.114H101.543" stroke="#263238" stroke-width="0.321429" stroke-miterlimit="10" stroke-linecap="round" stroke-linejoin="round"/>
<path d="M98.2119 136.166H101.543" stroke="#263238" stroke-width="0.321429" stroke-miterlimit="10" stroke-linecap="round" stroke-linejoin="round"/>
<path d="M98.2119 138.137H101.543" stroke="#263238" stroke-width="0.321429" stroke-miterlimit="10" stroke-linecap="round" stroke-linejoin="round"/>
<path d="M98.2119 140.108H101.543" stroke="#263238" stroke-width="0.321429" stroke-miterlimit="10" stroke-linecap="round" stroke-linejoin="round"/>
<path d="M98.2119 142.078H101.543" stroke="#263238" stroke-width="0.321429" stroke-miterlimit="10" stroke-linecap="round" stroke-linejoin="round"/>
<path d="M95.8936 144.05H101.543" stroke="#263238" stroke-width="0.321429" stroke-miterlimit="10" stroke-linecap="round" stroke-linejoin="round"/>
<path d="M98.2109 146.102H101.542" stroke="#263238" stroke-width="0.321429" stroke-miterlimit="10" stroke-linecap="round" stroke-linejoin="round"/>
<path d="M98.2109 148.073H101.542" stroke="#263238" stroke-width="0.321429" stroke-miterlimit="10" stroke-linecap="round" stroke-linejoin="round"/>
<path d="M98.2109 150.044H101.542" stroke="#263238" stroke-width="0.321429" stroke-miterlimit="10" stroke-linecap="round" stroke-linejoin="round"/>
<path d="M98.2109 152.015H101.542" stroke="#263238" stroke-width="0.321429" stroke-miterlimit="10" stroke-linecap="round" stroke-linejoin="round"/>
<path d="M142.111 128.024L127.07 153.486L112.03 128.024L96.9561 153.544H127.037H127.104H157.185L142.111 128.024Z" fill="#92E3A9"/>
<path d="M161.783 113.463C161.324 111.55 160.301 108.133 157.004 108.642C155.508 108.873 154.574 109.949 154.145 111.031C153.789 111.93 153.266 114.155 151.668 113.056C151.118 112.677 150.516 112.315 149.807 112.177C146.788 111.593 147.889 114.634 146.215 115.2C145.186 115.548 144.159 114.737 143.571 115.548C142.983 116.359 142.983 116.359 142.983 116.359C142.983 116.359 164.65 116.359 164.721 116.359C164.917 116.359 164.394 114.386 164.257 114.169C163.537 113.03 163.126 113.345 161.783 113.463Z" fill="#D6D6D6"/>
<path d="M148.022 48.2558C147.685 46.8547 146.936 44.3521 144.521 44.7249C143.426 44.8943 142.742 45.6818 142.427 46.4751C142.166 47.1334 141.783 48.7634 140.613 47.9579C140.21 47.6805 139.769 47.415 139.25 47.3144C137.039 46.8865 137.845 49.114 136.619 49.5287C135.866 49.7832 135.112 49.1892 134.682 49.7832C134.252 50.3772 134.252 50.3772 134.252 50.3772C134.252 50.3772 150.121 50.3772 150.173 50.3772C150.317 50.3772 149.934 48.9324 149.834 48.773C149.307 47.9389 149.006 48.1694 148.022 48.2558Z" fill="#D6D6D6"/>
<path d="M115.852 93.7617C115.515 92.3606 114.766 89.8579 112.351 90.2311C111.256 90.4002 110.572 91.188 110.258 91.9809C109.997 92.6392 109.613 94.2692 108.443 93.4637C108.04 93.1863 107.599 92.9208 107.08 92.8205C104.869 92.3927 105.675 94.6202 104.449 95.0345C103.696 95.2891 102.942 94.6951 102.512 95.2891C102.082 95.8831 102.082 95.8831 102.082 95.8831C102.082 95.8831 117.951 95.8831 118.003 95.8831C118.147 95.8831 117.764 94.4383 117.664 94.2788C117.137 93.4447 116.836 93.6755 115.852 93.7617Z" fill="#D6D6D6"/>
<path d="M142.911 56.0935C141.233 56.0935 138.82 57.3741 136.23 59.5C136.23 59.5 135.734 59.8664 134.555 59.8664C133.376 59.8664 132.432 58.0979 132.197 59.2769C131.961 60.4559 132.904 61.0454 132.904 61.0454C132.904 61.0454 131.961 60.9275 131.371 61.517C130.782 62.1065 130.31 63.2855 130.31 63.2855C130.31 63.2855 132.075 62.6249 132.722 62.7966C127.288 68.5495 122.146 77.0805 122.146 84.6219C122.146 97.452 131.443 107.853 142.911 107.853C154.38 107.853 163.677 97.452 163.677 84.6219C163.677 71.7918 149.175 56.0935 142.911 56.0935Z" fill="#92E3A9"/>
<path opacity="0.5" d="M142.911 56.0935C141.233 56.0935 138.82 57.3741 136.23 59.5C136.23 59.5 135.734 59.8664 134.555 59.8664C133.376 59.8664 132.432 58.0979 132.197 59.2769C131.961 60.4559 132.904 61.0454 132.904 61.0454C132.904 61.0454 131.961 60.9275 131.371 61.517C130.782 62.1065 130.31 63.2855 130.31 63.2855C130.31 63.2855 132.075 62.6249 132.722 62.7966C127.288 68.5495 122.146 77.0805 122.146 84.6219C122.146 97.452 131.443 107.853 142.911 107.853C154.38 107.853 163.677 97.452 163.677 84.6219C163.677 71.7918 149.175 56.0935 142.911 56.0935Z" fill="white"/>
<path d="M148.959 90.6619L142.261 96.3599L141.874 78.3933L141.642 89.1242L135.383 84.5278L141.618 90.2672L141.342 103.03L131.763 97.5L141.299 105.053L140.247 153.797H143.5L142.299 98.1168L148.959 90.6619Z" fill="#263238" stroke="#263238" stroke-width="0.321429" stroke-miterlimit="10" stroke-linecap="round" stroke-linejoin="round"/>
<path d="M137.604 125.564L135.952 153.797H134.254L132.494 130.251C132.494 130.251 130.295 129.352 129.936 124.679" fill="white"/>
<path d="M137.604 125.564L135.952 153.797H134.254L132.494 130.251C132.494 130.251 130.295 129.352 129.936 124.679" stroke="#263238" stroke-width="0.321429" stroke-miterlimit="10" stroke-linecap="round" stroke-linejoin="round"/>
<path d="M134.095 151.076L134.254 153.796H135.952L136.111 151.076H134.095Z" fill="#263238" stroke="#263238" stroke-width="0.321429" stroke-miterlimit="10" stroke-linecap="round" stroke-linejoin="round"/>
<path d="M133.89 115.063C133.89 115.063 137.754 115.153 139.641 117.22C141.528 119.287 141.349 125.039 141.349 125.039C141.349 125.039 142.068 126.297 142.068 127.735C142.068 129.173 140.63 128.903 140.45 127.555C140.27 126.207 140.63 124.589 140.63 124.589C140.63 124.589 140.72 120.186 139.731 118.928C138.742 117.67 137.394 117.58 137.394 117.58C137.394 117.58 135.867 115.333 133.89 115.063Z" fill="white" stroke="#263238" stroke-width="0.321429" stroke-miterlimit="10" stroke-linecap="round" stroke-linejoin="round"/>
<path d="M118.217 125.564L116.566 153.797H114.868L113.107 123.704" fill="white"/>
<path d="M118.217 125.564L116.566 153.797H114.868L113.107 123.704" stroke="#263238" stroke-width="0.321429" stroke-miterlimit="10" stroke-linecap="round" stroke-linejoin="round"/>
<path d="M114.708 151.076L114.867 153.797H116.566L116.725 151.076H114.708Z" fill="#263238" stroke="#263238" stroke-width="0.321429" stroke-miterlimit="10" stroke-linecap="round" stroke-linejoin="round"/>
<path d="M128.577 113.478L126.177 111.648C122.578 108.903 120.3 104.771 119.899 100.263L117.823 76.9026L119.007 60.3313L125.433 58.3021C125.433 58.3021 126.265 60.2792 127.331 60.4046C128.396 60.5299 129.587 59.7151 129.587 59.7151C129.587 59.7151 130.339 60.2165 130.967 59.9032C131.593 59.5898 131.593 58.3986 131.593 58.3986C131.593 58.3986 133.599 55.6404 132.91 53.8224C132.22 52.0044 129.901 50.4374 127.832 50.3121C125.763 50.1867 119.181 50.3121 119.181 50.3121L118.373 47.0258C118.798 46.7918 119.068 46.3125 118.974 45.7741C118.891 45.2945 118.499 44.8995 118.019 44.8147C117.266 44.6813 116.611 45.2573 116.611 45.9866C116.611 46.4324 116.858 46.8162 117.221 47.0203L116.36 50.2491L115.76 46.9801C116.145 46.7262 116.375 46.2563 116.273 45.7417C116.18 45.2766 115.795 44.8995 115.328 44.8153C114.573 44.6787 113.915 45.2557 113.915 45.9863C113.915 46.416 114.145 46.7895 114.486 46.9988L113.7 50.3937C113.7 50.3937 106.372 50.1439 105.956 51.06C105.54 51.9761 105.956 53.8079 108.538 54.3907C111.119 54.9734 112.535 54.4739 112.535 54.4739V122.557C112.535 122.557 112.919 129.997 117.992 131.519C123.065 133.041 138.563 131.519 138.563 131.519L139.128 121.147C139.128 117.724 136.353 114.948 132.93 114.948C131.357 114.949 129.827 114.432 128.577 113.478Z" fill="white" stroke="#263238" stroke-width="0.321429" stroke-miterlimit="10" stroke-linecap="round" stroke-linejoin="round"/>
<path d="M112.535 54.4747C112.535 54.4747 113.1 52.3182 112.034 52.0675C110.969 51.8168 107.082 51.6914 108.022 52.5689C108.963 53.4464 111.47 54.0109 111.533 53.4464C111.595 52.8823 110.279 52.6943 110.279 52.6943C110.279 52.6943 112.534 51.5535 112.535 54.4747Z" fill="#263238"/>
<path d="M120.685 52.0046L121.061 53.5719" stroke="#263238" stroke-width="0.321429" stroke-miterlimit="10" stroke-linecap="round" stroke-linejoin="round"/>
<path d="M121.876 53.572L118.114 53.6974C118.114 53.6974 118.929 54.6376 120.12 54.5122C121.311 54.3868 121.876 53.572 121.876 53.572Z" fill="#263238"/>
<path d="M128.709 55.2646C128.709 55.2646 128.145 57.5214 125.825 57.396" stroke="#263238" stroke-width="0.321429" stroke-miterlimit="10" stroke-linecap="round" stroke-linejoin="round"/>
<path d="M127.895 56.6436C127.895 56.6436 128.584 58.8376 129.587 59.7151" stroke="#263238" stroke-width="0.321429" stroke-miterlimit="10" stroke-linecap="round" stroke-linejoin="round"/>
<path d="M131.28 54.2614C131.28 54.2614 130.465 51.8793 129.963 52.8195C129.462 53.7597 131.28 54.2614 131.28 54.2614Z" fill="#263238"/>
<path d="M138.691 129.169C138.277 129.115 137.844 129.083 137.395 129.083C133.98 129.083 128.408 129.712 122.477 128.634C116.545 127.555 116.455 123.511 114.388 123.062C113.171 122.797 112.952 124.091 112.976 125.2C113.564 127.496 114.914 130.597 117.992 131.52C123.065 133.042 138.563 131.52 138.563 131.52L138.691 129.169Z" fill="white" stroke="#263238" stroke-width="0.321429" stroke-miterlimit="10" stroke-linecap="round" stroke-linejoin="round"/>
<path d="M123.046 125.564L121.394 153.797H119.696L117.936 123.704" fill="white"/>
<path d="M123.046 125.564L121.394 153.797H119.696L117.936 123.704" stroke="#263238" stroke-width="0.321429" stroke-miterlimit="10" stroke-linecap="round" stroke-linejoin="round"/>
<path d="M119.536 151.076L119.695 153.797H121.394L121.553 151.076H119.536Z" fill="#263238" stroke="#263238" stroke-width="0.321429" stroke-miterlimit="10" stroke-linecap="round" stroke-linejoin="round"/>
<path d="M138.862 125.564L137.211 153.797H135.513L133.753 130.251C133.753 130.251 131.554 129.352 131.194 124.679" fill="white"/>
<path d="M138.862 125.564L137.211 153.797H135.513L133.753 130.251C133.753 130.251 131.554 129.352 131.194 124.679" stroke="#263238" stroke-width="0.321429" stroke-miterlimit="10" stroke-linecap="round" stroke-linejoin="round"/>
<path d="M135.354 151.076L135.513 153.796H137.211L137.37 151.076H135.354Z" fill="#263238" stroke="#263238" stroke-width="0.321429" stroke-miterlimit="10" stroke-linecap="round" stroke-linejoin="round"/>
<path d="M116.701 60.3801C116.701 60.3801 115.11 61.031 115.11 61.4646C115.11 61.8982 116.195 62.9831 116.412 62.9831C116.629 62.9831 117.352 61.9709 117.496 61.5369C117.641 61.1033 116.701 60.3801 116.701 60.3801Z" fill="#92E3A9" stroke="#263238" stroke-width="0.321429" stroke-miterlimit="10" stroke-linecap="round" stroke-linejoin="round"/>
<path d="M117.424 63.4175C117.424 63.4175 116.267 64.502 116.556 64.8636C116.845 65.2252 117.351 66.2374 117.568 65.8035C117.785 65.3695 117.93 62.9836 117.424 63.4175Z" fill="#92E3A9" stroke="#263238" stroke-width="0.321429" stroke-miterlimit="10" stroke-linecap="round" stroke-linejoin="round"/>
<path d="M116.773 67.1771C116.773 67.1771 116.122 66.1649 115.833 66.3096C115.544 66.4542 114.966 68.4789 115.472 68.6232C115.978 68.7678 117.207 68.117 117.207 68.117L116.773 67.1771Z" fill="#92E3A9" stroke="#263238" stroke-width="0.321429" stroke-miterlimit="10" stroke-linecap="round" stroke-linejoin="round"/>
<path d="M117.497 69.1294C117.497 69.1294 116.268 69.6356 116.196 70.0693C116.123 70.5032 116.846 72.1663 116.846 72.1663L117.497 69.1294Z" fill="#92E3A9" stroke="#263238" stroke-width="0.321429" stroke-miterlimit="10" stroke-linecap="round" stroke-linejoin="round"/>
<path d="M117.207 73.4677C117.207 73.4677 114.676 72.4555 114.604 73.4677C114.531 74.4799 114.459 77.9506 114.676 77.9506C114.893 77.9506 116.773 77.7337 116.99 77.1551C117.206 76.5769 117.207 73.4677 117.207 73.4677Z" fill="#92E3A9" stroke="#263238" stroke-width="0.321429" stroke-miterlimit="10" stroke-linecap="round" stroke-linejoin="round"/>
<path d="M116.556 80.9875C116.556 80.9875 115.182 80.4813 115.037 80.8429C114.893 81.2045 114.82 82.2167 115.037 82.2167C115.254 82.2167 116.628 82.7952 116.917 82.5783C117.207 82.3616 117.496 81.5661 116.556 80.9875Z" fill="#92E3A9" stroke="#263238" stroke-width="0.321429" stroke-miterlimit="10" stroke-linecap="round" stroke-linejoin="round"/>
<path d="M116.845 84.386C116.845 84.386 115.76 85.4705 115.688 85.6874C115.616 85.9044 115.688 87.4228 116.411 87.3505C117.135 87.2782 118.364 85.6874 118.219 85.0365C118.074 84.386 117.423 83.9524 116.845 84.386Z" fill="#92E3A9" stroke="#263238" stroke-width="0.321429" stroke-miterlimit="10" stroke-linecap="round" stroke-linejoin="round"/>
<path d="M117.568 88.9416C117.568 88.9416 115.254 87.8571 114.892 88.4354C114.531 89.014 114.386 91.3999 115.037 91.6169C115.688 91.8339 117.423 91.9785 117.712 91.3276C118.001 90.6767 118.146 89.0136 117.568 88.9416Z" fill="#92E3A9" stroke="#263238" stroke-width="0.321429" stroke-miterlimit="10" stroke-linecap="round" stroke-linejoin="round"/>
<path d="M117.64 92.7737C117.64 92.7737 115.977 93.3523 115.76 93.8582C115.543 94.3642 115.326 96.3889 116.049 96.6058C116.773 96.8228 117.857 96.8228 118.002 95.8826C118.146 94.9431 118.291 92.4845 117.64 92.7737Z" fill="#92E3A9" stroke="#263238" stroke-width="0.321429" stroke-miterlimit="10" stroke-linecap="round" stroke-linejoin="round"/>
<path d="M118.508 98.8474C118.508 98.8474 116.484 97.7629 115.905 98.1242C115.327 98.4858 115.327 100.583 115.833 100.872C116.339 101.161 118.291 101.812 118.653 100.872C119.015 99.9323 118.508 98.8474 118.508 98.8474Z" fill="#92E3A9" stroke="#263238" stroke-width="0.321429" stroke-miterlimit="10" stroke-linecap="round" stroke-linejoin="round"/>
<path d="M118.725 102.897C118.725 102.897 116.195 103.692 116.195 104.198C116.195 104.705 115.978 105.861 116.629 105.644C117.28 105.427 119.16 103.981 119.304 103.62C119.449 103.258 119.232 102.608 118.725 102.897Z" fill="#92E3A9" stroke="#263238" stroke-width="0.321429" stroke-miterlimit="10" stroke-linecap="round" stroke-linejoin="round"/>
<path d="M119.664 105.5C119.664 105.5 117.134 106.946 117.134 107.741C117.134 108.537 116.41 111.212 116.989 111.357C117.568 111.501 119.231 112.008 119.881 111.357C120.532 110.706 121.544 108.754 121.4 107.886C121.255 107.018 120.677 105.21 119.664 105.5Z" fill="#92E3A9" stroke="#263238" stroke-width="0.321429" stroke-miterlimit="10" stroke-linecap="round" stroke-linejoin="round"/>
<path d="M124.366 111.718C124.366 111.718 123.064 109.766 122.558 109.983C122.052 110.2 120.533 112.296 121.401 112.586C122.269 112.875 123.932 113.02 124.438 112.513C124.944 112.007 124.366 111.718 124.366 111.718Z" fill="#92E3A9" stroke="#263238" stroke-width="0.321429" stroke-miterlimit="10" stroke-linecap="round" stroke-linejoin="round"/>
<path d="M125.378 113.67C125.378 113.67 123.064 113.815 123.136 114.9C123.209 115.984 125.016 119.816 126.39 119.672C127.764 119.527 130.006 117.575 130.223 116.852C130.44 116.129 125.378 113.67 125.378 113.67Z" fill="#92E3A9" stroke="#263238" stroke-width="0.321429" stroke-miterlimit="10" stroke-linecap="round" stroke-linejoin="round"/>
<path d="M121.4 114.177C121.4 114.177 119.52 112.803 119.086 113.092C118.652 113.382 117.712 114.972 118.652 115.623C119.592 116.274 120.822 116.635 121.255 116.346C121.689 116.057 122.123 115.334 122.051 114.9C121.979 114.466 121.4 114.177 121.4 114.177Z" fill="#92E3A9" stroke="#263238" stroke-width="0.321429" stroke-miterlimit="10" stroke-linecap="round" stroke-linejoin="round"/>
<path d="M133.115 115.984C133.115 115.984 130.584 116.635 130.729 117.141C130.873 117.647 131.741 119.383 132.247 119.238C132.753 119.094 134.85 117.503 134.922 116.924C134.995 116.346 133.838 115.767 133.115 115.984Z" fill="#92E3A9" stroke="#263238" stroke-width="0.321429" stroke-miterlimit="10" stroke-linecap="round" stroke-linejoin="round"/>
<path d="M136.223 118.732C136.223 118.732 134.85 118.443 134.56 118.732C134.271 119.021 133.765 119.817 134.054 119.817C134.343 119.817 135.645 120.756 136.151 120.612C136.657 120.467 137.236 119.817 137.308 119.6C137.38 119.383 136.223 118.732 136.223 118.732Z" fill="#92E3A9" stroke="#263238" stroke-width="0.321429" stroke-miterlimit="10" stroke-linecap="round" stroke-linejoin="round"/>
<path d="M130.44 119.599C130.44 119.599 128.343 119.744 128.632 120.395C128.921 121.046 129.644 121.841 129.933 121.769C130.223 121.696 131.524 120.829 131.524 120.323C131.524 119.816 130.44 119.599 130.44 119.599Z" fill="#92E3A9" stroke="#263238" stroke-width="0.321429" stroke-miterlimit="10" stroke-linecap="round" stroke-linejoin="round"/>
<path d="M33.804 41.2125L33.0397 37.626H27.3044L25.3926 46.5996H34.9515L34.0798 42.5069" stroke="#263238" stroke-width="0.321429" stroke-miterlimit="10" stroke-linecap="round" stroke-linejoin="round"/>
<path d="M29.9141 37.4961V24.8733" stroke="#263238" stroke-width="0.321429" stroke-miterlimit="10" stroke-linecap="round" stroke-linejoin="round"/>
<path d="M29.915 31.4329L35.0348 26.9956" stroke="#263238" stroke-width="0.321429" stroke-miterlimit="10" stroke-linecap="round" stroke-linejoin="round"/>
<path d="M29.9148 28.3042C29.9148 28.3042 28.6062 26.9957 28.5493 24.6634C28.4924 22.3311 30.0854 20.283 30.0854 20.283C30.0854 20.283 31.4509 22.729 31.5078 24.9479C31.5643 27.1664 29.9148 28.3042 29.9148 28.3042Z" stroke="#263238" stroke-width="0.321429" stroke-miterlimit="10" stroke-linecap="round" stroke-linejoin="round"/>
<path d="M32.8162 28.7025C32.8162 28.7025 32.5317 26.9957 33.8402 25.972C35.1488 24.9482 38.3344 25.4599 38.3344 25.4599C38.3344 25.4599 37.4242 27.3371 36.2297 28.418C35.0347 29.499 33.3282 29.3852 32.8162 28.7025Z" stroke="#263238" stroke-width="0.321429" stroke-miterlimit="10" stroke-linecap="round" stroke-linejoin="round"/>
<path d="M29.8578 36.2117L26.3877 33.0386" stroke="#263238" stroke-width="0.321429" stroke-miterlimit="10" stroke-linecap="round" stroke-linejoin="round"/>
<path d="M27.9241 34.6051C27.9241 34.6051 28.6068 33.1805 27.9241 32.1362C27.2414 31.0916 23.8281 31.0916 23.8281 31.0916C23.8281 31.0916 23.885 33.8456 25.1367 34.6527C26.3883 35.4598 27.9241 34.6051 27.9241 34.6051Z" stroke="#263238" stroke-width="0.321429" stroke-miterlimit="10" stroke-linecap="round" stroke-linejoin="round"/>
<path d="M29.9724 32.3432L27.3174 28.9917" stroke="#263238" stroke-width="0.321429" stroke-miterlimit="10" stroke-linecap="round" stroke-linejoin="round"/>
<path d="M28.4549 30.2779C28.4549 30.2779 28.9605 29.1089 28.4549 28.2513C27.9493 27.394 25.4209 27.394 25.4209 27.394C25.4209 27.394 25.463 29.6543 26.39 30.3168C27.317 30.9796 28.4549 30.2779 28.4549 30.2779Z" stroke="#263238" stroke-width="0.321429" stroke-miterlimit="10" stroke-linecap="round" stroke-linejoin="round"/>
<path d="M30.1605 31.7297C30.1605 31.7297 29.9946 33.5602 31.0068 34.564C32.019 35.5678 35.2895 34.591 35.2895 34.591C35.2895 34.591 34.2909 31.4458 32.8149 30.8772C31.3392 30.3093 30.1605 31.7297 30.1605 31.7297Z" stroke="#263238" stroke-width="0.321429" stroke-miterlimit="10" stroke-linecap="round" stroke-linejoin="round"/>
<path d="M30.1611 31.7297L32.7592 33.2536" stroke="#263238" stroke-width="0.321429" stroke-miterlimit="10" stroke-linecap="round" stroke-linejoin="round"/>
<path d="M75.3006 46.5339H17.1924V153.949H75.3006V46.5339Z" stroke="#263238" stroke-width="0.321429" stroke-miterlimit="10" stroke-linecap="round" stroke-linejoin="round"/>
<path d="M74.2092 48.5498H18.2822V151.933H74.2092V48.5498Z" stroke="#263238" stroke-width="0.321429" stroke-miterlimit="10" stroke-linecap="round" stroke-linejoin="round"/>
<path d="M47.0349 48.5498H45.457V151.933H47.0349V48.5498Z" stroke="#263238" stroke-width="0.321429" stroke-miterlimit="10" stroke-linecap="round" stroke-linejoin="round"/>
<path d="M42.7136 101.92C43.8838 101.92 44.8324 100.971 44.8324 99.8012C44.8324 98.631 43.8838 97.6824 42.7136 97.6824C41.5434 97.6824 40.5947 98.631 40.5947 99.8012C40.5947 100.971 41.5434 101.92 42.7136 101.92Z" stroke="#263238" stroke-width="0.321429" stroke-miterlimit="10" stroke-linecap="round" stroke-linejoin="round"/>
<path d="M49.9528 101.92C51.1231 101.92 52.0717 100.972 52.0717 99.8015C52.0717 98.6313 51.1231 97.6826 49.9528 97.6826C48.7826 97.6826 47.834 98.6313 47.834 99.8015C47.834 100.972 48.7826 101.92 49.9528 101.92Z" stroke="#263238" stroke-width="0.321429" stroke-miterlimit="10" stroke-linecap="round" stroke-linejoin="round"/>
<path d="M173.883 52.0664L173.305 53.0114L171.646 55.7114L171.247 56.3607L169.666 55.39L172.305 51.0957L173.883 52.0664Z" stroke="#263238" stroke-width="0.321429" stroke-miterlimit="10" stroke-linecap="round" stroke-linejoin="round"/>
<path d="M174.204 75.5662L172.224 78.7901L171.569 79.8605L169.987 78.8897L171.646 76.1897L172.626 74.5955L174.204 75.5662Z" stroke="#263238" stroke-width="0.321429" stroke-miterlimit="10" stroke-linecap="round" stroke-linejoin="round"/>
<path d="M78.0907 126.137C78.0907 126.137 77.8015 127.79 78.1322 127.5C78.4626 127.211 79.0827 126.385 79.0827 126.385C79.0827 126.385 78.7934 127.335 79.1653 127.046C79.5372 126.757 79.6198 126.467 79.6198 126.467L80.4462 123.038C80.4462 123.038 80.9833 121.674 80.1158 122.17C79.2479 122.666 78.0907 126.137 78.0907 126.137Z" fill="white" stroke="#263238" stroke-width="0.321429" stroke-miterlimit="10" stroke-linecap="round" stroke-linejoin="round"/>
<path d="M82.1371 107.102L80.5165 115.358L78.2787 122.381C78.2787 122.381 77.2501 126.084 76.9416 126.778C76.633 127.473 77.3273 127.396 77.6362 127.087C77.9447 126.778 79.2047 124.773 79.2047 124.773C79.2047 124.773 78.793 126.139 79.333 126.004C79.6146 125.934 80.3622 124.541 80.3622 124.541C80.3622 124.541 81.2882 123.384 81.4425 122.381C81.5968 121.377 81.674 119.217 81.674 119.217L85.6095 111.809L86.6127 107.796L82.1371 107.102Z" fill="white" stroke="#263238" stroke-width="0.321429" stroke-miterlimit="10" stroke-linecap="round" stroke-linejoin="round"/>
<path d="M79.2051 124.773L79.6683 123.538L79.8261 123.12" fill="white"/>
<path d="M79.2051 124.773L79.6683 123.538L79.8261 123.12" stroke="#263238" stroke-width="0.321429" stroke-miterlimit="10" stroke-linecap="round" stroke-linejoin="round"/>
<path d="M108.902 126.137C108.902 126.137 109.191 127.79 108.86 127.5C108.53 127.211 107.91 126.385 107.91 126.385C107.91 126.385 108.199 127.335 107.827 127.046C107.455 126.757 107.373 126.467 107.373 126.467L106.546 123.038C106.546 123.038 106.009 121.674 106.877 122.17C107.745 122.666 108.902 126.137 108.902 126.137Z" fill="white" stroke="#263238" stroke-width="0.321429" stroke-miterlimit="10" stroke-linecap="round" stroke-linejoin="round"/>
<path d="M104.854 107.102L106.475 115.358L108.713 122.381C108.713 122.381 109.741 126.084 110.05 126.778C110.359 127.473 109.664 127.396 109.355 127.087C109.047 126.778 107.787 124.773 107.787 124.773C107.787 124.773 108.198 126.139 107.659 126.004C107.377 125.934 106.629 124.541 106.629 124.541C106.629 124.541 105.703 123.384 105.549 122.381C105.395 121.377 105.318 119.217 105.318 119.217L101.382 111.809L100.379 107.796L104.854 107.102Z" fill="white" stroke="#263238" stroke-width="0.321429" stroke-miterlimit="10" stroke-linecap="round" stroke-linejoin="round"/>
<path d="M107.787 124.773L107.324 123.538L107.166 123.12" fill="white"/>
<path d="M107.787 124.773L107.324 123.538L107.166 123.12" stroke="#263238" stroke-width="0.321429" stroke-miterlimit="10" stroke-linecap="round" stroke-linejoin="round"/>
<path d="M85.3013 114.51C85.3013 114.51 84.9928 125.622 85.996 132.181C86.9991 138.74 86.4591 143.988 86.4591 143.988C86.4591 143.988 84.8385 144.219 84.9928 144.605C85.1471 144.991 85.7645 147.769 85.7645 147.769L92.9411 147.923C92.9411 147.923 92.9411 146.303 92.9411 144.914C92.9411 143.525 93.0182 143.602 93.0953 140.052C93.1725 136.503 92.7868 129.48 92.7868 129.48L93.2496 122.689L94.4842 130.406L95.4103 144.759L95.6417 147.692L99.6544 147.152L102.664 147.46C102.664 147.46 102.895 144.605 102.433 143.833C101.97 143.062 101.352 142.136 101.352 141.673C101.352 141.21 101.352 130.329 101.584 129.017C101.815 127.706 102.124 114.742 102.124 114.742L85.3013 114.51Z" fill="#263238" stroke="#263238" stroke-width="0.321429" stroke-miterlimit="10" stroke-linecap="round" stroke-linejoin="round"/>
<path d="M106.06 107.873C106.06 107.873 102.973 99.0761 102.741 98.3818C102.51 97.6872 95.3335 94.292 95.3335 94.292L93.4043 94.0605L91.4751 94.292C91.4751 94.292 84.2986 97.6872 84.0671 98.3818C83.8357 99.0764 80.749 107.873 80.749 107.873L84.9932 109.031C84.9932 109.031 84.2986 113.97 84.6846 114.741C85.0703 115.513 93.4046 115.59 93.4046 115.59C93.4046 115.59 101.739 115.513 102.124 114.741C102.51 113.97 101.816 109.031 101.816 109.031L106.06 107.873Z" fill="#92E3A9" stroke="#263238" stroke-width="0.321429" stroke-miterlimit="10" stroke-linecap="round" stroke-linejoin="round"/>
<path d="M93.3727 102.047L94.6224 104.579L97.4166 104.985L95.3948 106.956L95.8718 109.739L93.3727 108.425L90.8736 109.739L91.3509 106.956L89.3291 104.985L92.1233 104.579L93.3727 102.047Z" fill="white"/>
<path d="M85.582 101.821L85.6868 100.542" stroke="#263238" stroke-width="0.321429" stroke-miterlimit="10" stroke-linecap="round" stroke-linejoin="round"/>
<path d="M84.9932 109.031L85.4891 102.968" stroke="#263238" stroke-width="0.321429" stroke-miterlimit="10" stroke-linecap="round" stroke-linejoin="round"/>
<path d="M101.815 109.031L100.889 101.237" stroke="#263238" stroke-width="0.321429" stroke-miterlimit="10" stroke-linecap="round" stroke-linejoin="round"/>
<path d="M98.2024 95.6963C96.6669 94.9229 95.3333 94.292 95.3333 94.292L93.4041 94.0605L91.4749 94.292C91.4749 94.292 90.69 94.6635 89.6328 95.1846C89.737 97.4786 91.6244 99.3079 93.9441 99.3079C96.0887 99.3079 97.8633 97.7444 98.2024 95.6963Z" fill="white" stroke="#263238" stroke-width="0.321429" stroke-miterlimit="10" stroke-linecap="round" stroke-linejoin="round"/>
<path d="M88.705 84.1843L88.7661 85.7725C88.7661 85.7725 87.85 87.116 87.9721 87.9713C88.0943 88.8263 89.0714 91.7581 89.6825 92.5523C90.2932 93.3463 91.026 93.7127 91.026 93.7127C91.026 93.7127 90.965 95.9727 91.4535 96.8277C91.9421 97.6827 92.9803 98.1712 94.5685 97.6216C96.1564 97.072 97.0728 95.9113 97.1338 95.2395C97.1949 94.5677 97.256 93.1627 97.256 93.1627L99.0884 91.1471C99.0884 91.1471 101.654 90.5974 101.959 89.4978C102.264 88.3985 101.165 87.6043 101.165 87.6043L101.959 85.2832C101.959 85.2832 100.677 82.6568 98.1724 81.3743C95.6681 80.0915 93.3471 79.2976 91.5149 79.9694C89.6825 80.6418 88.6439 82.5964 88.705 84.1843Z" fill="white" stroke="#263238" stroke-width="0.321429" stroke-miterlimit="10" stroke-linecap="round" stroke-linejoin="round"/>
<path d="M92.065 84.3064L91.5764 86.0778C91.5764 86.0778 89.805 86.1389 89.744 86.8717C89.6829 87.6046 90.66 87.7267 90.66 87.7267" stroke="#263238" stroke-width="0.321429" stroke-miterlimit="10" stroke-linecap="round" stroke-linejoin="round"/>
<path d="M91.6367 88.3984C91.6367 88.3984 93.5913 88.948 95.057 87.238C95.057 87.238 94.6295 88.7648 93.8967 89.4369C93.1638 90.1087 91.6367 88.3984 91.6367 88.3984Z" stroke="#263238" stroke-width="0.321429" stroke-miterlimit="10" stroke-linecap="round" stroke-linejoin="round"/>
<path d="M89.6826 84.0622C89.6826 84.0622 90.1712 82.9629 91.3929 83.0239" stroke="#263238" stroke-width="0.321429" stroke-miterlimit="10" stroke-linecap="round" stroke-linejoin="round"/>
<path d="M93.6172 82.3078C93.6172 82.3078 94.9971 81.4969 96.1574 83.7568" stroke="#263238" stroke-width="0.321429" stroke-miterlimit="10" stroke-linecap="round" stroke-linejoin="round"/>
<path d="M90.4765 84.856C90.4765 85.1595 90.326 85.4057 90.1406 85.4057C89.9551 85.4057 89.8047 85.1595 89.8047 84.856C89.8047 84.5523 89.9551 84.3064 90.1406 84.3064C90.326 84.3064 90.4765 84.5526 90.4765 84.856Z" fill="#263238"/>
<path d="M93.9892 84.9172C94.1747 84.9172 94.3251 84.6711 94.3251 84.3675C94.3251 84.064 94.1747 83.8179 93.9892 83.8179C93.8037 83.8179 93.6533 84.064 93.6533 84.3675C93.6533 84.6711 93.8037 84.9172 93.9892 84.9172Z" fill="#263238"/>
<path d="M90.2933 78.9314C90.2933 78.9314 86.8119 80.5804 87.5447 82.0464C88.2776 83.5124 88.3997 84.001 88.7051 84.1842C89.0104 84.3674 89.3769 82.5964 90.354 81.9243C91.3312 81.2525 92.4918 81.0082 92.4918 81.0082C92.4918 81.0082 91.3315 81.5578 91.9422 81.68C92.5529 81.8021 94.2022 80.8861 94.2022 80.8861C94.2022 80.8861 95.5457 83.5735 96.1568 83.7567C96.7675 83.9399 96.4621 82.6574 96.4621 82.6574C96.4621 82.6574 97.9889 85.2838 98.9664 85.8335C99.9435 86.3831 99.3328 87.8492 99.3328 87.8492C99.3328 87.8492 100.005 87.4827 100.432 87.4827C100.86 87.4827 101.165 87.6049 101.165 87.6049C101.165 87.6049 102.264 86.6277 102.875 85.6503C103.486 84.6731 104.036 83.9399 101.348 80.8861C98.661 77.8322 95.6682 77.6489 94.2025 77.5879C92.7364 77.5268 90.2933 78.9314 90.2933 78.9314Z" fill="#263238" stroke="#263238" stroke-width="0.321429" stroke-miterlimit="10" stroke-linecap="round" stroke-linejoin="round"/>
<path d="M92.9409 147.923C92.9409 147.923 90.1628 145.762 88.6196 145.608C87.0764 145.454 85.7643 147.769 85.7643 147.769C85.7643 147.769 84.2983 149.852 83.758 150.392C83.2177 150.933 81.6745 151.318 82.2145 152.322C82.7548 153.325 82.9862 153.633 84.3751 153.711C85.764 153.788 92.4777 153.711 92.4777 153.711C92.4777 153.711 93.6351 153.325 93.558 152.245C93.4809 151.164 92.9409 147.923 92.9409 147.923Z" fill="white" stroke="#263238" stroke-width="0.321429" stroke-miterlimit="10" stroke-linecap="round" stroke-linejoin="round"/>
<path d="M82.3848 152.63C82.82 153.389 83.1404 153.642 84.3747 153.71C85.7636 153.788 92.4773 153.71 92.4773 153.71C92.4773 153.71 93.3529 153.418 93.5297 152.63H82.3848Z" fill="white" stroke="#263238" stroke-width="0.321429" stroke-miterlimit="10" stroke-linecap="round" stroke-linejoin="round"/>
<path d="M95.571 147.923C95.571 147.923 98.3491 145.762 99.8923 145.608C101.435 145.454 102.748 147.769 102.748 147.769C102.748 147.769 104.214 149.852 104.754 150.392C105.294 150.933 106.837 151.318 106.297 152.322C105.757 153.325 105.526 153.633 104.137 153.711C102.748 153.788 96.0342 153.711 96.0342 153.711C96.0342 153.711 94.8767 153.325 94.9539 152.245C95.031 151.164 95.571 147.923 95.571 147.923Z" fill="white" stroke="#263238" stroke-width="0.321429" stroke-miterlimit="10" stroke-linecap="round" stroke-linejoin="round"/>
<path d="M106.127 152.63C105.692 153.389 105.372 153.642 104.137 153.71C102.748 153.788 96.0348 153.71 96.0348 153.71C96.0348 153.71 95.1592 153.418 94.9824 152.63H106.127Z" fill="white" stroke="#263238" stroke-width="0.321429" stroke-miterlimit="10" stroke-linecap="round" stroke-linejoin="round"/>
<path d="M73.1313 106.984C73.1313 106.984 74.9143 117.358 74.5903 123.437C74.2659 129.515 71.7537 134.621 71.1863 138.755C70.619 142.888 70.457 144.752 70.457 144.752C70.457 144.752 67.8634 138.268 69.2414 132.514C70.619 126.759 73.0503 111.36 73.1313 106.984Z" fill="#263238" stroke="#263238" stroke-width="0.321429" stroke-miterlimit="10" stroke-linecap="round" stroke-linejoin="round"/>
<path d="M69.3193 149.343C69.3193 149.343 72.3481 150.5 73.9514 151.026C75.5547 151.552 76.2149 151.466 75.6807 152.517C75.1465 153.567 72.4741 153.671 69.7288 153.948C66.9832 154.225 62.1836 153.462 62.1836 153.462C62.1836 153.462 67.4647 149.83 69.3193 149.343Z" fill="white" stroke="#263238" stroke-width="0.321429" stroke-miterlimit="10" stroke-linecap="round" stroke-linejoin="round"/>
<path d="M75.6804 152.517C75.7296 152.42 75.7649 152.336 75.7942 152.258C74.4345 152.579 72.4937 152.941 70.2942 153.139C67.464 153.392 64.5136 153.083 63.0428 152.883C62.516 153.233 62.1836 153.462 62.1836 153.462C62.1836 153.462 66.9832 154.225 69.7288 153.948C72.4741 153.671 75.1462 153.567 75.6804 152.517Z" fill="white" stroke="#263238" stroke-width="0.321429" stroke-miterlimit="10" stroke-linecap="round" stroke-linejoin="round"/>
<path d="M58.3219 89.5805C58.3219 89.5805 57.3493 93.876 57.6736 98.0093C57.9979 102.143 61.4829 106.033 61.5639 107.087C61.6449 108.14 61.4613 117.277 61.2183 120.114C60.9753 122.951 59.9217 125.301 59.9217 129.11C59.9217 132.919 60.651 140.457 60.651 140.457C60.651 140.457 61.1373 149.858 61.1373 150.912C61.1373 151.966 61.2993 153.019 61.2993 153.019C61.2993 153.019 61.7047 153.425 64.1359 153.1C66.5672 152.776 67.7536 151.776 68.5639 151.532C69.3743 151.289 71.4613 149.755 71.4613 149.755C71.4613 149.755 71.3491 148.805 71.1058 146.859C70.8628 144.914 69.8092 136.972 70.3765 132.838C70.9438 128.705 73.1321 120.114 73.6184 115.575C74.1047 111.037 73.4564 101.311 73.4564 101.311C73.4564 101.311 75.5852 98.1716 75.5852 94.5247C75.5852 90.8774 75.4232 89.2565 75.4232 89.2565C75.4232 89.2565 72.992 90.7154 66.9134 89.7428C60.8349 88.7701 59.0519 88.1218 59.0519 88.1218L58.3219 89.5805Z" fill="#263238" stroke="#263238" stroke-width="0.321429" stroke-miterlimit="10" stroke-linecap="round" stroke-linejoin="round"/>
<path d="M69.3848 78.4876C69.3848 78.4876 81.4171 77.4494 84.0435 76.9605C86.6699 76.4719 88.441 76.533 88.8688 76.533C89.2963 76.533 93.633 77.3269 93.633 77.3269C93.633 77.3269 96.5648 77.2047 96.6258 77.8155C96.6869 78.4262 96.1983 78.5483 95.893 78.5483C95.5876 78.5483 94.2437 78.5483 93.6941 78.5483C93.1444 78.5483 92.1673 78.5483 92.1673 78.5483C92.1673 78.5483 94.6716 79.0369 94.0608 79.5255C93.4501 80.014 92.473 79.8919 91.923 79.8919C91.373 79.8919 90.7627 79.6476 90.3959 79.6476C90.0295 79.6476 88.3192 79.8919 87.4642 79.8308C86.6092 79.7697 85.021 78.9758 85.021 78.9758C85.021 78.9758 76.2868 82.8847 73.5993 83.74C70.9119 84.5954 70.3012 84.7172 70.3012 84.7172L69.3848 78.4876Z" fill="white" stroke="#263238" stroke-width="0.321429" stroke-miterlimit="10" stroke-linecap="round" stroke-linejoin="round"/>
<path d="M92.1669 78.5487C92.1669 78.5487 90.5176 78.1212 89.6016 77.5105L92.1669 78.5487Z" fill="white"/>
<path d="M92.1669 78.5487C92.1669 78.5487 90.5176 78.1212 89.6016 77.5105" stroke="#263238" stroke-width="0.321429" stroke-miterlimit="10" stroke-linecap="round" stroke-linejoin="round"/>
<path d="M71.2085 54.8919C71.2085 54.8919 69.4397 57.1249 69.757 58.5614C70.0739 59.9978 72.9918 65.3471 73.8831 68.2647C74.7748 71.1823 74.3695 71.9119 74.6125 73.2085C74.8555 74.5052 75.5851 86.7436 75.9901 88.8506C76.3954 90.9578 75.5848 91.2008 69.9926 91.6872C64.4003 92.1735 61.1584 91.7682 59.2941 90.9578C57.4302 90.1475 58.0785 88.5266 58.5648 87.2296C59.0511 85.9329 59.8615 69.5613 60.7531 65.3467C61.6447 61.1322 61.7257 59.5925 63.7517 57.8902C65.778 56.1883 66.4263 54.8103 66.5073 54.162C66.5883 53.5137 66.8316 52.541 66.8316 52.541L71.2085 54.8919Z" fill="#92E3A9" stroke="#263238" stroke-width="0.321429" stroke-miterlimit="10" stroke-linecap="round" stroke-linejoin="round"/>
<path d="M67.7031 72.6917C67.7031 72.6917 69.3729 74.1529 71.4603 74.1529" stroke="#263238" stroke-width="0.321429" stroke-miterlimit="10" stroke-linecap="round" stroke-linejoin="round"/>
<path d="M67.5264 78.2925C67.7491 78.5274 67.9825 78.7499 68.2258 78.9537" stroke="#263238" stroke-width="0.321429" stroke-miterlimit="10" stroke-linecap="round" stroke-linejoin="round"/>
<path d="M64.4678 73.3179C64.4678 73.3179 65.3401 75.5746 66.8393 77.4926" stroke="#263238" stroke-width="0.321429" stroke-miterlimit="10" stroke-linecap="round" stroke-linejoin="round"/>
<path d="M72.7173 65.2867C71.5251 62.5877 69.9826 59.5839 69.757 58.5615C69.44 57.125 71.2085 54.892 71.2085 54.892L66.832 52.5417C66.832 52.5417 66.5886 53.5144 66.5076 54.1627C66.4295 54.7879 65.8204 56.0916 63.9619 57.7094C64.8568 57.2941 66.1335 57.0279 67.4803 57.81C69.9929 59.2689 70.0739 63.5642 71.2085 64.7801C71.7758 65.3873 72.3023 65.4686 72.7173 65.2867Z" fill="white" stroke="#263238" stroke-width="0.321429" stroke-miterlimit="10" stroke-linecap="round" stroke-linejoin="round"/>
<path d="M78.8908 45.2637C78.8908 45.2637 79.345 46.9669 78.4932 48.5567C77.6414 50.1465 77.3576 50.9414 77.6983 51.6794C78.039 52.4174 78.0956 53.2692 77.301 53.553C76.5061 53.8368 76.0519 53.7802 76.0519 53.7802C76.0519 53.7802 74.2352 56.7326 73.3269 56.9029C72.4185 57.0733 69.8069 55.5404 69.012 54.8024C68.2171 54.0644 69.9773 47.9325 70.7722 46.9676C71.5667 46.0017 78.8908 45.2637 78.8908 45.2637Z" fill="white" stroke="#263238" stroke-width="0.321429" stroke-miterlimit="10" stroke-linecap="round" stroke-linejoin="round"/>
<path d="M73.4404 52.6443C73.4404 52.6443 73.6677 53.7799 74.6326 53.8934" stroke="#263238" stroke-width="0.321429" stroke-miterlimit="10" stroke-linecap="round" stroke-linejoin="round"/>
<path d="M76.1447 50.8542C75.9856 51.2711 75.6809 51.5424 75.4642 51.4598C75.2476 51.3772 75.201 50.9722 75.3601 50.555C75.5192 50.1381 75.8239 49.8668 76.0406 49.9494C76.2569 50.0323 76.3035 50.4373 76.1447 50.8542Z" fill="#263238"/>
<path d="M75.54 48.6135C75.54 48.6135 76.7322 48.1593 77.1864 49.1812" stroke="#263238" stroke-width="0.321429" stroke-miterlimit="10" stroke-linecap="round" stroke-linejoin="round"/>
<path d="M81.6164 42.5953C81.6164 42.5953 81.2757 44.9231 79.3455 45.8315C77.4153 46.7398 72.7598 47.3075 72.0214 47.5916C71.2834 47.8755 71.1697 48.6134 71.1697 48.6134C71.1697 48.6134 69.864 52.5876 69.5799 54.3477C69.296 56.1079 70.6586 57.8111 69.8637 59.0033C69.0688 60.1955 67.1952 59.9686 66.003 59.7982C64.8108 59.6278 64.8674 61.388 62.5965 62.126C60.3256 62.864 58.7358 62.0691 57.884 60.2524C57.0323 58.4357 57.7137 57.6977 56.8053 57.1866C55.897 56.6755 54.1937 57.1866 53.5123 54.2912C52.8309 51.3957 54.1937 49.5221 55.1021 49.1245C56.0104 48.7272 59.0762 49.4083 59.4738 46.0018C59.8711 42.5953 63.6183 37.7128 68.2173 36.2365C72.816 34.7602 78.9479 40.0403 79.7994 40.6083C80.6512 41.1762 81.7868 41.7439 81.6164 42.5953Z" fill="#263238" stroke="#263238" stroke-width="0.321429" stroke-miterlimit="10" stroke-linecap="round" stroke-linejoin="round"/>
<path d="M76.7196 83.9069C76.7196 83.9069 72.343 66.0767 69.9117 61.9431C67.4804 57.8095 65.2111 55.9456 62.5365 60.0791C59.8619 64.2124 60.8346 86.5816 60.8346 86.5816" stroke="#263238" stroke-width="0.642857" stroke-miterlimit="10" stroke-linecap="round" stroke-linejoin="round"/>
<path d="M68.1879 64.8677C68.1879 64.8677 62.8558 82.3403 61.8931 83.5286C60.9304 84.7169 57.1318 87.4102 55.8097 84.8796C54.4877 82.349 60.9947 61.8804 62.6986 59.7021C64.4025 57.5237 68.1436 57.9217 68.6132 61.4089" fill="#92E3A9"/>
<path d="M68.1879 64.8677C68.1879 64.8677 62.8558 82.3403 61.8931 83.5286C60.9304 84.7169 57.1318 87.4102 55.8097 84.8796C54.4877 82.349 60.9947 61.8804 62.6986 59.7021C64.4025 57.5237 68.1436 57.9217 68.6132 61.4089" stroke="#263238" stroke-width="0.321429" stroke-miterlimit="10" stroke-linecap="round" stroke-linejoin="round"/>
<path d="M70.5602 80.9082C70.5602 80.9082 72.0192 80.4219 72.7485 79.5306C73.4778 78.6389 74.4505 78.2339 75.3421 78.2339C76.2338 78.2339 77.4494 78.0719 77.6114 78.9632C77.7734 79.8549 77.2061 80.4222 76.9631 80.5842C76.7201 80.7462 76.8011 83.8261 76.1528 84.3125C75.5044 84.7988 72.7488 84.3935 71.7762 84.3125C70.8036 84.2315 64.8873 85.8524 61.8074 85.8524C58.7275 85.8524 55.9719 86.0144 55.8099 84.8798C55.6479 83.7451 56.7825 80.5032 60.1864 80.0169C63.5904 79.5302 66.67 81.3132 70.5602 80.9082Z" fill="white" stroke="#263238" stroke-width="0.321429" stroke-miterlimit="10" stroke-linecap="round" stroke-linejoin="round"/>
<path d="M76.7203 83.907C76.7203 83.907 75.3427 84.9606 68.4535 85.8519C61.5643 86.7436 60.835 86.5813 60.835 86.5813C60.835 86.5813 59.747 95.661 60.592 96.55C62.132 98.171 75.991 96.3067 77.2066 94.8481C78.4223 93.3894 76.7203 83.907 76.7203 83.907Z" fill="#969696" stroke="#263238" stroke-width="0.321429" stroke-miterlimit="10" stroke-linecap="round" stroke-linejoin="round"/>
<path d="M-3.04883 153.865H183.931" stroke="#263238" stroke-width="0.321429" stroke-miterlimit="10" stroke-linecap="round" stroke-linejoin="round"/>
</g>
<defs>
<clipPath id="clip0_123_490">
<rect width="160.714" height="160.714" fill="white" transform="translate(9.64258 10.303)"/>
</clipPath>
</defs>
</svg>
