<svg width="170" height="42" viewBox="0 0 170 42" fill="none" xmlns="http://www.w3.org/2000/svg">
<path d="M26.5455 2.05536H12.029L0.342773 13.7416V28.258L12.029 39.9442H26.5455L38.2317 28.258V13.7416L26.5455 2.05536ZM14.0375 28.4406L6.55109 20.9541L14.0375 13.4677C16.8678 10.6374 21.524 10.6374 24.3543 13.4677L31.8408 20.9541L24.3543 28.4406C21.524 31.2709 16.9591 31.2709 14.0375 28.4406Z" fill="white"/>
<path d="M54.8857 29.8176C57.2107 29.8176 59.1224 28.6293 59.7165 26.8468V29.611H63.1524V22.636C63.1524 21.0601 61.9124 19.7168 60.2332 19.7168H55.3249V22.636H58.8124C59.2515 22.636 59.5357 22.9201 59.5357 23.3593C59.5357 25.0385 57.314 26.666 55.0665 26.666C52.0699 26.666 49.6932 24.3151 49.6932 20.5693C49.6932 16.8235 52.0699 14.6535 55.144 14.6535C57.469 14.6535 59.0707 15.9193 59.3549 17.8568H63.204C62.9715 13.9818 59.7165 11.321 55.1699 11.321C50.3907 11.321 45.999 14.3951 45.999 20.5693C45.999 26.7435 50.2615 29.8176 54.8857 29.8176Z" fill="white"/>
<path d="M64.6273 29.611H68.2181V10.9335H64.6273V29.611Z" fill="white"/>
<path d="M75.9639 29.8176C79.968 29.8176 82.8355 26.976 82.8355 23.101C82.8355 19.226 79.968 16.3843 75.9639 16.3843C71.9597 16.3843 69.0922 19.226 69.0922 23.101C69.0922 26.976 71.9597 29.8176 75.9639 29.8176ZM75.9639 26.7176C74.0264 26.7176 72.7089 25.2451 72.7089 23.101C72.7089 20.931 74.0264 19.4585 75.9639 19.4585C77.9014 19.4585 79.2189 20.931 79.2189 23.101C79.2189 25.2451 77.9014 26.7176 75.9639 26.7176Z" fill="white"/>
<path d="M90.8705 29.8176C94.7197 29.8176 97.0189 27.1568 97.0189 23.101C97.0189 19.0451 94.7197 16.3843 90.9222 16.3843C89.2947 16.3843 88.0288 17.0043 87.3055 17.9601V10.9335H83.7147V29.611H87.3055V28.1901C88.0288 29.1976 89.3722 29.8176 90.8705 29.8176ZM90.3022 26.7176C88.3647 26.7176 87.0989 25.271 87.0989 23.101C87.0989 20.9051 88.3647 19.4585 90.3022 19.4585C92.188 19.4585 93.4797 20.9051 93.4797 23.101C93.4797 25.271 92.188 26.7176 90.3022 26.7176Z" fill="white"/>
<path d="M103.03 16.3843C99.4647 16.3843 97.3464 18.4768 97.1914 21.086H100.395C100.446 20.001 101.247 19.0193 102.823 19.0193C104.296 19.0193 105.148 19.7685 105.148 20.8535C105.148 21.396 104.812 21.8093 104.166 21.8093H101.971C99.1289 21.8093 97.2172 23.3593 97.2172 25.9168C97.2172 28.1385 98.9481 29.8176 101.48 29.8176C103.262 29.8176 104.709 29.0168 105.148 27.8026V29.611H108.713V21.241C108.713 18.296 106.311 16.3843 103.03 16.3843ZM102.384 27.2085C101.376 27.2085 100.653 26.6143 100.653 25.7618C100.653 24.7543 101.428 24.0826 102.513 24.0826H105.148V24.2635C105.148 25.9168 104.141 27.2085 102.384 27.2085Z" fill="white"/>
<path d="M110.093 29.611H113.684V10.9335H110.093V29.611Z" fill="white"/>
<path d="M115.591 29.611H122.98C126.803 29.611 129.438 27.6476 129.438 24.2118C129.438 21.8351 128.043 20.3885 126.39 19.7426C127.449 19.1743 128.508 17.8826 128.508 16.1776C128.508 13.1551 126.054 11.5276 122.773 11.5276H115.591V29.611ZM119.415 18.4251V14.6018H122.411C124.142 14.6018 124.917 15.2993 124.917 16.5135C124.917 17.7276 124.142 18.4251 122.489 18.4251H119.415ZM119.415 26.2526V21.706H122.644C124.788 21.706 125.744 22.5326 125.744 24.0051C125.744 25.4776 124.788 26.2526 122.644 26.2526H119.415Z" fill="white"/>
<path d="M135.685 16.3843C132.12 16.3843 130.001 18.4768 129.846 21.086H133.05C133.101 20.001 133.902 19.0193 135.478 19.0193C136.951 19.0193 137.803 19.7685 137.803 20.8535C137.803 21.396 137.467 21.8093 136.821 21.8093H134.626C131.784 21.8093 129.872 23.3593 129.872 25.9168C129.872 28.1385 131.603 29.8176 134.135 29.8176C135.917 29.8176 137.364 29.0168 137.803 27.8026V29.611H141.368V21.241C141.368 18.296 138.966 16.3843 135.685 16.3843ZM135.039 27.2085C134.031 27.2085 133.308 26.6143 133.308 25.7618C133.308 24.7543 134.083 24.0826 135.168 24.0826H137.803V24.2635C137.803 25.9168 136.796 27.2085 135.039 27.2085Z" fill="white"/>
<path d="M142.541 29.611H146.158V22.481C146.158 20.8018 147.269 19.5876 148.845 19.5876C150.343 19.5876 151.35 20.7243 151.35 22.3001V29.611H154.967V21.4993C154.967 18.5026 153.055 16.3843 150.11 16.3843C148.328 16.3843 146.881 17.1335 146.158 18.3993V16.591H142.541V29.611Z" fill="white"/>
<path d="M165.275 29.611H169.615L164.009 21.706L169.201 16.591H164.655L160.134 21.0343V10.9335H156.517V29.611H160.134V25.5293L161.581 24.1085L165.275 29.611Z" fill="white"/>
</svg>
