<svg width="147" height="42" viewBox="0 0 147 42" fill="none" xmlns="http://www.w3.org/2000/svg">
<path fill-rule="evenodd" clip-rule="evenodd" d="M18.9444 39.9441C29.4072 39.9441 37.8889 31.4623 37.8889 20.9996C37.8889 10.5369 29.4072 2.05518 18.9444 2.05518C8.48169 2.05518 0 10.5369 0 20.9996C0 31.4623 8.48169 39.9441 18.9444 39.9441ZM24.8544 10.8803C25.1421 9.85844 24.1505 9.25419 23.2448 9.89941L10.6024 18.9059C9.62019 19.6056 9.77468 20.9996 10.8344 20.9996H14.1635V20.9738H20.6518L15.3651 22.8392L13.0344 31.119C12.7468 32.1408 13.7383 32.7451 14.6441 32.0998L27.2865 23.0934C28.2687 22.3937 28.1141 20.9996 27.0545 20.9996H22.006L24.8544 10.8803Z" fill="white"/>
<path d="M47.6885 29.5328V26.5361H50.0651V14.4461H47.6885V11.4494H56.9885C58.0907 11.4494 59.0465 11.6389 59.856 12.0178C60.6826 12.3794 61.3199 12.9047 61.7676 13.5936C62.2326 14.2653 62.4651 15.0747 62.4651 16.0219V16.2803C62.4651 17.1069 62.3101 17.7872 62.0001 18.3211C61.6901 18.8378 61.3199 19.2425 60.8893 19.5353C60.476 19.8108 60.0799 20.0089 59.701 20.1294V20.5944C60.0799 20.6978 60.4932 20.8958 60.941 21.1886C61.3888 21.4642 61.7676 21.8689 62.0776 22.4028C62.4049 22.9367 62.5685 23.6342 62.5685 24.4953V24.7536C62.5685 25.7525 62.336 26.6136 61.871 27.3369C61.406 28.043 60.7601 28.5855 59.9335 28.9644C59.124 29.3433 58.1768 29.5328 57.0918 29.5328H47.6885ZM53.4751 26.4328H56.6785C57.419 26.4328 58.0132 26.2519 58.461 25.8903C58.926 25.5286 59.1585 25.0119 59.1585 24.3403V24.0819C59.1585 23.4103 58.9346 22.8936 58.4868 22.5319C58.039 22.1703 57.4363 21.9894 56.6785 21.9894H53.4751V26.4328ZM53.4751 18.8894H56.6268C57.3329 18.8894 57.9099 18.7086 58.3576 18.3469C58.8226 17.9853 59.0551 17.4858 59.0551 16.8486V16.5903C59.0551 15.9358 58.8313 15.4364 58.3835 15.0919C57.9357 14.7303 57.3501 14.5494 56.6268 14.5494H53.4751V18.8894Z" fill="white"/>
<path d="M70.2684 29.8944C68.994 29.8944 67.8487 29.6361 66.8326 29.1194C65.8165 28.6028 65.0156 27.8536 64.4301 26.8719C63.8445 25.8903 63.5518 24.7105 63.5518 23.3328V22.9194C63.5518 21.5417 63.8445 20.3619 64.4301 19.3803C65.0156 18.3986 65.8165 17.6494 66.8326 17.1328C67.8487 16.6161 68.994 16.3578 70.2684 16.3578C71.5429 16.3578 72.6881 16.6161 73.7043 17.1328C74.7204 17.6494 75.5212 18.3986 76.1068 19.3803C76.6923 20.3619 76.9851 21.5417 76.9851 22.9194V23.3328C76.9851 24.7105 76.6923 25.8903 76.1068 26.8719C75.5212 27.8536 74.7204 28.6028 73.7043 29.1194C72.6881 29.6361 71.5429 29.8944 70.2684 29.8944ZM70.2684 27.0011C71.2673 27.0011 72.094 26.6825 72.7484 26.0453C73.4029 25.3908 73.7301 24.4608 73.7301 23.2553V22.9969C73.7301 21.7914 73.4029 20.87 72.7484 20.2328C72.1112 19.5783 71.2845 19.2511 70.2684 19.2511C69.2695 19.2511 68.4429 19.5783 67.7884 20.2328C67.134 20.87 66.8068 21.7914 66.8068 22.9969V23.2553C66.8068 24.4608 67.134 25.3908 67.7884 26.0453C68.4429 26.6825 69.2695 27.0011 70.2684 27.0011Z" fill="white"/>
<path d="M78.698 29.5328V11.4494H81.953V29.5328H78.698Z" fill="white"/>
<path d="M89.1766 29.5328C88.3327 29.5328 87.6438 29.2744 87.1099 28.7578C86.5933 28.2239 86.3349 27.5178 86.3349 26.6394V19.4061H83.1316V16.7194H86.3349V12.7411H89.5899V16.7194H93.1033V19.4061H89.5899V26.0711C89.5899 26.5878 89.831 26.8461 90.3133 26.8461H92.7933V29.5328H89.1766Z" fill="white"/>
<path d="M100.08 29.8944C98.4091 29.8944 97.04 29.5328 95.9722 28.8094C94.9044 28.0861 94.2586 27.0528 94.0347 25.7094L97.0313 24.9344C97.1519 25.5372 97.35 26.0108 97.6255 26.3553C97.9183 26.6997 98.2713 26.9494 98.6847 27.1044C99.1152 27.2422 99.5802 27.3111 100.08 27.3111C100.837 27.3111 101.397 27.1819 101.759 26.9236C102.121 26.648 102.301 26.3122 102.301 25.9161C102.301 25.52 102.129 25.2186 101.785 25.0119C101.44 24.788 100.889 24.6072 100.131 24.4694L99.408 24.3403C98.5125 24.168 97.6944 23.9355 96.9538 23.6428C96.2133 23.3328 95.6191 22.9108 95.1713 22.3769C94.7236 21.843 94.4997 21.1542 94.4997 20.3103C94.4997 19.0358 94.9647 18.0628 95.8947 17.3911C96.8247 16.7022 98.0475 16.3578 99.563 16.3578C100.992 16.3578 102.181 16.6764 103.128 17.3136C104.075 17.9508 104.695 18.7861 104.988 19.8194L101.966 20.7494C101.828 20.095 101.544 19.63 101.113 19.3544C100.7 19.0789 100.183 18.9411 99.563 18.9411C98.943 18.9411 98.4694 19.053 98.1422 19.2769C97.815 19.4836 97.6513 19.7764 97.6513 20.1553C97.6513 20.5686 97.8236 20.8786 98.168 21.0853C98.5125 21.2747 98.9775 21.4211 99.563 21.5244L100.286 21.6536C101.251 21.8258 102.121 22.0583 102.896 22.3511C103.688 22.6267 104.308 23.0314 104.756 23.5653C105.221 24.0819 105.453 24.788 105.453 25.6836C105.453 27.0269 104.962 28.0689 103.981 28.8094C103.016 29.5328 101.716 29.8944 100.08 29.8944Z" fill="white"/>
<path d="M107.014 29.5328V11.4494H110.269V18.2953H110.734C110.871 18.0197 111.087 17.7442 111.38 17.4686C111.672 17.193 112.06 16.9692 112.542 16.7969C113.041 16.6075 113.67 16.5128 114.428 16.5128C115.427 16.5128 116.296 16.7453 117.037 17.2103C117.795 17.658 118.38 18.2867 118.794 19.0961C119.207 19.8883 119.414 20.8183 119.414 21.8861V29.5328H116.159V22.1444C116.159 21.18 115.918 20.4567 115.435 19.9744C114.97 19.4922 114.299 19.2511 113.42 19.2511C112.421 19.2511 111.646 19.5869 111.095 20.2586C110.544 20.913 110.269 21.8344 110.269 23.0228V29.5328H107.014Z" fill="white"/>
<path d="M121.641 29.5328V16.7194H124.896V29.5328H121.641ZM123.268 15.2211C122.683 15.2211 122.183 15.0317 121.77 14.6528C121.374 14.2739 121.176 13.7744 121.176 13.1544C121.176 12.5344 121.374 12.035 121.77 11.6561C122.183 11.2772 122.683 11.0878 123.268 11.0878C123.871 11.0878 124.371 11.2772 124.767 11.6561C125.163 12.035 125.361 12.5344 125.361 13.1544C125.361 13.7744 125.163 14.2739 124.767 14.6528C124.371 15.0317 123.871 15.2211 123.268 15.2211Z" fill="white"/>
<path d="M129.329 29.5328V19.4061H126.074V16.7194H129.329V14.3428C129.329 13.4644 129.588 12.7669 130.104 12.2503C130.638 11.7164 131.327 11.4494 132.171 11.4494H135.529V14.1361H133.308C132.826 14.1361 132.584 14.3944 132.584 14.9111V16.7194H135.943V19.4061H132.584V29.5328H129.329Z" fill="white"/>
<path d="M141.827 29.5328C140.983 29.5328 140.294 29.2744 139.76 28.7578C139.244 28.2239 138.985 27.5178 138.985 26.6394V19.4061H135.782V16.7194H138.985V12.7411H142.24V16.7194H145.754V19.4061H142.24V26.0711C142.24 26.5878 142.482 26.8461 142.964 26.8461H145.444V29.5328H141.827Z" fill="white"/>
</svg>
