<svg width="144" height="42" viewBox="0 0 144 42" fill="none" xmlns="http://www.w3.org/2000/svg">
<path d="M37.0699 21.215C37.0699 30.9643 29.1665 38.8677 19.4171 38.8677C9.66774 38.8677 1.76432 30.9643 1.76432 21.215C1.76432 11.4656 9.66774 3.56217 19.4171 3.56217C29.1665 3.56217 37.0699 11.4656 37.0699 21.215Z" stroke="white" stroke-width="2.58333"/>
<path d="M26.4182 28.2171C22.8538 31.7815 18.8156 34.1084 15.2192 35.0332C11.5904 35.9663 8.66557 35.4292 6.93352 33.6971C5.20148 31.9651 4.66433 29.0402 5.59745 25.4114C6.52221 21.8151 8.84912 17.7769 12.4136 14.2124C15.9781 10.6479 20.0163 8.32103 23.6126 7.39626C27.2414 6.46314 30.1663 7.00029 31.8983 8.73234C33.6304 10.4644 34.1675 13.3893 33.2344 17.0181C32.3096 20.6144 29.9827 24.6526 26.4182 28.2171Z" stroke="white" stroke-width="2.58333"/>
<path d="M26.4177 14.2128C29.9822 17.7773 32.3091 21.8155 33.2339 25.4118C34.167 29.0406 33.6299 31.9655 31.8978 33.6975C30.1658 35.4296 27.2409 35.9667 23.6121 35.0336C20.0158 34.1088 15.9776 31.7819 12.4131 28.2174C8.84861 24.653 6.52171 20.6148 5.59694 17.0184C4.66382 13.3896 5.20097 10.4648 6.93302 8.73272C8.66506 7.00068 11.5899 6.46353 15.2187 7.39665C18.8151 8.32141 22.8533 10.6483 26.4177 14.2128Z" stroke="white" stroke-width="2.58333"/>
<path d="M54.5929 29.8176C58.6487 29.8176 61.387 27.6993 61.387 24.3151C61.387 17.1593 51.8804 20.2076 51.8804 16.436C51.8804 15.3768 52.8362 14.6535 54.3604 14.6535C56.0912 14.6535 57.1762 15.5835 57.3054 17.0043H60.9995C60.8962 13.5685 58.2612 11.321 54.3604 11.321C50.692 11.321 48.1087 13.4393 48.1087 16.436C48.1087 23.5401 57.4862 20.8276 57.4862 24.3668C57.4862 25.736 56.3237 26.4593 54.5929 26.4593C52.6812 26.4593 51.467 25.2968 51.312 23.4626H47.592C47.747 27.3118 50.4854 29.8176 54.5929 29.8176Z" fill="white"/>
<path d="M62.2656 34.881H65.8564V28.4485C66.5539 29.3268 67.8197 29.8176 69.2922 29.8176C73.0381 29.8176 75.5697 27.1568 75.5697 23.101C75.5697 19.0451 73.2447 16.3843 69.6022 16.3843C67.9231 16.3843 66.6314 17.0043 65.8564 18.0118V16.591H62.2656V34.881ZM68.8531 26.7176C66.9156 26.7176 65.6497 25.271 65.6497 23.101C65.6497 20.9051 66.9156 19.4585 68.8531 19.4585C70.7389 19.4585 72.0306 20.9051 72.0306 23.101C72.0306 25.271 70.7389 26.7176 68.8531 26.7176Z" fill="white"/>
<path d="M76.4386 29.611H80.0294V22.481C80.0294 20.8018 81.1403 19.5876 82.7161 19.5876C84.2144 19.5876 85.2478 20.7243 85.2478 22.3001V29.611H88.8386V21.4993C88.8386 18.5026 86.9269 16.3843 84.0078 16.3843C82.1994 16.3843 80.7786 17.1335 80.0294 18.3993V10.9335H76.4386V29.611Z" fill="white"/>
<path d="M98.8837 25.1935C98.5996 26.3043 97.6437 26.8726 96.1971 26.8726C94.3887 26.8726 93.2262 25.736 92.9679 23.9018H102.32C102.345 23.6176 102.371 23.2301 102.371 22.7393C102.371 19.7685 100.537 16.3843 95.9387 16.3843C91.5212 16.3843 89.5062 19.7685 89.5062 23.0751C89.5062 26.356 91.7796 29.8176 96.1971 29.8176C99.4004 29.8176 101.88 28.0093 102.397 25.1935H98.8837ZM95.9387 19.0193C97.6696 19.0193 98.6771 20.1818 98.7804 21.6285H93.0196C93.3296 19.8201 94.3112 19.0193 95.9387 19.0193Z" fill="white"/>
<path d="M111.789 19.5876V16.591H109.936C108.36 16.591 107.378 17.1335 106.681 18.761V16.591H103.064V29.611H106.681V23.2818C106.681 21.0601 107.482 19.5876 109.264 19.5876H111.789Z" fill="white"/>
<path d="M124.189 16.591H120.572V23.721C120.572 25.3743 119.461 26.6143 117.885 26.6143C116.413 26.6143 115.38 25.4776 115.38 23.9018V16.591H111.789V24.7026C111.789 27.6735 113.7 29.8176 116.62 29.8176C118.402 29.8176 119.849 29.0426 120.572 27.8026V29.611H124.189V16.591Z" fill="white"/>
<path d="M125.739 29.611H129.33V10.9335H125.739V29.611Z" fill="white"/>
<path d="M139.581 25.1935C139.297 26.3043 138.341 26.8726 136.895 26.8726C135.086 26.8726 133.924 25.736 133.665 23.9018H143.017C143.043 23.6176 143.069 23.2301 143.069 22.7393C143.069 19.7685 141.235 16.3843 136.636 16.3843C132.219 16.3843 130.204 19.7685 130.204 23.0751C130.204 26.356 132.477 29.8176 136.895 29.8176C140.098 29.8176 142.578 28.0093 143.095 25.1935H139.581ZM136.636 19.0193C138.367 19.0193 139.375 20.1818 139.478 21.6285H133.717C134.027 19.8201 135.009 19.0193 136.636 19.0193Z" fill="white"/>
</svg>
