<svg width="347" height="73" viewBox="0 0 347 73" fill="none" xmlns="http://www.w3.org/2000/svg">
<path d="M43.5 35.9165C42.45 35.9165 41.562 35.5535 40.836 34.8275C40.11 34.1015 39.748 33.2145 39.75 32.1665C39.752 31.1185 40.115 30.2305 40.839 29.5025C41.563 28.7745 42.45 28.4125 43.5 28.4165C44.55 28.4205 45.438 28.7835 46.164 29.5055C46.89 30.2275 47.252 31.1145 47.25 32.1665C47.248 33.2185 46.885 34.1065 46.161 34.8305C45.437 35.5545 44.55 35.9165 43.5 35.9165ZM28.5 35.9165C27.45 35.9165 26.562 35.5535 25.836 34.8275C25.11 34.1015 24.748 33.2145 24.75 32.1665C24.752 31.1185 25.115 30.2305 25.839 29.5025C26.563 28.7745 27.45 28.4125 28.5 28.4165C29.55 28.4205 30.438 28.7835 31.164 29.5055C31.89 30.2275 32.252 31.1145 32.25 32.1665C32.248 33.2185 31.885 34.1065 31.161 34.8305C30.437 35.5545 29.55 35.9165 28.5 35.9165ZM36 51.6665C33 51.6665 30.287 50.8415 27.861 49.1915C25.435 47.5415 23.648 45.3665 22.5 42.6665H49.5C48.35 45.3665 46.563 47.5415 44.139 49.1915C41.715 50.8415 39.002 51.6665 36 51.6665ZM36 63.6665C32.25 63.6665 28.738 62.9545 25.464 61.5305C22.19 60.1065 19.34 58.1815 16.914 55.7555C14.488 53.3295 12.563 50.4795 11.139 47.2055C9.715 43.9315 9.002 40.4185 9 36.6665C8.998 32.9145 9.711 29.4025 11.139 26.1305C12.567 22.8585 14.491 20.0085 16.911 17.5805C19.331 15.1525 22.181 13.2275 25.461 11.8055C28.741 10.3835 32.254 9.67052 36 9.66652C39.746 9.66252 43.259 10.3755 46.539 11.8055C49.819 13.2355 52.669 15.1595 55.089 17.5775C57.509 19.9955 59.434 22.8455 60.864 26.1275C62.294 29.4095 63.006 32.9225 63 36.6665C62.994 40.4105 62.282 43.9235 60.864 47.2055C59.446 50.4875 57.521 53.3375 55.089 55.7555C52.657 58.1735 49.807 60.0985 46.539 61.5305C43.271 62.9625 39.758 63.6745 36 63.6665ZM36 57.6665C41.8 57.6665 46.75 55.6165 50.85 51.5165C54.95 47.4165 57 42.4665 57 36.6665C57 30.8665 54.95 25.9165 50.85 21.8165C46.75 17.7165 41.8 15.6665 36 15.6665H35.1C34.8 15.6665 34.5 15.7165 34.2 15.8165C33.9 16.1165 33.7 16.4415 33.6 16.7915C33.5 17.1415 33.45 17.5165 33.45 17.9165C33.45 18.9665 33.812 19.8545 34.536 20.5805C35.26 21.3065 36.148 21.6685 37.2 21.6665C37.65 21.6665 38.063 21.5915 38.439 21.4415C38.815 21.2915 39.202 21.2165 39.6 21.2165C40.2 21.2165 40.7 21.4415 41.1 21.8915C41.5 22.3415 41.7 22.8665 41.7 23.4665C41.7 24.6165 41.162 25.3545 40.086 25.6805C39.01 26.0065 38.048 26.1685 37.2 26.1665C34.95 26.1665 33.013 25.3545 31.389 23.7305C29.765 22.1065 28.952 20.1685 28.95 17.9165V17.4665C28.95 17.3165 28.975 17.1165 29.025 16.8665C24.875 18.3665 21.5 20.8915 18.9 24.4415C16.3 27.9915 15 32.0665 15 36.6665C15 42.4665 17.05 47.4165 21.15 51.5165C25.25 55.6165 30.2 57.6665 36 57.6665Z" fill="#EF5744"/>
<path d="M103.376 32.6509H97.777C97.6747 31.9264 97.4659 31.283 97.1506 30.7205C96.8352 30.1495 96.4304 29.6637 95.9361 29.2631C95.4418 28.8625 94.8707 28.5557 94.223 28.3426C93.5838 28.1296 92.8892 28.023 92.1392 28.023C90.7841 28.023 89.6037 28.3597 88.598 29.033C87.5923 29.6978 86.8125 30.6693 86.2585 31.9478C85.7045 33.2176 85.4276 34.7603 85.4276 36.5756C85.4276 38.4421 85.7045 40.0103 86.2585 41.2801C86.821 42.55 87.6051 43.5088 88.6108 44.1566C89.6165 44.8043 90.7798 45.1282 92.1009 45.1282C92.8423 45.1282 93.5284 45.0301 94.1591 44.8341C94.7983 44.6381 95.3651 44.3526 95.8594 43.9776C96.3537 43.5941 96.7628 43.1296 97.0866 42.5841C97.419 42.0387 97.6491 41.4165 97.777 40.7176L103.376 40.7432C103.232 41.9449 102.869 43.104 102.29 44.2205C101.719 45.3284 100.947 46.3213 99.9759 47.1992C99.0128 48.0685 97.8622 48.7588 96.5241 49.2702C95.1946 49.773 93.6903 50.0245 92.0114 50.0245C89.6761 50.0245 87.5881 49.496 85.7472 48.4392C83.9148 47.3824 82.4659 45.8526 81.4006 43.8497C80.3438 41.8469 79.8153 39.4222 79.8153 36.5756C79.8153 33.7205 80.3523 31.2915 81.4261 29.2887C82.5 27.2858 83.9574 25.7603 85.7983 24.712C87.6392 23.6551 89.7102 23.1267 92.0114 23.1267C93.5284 23.1267 94.9347 23.3398 96.2301 23.7659C97.5341 24.1921 98.6889 24.8142 99.6946 25.6324C100.7 26.4421 101.518 27.435 102.149 28.6111C102.788 29.7872 103.197 31.1338 103.376 32.6509ZM112.843 50.0372C111.59 50.0372 110.474 49.8199 109.494 49.3853C108.513 48.9421 107.738 48.2901 107.167 47.4293C106.604 46.56 106.323 45.4776 106.323 44.1821C106.323 43.0912 106.523 42.175 106.924 41.4335C107.325 40.6921 107.87 40.0955 108.56 39.6438C109.251 39.1921 110.035 38.8512 110.913 38.621C111.799 38.3909 112.728 38.229 113.7 38.1353C114.842 38.0159 115.762 37.9051 116.461 37.8029C117.16 37.6921 117.667 37.5301 117.982 37.3171C118.298 37.104 118.455 36.7887 118.455 36.371V36.2943C118.455 35.4847 118.2 34.8583 117.688 34.4151C117.185 33.9719 116.469 33.7503 115.54 33.7503C114.56 33.7503 113.781 33.9676 113.201 34.4023C112.621 34.8284 112.238 35.3654 112.05 36.0131L107.013 35.604C107.269 34.4108 107.772 33.3796 108.522 32.5103C109.272 31.6324 110.239 30.9591 111.424 30.4904C112.617 30.0131 113.998 29.7745 115.566 29.7745C116.657 29.7745 117.701 29.9023 118.698 30.158C119.704 30.4137 120.594 30.81 121.37 31.3469C122.154 31.8838 122.772 32.5742 123.224 33.4179C123.675 34.2532 123.901 35.2546 123.901 36.4222V49.6665H118.737V46.9435H118.583C118.268 47.5571 117.846 48.0983 117.317 48.5671C116.789 49.0273 116.154 49.3895 115.413 49.6537C114.671 49.9094 113.815 50.0372 112.843 50.0372ZM114.403 46.2787C115.204 46.2787 115.911 46.121 116.525 45.8057C117.138 45.4818 117.62 45.0472 117.969 44.5017C118.319 43.9563 118.494 43.3384 118.494 42.648V40.5642C118.323 40.675 118.089 40.7773 117.79 40.871C117.501 40.9563 117.173 41.0372 116.806 41.1139C116.44 41.1821 116.073 41.246 115.707 41.3057C115.34 41.3568 115.008 41.4037 114.71 41.4463C114.07 41.5401 113.512 41.6892 113.035 41.8938C112.558 42.0983 112.187 42.3753 111.923 42.7247C111.658 43.0657 111.526 43.4918 111.526 44.0032C111.526 44.7446 111.795 45.3114 112.332 45.7034C112.877 46.087 113.567 46.2787 114.403 46.2787ZM128.126 49.6665V30.0301H133.406V33.4563H133.611C133.969 32.2375 134.57 31.3171 135.413 30.6949C136.257 30.0642 137.229 29.7489 138.328 29.7489C138.601 29.7489 138.895 29.7659 139.21 29.8C139.526 29.8341 139.803 29.881 140.041 29.9407V34.773C139.786 34.6963 139.432 34.6282 138.98 34.5685C138.528 34.5088 138.115 34.479 137.74 34.479C136.939 34.479 136.223 34.6537 135.592 35.0032C134.97 35.3441 134.476 35.8213 134.109 36.435C133.751 37.0486 133.572 37.756 133.572 38.5571V49.6665H128.126ZM150.892 50.05C148.872 50.05 147.133 49.6409 145.676 48.8228C144.227 47.996 143.11 46.8284 142.326 45.3199C141.542 43.8029 141.15 42.0088 141.15 39.9378C141.15 37.9179 141.542 36.1452 142.326 34.6196C143.11 33.0941 144.214 31.9051 145.637 31.0529C147.069 30.2006 148.748 29.7745 150.674 29.7745C151.97 29.7745 153.176 29.9833 154.292 30.4009C155.417 30.81 156.397 31.4279 157.233 32.2546C158.076 33.0813 158.733 34.121 159.201 35.3739C159.67 36.6182 159.904 38.0756 159.904 39.746V41.2418H143.324V37.8668H154.778C154.778 37.0827 154.608 36.3881 154.267 35.783C153.926 35.1779 153.453 34.7049 152.848 34.3639C152.251 34.0145 151.556 33.8398 150.764 33.8398C149.937 33.8398 149.204 34.0316 148.565 34.4151C147.934 34.7901 147.44 35.2972 147.082 35.9364C146.724 36.5671 146.541 37.2702 146.532 38.0458V41.2546C146.532 42.2262 146.711 43.0657 147.069 43.773C147.436 44.4804 147.951 45.0259 148.616 45.4094C149.281 45.7929 150.069 45.9847 150.981 45.9847C151.586 45.9847 152.14 45.8995 152.643 45.729C153.146 45.5585 153.576 45.3029 153.934 44.962C154.292 44.621 154.565 44.2034 154.752 43.7091L159.789 44.0415C159.534 45.2517 159.01 46.3085 158.217 47.212C157.433 48.1068 156.419 48.8057 155.174 49.3085C153.939 49.8029 152.511 50.05 150.892 50.05ZM163.561 49.6665V23.4847H180.896V28.0486H169.096V34.2872H179.745V38.8512H169.096V49.6665H163.561ZM191.948 50.05C189.962 50.05 188.245 49.6282 186.796 48.7844C185.355 47.9321 184.243 46.7475 183.459 45.2304C182.675 43.7049 182.283 41.9364 182.283 39.925C182.283 37.8966 182.675 36.1239 183.459 34.6068C184.243 33.0813 185.355 31.8966 186.796 31.0529C188.245 30.2006 189.962 29.7745 191.948 29.7745C193.934 29.7745 195.647 30.2006 197.087 31.0529C198.536 31.8966 199.652 33.0813 200.436 34.6068C201.221 36.1239 201.613 37.8966 201.613 39.925C201.613 41.9364 201.221 43.7049 200.436 45.2304C199.652 46.7475 198.536 47.9321 197.087 48.7844C195.647 49.6282 193.934 50.05 191.948 50.05ZM191.973 45.8313C192.877 45.8313 193.631 45.5756 194.236 45.0642C194.841 44.5443 195.297 43.837 195.604 42.9421C195.919 42.0472 196.077 41.0287 196.077 39.8867C196.077 38.7446 195.919 37.7262 195.604 36.8313C195.297 35.9364 194.841 35.229 194.236 34.7091C193.631 34.1892 192.877 33.9293 191.973 33.9293C191.061 33.9293 190.294 34.1892 189.672 34.7091C189.059 35.229 188.594 35.9364 188.279 36.8313C187.972 37.7262 187.819 38.7446 187.819 39.8867C187.819 41.0287 187.972 42.0472 188.279 42.9421C188.594 43.837 189.059 44.5443 189.672 45.0642C190.294 45.5756 191.061 45.8313 191.973 45.8313ZM205.154 49.6665V30.0301H210.434V33.4563H210.638C210.996 32.2375 211.597 31.3171 212.441 30.6949C213.284 30.0642 214.256 29.7489 215.355 29.7489C215.628 29.7489 215.922 29.7659 216.238 29.8C216.553 29.8341 216.83 29.881 217.069 29.9407V34.773C216.813 34.6963 216.459 34.6282 216.007 34.5685C215.556 34.5088 215.142 34.479 214.767 34.479C213.966 34.479 213.25 34.6537 212.62 35.0032C211.998 35.3441 211.503 35.8213 211.137 36.435C210.779 37.0486 210.6 37.756 210.6 38.5571V49.6665H205.154ZM225.522 23.4847V49.6665H219.987V23.4847H225.522ZM235.42 38.3142V49.6665H229.974V30.0301H235.164V33.4946H235.395C235.829 32.3526 236.558 31.4492 237.581 30.7844C238.603 30.1111 239.843 29.7745 241.301 29.7745C242.664 29.7745 243.853 30.0728 244.868 30.6693C245.882 31.2659 246.67 32.1182 247.233 33.2262C247.795 34.3256 248.076 35.6381 248.076 37.1637V49.6665H242.63V38.1353C242.639 36.9335 242.332 35.996 241.71 35.3228C241.088 34.6409 240.231 34.3 239.14 34.3C238.407 34.3 237.76 34.4577 237.197 34.773C236.643 35.0884 236.208 35.5486 235.893 36.1537C235.586 36.7503 235.429 37.4705 235.42 38.3142ZM259.604 49.9861C258.113 49.9861 256.762 49.6026 255.552 48.8355C254.35 48.06 253.396 46.9222 252.688 45.4222C251.989 43.9137 251.64 42.0642 251.64 39.8739C251.64 37.6239 252.002 35.7532 252.727 34.2617C253.451 32.7617 254.414 31.6409 255.616 30.8995C256.826 30.1495 258.151 29.7745 259.592 29.7745C260.691 29.7745 261.607 29.962 262.34 30.337C263.082 30.7034 263.678 31.1637 264.13 31.7176C264.59 32.2631 264.94 32.8 265.178 33.3284H265.344V23.4847H270.778V49.6665H265.408V46.5216H265.178C264.923 47.0671 264.56 47.6083 264.092 48.1452C263.631 48.6736 263.031 49.1125 262.289 49.462C261.556 49.8114 260.661 49.9861 259.604 49.9861ZM261.33 45.6523C262.208 45.6523 262.95 45.4137 263.555 44.9364C264.168 44.4506 264.637 43.773 264.961 42.9037C265.293 42.0344 265.46 41.0159 265.46 39.8483C265.46 38.6807 265.298 37.6665 264.974 36.8057C264.65 35.9449 264.181 35.2801 263.567 34.8114C262.954 34.3426 262.208 34.1083 261.33 34.1083C260.435 34.1083 259.681 34.3512 259.067 34.837C258.454 35.3228 257.989 35.996 257.674 36.8568C257.359 37.7176 257.201 38.7148 257.201 39.8483C257.201 40.9904 257.359 42.0003 257.674 42.8782C257.998 43.7475 258.462 44.4293 259.067 44.9236C259.681 45.4094 260.435 45.6523 261.33 45.6523ZM275.255 49.6665V30.0301H280.701V49.6665H275.255ZM277.991 27.4989C277.181 27.4989 276.487 27.2304 275.907 26.6935C275.336 26.148 275.051 25.496 275.051 24.7375C275.051 23.9875 275.336 23.3441 275.907 22.8071C276.487 22.2617 277.181 21.9889 277.991 21.9889C278.801 21.9889 279.491 22.2617 280.062 22.8071C280.642 23.3441 280.931 23.9875 280.931 24.7375C280.931 25.496 280.642 26.148 280.062 26.6935C279.491 27.2304 278.801 27.4989 277.991 27.4989ZM290.663 50.0372C289.411 50.0372 288.294 49.8199 287.314 49.3853C286.334 48.9421 285.558 48.2901 284.987 47.4293C284.425 46.56 284.143 45.4776 284.143 44.1821C284.143 43.0912 284.344 42.175 284.744 41.4335C285.145 40.6921 285.69 40.0955 286.381 39.6438C287.071 39.1921 287.855 38.8512 288.733 38.621C289.619 38.3909 290.548 38.229 291.52 38.1353C292.662 38.0159 293.582 37.9051 294.281 37.8029C294.98 37.6921 295.487 37.5301 295.803 37.3171C296.118 37.104 296.276 36.7887 296.276 36.371V36.2943C296.276 35.4847 296.02 34.8583 295.509 34.4151C295.006 33.9719 294.29 33.7503 293.361 33.7503C292.381 33.7503 291.601 33.9676 291.021 34.4023C290.442 34.8284 290.058 35.3654 289.871 36.0131L284.834 35.604C285.089 34.4108 285.592 33.3796 286.342 32.5103C287.092 31.6324 288.06 30.9591 289.244 30.4904C290.438 30.0131 291.818 29.7745 293.386 29.7745C294.477 29.7745 295.521 29.9023 296.518 30.158C297.524 30.4137 298.415 30.81 299.19 31.3469C299.974 31.8838 300.592 32.5742 301.044 33.4179C301.496 34.2532 301.722 35.2546 301.722 36.4222V49.6665H296.557V46.9435H296.403C296.088 47.5571 295.666 48.0983 295.138 48.5671C294.609 49.0273 293.974 49.3895 293.233 49.6537C292.491 49.9094 291.635 50.0372 290.663 50.0372ZM292.223 46.2787C293.024 46.2787 293.732 46.121 294.345 45.8057C294.959 45.4818 295.44 45.0472 295.79 44.5017C296.139 43.9563 296.314 43.3384 296.314 42.648V40.5642C296.143 40.675 295.909 40.7773 295.611 40.871C295.321 40.9563 294.993 41.0372 294.626 41.1139C294.26 41.1821 293.893 41.246 293.527 41.3057C293.161 41.3568 292.828 41.4037 292.53 41.4463C291.891 41.5401 291.332 41.6892 290.855 41.8938C290.378 42.0983 290.007 42.3753 289.743 42.7247C289.479 43.0657 289.347 43.4918 289.347 44.0032C289.347 44.7446 289.615 45.3114 290.152 45.7034C290.697 46.087 291.388 46.2787 292.223 46.2787ZM311.393 38.3142V49.6665H305.947V30.0301H311.137V33.4946H311.367C311.802 32.3526 312.531 31.4492 313.553 30.7844C314.576 30.1111 315.816 29.7745 317.273 29.7745C318.637 29.7745 319.826 30.0728 320.84 30.6693C321.854 31.2659 322.643 32.1182 323.205 33.2262C323.768 34.3256 324.049 35.6381 324.049 37.1637V49.6665H318.603V38.1353C318.612 36.9335 318.305 35.996 317.683 35.3228C317.06 34.6409 316.204 34.3 315.113 34.3C314.38 34.3 313.732 34.4577 313.17 34.773C312.616 35.0884 312.181 35.5486 311.866 36.1537C311.559 36.7503 311.401 37.4705 311.393 38.3142ZM344.679 35.6296L339.694 35.9364C339.608 35.5103 339.425 35.1267 339.144 34.7858C338.863 34.4364 338.492 34.1594 338.032 33.9549C337.58 33.7418 337.039 33.6353 336.408 33.6353C335.564 33.6353 334.853 33.8142 334.273 34.1722C333.694 34.5216 333.404 34.9904 333.404 35.5784C333.404 36.0472 333.591 36.4435 333.966 36.7674C334.341 37.0912 334.985 37.3512 335.897 37.5472L339.451 38.2631C341.36 38.6551 342.783 39.2858 343.721 40.1551C344.658 41.0245 345.127 42.1665 345.127 43.5813C345.127 44.8682 344.748 45.9975 343.989 46.9691C343.239 47.9407 342.208 48.6992 340.895 49.2446C339.591 49.7816 338.087 50.05 336.382 50.05C333.783 50.05 331.712 49.5088 330.169 48.4264C328.635 47.3355 327.736 45.8526 327.472 43.9776L332.828 43.6963C332.99 44.4889 333.382 45.0941 334.005 45.5117C334.627 45.9208 335.424 46.1253 336.395 46.1253C337.35 46.1253 338.117 45.9421 338.696 45.5756C339.284 45.2006 339.583 44.7191 339.591 44.131C339.583 43.6367 339.374 43.2318 338.965 42.9165C338.556 42.5926 337.925 42.3455 337.073 42.175L333.672 41.4975C331.755 41.1139 330.327 40.4492 329.39 39.5032C328.461 38.5571 327.996 37.3512 327.996 35.8853C327.996 34.6239 328.337 33.5372 329.019 32.6253C329.709 31.7134 330.676 31.0103 331.921 30.5159C333.174 30.0216 334.64 29.7745 336.319 29.7745C338.799 29.7745 340.75 30.2986 342.174 31.3469C343.605 32.3952 344.441 33.8228 344.679 35.6296Z" fill="#EF5744"/>
</svg>
