<svg width="180" height="181" viewBox="0 0 180 181" fill="none" xmlns="http://www.w3.org/2000/svg">
<rect y="0.660156" width="180" height="180" rx="6.42857" fill="white"/>
<rect x="0.200893" y="0.861049" width="179.598" height="179.598" rx="6.22768" stroke="black" stroke-opacity="0.3" stroke-width="0.401786"/>
<path d="M165.589 82.8045C165.41 70.2758 160.488 58.1814 152.991 48.8452C148.605 43.3835 143.327 38.5987 137.566 34.873C131.586 31.0063 125.085 26.676 117.871 26.0113C116.09 25.8473 114.264 25.9258 112.507 26.4497C105.778 28.4554 119.092 35.604 120.832 36.6493C102.223 28.69 82.9611 20.6032 62.6192 21.366C58.6968 21.5132 54.6282 22.041 51.1795 24.2177C47.7313 26.3944 45.0624 30.5932 45.5758 34.7551C46.0004 38.1953 48.3236 42.0386 46.1444 44.7274C45.5211 45.4963 44.6378 45.9508 43.7706 46.3455C39.3208 48.3705 34.5167 49.4325 30.3011 52.0084C23.7733 55.9976 19.3179 63.3272 17.2531 71.0392C15.1882 78.7513 15.2872 86.8548 16.0979 94.6996C17.6234 109.464 21.7714 124.111 30.1655 135.592C42.1558 151.993 61.8137 160.346 81.5041 161.723C105.33 163.389 131.163 154.664 146.918 134.47C149.254 131.475 151.397 128.156 152.247 124.4C153.097 120.644 152.423 116.364 149.808 113.897C149.103 113.232 148.196 112.528 148.272 111.496C148.376 110.1 150.053 109.628 151.331 109.335C159.718 107.412 164.514 97.2385 165.379 88.0891C165.547 86.3232 165.615 84.5595 165.589 82.8045Z" fill="#FFECB5"/>
<path opacity="0.7" d="M165.589 82.8045C165.41 70.2758 160.488 58.1814 152.991 48.8452C148.605 43.3835 143.327 38.5987 137.566 34.873C131.586 31.0063 125.085 26.676 117.871 26.0113C116.09 25.8473 114.264 25.9258 112.507 26.4497C105.778 28.4554 119.092 35.604 120.832 36.6493C102.223 28.69 82.9611 20.6032 62.6192 21.366C58.6968 21.5132 54.6282 22.041 51.1795 24.2177C47.7313 26.3944 45.0624 30.5932 45.5758 34.7551C46.0004 38.1953 48.3236 42.0386 46.1444 44.7274C45.5211 45.4963 44.6378 45.9508 43.7706 46.3455C39.3208 48.3705 34.5167 49.4325 30.3011 52.0084C23.7733 55.9976 19.3179 63.3272 17.2531 71.0392C15.1882 78.7513 15.2872 86.8548 16.0979 94.6996C17.6234 109.464 21.7714 124.111 30.1655 135.592C42.1558 151.993 61.8137 160.346 81.5041 161.723C105.33 163.389 131.163 154.664 146.918 134.47C149.254 131.475 151.397 128.156 152.247 124.4C153.097 120.644 152.423 116.364 149.808 113.897C149.103 113.232 148.196 112.528 148.272 111.496C148.376 110.1 150.053 109.628 151.331 109.335C159.718 107.412 164.514 97.2385 165.379 88.0891C165.547 86.3232 165.615 84.5595 165.589 82.8045Z" fill="#FFEEC6"/>
<path d="M92.4414 155.342C125.402 155.342 152.122 128.622 152.122 95.6613C152.122 62.7006 125.402 35.9807 92.4414 35.9807C59.4807 35.9807 32.7607 62.7006 32.7607 95.6613C32.7607 128.622 59.4807 155.342 92.4414 155.342Z" fill="#263238" stroke="#263238" stroke-width="0.642857" stroke-miterlimit="10"/>
<path d="M92.3193 151.416C125.28 151.416 152 124.696 152 91.7355C152 58.7749 125.28 32.0549 92.3193 32.0549C59.3586 32.0549 32.6387 58.7749 32.6387 91.7355C32.6387 124.696 59.3586 151.416 92.3193 151.416Z" fill="#C4C4C4" stroke="#263238" stroke-width="0.642857" stroke-miterlimit="10"/>
<path d="M92.3193 149.547C125.28 149.547 152 122.827 152 89.8659C152 56.9052 125.28 30.1853 92.3193 30.1853C59.3586 30.1853 32.6387 56.9052 32.6387 89.8659C32.6387 122.827 59.3586 149.547 92.3193 149.547Z" fill="white" stroke="#263238" stroke-width="0.642857" stroke-miterlimit="10"/>
<path d="M92.3194 132.817C116.041 132.817 135.271 113.587 135.271 89.866C135.271 66.1447 116.041 46.9148 92.3194 46.9148C68.5981 46.9148 49.3682 66.1447 49.3682 89.866C49.3682 113.587 68.5981 132.817 92.3194 132.817Z" fill="white" stroke="#263238" stroke-width="0.642857" stroke-miterlimit="10"/>
<path d="M52.4256 71.9814L60.9277 66.2368L62.7486 67.8308C62.7486 67.8308 72.1465 70.4295 74.1147 69.9049C76.0828 69.38 76.4762 68.724 76.4762 68.724L77.5257 68.1991C77.5257 68.1991 80.1537 68.0847 80.8078 69.2573C81.4619 70.4295 79.7753 70.7259 82.7177 71.6275C85.66 72.5291 89.8585 71.873 91.9578 71.0859C94.057 70.2987 95.2377 67.806 95.5003 65.1819C95.7626 62.558 93.3059 57.3609 92.4827 56.654C91.6595 55.9472 90.1212 57.0478 89.334 55.4731C88.5468 53.8988 88.5468 52.0618 88.5468 52.0618C88.5468 52.0618 91.0395 52.3241 91.6955 50.8809C92.3515 49.4376 92.628 49.2689 90.7839 47.9758C88.9402 46.6827 81.8553 50.7497 79.2315 51.9306C76.6077 53.1116 72.0154 54.161 72.0154 54.161C72.0154 54.161 67.2923 55.7354 66.7674 55.7354C66.2425 55.7354 65.8491 55.8665 64.537 55.7354C63.225 55.6042 62.0444 55.2105 60.9946 55.342C59.9451 55.4731 59.0265 57.3101 58.633 58.8844C58.2393 60.4588 55.7466 65.4445 54.3034 66.7565C52.8602 68.068 49.1046 71.0402 52.4256 71.9814Z" fill="#263238" stroke="#263238" stroke-width="0.642857" stroke-miterlimit="10"/>
<path d="M85.3178 61.4733C85.3178 61.4733 80.1997 61.1844 78.7548 61.0191C77.3103 60.8539 73.8431 60.0285 73.0588 61.0191C72.2745 62.0098 71.9029 65.8072 72.6872 66.5088C73.4715 67.2105 73.5953 67.3757 75.6177 67.6647C77.6401 67.9536 81.1074 68.2838 81.6027 68.3664C82.098 68.449 83.6251 68.9028 83.6251 68.9028C83.6251 68.9028 83.9552 69.646 84.6569 67.5406C85.3589 65.4359 85.6067 61.8038 85.3178 61.4733Z" fill="#B0B0B0" stroke="#263238" stroke-width="0.642857" stroke-miterlimit="10"/>
<path d="M88.8672 57.0979C88.8672 57.0979 86.9274 56.9327 86.0605 57.2632C85.1936 57.5933 84.9461 57.8822 84.9047 58.3364C84.8635 58.7906 83.8729 65.6833 83.5424 67.3345C83.212 68.9857 81.9739 70.5128 82.717 71.6272C83.4602 72.7416 87.3398 73.567 90.0639 72.4941C92.788 71.4208 94.274 67.3348 94.0676 64.1565C93.8613 60.9782 92.4168 58.7494 91.2198 58.0889C90.0231 57.4284 89.3626 56.9331 88.8672 57.0979Z" fill="#B0B0B0" stroke="#263238" stroke-width="0.642857" stroke-miterlimit="10"/>
<path d="M71.7451 51.1306C71.7451 51.1306 75.7003 51.2216 77.8828 50.4485C80.065 49.6755 80.8833 49.0847 81.4744 49.9484C82.0655 50.8121 82.8839 53.9492 82.6567 54.9495C82.4294 55.9498 80.1106 56.0861 78.6558 56.5862C77.201 57.0863 74.746 57.7228 74.746 57.7228C74.746 57.7228 74.3821 55.3587 73.5641 54.0402C72.7457 52.7217 71.973 51.4941 71.973 51.4941L71.7451 51.1306Z" fill="#B0B0B0" stroke="#263238" stroke-width="0.642857" stroke-miterlimit="10"/>
<path d="M72.5627 51.3578C72.5627 51.3578 71.6534 49.6302 70.9716 48.7665C70.2896 47.9028 67.8345 47.2207 65.7433 48.3117C63.6521 49.4029 63.1972 54.1765 63.6974 56.9044C64.1975 59.6324 66.3797 62.8145 69.3349 63.4966C72.2901 64.1787 74.1541 62.9511 75.1997 60.6323C76.2453 58.3136 75.6542 55.5859 75.0178 54.7222C74.3814 53.8586 73.7902 52.9036 73.7902 52.9036C73.7902 52.9036 73.3354 52.3581 73.2448 52.0399C73.1538 51.7217 72.5627 51.3578 72.5627 51.3578Z" fill="#B0B0B0" stroke="#263238" stroke-width="0.642857" stroke-miterlimit="10"/>
<path d="M71.3807 49.585L70.6533 49.7212" stroke="#263238" stroke-width="0.642857" stroke-miterlimit="10"/>
<path d="M70.608 49.1302C70.608 49.1302 70.1535 49.0848 69.6533 49.403" stroke="#263238" stroke-width="0.642857" stroke-miterlimit="10"/>
<path d="M72.8809 60.3596C72.8809 60.3596 73.7445 60.2686 74.4266 59.9048" stroke="#263238" stroke-width="0.642857" stroke-miterlimit="10"/>
<path d="M75.6998 58.314C75.6998 58.314 74.9724 58.7685 74.5176 58.8594" stroke="#263238" stroke-width="0.642857" stroke-miterlimit="10"/>
<path d="M81.7854 49.9157C81.7854 49.9157 81.4553 53.713 81.7854 56.396C82.1155 59.0789 82.8586 59.2027 82.8586 59.2027C82.8586 59.2027 84.7162 59.409 85.6654 59.3679C86.6149 59.3268 87.3988 59.2442 87.5229 58.4187C87.6466 57.5933 87.3577 51.4845 87.3577 51.4845L87.1098 49.0905L81.7439 48.9668L81.7854 49.9157Z" fill="#B0B0B0" stroke="#263238" stroke-width="0.642857" stroke-miterlimit="10"/>
<path d="M84.6431 44.6516C84.6431 44.6516 81.6098 44.4494 79.8908 45.7637C78.1718 47.078 78.1718 48.797 78.4752 49.2014C78.7787 49.6058 79.5559 49.7915 79.5559 49.7915L79.886 49.5437L80.1338 49.9976C80.1338 49.9976 81.2071 50.2039 81.372 50.2454C81.5372 50.2865 82.1562 50.3691 82.3626 50.3691C82.569 50.3691 84.4265 50.6581 84.4265 50.6581C84.4265 50.6581 84.7981 50.5344 84.963 50.4106C85.1282 50.2869 85.4171 50.4106 85.582 50.4932C85.7472 50.5758 85.7058 50.617 85.9536 50.5758C86.2011 50.5347 86.8616 50.4932 86.8616 50.4932L87.2332 50.3695C87.6048 50.1216 87.976 50.1216 87.976 50.1216L88.5125 50.5344L89.7921 50.4518C89.7921 50.4518 90.2463 50.328 90.37 50.2865C90.4938 50.2454 90.8239 50.039 90.8239 50.039C90.8239 50.039 91.154 49.2548 90.7827 47.9751C90.4112 46.6955 89.9573 45.9113 89.0078 45.4159C88.0586 44.9213 85.3136 44.5886 84.6431 44.6516Z" fill="#B0B0B0" stroke="#263238" stroke-width="0.642857" stroke-miterlimit="10"/>
<path d="M89.7925 50.452C89.7925 50.452 89.8195 49.9124 89.7285 49.5032" stroke="#263238" stroke-width="0.642857" stroke-miterlimit="10"/>
<path d="M90.3652 48.9578L90.5015 49.7758" stroke="#263238" stroke-width="0.642857" stroke-miterlimit="10"/>
<path d="M80.9087 48.23C80.9087 48.23 80.8178 48.8664 80.8634 49.2756" stroke="#263238" stroke-width="0.642857" stroke-miterlimit="10"/>
<path d="M76.9289 59.8049C76.9289 59.8049 76.5988 63.6022 76.9289 66.2852C77.259 68.9682 78.0022 69.0919 78.0022 69.0919C78.0022 69.0919 79.8597 69.2983 80.8089 69.2571C81.7581 69.216 82.5424 69.1334 82.6661 68.3076C82.7899 67.4822 82.5009 61.3735 82.5009 61.3735L82.2534 58.9795L76.8875 58.8557L76.9289 59.8049Z" fill="#B0B0B0" stroke="#263238" stroke-width="0.642857" stroke-miterlimit="10"/>
<path d="M79.7867 54.541C79.7867 54.541 76.7534 54.3388 75.0344 55.6531C73.3154 56.9674 73.3154 58.6864 73.6188 59.0908C73.9222 59.4952 74.6994 59.6809 74.6994 59.6809L75.0295 59.4334L75.2771 59.8873C75.2771 59.8873 76.3503 60.0937 76.5152 60.1351C76.6804 60.1763 77.2995 60.2589 77.5058 60.2589C77.7122 60.2589 79.5697 60.5478 79.5697 60.5478C79.5697 60.5478 79.9413 60.4241 80.1062 60.3003C80.2714 60.1766 80.5604 60.3003 80.7253 60.3829C80.8905 60.4655 80.849 60.5067 81.0968 60.4655C81.3447 60.4244 82.0049 60.3829 82.0049 60.3829L82.3764 60.2592C82.748 60.0117 83.1196 60.0117 83.1196 60.0117L83.656 60.4244L84.9357 60.3418C84.9357 60.3418 85.3898 60.218 85.5136 60.1766C85.6373 60.1354 85.9678 59.9291 85.9678 59.9291C85.9678 59.9291 86.2979 59.1448 85.9266 57.8652C85.555 56.5856 85.1012 55.8013 84.1517 55.306C83.2025 54.8107 80.4575 54.478 79.7867 54.541Z" fill="#B0B0B0" stroke="#263238" stroke-width="0.642857" stroke-miterlimit="10"/>
<path d="M84.936 60.3414C84.936 60.3414 84.963 59.8018 84.8721 59.3926" stroke="#263238" stroke-width="0.642857" stroke-miterlimit="10"/>
<path d="M85.5088 58.8472L85.6454 59.6655" stroke="#263238" stroke-width="0.642857" stroke-miterlimit="10"/>
<path d="M76.0524 58.1199C76.0524 58.1199 75.9615 58.7563 76.0068 59.1655" stroke="#263238" stroke-width="0.642857" stroke-miterlimit="10"/>
<path d="M55.8049 59.1733C55.8049 59.1733 51.8346 62.0832 49.5091 64.6864C47.1835 67.2897 47.6952 68.117 47.6952 68.117C47.6952 68.117 49.0748 70.097 49.9227 70.9845C50.7704 71.8716 51.518 72.5634 52.4254 71.9813C53.3328 71.3992 59.0221 65.9214 59.0221 65.9214L61.1371 63.644L56.6924 58.3257L55.8049 59.1733Z" fill="#B0B0B0" stroke="#263238" stroke-width="0.642857" stroke-miterlimit="10"/>
<path d="M63.3506 57.4721C63.3506 57.4721 60.9665 54.3529 58.227 53.8014C55.4878 53.2498 53.8177 54.712 53.683 55.3506C53.5483 55.9893 54.0292 56.9025 54.0292 56.9025L54.5505 57.0128L54.32 57.6395C54.32 57.6395 55.0327 58.8578 55.1329 59.0532C55.2332 59.2486 55.6797 59.9204 55.8555 60.121C56.031 60.3215 57.3305 62.3719 57.3305 62.3719C57.3305 62.3719 57.7667 62.6275 58.0277 62.6824C58.2884 62.7374 58.4141 63.1234 58.4742 63.3542C58.5346 63.585 58.4594 63.5799 58.7101 63.7853C58.9608 63.9906 59.5629 64.5972 59.5629 64.5972L59.999 64.8527C60.5558 65.0028 60.8717 65.3638 60.8717 65.3638L60.9273 66.2361L62.0961 67.409C62.0961 67.409 62.6026 67.7449 62.7482 67.8301C62.8935 67.9153 63.375 68.0606 63.375 68.0606C63.375 68.0606 64.4177 67.7141 65.3451 66.2648C66.2721 64.8154 66.6478 63.7068 66.3212 62.3633C65.9943 61.0197 63.9822 58.0699 63.3506 57.4721Z" fill="#B0B0B0" stroke="#263238" stroke-width="0.642857" stroke-miterlimit="10"/>
<path d="M62.0957 67.4093C62.0957 67.4093 62.6431 66.9763 62.9632 66.5398" stroke="#263238" stroke-width="0.642857" stroke-miterlimit="10"/>
<path d="M64.0356 66.6943L63.3564 67.523" stroke="#263238" stroke-width="0.642857" stroke-miterlimit="10"/>
<path d="M56.6962 56.8884C56.6962 56.8884 56.0003 57.3416 55.6416 57.7338" stroke="#263238" stroke-width="0.642857" stroke-miterlimit="10"/>
<path d="M70.5948 60.5292C70.5948 60.5292 69.4113 59.6543 68.0732 59.3971C66.7351 59.1397 63.236 59.9632 61.7436 61.9702C60.2512 63.9772 60.6115 66.4988 61.6408 68.1455C62.67 69.7921 66.2208 70.0496 66.2208 70.0496C66.2208 70.0496 66.1694 68.9175 66.684 66.8591C67.1983 64.8007 70.5948 60.5292 70.5948 60.5292Z" fill="#B0B0B0" stroke="#263238" stroke-width="0.642857" stroke-miterlimit="10"/>
<path d="M69.1539 60.1173C69.0045 60.1559 66.0663 62.4847 65.2428 65.1606C64.4193 67.8364 65.5517 69.9463 66.2206 70.0495C66.8895 70.1523 67.8673 68.7114 67.8673 68.7114C67.8673 68.7114 70.9035 63.5653 71.0063 62.5361C71.1095 61.5069 70.5435 59.7573 69.1539 60.1173Z" fill="#828282" stroke="#263238" stroke-width="0.642857" stroke-miterlimit="10"/>
<path d="M69.7197 62.4333C69.7197 62.4333 68.4331 63.7715 67.3524 65.3667C66.2718 66.962 67.095 68.8147 67.095 68.8147C67.095 68.8147 72.7556 71.3877 73.6306 70.976C74.5055 70.5642 75.7919 66.4988 75.6376 65.727C75.4836 64.955 69.7197 62.4333 69.7197 62.4333Z" fill="#B0B0B0" stroke="#263238" stroke-width="0.642857" stroke-miterlimit="10"/>
<path d="M66.8187 109.259C66.8187 109.259 60.1516 108.324 59.2159 109.61C58.2803 110.897 62.959 119.436 66.468 123.529C69.977 127.623 76.9951 132.77 86.5862 133.705C96.1776 134.641 106.12 134.29 112.67 128.559C119.22 122.827 122.729 110.078 120.507 101.656C118.284 93.2344 111.149 88.7897 109.979 87.0353C108.81 85.2809 107.523 83.0586 105.535 83.0586C103.546 83.0586 102.728 84.3453 102.728 85.398C102.728 86.4506 103.546 90.3107 101.09 96.1591C98.6337 102.007 91.1479 107.037 86.3522 108.207C81.5565 109.377 73.0181 108.558 70.5617 108.792C68.1054 109.025 66.8187 109.259 66.8187 109.259Z" fill="#FFB300"/>
<path d="M90.8326 113.334C90.8326 113.334 87.193 112.828 85.6765 113.435C84.16 114.042 83.9865 117.16 86.3843 117.985C88.8166 118.821 92.1733 118.899 93.6637 117.58C95.752 115.732 93.7646 113.435 90.8326 113.334Z" fill="#FFB300"/>
<path opacity="0.48" d="M90.8326 113.334C90.8326 113.334 87.193 112.828 85.6765 113.435C84.16 114.042 83.9865 117.16 86.3843 117.985C88.8166 118.821 92.1733 118.899 93.6637 117.58C95.752 115.732 93.7646 113.435 90.8326 113.334Z" fill="white"/>
<path d="M90.8326 113.334C90.8326 113.334 87.193 112.828 85.6765 113.435C84.16 114.042 83.9865 117.16 86.3843 117.985C88.8166 118.821 92.1733 118.899 93.6637 117.58C95.752 115.732 93.7646 113.435 90.8326 113.334Z" stroke="#263238" stroke-width="0.642857" stroke-miterlimit="10"/>
<path d="M87.0664 115.223C87.0664 115.777 86.6945 116.227 86.2358 116.227C85.7772 116.227 85.4053 115.777 85.4053 115.223C85.4053 114.669 85.7772 114.22 86.2358 114.22C86.6945 114.219 87.0664 114.669 87.0664 115.223Z" fill="white"/>
<path d="M109.884 97.0037C109.884 97.0037 106.245 96.4981 104.728 97.1046C103.212 97.7112 103.038 100.83 105.436 101.654C107.868 102.49 111.225 102.569 112.715 101.25C114.804 99.4019 112.816 97.1049 109.884 97.0037Z" fill="#FFB300"/>
<path opacity="0.48" d="M109.884 97.0037C109.884 97.0037 106.245 96.4981 104.728 97.1046C103.212 97.7112 103.038 100.83 105.436 101.654C107.868 102.49 111.225 102.569 112.715 101.25C114.804 99.4019 112.816 97.1049 109.884 97.0037Z" fill="white"/>
<path d="M109.884 97.0037C109.884 97.0037 106.245 96.4981 104.728 97.1046C103.212 97.7112 103.038 100.83 105.436 101.654C107.868 102.49 111.225 102.569 112.715 101.25C114.804 99.4019 112.816 97.1049 109.884 97.0037Z" stroke="#263238" stroke-width="0.642857" stroke-miterlimit="10"/>
<path d="M106.118 98.8932C106.118 99.4473 105.746 99.8966 105.288 99.8966C104.829 99.8966 104.457 99.4473 104.457 98.8932C104.457 98.339 104.829 97.8896 105.288 97.8896C105.746 97.8896 106.118 98.339 106.118 98.8932Z" fill="white"/>
<path d="M103.3 104.047C103.3 104.047 100.46 104.556 99.2727 106.337C98.0856 108.117 98.3399 109.77 99.1878 110.279C100.036 110.788 101.223 111.127 102.367 110.491C103.512 109.855 105.081 108.372 105.801 107.735C106.522 107.1 107.116 105.319 106.098 104.429C105.081 103.539 103.3 104.047 103.3 104.047Z" fill="#FFB300"/>
<path opacity="0.48" d="M103.3 104.047C103.3 104.047 100.46 104.556 99.2727 106.337C98.0856 108.117 98.3399 109.77 99.1878 110.279C100.036 110.788 101.223 111.127 102.367 110.491C103.512 109.855 105.081 108.372 105.801 107.735C106.522 107.1 107.116 105.319 106.098 104.429C105.081 103.539 103.3 104.047 103.3 104.047Z" fill="white"/>
<path d="M103.3 104.047C103.3 104.047 100.46 104.556 99.2727 106.337C98.0856 108.117 98.3399 109.77 99.1878 110.279C100.036 110.788 101.223 111.127 102.367 110.491C103.512 109.855 105.081 108.372 105.801 107.735C106.522 107.1 107.116 105.319 106.098 104.429C105.081 103.539 103.3 104.047 103.3 104.047Z" stroke="#263238" stroke-width="0.642857" stroke-miterlimit="10"/>
<path d="M99.8361 109.721C100.237 109.721 100.563 109.395 100.563 108.994C100.563 108.593 100.237 108.267 99.8361 108.267C99.4347 108.267 99.1094 108.593 99.1094 108.994C99.1094 109.395 99.4347 109.721 99.8361 109.721Z" fill="white"/>
<path d="M112.373 113.422C112.373 113.422 109.533 113.931 108.346 115.711C107.159 117.491 107.413 119.145 108.261 119.654C109.109 120.163 110.296 120.502 111.441 119.866C112.585 119.23 114.154 117.746 114.874 117.11C115.595 116.474 116.189 114.693 115.171 113.803C114.154 112.913 112.373 113.422 112.373 113.422Z" fill="#FFB300"/>
<path opacity="0.48" d="M112.373 113.422C112.373 113.422 109.533 113.931 108.346 115.711C107.159 117.491 107.413 119.145 108.261 119.654C109.109 120.163 110.296 120.502 111.441 119.866C112.585 119.23 114.154 117.746 114.874 117.11C115.595 116.474 116.189 114.693 115.171 113.803C114.154 112.913 112.373 113.422 112.373 113.422Z" fill="white"/>
<path d="M112.373 113.422C112.373 113.422 109.533 113.931 108.346 115.711C107.159 117.491 107.413 119.145 108.261 119.654C109.109 120.163 110.296 120.502 111.441 119.866C112.585 119.23 114.154 117.746 114.874 117.11C115.595 116.474 116.189 114.693 115.171 113.803C114.154 112.913 112.373 113.422 112.373 113.422Z" stroke="#263238" stroke-width="0.642857" stroke-miterlimit="10"/>
<path d="M108.909 119.095C109.311 119.095 109.636 118.77 109.636 118.369C109.636 117.967 109.311 117.642 108.909 117.642C108.508 117.642 108.183 117.967 108.183 118.369C108.183 118.77 108.508 119.095 108.909 119.095Z" fill="white"/>
<path d="M94.2671 126.16C94.2671 126.16 91.4977 126.233 90.0763 126.305C88.655 126.378 87.2703 126.378 87.0154 127.727C86.7602 129.075 87.0517 130.678 90.4775 130.642C93.9029 130.606 95.9437 130.241 96.0167 128.71C96.0893 127.18 95.251 126.123 94.2671 126.16Z" fill="#FFB300"/>
<path opacity="0.48" d="M94.2671 126.16C94.2671 126.16 91.4977 126.233 90.0763 126.305C88.655 126.378 87.2703 126.378 87.0154 127.727C86.7602 129.075 87.0517 130.678 90.4775 130.642C93.9029 130.606 95.9437 130.241 96.0167 128.71C96.0893 127.18 95.251 126.123 94.2671 126.16Z" fill="white"/>
<path d="M94.2671 126.16C94.2671 126.16 91.4977 126.233 90.0763 126.305C88.655 126.378 87.2703 126.378 87.0154 127.727C86.7602 129.075 87.0517 130.678 90.4775 130.642C93.9029 130.606 95.9437 130.241 96.0167 128.71C96.0893 127.18 95.251 126.123 94.2671 126.16Z" stroke="#263238" stroke-width="0.642857" stroke-miterlimit="10"/>
<path d="M88.0688 128.544C88.0688 129.098 87.8984 129.548 87.6882 129.548C87.478 129.548 87.3076 129.098 87.3076 128.544C87.3076 127.99 87.478 127.541 87.6882 127.541C87.8984 127.541 88.0688 127.99 88.0688 128.544Z" fill="white"/>
<path d="M96.9304 123.601C96.9304 123.601 95.15 124.279 94.8955 125.678C94.6412 127.077 96.5913 129.451 98.5835 129.917C100.576 130.384 101.848 129.706 101.297 127.671C100.745 125.636 98.9226 124.11 98.202 123.601C97.4814 123.093 96.9304 123.601 96.9304 123.601Z" fill="#FFB300"/>
<path opacity="0.48" d="M96.9304 123.601C96.9304 123.601 95.15 124.279 94.8955 125.678C94.6412 127.077 96.5913 129.451 98.5835 129.917C100.576 130.384 101.848 129.706 101.297 127.671C100.745 125.636 98.9226 124.11 98.202 123.601C97.4814 123.093 96.9304 123.601 96.9304 123.601Z" fill="white"/>
<path d="M96.9304 123.601C96.9304 123.601 95.15 124.279 94.8955 125.678C94.6412 127.077 96.5913 129.451 98.5835 129.917C100.576 130.384 101.848 129.706 101.297 127.671C100.745 125.636 98.9226 124.11 98.202 123.601C97.4814 123.093 96.9304 123.601 96.9304 123.601Z" stroke="#263238" stroke-width="0.642857" stroke-miterlimit="10"/>
<path d="M95.3178 126.851C95.4727 127.323 95.7604 127.653 95.9603 127.587C96.1599 127.522 96.1962 127.086 96.041 126.614C95.8857 126.141 95.5984 125.812 95.3985 125.877C95.1992 125.943 95.1628 126.379 95.3178 126.851Z" fill="white"/>
<path d="M94.2446 122.336C94.2446 122.336 91.3296 120.099 89.7112 119.877C88.0928 119.656 86.4018 122.281 88.0793 124.183C89.7809 126.112 92.6613 127.837 94.6085 127.427C97.3377 126.851 96.744 123.872 94.2446 122.336Z" fill="#FFB300"/>
<path opacity="0.48" d="M94.2446 122.336C94.2446 122.336 91.3296 120.099 89.7112 119.877C88.0928 119.656 86.4018 122.281 88.0793 124.183C89.7809 126.112 92.6613 127.837 94.6085 127.427C97.3377 126.851 96.744 123.872 94.2446 122.336Z" fill="white"/>
<path d="M94.2446 122.336C94.2446 122.336 91.3296 120.099 89.7112 119.877C88.0928 119.656 86.4018 122.281 88.0793 124.183C89.7809 126.112 92.6613 127.837 94.6085 127.427C97.3377 126.851 96.744 123.872 94.2446 122.336Z" stroke="#263238" stroke-width="0.642857" stroke-miterlimit="10"/>
<path d="M90.0357 122.118C89.7619 122.6 89.2167 122.807 88.8178 122.581C88.4189 122.354 88.3177 121.78 88.5912 121.298C88.8651 120.816 89.4102 120.609 89.8091 120.836C90.2083 121.062 90.3096 121.637 90.0357 122.118Z" fill="white"/>
<path d="M103.702 119.875C103.702 119.875 100.861 120.384 99.674 122.164C98.487 123.944 98.7413 125.598 99.5892 126.107C100.437 126.616 101.624 126.955 102.769 126.319C103.913 125.683 105.482 124.199 106.203 123.563C106.923 122.927 107.517 121.146 106.499 120.256C105.482 119.366 103.702 119.875 103.702 119.875Z" fill="#FFB300"/>
<path opacity="0.48" d="M103.702 119.875C103.702 119.875 100.861 120.384 99.674 122.164C98.487 123.944 98.7413 125.598 99.5892 126.107C100.437 126.616 101.624 126.955 102.769 126.319C103.913 125.683 105.482 124.199 106.203 123.563C106.923 122.927 107.517 121.146 106.499 120.256C105.482 119.366 103.702 119.875 103.702 119.875Z" fill="white"/>
<path d="M103.702 119.875C103.702 119.875 100.861 120.384 99.674 122.164C98.487 123.944 98.7413 125.598 99.5892 126.107C100.437 126.616 101.624 126.955 102.769 126.319C103.913 125.683 105.482 124.199 106.203 123.563C106.923 122.927 107.517 121.146 106.499 120.256C105.482 119.366 103.702 119.875 103.702 119.875Z" stroke="#263238" stroke-width="0.642857" stroke-miterlimit="10"/>
<path d="M100.237 125.548C100.639 125.548 100.964 125.223 100.964 124.822C100.964 124.42 100.639 124.095 100.237 124.095C99.8361 124.095 99.5107 124.42 99.5107 124.822C99.5107 125.223 99.8361 125.548 100.237 125.548Z" fill="white"/>
<path d="M101.148 116.114C101.148 116.114 98.0672 116.892 97.1691 118.195C96.2711 119.498 97.0676 121.243 98.4041 121.179C99.7406 121.116 102.284 120.109 103.491 119.165C104.699 118.221 104.635 116.966 103.397 116.345C102.159 115.724 101.148 116.114 101.148 116.114Z" fill="#FFB300"/>
<path opacity="0.48" d="M101.148 116.114C101.148 116.114 98.0672 116.892 97.1691 118.195C96.2711 119.498 97.0676 121.243 98.4041 121.179C99.7406 121.116 102.284 120.109 103.491 119.165C104.699 118.221 104.635 116.966 103.397 116.345C102.159 115.724 101.148 116.114 101.148 116.114Z" fill="white"/>
<path d="M101.148 116.114C101.148 116.114 98.0672 116.892 97.1691 118.195C96.2711 119.498 97.0676 121.243 98.4041 121.179C99.7406 121.116 102.284 120.109 103.491 119.165C104.699 118.221 104.635 116.966 103.397 116.345C102.159 115.724 101.148 116.114 101.148 116.114Z" stroke="#263238" stroke-width="0.642857" stroke-miterlimit="10"/>
<path d="M98.2562 119.652C98.1106 119.942 97.7709 120.066 97.4973 119.929C97.2238 119.793 97.1206 119.446 97.2662 119.155C97.4118 118.865 97.7516 118.741 98.0248 118.878C98.2983 119.015 98.4018 119.361 98.2562 119.652Z" fill="white"/>
<path d="M107.801 124.077C107.801 124.077 104.72 124.856 103.821 126.158C102.923 127.461 103.72 129.206 105.056 129.142C106.393 129.079 108.936 128.072 110.143 127.128C111.35 126.184 111.287 124.929 110.049 124.308C108.812 123.687 107.801 124.077 107.801 124.077Z" fill="#FFB300"/>
<path opacity="0.48" d="M107.801 124.077C107.801 124.077 104.72 124.856 103.821 126.158C102.923 127.461 103.72 129.206 105.056 129.142C106.393 129.079 108.936 128.072 110.143 127.128C111.35 126.184 111.287 124.929 110.049 124.308C108.812 123.687 107.801 124.077 107.801 124.077Z" fill="white"/>
<path d="M107.801 124.077C107.801 124.077 104.72 124.856 103.821 126.158C102.923 127.461 103.72 129.206 105.056 129.142C106.393 129.079 108.936 128.072 110.143 127.128C111.35 126.184 111.287 124.929 110.049 124.308C108.812 123.687 107.801 124.077 107.801 124.077Z" stroke="#263238" stroke-width="0.642857" stroke-miterlimit="10"/>
<path d="M104.909 127.615C104.763 127.906 104.423 128.03 104.15 127.893C103.876 127.756 103.773 127.409 103.919 127.119C104.064 126.828 104.404 126.704 104.677 126.841C104.951 126.978 105.054 127.325 104.909 127.615Z" fill="white"/>
<path d="M110.201 90.708C110.201 90.708 107.12 91.4862 106.222 92.7889C105.324 94.0917 106.12 95.8364 107.456 95.7731C108.793 95.7097 111.337 94.7024 112.544 93.7587C113.751 92.8149 113.688 91.5601 112.45 90.9391C111.212 90.3181 110.201 90.708 110.201 90.708Z" fill="#FFB300"/>
<path opacity="0.48" d="M110.201 90.708C110.201 90.708 107.12 91.4862 106.222 92.7889C105.324 94.0917 106.12 95.8364 107.456 95.7731C108.793 95.7097 111.337 94.7024 112.544 93.7587C113.751 92.8149 113.688 91.5601 112.45 90.9391C111.212 90.3181 110.201 90.708 110.201 90.708Z" fill="white"/>
<path d="M110.201 90.708C110.201 90.708 107.12 91.4862 106.222 92.7889C105.324 94.0917 106.12 95.8364 107.456 95.7731C108.793 95.7097 111.337 94.7024 112.544 93.7587C113.751 92.8149 113.688 91.5601 112.45 90.9391C111.212 90.3181 110.201 90.708 110.201 90.708Z" stroke="#263238" stroke-width="0.642857" stroke-miterlimit="10"/>
<path d="M107.309 94.246C107.163 94.5365 106.824 94.6606 106.55 94.5237C106.277 94.3864 106.173 94.0399 106.319 93.7497C106.465 93.4591 106.804 93.3351 107.077 93.472C107.351 93.6089 107.455 93.9554 107.309 94.246Z" fill="white"/>
<path d="M105.514 111.939C105.514 111.939 102.745 112.012 101.323 112.085C99.9021 112.158 98.5173 112.158 98.2624 113.506C98.0072 114.854 98.2988 116.458 101.725 116.421C105.15 116.385 107.191 116.02 107.264 114.49C107.336 112.959 106.498 111.902 105.514 111.939Z" fill="#FFB300"/>
<path opacity="0.48" d="M105.514 111.939C105.514 111.939 102.745 112.012 101.323 112.085C99.9021 112.158 98.5173 112.158 98.2624 113.506C98.0072 114.854 98.2988 116.458 101.725 116.421C105.15 116.385 107.191 116.02 107.264 114.49C107.336 112.959 106.498 111.902 105.514 111.939Z" fill="white"/>
<path d="M105.514 111.939C105.514 111.939 102.745 112.012 101.323 112.085C99.9021 112.158 98.5173 112.158 98.2624 113.506C98.0072 114.854 98.2988 116.458 101.725 116.421C105.15 116.385 107.191 116.02 107.264 114.49C107.336 112.959 106.498 111.902 105.514 111.939Z" stroke="#263238" stroke-width="0.642857" stroke-miterlimit="10"/>
<path d="M99.3158 114.323C99.3158 114.877 99.1455 115.327 98.9353 115.327C98.725 115.327 98.5547 114.877 98.5547 114.323C98.5547 113.769 98.725 113.32 98.9353 113.32C99.1451 113.32 99.3158 113.769 99.3158 114.323Z" fill="white"/>
<path d="M114.514 120.214C114.514 120.214 111.744 120.287 110.323 120.36C108.901 120.433 107.517 120.433 107.261 121.782C107.006 123.13 107.298 124.734 110.724 124.697C114.149 124.661 116.19 124.296 116.263 122.765C116.336 121.235 115.498 120.178 114.514 120.214Z" fill="#FFB300"/>
<path opacity="0.48" d="M114.514 120.214C114.514 120.214 111.744 120.287 110.323 120.36C108.901 120.433 107.517 120.433 107.261 121.782C107.006 123.13 107.298 124.734 110.724 124.697C114.149 124.661 116.19 124.296 116.263 122.765C116.336 121.235 115.498 120.178 114.514 120.214Z" fill="white"/>
<path d="M114.514 120.214C114.514 120.214 111.744 120.287 110.323 120.36C108.901 120.433 107.517 120.433 107.261 121.782C107.006 123.13 107.298 124.734 110.724 124.697C114.149 124.661 116.19 124.296 116.263 122.765C116.336 121.235 115.498 120.178 114.514 120.214Z" stroke="#263238" stroke-width="0.642857" stroke-miterlimit="10"/>
<path d="M108.315 122.599C108.315 123.153 108.145 123.602 107.934 123.602C107.724 123.602 107.554 123.153 107.554 122.599C107.554 122.045 107.724 121.595 107.934 121.595C108.145 121.595 108.315 122.044 108.315 122.599Z" fill="white"/>
<path d="M85.3039 127.614C85.3039 127.614 82.9006 126.235 81.6486 125.558C80.3967 124.881 79.2141 124.161 78.2948 125.18C77.3756 126.199 76.7909 127.72 79.7355 129.471C82.6801 131.221 84.6129 131.971 85.4711 130.702C86.3296 129.433 86.1634 128.094 85.3039 127.614Z" fill="#FFB300"/>
<path opacity="0.48" d="M85.3039 127.614C85.3039 127.614 82.9006 126.235 81.6486 125.558C80.3967 124.881 79.2141 124.161 78.2948 125.18C77.3756 126.199 76.7909 127.72 79.7355 129.471C82.6801 131.221 84.6129 131.971 85.4711 130.702C86.3296 129.433 86.1634 128.094 85.3039 127.614Z" fill="white"/>
<path d="M85.3039 127.614C85.3039 127.614 82.9006 126.235 81.6486 125.558C80.3967 124.881 79.2141 124.161 78.2948 125.18C77.3756 126.199 76.7909 127.72 79.7355 129.471C82.6801 131.221 84.6129 131.971 85.4711 130.702C86.3296 129.433 86.1634 128.094 85.3039 127.614Z" stroke="#263238" stroke-width="0.642857" stroke-miterlimit="10"/>
<path d="M78.7701 126.426C78.4818 126.9 78.1025 127.195 77.9232 127.086C77.7435 126.976 77.8319 126.504 78.1199 126.03C78.4082 125.557 78.7875 125.262 78.9668 125.371C79.1465 125.48 79.0584 125.953 78.7701 126.426Z" fill="white"/>
<path d="M107.455 109.219C107.455 109.219 105.674 109.897 105.42 111.297C105.166 112.695 107.116 115.069 109.108 115.536C111.1 116.002 112.372 115.324 111.821 113.289C111.27 111.254 109.447 109.728 108.726 109.219C108.006 108.711 107.455 109.219 107.455 109.219Z" fill="#FFB300"/>
<path opacity="0.48" d="M107.455 109.219C107.455 109.219 105.674 109.897 105.42 111.297C105.166 112.695 107.116 115.069 109.108 115.536C111.1 116.002 112.372 115.324 111.821 113.289C111.27 111.254 109.447 109.728 108.726 109.219C108.006 108.711 107.455 109.219 107.455 109.219Z" fill="white"/>
<path d="M107.455 109.219C107.455 109.219 105.674 109.897 105.42 111.297C105.166 112.695 107.116 115.069 109.108 115.536C111.1 116.002 112.372 115.324 111.821 113.289C111.27 111.254 109.447 109.728 108.726 109.219C108.006 108.711 107.455 109.219 107.455 109.219Z" stroke="#263238" stroke-width="0.642857" stroke-miterlimit="10"/>
<path d="M105.842 112.47C105.997 112.942 106.285 113.271 106.485 113.206C106.685 113.14 106.721 112.704 106.566 112.232C106.411 111.76 106.123 111.431 105.923 111.496C105.723 111.562 105.687 111.998 105.842 112.47Z" fill="white"/>
<path d="M93.6707 107.165C93.6707 107.165 91.2654 109.242 91.0469 110.809C90.8283 112.376 92.3223 113.579 93.4884 112.923C94.6546 112.267 96.4768 110.226 97.1325 108.841C97.7885 107.457 97.1688 106.363 95.7841 106.363C94.3997 106.363 93.6707 107.165 93.6707 107.165Z" fill="#FFB300"/>
<path opacity="0.48" d="M93.6707 107.165C93.6707 107.165 91.2654 109.242 91.0469 110.809C90.8283 112.376 92.3223 113.579 93.4884 112.923C94.6546 112.267 96.4768 110.226 97.1325 108.841C97.7885 107.457 97.1688 106.363 95.7841 106.363C94.3997 106.363 93.6707 107.165 93.6707 107.165Z" fill="white"/>
<path d="M93.6707 107.165C93.6707 107.165 91.2654 109.242 91.0469 110.809C90.8283 112.376 92.3223 113.579 93.4884 112.923C94.6546 112.267 96.4768 110.226 97.1325 108.841C97.7885 107.457 97.1688 106.363 95.7841 106.363C94.3997 106.363 93.6707 107.165 93.6707 107.165Z" stroke="#263238" stroke-width="0.642857" stroke-miterlimit="10"/>
<path d="M92.6711 111.624C92.6711 111.949 92.4233 112.212 92.1173 112.212C91.8116 112.212 91.5635 111.948 91.5635 111.624C91.5635 111.299 91.8113 111.036 92.1173 111.036C92.423 111.036 92.6711 111.299 92.6711 111.624Z" fill="white"/>
<path d="M83.5049 119.843C83.5049 119.843 80.6075 118.877 78.9779 119.481C77.3482 120.085 77.2274 121.896 77.831 122.861C78.4347 123.827 81.0906 124.612 83.1426 124.612C85.1946 124.612 86.04 122.922 85.7382 121.352C85.4363 119.783 83.5049 119.843 83.5049 119.843Z" fill="#FFB300"/>
<path opacity="0.48" d="M83.5049 119.843C83.5049 119.843 80.6075 118.877 78.9779 119.481C77.3482 120.085 77.2274 121.896 77.831 122.861C78.4347 123.827 81.0906 124.612 83.1426 124.612C85.1946 124.612 86.04 122.922 85.7382 121.352C85.4363 119.783 83.5049 119.843 83.5049 119.843Z" fill="white"/>
<path d="M83.5049 119.843C83.5049 119.843 80.6075 118.877 78.9779 119.481C77.3482 120.085 77.2274 121.896 77.831 122.861C78.4347 123.827 81.0906 124.612 83.1426 124.612C85.1946 124.612 86.04 122.922 85.7382 121.352C85.4363 119.783 83.5049 119.843 83.5049 119.843Z" stroke="#263238" stroke-width="0.642857" stroke-miterlimit="10"/>
<path d="M81.4596 120.276C81.4596 120.716 80.9039 121.072 80.2186 121.072C79.5333 121.072 78.9775 120.716 78.9775 120.276C78.9775 119.837 79.5333 119.481 80.2186 119.481C80.9039 119.481 81.4596 119.837 81.4596 120.276Z" fill="white"/>
<path d="M74.8731 113.144C74.7227 113.167 74.5851 113.204 74.4665 113.259C74.2376 113.366 74.057 113.553 73.8982 113.749C72.3329 115.684 71.987 120.646 74.4552 122.108C76.0849 123.074 77.2317 121.626 77.7149 118.849C78.1976 116.072 78.4995 114.805 77.6544 113.959C77.1218 113.428 75.7689 113.012 74.8731 113.144Z" fill="#FFB300"/>
<path opacity="0.48" d="M74.8731 113.144C74.7227 113.167 74.5851 113.204 74.4665 113.259C74.2376 113.366 74.057 113.553 73.8982 113.749C72.3329 115.684 71.987 120.646 74.4552 122.108C76.0849 123.074 77.2317 121.626 77.7149 118.849C78.1976 116.072 78.4995 114.805 77.6544 113.959C77.1218 113.428 75.7689 113.012 74.8731 113.144Z" fill="white"/>
<path d="M74.8731 113.144C74.7227 113.167 74.5851 113.204 74.4665 113.259C74.2376 113.366 74.057 113.553 73.8982 113.749C72.3329 115.684 71.987 120.646 74.4552 122.108C76.0849 123.074 77.2317 121.626 77.7149 118.849C78.1976 116.072 78.4995 114.805 77.6544 113.959C77.1218 113.428 75.7689 113.012 74.8731 113.144Z" stroke="#263238" stroke-width="0.642857" stroke-miterlimit="10"/>
<path d="M75.4304 115.375C75.3668 116.066 74.9576 116.593 74.5163 116.552C74.0749 116.511 73.769 115.918 73.8326 115.228C73.8962 114.537 74.3054 114.01 74.7467 114.051C75.1881 114.092 75.4941 114.684 75.4304 115.375Z" fill="white"/>
<path d="M95.418 66.4122C95.418 66.4122 100.984 72.1102 102.122 74.9799C103.261 77.8496 104.132 78.6121 105.331 77.9586C106.529 77.3051 105.439 77.5231 106.529 77.3051C107.618 77.0872 107.4 76.2158 108.925 78.2855C110.45 80.3552 110.777 82.4248 111.866 83.6228C112.955 84.8211 114.077 85.473 114.077 85.473L115.025 86.5636C115.025 86.5636 134.957 86.6352 135.176 85.6922C135.396 84.7491 107.073 58.7873 105.875 58.3515C104.677 57.9159 96.0718 65.4319 95.418 66.4122Z" fill="#263238"/>
<path d="M109.714 48.8435C109.714 48.8435 105.006 45.1921 104.045 44.1352C103.084 43.0784 101.45 41.829 100.586 42.0212C99.721 42.2134 96.4536 47.4022 94.6279 49.7085C92.8022 52.0147 87.7095 56.3386 88.19 57.7799C88.6706 59.2212 91.457 61.6235 93.0905 63.8333C94.724 66.0435 96.742 67.9653 97.3186 68.7338C97.8952 69.5027 101.642 74.0188 102.123 74.9795C102.604 75.9406 104.333 77.0936 105.006 76.7091C105.678 76.3247 110.579 73.346 111.443 72.6733C112.308 72.0005 116.344 67.2922 117.113 66.5234C117.882 65.7548 118.554 64.6016 119.035 63.833C119.515 63.0642 115.672 57.6831 114.23 55.5694C112.789 53.4557 109.714 48.8435 109.714 48.8435Z" fill="#FFB300" stroke="#263238" stroke-width="0.642857" stroke-miterlimit="10"/>
<path d="M108.758 50.1153C108.758 50.1153 102.131 44.6812 100.805 44.1512C99.4796 43.6211 99.2147 45.0788 98.552 45.874C97.8892 46.6692 94.9735 50.1153 95.1059 50.6453C95.2384 51.1753 98.2868 53.6937 98.552 53.1637C98.8171 52.6336 96.5639 51.4405 97.7567 51.3081C98.9496 51.1757 101.866 54.0913 103.986 55.6818C106.107 57.2722 111.276 53.2961 110.878 52.7658C110.481 52.2357 108.758 50.1153 108.758 50.1153Z" fill="white"/>
<path d="M91.6602 55.9468C91.6602 55.9468 89.5398 57.272 89.9374 57.9348C90.335 58.5976 95.078 62.9722 96.5501 63.8333C98.0222 64.6945 94.9854 61.5078 94.0516 59.1251C93.1182 56.742 91.6602 55.9468 91.6602 55.9468Z" fill="white"/>
<path d="M110.221 49.0011C110.221 49.0011 108.683 51.8837 107.05 53.037C105.416 54.19 102.437 55.5351 100.996 56.4001C99.5549 57.2651 97.6331 59.0905 96.4801 60.3398C95.3271 61.5889 95.4232 62.9344 96.2879 63.3185C97.1525 63.7026 98.4019 64.2793 98.9782 65.0481C99.5549 65.8167 104.648 71.8705 104.648 71.8705C104.648 71.8705 109.74 80.999 110.125 81.4796C110.509 81.9601 113.007 83.9777 113.488 83.7858C113.968 83.5936 122.424 80.2305 123.962 79.1736C125.499 78.1168 127.901 77.0596 127.901 77.0596C127.901 77.0596 128.382 75.33 128.67 75.33C128.959 75.33 129.151 76.2911 129.631 76.195C130.112 76.0988 131.745 74.6576 131.938 74.177C132.13 73.6965 132.418 71.9669 132.418 71.9669C132.418 71.9669 129.92 68.0271 127.998 66.0092C126.076 63.9913 117.717 56.4004 117.717 56.4004C117.717 56.4004 115.41 53.2295 114.45 51.6921C113.488 50.1541 111.278 47.7517 110.221 49.0011Z" fill="#FFB300" stroke="#263238" stroke-width="0.642857" stroke-miterlimit="10"/>
<path d="M111.368 49.7335C111.368 49.7335 110.765 50.9398 110.161 51.4566C109.558 51.9735 110.592 51.9735 111.368 53.1798C112.143 54.3861 113.177 56.7985 114.383 58.8665C115.59 60.9343 119.036 63.4331 119.553 64.1225C120.07 64.812 125.929 72.4803 126.274 72.8249C126.619 73.1695 128.083 74.5481 127.997 73.7728C127.911 72.9972 126.877 70.8433 127.825 71.4463C128.773 72.0493 129.634 74.0312 129.979 73.6866C130.324 73.3421 131.444 74.1174 130.496 71.7912C129.548 69.4647 125.24 64.8981 122.569 62.0548C119.898 59.2114 115.934 55.8512 114.814 54.128C113.694 52.4045 112.057 49.3889 111.368 49.7335Z" fill="white"/>
<path d="M97.3238 61.6237C97.3238 61.6237 100.942 65.0701 102.407 67.1381C103.872 69.2059 108.266 75.7544 108.525 74.548C108.783 73.3417 106.715 68.6029 105.423 67.3104C104.13 66.018 100.77 61.2791 100.081 60.4174C99.3912 59.5556 97.2377 59.6421 97.3238 61.6237Z" fill="white"/>
<path d="M110.989 54.6702C112.046 56.3998 113.199 58.0333 113.199 58.0333L113.776 58.706" stroke="#263238" stroke-width="0.642857" stroke-miterlimit="10"/>
<path d="M107.915 52.8445C107.915 52.8445 108.819 52.8876 109.733 53.434" stroke="#263238" stroke-width="0.642857" stroke-miterlimit="10"/>
<path d="M108.493 65.4492C109.058 66.0763 109.544 66.5636 109.74 66.6816" stroke="#263238" stroke-width="0.642857" stroke-miterlimit="10"/>
<path d="M102.438 58.8982C102.438 58.8982 105.32 61.2044 106.185 62.5496C106.537 63.0967 107.111 63.8341 107.7 64.5361" stroke="#263238" stroke-width="0.642857" stroke-miterlimit="10"/>
<path d="M129.451 57.3187C129.451 57.3187 125.127 58.76 121.956 59.5288C118.785 60.2977 113.981 61.8351 113.981 61.8351C113.981 61.8351 107.831 62.8919 107.447 63.9491C107.062 65.006 106.87 65.1982 107.158 65.7748C107.447 66.3515 108.504 69.6185 108.504 69.6185L110.618 75.2878L112.924 79.8039L113.788 83.167L113.981 84.6083L114.077 85.4729L114.173 86.5298C114.173 86.5298 116.298 86.4151 116.532 86.8088C116.767 87.2026 117.728 87.2025 117.728 87.2025C117.728 87.2025 118.497 84.8963 118.689 85.2807C118.881 85.6652 118.497 87.1064 118.977 87.2987C119.458 87.4909 121.38 87.7792 121.38 87.7792C121.38 87.7792 122.629 87.6831 122.821 87.2025C123.013 86.722 123.398 85.569 123.686 86.1457C123.974 86.7223 123.878 87.2026 124.166 87.6831C124.454 88.1636 129.451 91.2384 130.508 91.2384C131.565 91.2384 133.871 91.0462 134.159 91.0462C134.448 91.0462 135.793 91.0462 135.793 91.0462C135.793 91.0462 136.562 82.2059 135.408 77.0171C134.255 71.8283 132.045 64.8138 132.045 64.8138C132.045 64.8138 131.276 61.6429 130.988 60.4899C130.7 59.3366 129.835 56.8382 129.451 57.3187Z" fill="#FFB300" stroke="#263238" stroke-width="0.642857" stroke-miterlimit="10"/>
<path d="M127.393 83.0088C127.574 85.254 127.626 86.818 127.626 86.818V87.4908" stroke="#263238" stroke-width="0.642857" stroke-miterlimit="10"/>
<path d="M123.586 64.238C124.05 65.994 124.545 68.0486 124.839 69.8103C125.512 73.8462 126.761 76.8249 127.145 80.3802C127.211 80.9832 127.268 81.5666 127.317 82.1201" stroke="#263238" stroke-width="0.642857" stroke-miterlimit="10"/>
<path d="M122.436 60.2012C122.436 60.2012 122.782 61.3175 123.225 62.9127" stroke="#263238" stroke-width="0.642857" stroke-miterlimit="10"/>
<path d="M116.499 71.0774C116.74 72.0982 116.941 72.986 117.056 73.5579C117.536 75.9602 118.113 79.2272 118.016 80.5724C117.92 81.9176 118.113 83.3589 118.113 83.3589" stroke="#263238" stroke-width="0.642857" stroke-miterlimit="10"/>
<path d="M114.558 63.1802C114.558 63.1802 115.29 66.0762 115.978 68.9039" stroke="#263238" stroke-width="0.642857" stroke-miterlimit="10"/>
<path d="M112.347 63.2112C112.067 63.2112 109.686 63.2813 109.406 64.4014C109.126 65.5216 114.307 77.0037 114.587 79.524C114.867 82.0443 114.377 84.9851 114.797 85.3351C115.217 85.6851 116.758 85.7552 116.898 85.4753C117.038 85.1953 118.228 84.915 117.108 79.244C115.988 73.5731 114.727 70.9126 113.887 68.6022C113.047 66.2918 112.347 63.2112 112.347 63.2112Z" fill="white"/>
<path d="M115.918 62.6513C115.918 62.6513 116.898 67.3422 117.388 69.8626C117.878 72.3829 118.718 78.3341 118.718 78.3341C118.718 78.3341 119.629 83.7251 119.629 84.3551C119.629 84.9851 119.909 85.3352 120.259 85.1953C120.609 85.0552 119.979 77.7739 119.138 73.3632C118.298 68.9523 117.598 64.7515 117.318 63.5616C117.038 62.371 116.688 61.8111 115.918 62.6513Z" fill="white"/>
<path d="M124.18 60.2708C124.18 60.2708 126.84 72.8731 127.61 77.1439C128.38 81.4147 128.801 84.7752 128.871 86.1754C128.941 87.5755 128.73 88.976 129.081 89.1859C129.431 89.3961 131.531 90.5163 131.811 90.236C132.091 89.956 132.582 84.845 132.582 84.845C132.582 84.845 131.811 78.2637 130.621 73.153C129.431 68.042 129.011 66.5017 128.311 62.9313C127.611 59.3605 128.031 59.1506 126.98 59.2904C125.93 59.4306 124.18 60.2708 124.18 60.2708Z" fill="white"/>
<path d="M119.657 102.733C119.657 102.733 116.209 103.134 114.454 107.552C112.699 111.969 114.078 118.28 116.899 121.091C119.72 123.902 124.923 122.181 124.923 122.181C124.923 122.181 129.061 121.722 130.879 119.943C132.697 118.165 134.075 116.73 133.323 111.108C132.571 105.486 129.374 103.478 126.365 102.675C123.355 101.872 121.349 102.159 119.657 102.733Z" fill="#263238" stroke="#263238" stroke-width="0.642857" stroke-miterlimit="10"/>
<path d="M126.364 100.989C126.364 100.989 129.051 101.5 129.691 101.756C130.331 102.012 133.225 102.872 135.194 101.116C136.099 100.309 139.82 97.6206 140.185 92.4147C140.542 87.3053 135.578 86.4001 135.578 86.4001C135.578 86.4001 128.118 100.666 126.364 100.989Z" fill="#263238" stroke="#263238" stroke-width="0.642857" stroke-miterlimit="10"/>
<path d="M117.695 98.4161C117.695 98.4161 114.128 98.87 112.313 103.863C110.497 108.855 111.924 115.988 114.842 119.165C117.759 122.342 123.141 120.397 123.141 120.397C123.141 120.397 127.42 119.878 129.301 117.868C131.181 115.858 132.608 114.237 131.829 107.883C131.051 101.528 127.745 99.2592 124.632 98.3515C121.52 97.4435 119.445 97.7678 117.695 98.4161Z" fill="#B0B0B0" stroke="#263238" stroke-width="0.642857" stroke-miterlimit="10"/>
<path d="M118.019 102.047C118.019 102.047 116.723 101.917 115.815 103.344C114.907 104.77 113.999 110.087 114.388 113.394C114.777 116.7 119.835 118.775 120.548 118.062C121.261 117.349 120.873 114.496 120.743 112.162C120.613 109.827 122.493 109.827 122.947 110.67C123.401 111.513 123.79 116.96 125.152 117.284C126.513 117.608 129.107 117.997 128.783 111.578C128.458 105.159 125.411 100.685 123.595 101.268C121.78 101.852 122.169 102.241 121.974 104.705C121.78 107.169 121.196 108.465 120.418 107.363C119.64 106.261 119.057 101.982 118.019 102.047Z" fill="#CFCFCF" stroke="#263238" stroke-width="0.642857" stroke-miterlimit="10"/>
<path d="M124.567 105.451C124.567 105.684 124.379 105.873 124.146 105.873C123.913 105.873 123.725 105.684 123.725 105.451C123.725 105.218 123.913 105.03 124.146 105.03C124.379 105.03 124.567 105.218 124.567 105.451Z" fill="#B0B0B0" stroke="#263238" stroke-width="0.642857" stroke-miterlimit="10"/>
<path d="M126.156 108.92C126.496 108.92 126.772 108.644 126.772 108.304C126.772 107.964 126.496 107.688 126.156 107.688C125.816 107.688 125.54 107.964 125.54 108.304C125.54 108.644 125.816 108.92 126.156 108.92Z" fill="#B0B0B0" stroke="#263238" stroke-width="0.642857" stroke-miterlimit="10"/>
<path d="M125.735 111.968C125.735 112.182 125.561 112.356 125.346 112.356C125.131 112.356 124.957 112.182 124.957 111.968C124.957 111.753 125.131 111.579 125.346 111.579C125.561 111.578 125.735 111.753 125.735 111.968Z" fill="#B0B0B0" stroke="#263238" stroke-width="0.642857" stroke-miterlimit="10"/>
<path d="M117.759 111.546C117.759 112.03 117.367 112.421 116.884 112.421C116.401 112.421 116.009 112.03 116.009 111.546C116.009 111.063 116.401 110.671 116.884 110.671C117.367 110.671 117.759 111.063 117.759 111.546Z" fill="#B0B0B0" stroke="#263238" stroke-width="0.642857" stroke-miterlimit="10"/>
<path d="M119.964 113.75C119.964 113.911 119.833 114.042 119.672 114.042C119.511 114.042 119.38 113.912 119.38 113.75C119.38 113.589 119.51 113.458 119.672 113.458C119.833 113.458 119.964 113.589 119.964 113.75Z" fill="#B0B0B0" stroke="#263238" stroke-width="0.642857" stroke-miterlimit="10"/>
<path d="M121.456 109.179C121.456 109.394 121.281 109.568 121.067 109.568C120.852 109.568 120.678 109.394 120.678 109.179C120.678 108.965 120.852 108.791 121.067 108.791C121.281 108.79 121.456 108.964 121.456 109.179Z" fill="#B0B0B0" stroke="#263238" stroke-width="0.642857" stroke-miterlimit="10"/>
<path d="M117.954 105.775C117.954 106.044 117.736 106.261 117.468 106.261C117.199 106.261 116.981 106.044 116.981 105.775C116.981 105.506 117.199 105.289 117.468 105.289C117.736 105.289 117.954 105.507 117.954 105.775Z" fill="#B0B0B0" stroke="#263238" stroke-width="0.642857" stroke-miterlimit="10"/>
<path d="M116.787 114.626C116.787 114.84 116.612 115.015 116.398 115.015C116.183 115.015 116.009 114.84 116.009 114.626C116.009 114.411 116.183 114.237 116.398 114.237C116.612 114.237 116.787 114.411 116.787 114.626Z" fill="#B0B0B0" stroke="#263238" stroke-width="0.642857" stroke-miterlimit="10"/>
<path d="M117.46 98.5733C117.46 98.5733 119.309 101.656 124.61 101.311C129.912 100.966 135.869 96.7926 137.605 92.8438C139.341 88.8951 135.396 84.7496 135.396 84.7496C135.396 84.7496 133.2 81.04 130.604 80.1262C128.007 79.2127 125.95 78.5582 120.444 81.8252C114.939 85.0922 114.191 89.0326 114.611 92.2472C115.031 95.4618 116.162 97.231 117.46 98.5733Z" fill="#B0B0B0" stroke="#263238" stroke-width="0.642857" stroke-miterlimit="10"/>
<path d="M120.654 96.8167C120.654 96.8167 121.057 98.0561 122.728 98.3139C124.399 98.5717 129.632 97.2651 132.503 95.5795C135.375 93.8939 135.241 88.429 134.301 88.0626C133.361 87.6965 130.906 89.1995 128.821 90.2566C126.735 91.3138 125.979 89.5922 126.569 88.8375C127.158 88.0828 131.989 85.5371 131.738 84.1601C131.487 82.7831 130.801 80.2519 125.054 83.1296C119.307 86.007 116.436 90.5961 117.7 92.0238C118.964 93.4516 119.164 92.939 121.498 92.1264C123.832 91.3138 125.254 91.3267 124.558 92.4825C123.861 93.6377 120.178 95.8929 120.654 96.8167Z" fill="#CFCFCF" stroke="#263238" stroke-width="0.642857" stroke-miterlimit="10"/>
<path d="M121.138 89.4519C121.351 89.3584 121.6 89.4551 121.693 89.6683C121.787 89.8814 121.69 90.1298 121.477 90.2237C121.264 90.3172 121.015 90.2205 120.921 90.0074C120.828 89.7942 120.925 89.5455 121.138 89.4519Z" fill="#B0B0B0" stroke="#263238" stroke-width="0.642857" stroke-miterlimit="10"/>
<path d="M122.864 86.2863C123.175 86.1494 123.539 86.2912 123.675 86.6026C123.812 86.9141 123.67 87.2776 123.359 87.4142C123.047 87.5512 122.684 87.4094 122.547 87.0979C122.41 86.7865 122.552 86.4229 122.864 86.2863Z" fill="#B0B0B0" stroke="#263238" stroke-width="0.642857" stroke-miterlimit="10"/>
<path d="M126.635 85.7634C126.832 85.6769 127.061 85.7666 127.148 85.9633C127.234 86.16 127.145 86.3895 126.948 86.476C126.751 86.5625 126.522 86.4728 126.435 86.2761C126.349 86.0794 126.438 85.8499 126.635 85.7634Z" fill="#B0B0B0" stroke="#263238" stroke-width="0.642857" stroke-miterlimit="10"/>
<path d="M129.456 93.235C129.899 93.0406 130.415 93.2418 130.61 93.6844C130.804 94.127 130.603 94.6435 130.16 94.8377C129.717 95.0322 129.201 94.8309 129.007 94.388C128.812 93.9457 129.014 93.4295 129.456 93.235Z" fill="#B0B0B0" stroke="#263238" stroke-width="0.642857" stroke-miterlimit="10"/>
<path d="M130.587 90.3302C130.735 90.2653 130.907 90.3324 130.972 90.48C131.037 90.6275 130.97 90.7995 130.822 90.8644C130.675 90.9293 130.502 90.8621 130.438 90.7146C130.373 90.5671 130.44 90.3948 130.587 90.3302Z" fill="#B0B0B0" stroke="#263238" stroke-width="0.642857" stroke-miterlimit="10"/>
<path d="M125.803 90.8025C126 90.716 126.229 90.8057 126.316 91.0024C126.402 91.1991 126.313 91.4286 126.116 91.5151C125.919 91.6015 125.69 91.5122 125.603 91.3151C125.517 91.1184 125.606 90.8889 125.803 90.8025Z" fill="#B0B0B0" stroke="#263238" stroke-width="0.642857" stroke-miterlimit="10"/>
<path d="M124.094 95.3769C124.34 95.2689 124.627 95.3807 124.734 95.6266C124.842 95.8725 124.73 96.1595 124.484 96.2672C124.239 96.3752 123.952 96.2634 123.844 96.0175C123.736 95.7719 123.848 95.4849 124.094 95.3769Z" fill="#B0B0B0" stroke="#263238" stroke-width="0.642857" stroke-miterlimit="10"/>
<path d="M132.667 92.8872C132.864 92.8007 133.094 92.8904 133.18 93.0871C133.267 93.2838 133.177 93.5133 132.98 93.5998C132.783 93.6863 132.554 93.5969 132.468 93.3999C132.381 93.2031 132.471 92.9736 132.667 92.8872Z" fill="#B0B0B0" stroke="#263238" stroke-width="0.642857" stroke-miterlimit="10"/>
<path d="M81.3659 72.3928C81.3659 72.3928 78.3551 72 72.7256 70.1672C67.0964 68.3344 58.3252 70.0364 54.9216 72.6544C51.518 75.2728 51.9105 82.08 51.2561 83.6511C50.6016 85.222 45.7577 93.2079 47.1977 99.2298C48.6377 105.252 57.278 110.096 66.4416 110.881C75.6052 111.666 90.1367 109.179 96.0278 105.383C101.919 101.586 105.323 91.8987 104.013 86.1384C102.704 80.378 97.7295 76.5816 94.4567 75.7964C91.1839 75.0108 85.9475 73.44 84.7692 73.178C83.5915 72.9164 81.3659 72.3928 81.3659 72.3928Z" fill="white" stroke="#263238" stroke-width="0.642857" stroke-miterlimit="10"/>
<path d="M89.2443 104.766C86.6661 105.783 84.8889 106.521 82.0208 107.477C78.8789 108.524 77.4389 109.44 73.7733 109.833C70.1077 110.226 65.3949 110.357 62.3838 108.917" stroke="#263238" stroke-width="0.642857" stroke-miterlimit="10"/>
<path d="M93.3492 78.488C94.9062 79.6494 96.7454 81.4847 97.8608 84.1751C100.086 89.5426 99.4316 94.779 96.9444 98.4446C94.8085 101.592 93.4447 102.906 91.1953 103.96" stroke="#263238" stroke-width="0.642857" stroke-miterlimit="10"/>
<path d="M90.5303 76.8435C90.5303 76.8435 91.2082 77.1042 92.1776 77.6953" stroke="#263238" stroke-width="0.642857" stroke-miterlimit="10"/>
<path d="M77.8164 87.9595C77.4255 93.7744 72.112 98.3805 65.6143 98.3805C64.0467 98.3805 62.5482 98.1124 61.1709 97.6239" stroke="#263238" stroke-width="0.642857" stroke-miterlimit="10"/>
<path d="M77.5918 85.0327C77.7046 85.5341 77.7805 86.0478 77.8162 86.5714" stroke="#263238" stroke-width="0.642857" stroke-miterlimit="10"/>
<path d="M65.6156 96.8842C71.458 96.8842 76.1942 92.5805 76.1942 87.2716C76.1942 81.9627 71.458 77.6589 65.6156 77.6589C59.7733 77.6589 55.0371 81.9627 55.0371 87.2716C55.0371 92.5805 59.7733 96.8842 65.6156 96.8842Z" fill="#FFB300" stroke="#263238" stroke-width="0.642857" stroke-miterlimit="10"/>
<path d="M67.4023 105.128C67.9369 105.08 68.4788 105.002 69.0191 104.887" stroke="#263238" stroke-width="0.642857" stroke-miterlimit="10"/>
<path d="M60.2803 104.335C60.2803 104.335 62.8472 105.191 65.9834 105.19" stroke="#263238" stroke-width="0.642857" stroke-miterlimit="10"/>
<path d="M50.667 132.899C50.667 132.899 73.4904 134.997 75.4578 134.997C77.4253 134.997 79.3927 134.735 78.6059 132.374C77.8187 130.013 70.7357 124.241 70.7357 124.241L50.667 132.899Z" fill="#263238" stroke="#263238" stroke-width="0.642857" stroke-miterlimit="10"/>
<path d="M38.684 79.3295C38.684 79.3295 30.8523 121.478 31.5643 123.044C32.2763 124.611 32.8459 124.611 33.5578 124.753C34.2698 124.896 70.8651 132.442 72.8586 132.442C74.8521 132.442 75.7064 132.158 75.564 130.876C75.4216 129.594 66.1661 116.637 66.1661 116.637C66.1661 116.637 66.5933 116.494 65.5965 115.213C64.5998 113.931 65.3117 115.213 64.5998 113.931C63.8878 112.65 64.315 112.507 63.7454 111.938C63.1759 111.368 62.7487 111.653 62.3215 110.799C61.8943 109.944 62.3215 110.087 61.3247 108.805C60.328 107.524 59.616 106.812 59.616 106.812L42.6713 81.4654C42.6713 81.4654 42.1017 81.0382 41.5321 79.8991C40.9622 78.7599 39.5383 77.6205 38.684 79.3295Z" fill="#E0E0E0" stroke="#263238" stroke-width="0.642857" stroke-miterlimit="10"/>
<path d="M71.2559 130.471C72.9067 130.793 73.9253 130.991 74.0298 131.008C74.7048 131.121 74.9298 131.121 74.3673 129.996" stroke="#263238" stroke-width="0.642857" stroke-miterlimit="10"/>
<path d="M41.8271 124.722C50.4733 126.403 63.6332 128.983 70.1299 130.251" stroke="#263238" stroke-width="0.642857" stroke-miterlimit="10"/>
<path d="M38.6834 79.3296C38.6834 79.3296 32.1758 119.645 32.1758 120.883C32.1758 122.12 32.6258 123.02 33.5258 123.133C33.7575 123.162 36.5112 123.691 40.4837 124.462" stroke="#263238" stroke-width="0.642857" stroke-miterlimit="10"/>
<path d="M48.3215 106.593C48.5389 106.593 48.7152 106.417 48.7152 106.2C48.7152 105.982 48.5389 105.806 48.3215 105.806C48.104 105.806 47.9277 105.982 47.9277 106.2C47.9277 106.417 48.104 106.593 48.3215 106.593Z" stroke="#263238" stroke-width="0.642857" stroke-miterlimit="10"/>
<path d="M47.8158 110.756C47.8158 110.974 47.6394 111.15 47.4221 111.15C47.2045 111.15 47.0283 110.974 47.0283 110.756C47.0283 110.539 47.2048 110.363 47.4221 110.363C47.6394 110.363 47.8158 110.539 47.8158 110.756Z" stroke="#263238" stroke-width="0.642857" stroke-miterlimit="10"/>
<path d="M52.8215 109.8C53.0389 109.8 53.2152 109.624 53.2152 109.406C53.2152 109.189 53.0389 109.012 52.8215 109.012C52.604 109.012 52.4277 109.189 52.4277 109.406C52.4277 109.624 52.604 109.8 52.8215 109.8Z" stroke="#263238" stroke-width="0.642857" stroke-miterlimit="10"/>
<path d="M52.5402 114.638C52.7577 114.638 52.934 114.462 52.934 114.244C52.934 114.027 52.7577 113.85 52.5402 113.85C52.3228 113.85 52.1465 114.027 52.1465 114.244C52.1465 114.462 52.3228 114.638 52.5402 114.638Z" stroke="#263238" stroke-width="0.642857" stroke-miterlimit="10"/>
<path d="M39.8264 119.926C40.0438 119.926 40.2201 119.75 40.2201 119.532C40.2201 119.315 40.0438 119.138 39.8264 119.138C39.6089 119.138 39.4326 119.315 39.4326 119.532C39.4326 119.75 39.6089 119.926 39.8264 119.926Z" stroke="#263238" stroke-width="0.642857" stroke-miterlimit="10"/>
<path d="M45.3957 96.8612C45.6132 96.8612 45.7895 96.6849 45.7895 96.4675C45.7895 96.25 45.6132 96.0737 45.3957 96.0737C45.1782 96.0737 45.002 96.25 45.002 96.4675C45.002 96.6849 45.1782 96.8612 45.3957 96.8612Z" stroke="#263238" stroke-width="0.642857" stroke-miterlimit="10"/>
<path d="M56.1408 108.506C56.3583 108.506 56.5346 108.33 56.5346 108.112C56.5346 107.895 56.3583 107.719 56.1408 107.719C55.9234 107.719 55.7471 107.895 55.7471 108.112C55.7471 108.33 55.9234 108.506 56.1408 108.506Z" stroke="#263238" stroke-width="0.642857" stroke-miterlimit="10"/>
<path d="M56.9281 120.995C56.9281 121.212 56.752 121.389 56.5344 121.389C56.3168 121.389 56.1406 121.212 56.1406 120.995C56.1406 120.777 56.3168 120.601 56.5344 120.601C56.752 120.601 56.9281 120.778 56.9281 120.995Z" stroke="#263238" stroke-width="0.642857" stroke-miterlimit="10"/>
<path d="M60.0219 113.85C60.0219 114.068 59.8454 114.244 59.6281 114.244C59.4105 114.244 59.2344 114.068 59.2344 113.85C59.2344 113.633 59.4108 113.457 59.6281 113.457C59.8454 113.457 60.0219 113.633 60.0219 113.85Z" stroke="#263238" stroke-width="0.642857" stroke-miterlimit="10"/>
<path d="M37.6889 102.543C37.6889 102.761 37.5124 102.937 37.2951 102.937C37.0775 102.937 36.9014 102.761 36.9014 102.543C36.9014 102.326 37.0778 102.149 37.2951 102.149C37.5124 102.149 37.6889 102.326 37.6889 102.543Z" stroke="#263238" stroke-width="0.642857" stroke-miterlimit="10"/>
<path d="M62.3852 119.138C62.3852 119.356 62.209 119.532 61.9914 119.532C61.7738 119.532 61.5977 119.356 61.5977 119.138C61.5977 118.921 61.7741 118.745 61.9914 118.745C62.2087 118.744 62.3852 118.921 62.3852 119.138Z" stroke="#263238" stroke-width="0.642857" stroke-miterlimit="10"/>
<path d="M65.9299 125.214C66.1473 125.214 66.3236 125.037 66.3236 124.82C66.3236 124.603 66.1473 124.426 65.9299 124.426C65.7124 124.426 65.5361 124.603 65.5361 124.82C65.5361 125.037 65.7124 125.214 65.9299 125.214Z" stroke="#263238" stroke-width="0.642857" stroke-miterlimit="10"/>
<path d="M48.884 122.964C49.1014 122.964 49.2777 122.787 49.2777 122.57C49.2777 122.353 49.1014 122.176 48.884 122.176C48.6665 122.176 48.4902 122.353 48.4902 122.57C48.4902 122.787 48.6665 122.964 48.884 122.964Z" stroke="#263238" stroke-width="0.642857" stroke-miterlimit="10"/>
<path d="M42.9768 90.8981C43.1942 90.8981 43.3705 90.7218 43.3705 90.5043C43.3705 90.2869 43.1942 90.1106 42.9768 90.1106C42.7593 90.1106 42.583 90.2869 42.583 90.5043C42.583 90.7218 42.7593 90.8981 42.9768 90.8981Z" stroke="#263238" stroke-width="0.642857" stroke-miterlimit="10"/>
<path d="M49.5033 119.757C49.5033 119.975 49.3269 120.151 49.1096 120.151C48.892 120.151 48.7158 119.975 48.7158 119.757C48.7158 119.54 48.8923 119.364 49.1096 119.364C49.3272 119.364 49.5033 119.54 49.5033 119.757Z" stroke="#263238" stroke-width="0.642857" stroke-miterlimit="10"/>
<path d="M41.9084 100.236C42.1259 100.236 42.3021 100.06 42.3021 99.8427C42.3021 99.6253 42.1259 99.449 41.9084 99.449C41.6909 99.449 41.5146 99.6253 41.5146 99.8427C41.5146 100.06 41.6909 100.236 41.9084 100.236Z" stroke="#263238" stroke-width="0.642857" stroke-miterlimit="10"/>
<path d="M43.3703 115.425C43.5878 115.425 43.7641 115.249 43.7641 115.032C43.7641 114.814 43.5878 114.638 43.3703 114.638C43.1528 114.638 42.9766 114.814 42.9766 115.032C42.9766 115.249 43.1528 115.425 43.3703 115.425Z" stroke="#263238" stroke-width="0.642857" stroke-miterlimit="10"/>
<path d="M46.184 102.206C46.184 102.423 46.0075 102.599 45.7902 102.599C45.5726 102.599 45.3965 102.423 45.3965 102.206C45.3965 101.988 45.5729 101.812 45.7902 101.812C46.0078 101.812 46.184 101.988 46.184 102.206Z" stroke="#263238" stroke-width="0.642857" stroke-miterlimit="10"/>
<path d="M42.4711 106.762C42.4711 106.98 42.2946 107.156 42.0773 107.156C41.8597 107.156 41.6836 106.98 41.6836 106.762C41.6836 106.545 41.8601 106.368 42.0773 106.368C42.295 106.368 42.4711 106.545 42.4711 106.762Z" stroke="#263238" stroke-width="0.642857" stroke-miterlimit="10"/>
<path d="M36.6764 125.383C36.6764 125.383 36.5639 131.908 37.4639 132.583C38.3639 133.258 39.1514 133.146 39.6017 133.146C40.0517 133.146 68.9668 131.908 68.9668 131.908L36.6764 125.383Z" fill="#C4C4C4" stroke="#263238" stroke-width="0.642857" stroke-miterlimit="10"/>
<path d="M38.1393 129.883C38.1393 129.883 38.0268 130.783 38.9268 131.233C39.8268 131.683 60.3037 130.783 60.3037 130.783" stroke="#263238" stroke-width="0.642857" stroke-miterlimit="10"/>
<path d="M41.177 129.939C41.3944 129.939 41.5707 129.763 41.5707 129.546C41.5707 129.328 41.3944 129.152 41.177 129.152C40.9595 129.152 40.7832 129.328 40.7832 129.546C40.7832 129.763 40.9595 129.939 41.177 129.939Z" stroke="#263238" stroke-width="0.642857" stroke-miterlimit="10"/>
<path d="M48.715 130.333C48.9325 130.333 49.1088 130.157 49.1088 129.939C49.1088 129.722 48.9325 129.546 48.715 129.546C48.4976 129.546 48.3213 129.722 48.3213 129.939C48.3213 130.157 48.4976 130.333 48.715 130.333Z" stroke="#263238" stroke-width="0.642857" stroke-miterlimit="10"/>
<path d="M39.9955 127.464C39.9955 127.682 39.819 127.858 39.6018 127.858C39.3842 127.858 39.208 127.681 39.208 127.464C39.208 127.246 39.3845 127.07 39.6018 127.07C39.8194 127.07 39.9955 127.246 39.9955 127.464Z" stroke="#263238" stroke-width="0.642857" stroke-miterlimit="10"/>
<path d="M45.7336 128.927C45.9511 128.927 46.1273 128.75 46.1273 128.533C46.1273 128.315 45.9511 128.139 45.7336 128.139C45.5161 128.139 45.3398 128.315 45.3398 128.533C45.3398 128.75 45.5161 128.927 45.7336 128.927Z" stroke="#263238" stroke-width="0.642857" stroke-miterlimit="10"/>
</svg>
