<svg width="180" height="181" viewBox="0 0 180 181" fill="none" xmlns="http://www.w3.org/2000/svg">
<rect y="0.660156" width="180" height="180" rx="6.42857" fill="white"/>
<rect x="0.200893" y="0.861049" width="179.598" height="179.598" rx="6.22768" stroke="black" stroke-opacity="0.3" stroke-width="0.401786"/>
<g clip-path="url(#clip0_123_1116)">
<path d="M170.356 10.303H9.6416V171.017H170.356V10.303Z" fill="white"/>
<path d="M136.719 151.6C137.404 151.351 138.089 151.071 138.776 150.755C139.551 150.399 140.36 150.016 140.883 149.31C141.914 147.917 141.38 145.733 140.141 144.547C138.902 143.362 137.18 142.952 135.528 142.715C128.064 141.642 120.428 143.188 112.97 142.074C107.149 141.205 101.6 139.228 95.7149 138.587C89.7183 137.934 83.6671 138.312 77.666 138.682C61.8209 139.658 45.9757 140.635 30.1303 141.611C27.8086 141.754 24.8958 142.405 24.4195 144.825C23.9948 146.983 25.935 148.808 27.7755 149.824C35.1368 153.888 43.6222 153.392 51.6445 152.877C59.6895 152.36 67.0248 153.671 74.923 153.884C78.2372 153.973 81.5296 153.332 84.8429 153.197C93.5575 152.842 102.141 154.491 110.895 153.746C119.869 152.951 128.256 154.673 136.719 151.6Z" fill="#FFD4DD"/>
<path d="M48.6776 119.501C49.2224 116.68 50.0755 113.907 51.2249 111.237C52.2069 108.955 54.3325 106.003 57.4728 107.844C58.5786 108.492 59.2632 109.613 59.5541 110.774C59.845 111.934 59.782 113.14 59.6631 114.325C59.3239 117.706 58.5287 121.057 57.1922 124.229C56.0139 126.049 54.8407 127.874 53.8352 129.778C52.6768 131.971 51.7501 134.272 51.3291 136.678C51.2927 136.885 51.6437 136.974 51.6801 136.766C51.9173 135.41 52.3117 134.082 52.8243 132.79C53.7314 130.505 54.9914 128.35 56.3202 126.245C56.8965 125.332 57.487 124.426 58.0733 123.518C59.2349 122.133 60.3969 120.747 61.5585 119.362C62.1596 118.645 62.8024 117.898 63.7185 117.544C64.7005 117.164 65.9142 117.33 66.7274 117.955C68.8935 119.621 66.6606 122.135 65.5114 123.739C62.7713 127.564 59.5952 131.112 56.6571 134.812C55.2498 136.583 53.8304 138.362 52.7128 140.3C52.1545 141.268 51.5981 142.31 51.3049 143.375H48.6284C48.5908 143.297 48.5532 143.221 48.5153 143.148C46.4212 139.134 43.5007 135.538 40.2603 132.219C37.5738 129.467 34.8799 125.536 30.5239 125.037C28.4144 124.796 25.9478 125.181 24.4377 123.831C23.3391 122.849 23.2208 121.214 23.8244 119.93C24.4281 118.646 25.6238 117.663 26.8941 116.866C27.6546 116.39 28.4755 115.957 29.3848 115.799C30.18 115.661 31.0042 115.742 31.7936 115.904C35.526 116.672 38.6898 119.397 40.3269 122.442C39.9553 121.751 39.5844 121.058 39.2157 120.365C39.5693 120.932 39.8984 121.512 40.1819 122.114C41.07 124.004 41.6621 125.992 42.4203 127.924C42.4981 128.122 42.8498 128.036 42.7713 127.836C42.3397 126.736 41.9594 125.621 41.5515 124.515C41.2018 123.566 40.827 122.624 40.3812 121.708C39.9187 120.758 39.3517 119.868 38.7336 118.994C38.4629 118.611 38.1846 118.233 37.9036 117.856C36.5967 115.296 35.3862 112.699 34.4367 110.015C33.8517 108.361 33.3631 106.646 33.4586 104.912C33.5142 103.904 33.7922 102.863 34.5273 102.102C35.5321 101.062 37.2675 100.744 38.7374 101.127C40.2073 101.51 41.4143 102.502 42.2317 103.668C43.0491 104.834 43.5151 106.17 43.8902 107.507C44.9217 111.186 45.3238 114.981 46.0438 118.719C46.4292 120.72 47.2514 122.758 47.4992 124.762C47.6156 125.705 47.6519 126.654 47.7123 127.6C47.7413 128.045 47.8711 128.492 47.8631 128.937C47.857 129.278 47.7432 129.598 47.9354 129.909C48.0463 129.852 48.0891 129.758 48.0874 129.641C48.064 127.802 48.0405 125.964 48.0171 124.125C48.0074 123.369 47.9152 122.608 48.1447 121.881C48.3877 121.112 48.5249 120.291 48.6776 119.501Z" fill="#9FE3E2"/>
<path d="M107.242 138.037C108.516 134.116 110.561 130.349 113.692 127.667C118 123.977 123.861 122.705 128.667 119.691C129.789 118.987 130.429 118.22 130.485 116.854C130.52 116.021 130.479 115.118 129.964 114.462C128.931 113.149 126.396 113.394 124.989 113.746C121.519 114.615 118.224 116.181 115.36 118.324C118.659 112.427 124.53 108.03 131.116 106.522C133.647 105.943 136.265 105.771 138.763 105.066C141.262 104.361 143.732 103.003 144.983 100.728C146.677 97.6483 144.768 92.7883 141.413 91.6386C140.313 91.2619 139.114 91.3142 137.96 91.4573C133.443 92.0169 129.102 93.9278 125.639 96.8814C126.834 92.977 128.68 89.2732 131.081 85.9699C132.585 83.8999 134.309 81.9784 135.579 79.7573C137.783 75.9046 140.074 64.4891 132.424 65.0757C130.94 65.1898 129.69 66.2136 128.676 67.3032C126.05 70.1247 124.312 73.6379 122.611 77.0968C124.285 72.952 130.284 53.3252 119.271 56.7205C115.234 57.9654 114.315 62.5422 113.817 66.1917C113.196 70.7319 111.71 75.5176 111.735 80.0321C110.943 75.4971 110.15 70.9562 108.992 66.5009C108.569 64.8761 108.087 63.2391 107.19 61.82C106.293 60.4012 104.919 59.2064 103.273 58.8763C100.447 58.309 97.8628 60.9984 97.2193 63.556C95.7244 69.4979 98.2585 75.0162 100.755 80.1128C99.2167 77.1193 91.2752 72.5515 89.8358 77.641C87.7066 85.1708 93.7238 91.9703 93.9096 99.386C91.2308 98.791 87.8596 98.4429 86.2843 100.69C85.1487 102.31 85.5733 104.537 86.2853 106.382C87.6404 109.895 89.8387 113.007 92.0151 116.079C93.0999 117.611 94.8244 119.129 95.5833 120.831C96.0172 121.804 96.0853 123.066 96.4341 124.096C96.8497 125.324 97.3514 126.522 97.6516 127.787C97.9866 129.197 98.0708 130.652 98.1537 132.098C98.2566 133.892 97.7892 136.343 99.7458 137.147C101.89 138.03 104.961 137.915 107.242 138.037Z" fill="#9FE3E2"/>
<path d="M133.419 39.9556L139.671 38.7252L132.284 37.4597L134.123 33.068L129.978 36.3148L127.862 29.4609L128.692 36.6362L123.549 35.0294L127.471 38.0836L122.818 41.9934L129.014 40.4933L131.264 48.529L131.711 41.6813L136.406 44.029L133.419 39.9556Z" fill="#FFD899"/>
<path d="M65.5732 33.9186C67.4301 32.8868 69.7039 32.6255 71.7443 33.2205C71.9246 33.2732 72.1535 33.3185 72.2724 33.1729C72.3274 33.1057 72.3402 33.0147 72.3537 32.9289C72.8629 29.688 75.7033 29.1177 78.4522 29.3305C79.7164 29.4282 80.9686 29.8686 81.9567 30.6764C82.2444 30.9113 84.3414 33.3188 83.83 33.6698C86.1491 32.0787 89.4987 34.2153 88.6505 37.5032C96.8048 38.93 89.8815 48.9467 83.5896 43.7524C82.1798 49.7342 74.2013 50.0923 71.941 44.7093C68.709 46.0712 64.4655 45.9397 62.4537 42.6454C60.5476 39.524 62.4187 35.8269 65.3192 34.0668C65.4028 34.0154 65.4874 33.9662 65.5732 33.9186Z" fill="#A1C0FF"/>
<path d="M127.545 39.4481C124.878 38.2112 121.465 39.0665 119.901 41.5734C118.259 36.011 110.121 36.0911 108.416 41.6852C99.3106 38.6198 100.807 54.148 108.338 48.2472C108.405 54.1229 118.424 57.0373 121.325 50.98C129.652 57.4439 135.477 43.3213 127.545 39.4481Z" fill="#C4D8FF"/>
<path d="M149.808 70.5906C149.954 70.094 150.08 69.5788 149.982 69.1159C149.848 68.4872 149.485 67.9041 148.916 67.6113C148.358 67.3246 147.688 67.2973 147.096 67.4956C146.943 67.5464 146.798 67.6103 146.657 67.6807C147.073 67.4731 144.519 65.2202 144.253 65.0807C143.133 64.4922 141.835 64.3038 140.589 64.4388C137.596 64.7625 135.247 67.1478 133.979 69.8513C132.356 69.5929 130.628 70.1287 129.411 71.2679C127.383 73.1672 127.061 76.1719 128.702 78.3959C130.421 80.7256 133.166 80.489 135.394 79.04C135.198 79.1673 135.963 80.804 136.067 80.9956C136.379 81.5681 136.784 82.084 137.268 82.5118C138.166 83.3063 139.31 83.775 140.489 83.8801C141.772 83.9945 143.113 83.6284 144.215 82.9518C144.792 82.5976 145.315 82.1489 145.726 81.6008C146.227 80.9352 146.125 80.3653 146.289 79.5713C146.994 80.4643 148.121 80.9451 149.242 80.9908C151.719 81.0917 154.271 79.2435 154.662 76.6457C154.887 75.152 154.341 73.6493 153.381 72.5346C152.633 71.6655 150.696 70.6257 149.592 71.3486C149.657 71.0946 149.734 70.8449 149.808 70.5906Z" fill="#A1C0FF"/>
<path d="M34.5952 67.1153C34.5615 67.2571 34.5328 67.4011 34.5091 67.5473C25.2227 63.4022 27.9439 80.5607 35.8594 74.9797C37.0927 80.1216 44.0667 80.0808 45.5501 75.2867C53.7845 80.5096 55.2309 63.6596 45.7353 67.9401C46.0519 60.3769 36.014 60.8221 34.5952 67.1153Z" fill="#C4D8FF"/>
<path d="M151.832 118.387C149.727 120.24 147.247 121.522 145.076 123.303C144.589 123.702 140.984 126.22 141.063 126.793C140.917 125.739 141.198 124.675 141.52 123.66C142.005 122.129 142.599 120.611 143.533 119.305C145.071 117.155 148.065 115.44 150.286 114.025C152.825 112.408 155.518 110.885 157.447 108.516C156.367 112.198 154.712 115.852 151.832 118.387Z" fill="#FFB8C8"/>
<path d="M153.32 92.9102C151.215 94.6452 148.663 95.5092 146.261 96.6522C141.577 98.8817 137.555 104.65 137.089 110.273C141.313 102.948 150.493 101.677 153.32 92.9102Z" fill="#FFD899"/>
<path d="M134.242 56.0251C134.63 55.4083 135.055 54.8272 135.509 54.2952C137.005 52.5428 138.737 51.3927 140.446 50.4962C141.27 50.0639 142.126 49.7743 142.939 49.2591C143.296 49.0331 145.146 48.1739 145.284 47.9004C144.098 50.2613 142.769 52.6382 141.102 54.508C139.499 56.3054 137.8 57.0196 136.019 57.9396C134.65 58.6467 133.226 59.556 132.128 61.07C132.535 59.3134 133.275 57.5593 134.242 56.0251Z" fill="#FFB8C8"/>
<path d="M39.8234 88.7908C40.4582 88.2434 41.1833 87.8037 41.9895 87.4788C43.7326 86.7761 45.3249 85.7013 46.6287 84.3474C46.4496 85.1828 46.4239 86.0474 46.2127 86.8754C45.6801 88.9657 44.1366 90.291 42.4668 91.515C40.6118 92.8749 38.9523 94.358 37.8778 96.436C37.0996 94.7942 37.1324 92.7904 37.9642 91.1749C38.4473 90.237 39.0722 89.4385 39.8234 88.7908Z" fill="#FFD899"/>
<path d="M36.0803 91.058C36.024 91.1435 35.9678 91.228 35.9119 91.3125C34.4812 93.4668 34.5018 95.9935 32.5902 97.9616C31.9335 98.6379 31.4231 99.399 30.6896 100.017C30.1991 100.429 28.95 100.894 28.6309 101.382C29.7494 99.6726 30.5016 97.725 30.8224 95.7074C31.0953 93.99 31.6561 92.4224 32.8155 91.0998C33.3536 90.4858 33.9669 90.1705 34.6445 89.742C34.8618 89.6045 37.1294 88.4865 37.1298 88.4714C37.113 89.4155 36.6045 90.2612 36.0803 91.058Z" fill="#FFB8C8"/>
<path d="M48.4049 48.3973C48.0481 47.6838 49.8323 41.26 49.8323 41.26L51.6166 47.6834L59.1107 46.6128L53.044 51.9658L54.8283 59.1032L50.1891 53.3936L47.691 61.2445V53.3936C47.691 53.3936 41.2675 56.2485 41.9811 55.8918C42.6947 55.535 46.6203 52.3233 46.6203 52.3233L41.9811 48.3977L46.9771 49.4683L45.1928 45.1859L48.4049 48.3973Z" fill="#FFD899"/>
<path d="M90.1626 37.6301C92.9166 34.934 96.6728 33.3288 99.0719 30.3125C98.2468 34.5473 97.3018 39.0235 94.3492 42.169C93.094 43.5062 91.5422 44.5219 90.1349 45.698C88.431 47.1216 87.109 48.7789 85.7558 50.5172C84.624 46.1805 87.1142 40.6146 90.1626 37.6301Z" fill="#FFB8C8"/>
<path d="M87.8288 51.6434C88.3379 50.7357 88.8561 49.8158 89.5873 49.0749C91.2362 47.4047 93.6926 46.8882 95.9982 46.4495C94.8758 48.6567 92.2577 49.7132 90.8794 51.7707C90.3838 52.511 90.0656 53.3576 89.5767 54.1024C88.5195 55.7127 86.4119 56.9753 84.4531 56.7664C84.8144 55.9724 85.5817 55.4511 86.0847 54.7446C86.7594 53.7967 87.2592 52.6588 87.8288 51.6434Z" fill="#FFD899"/>
<path d="M103.083 66.9108C101.599 65.2706 99.2185 64.8286 97.0112 64.691C96.4834 64.6582 95.9152 64.6476 95.4738 64.9385C95.4018 64.9861 95.3327 65.043 95.2916 65.1188C95.1518 65.3757 95.3829 65.6723 95.6008 65.8674C96.8534 66.9912 98.295 67.9506 99.2391 69.3437C99.5614 69.8197 99.8212 70.3404 100.195 70.7773C100.913 71.6162 103.08 72.7171 104.007 71.5924C105.016 70.369 103.972 67.8944 103.083 66.9108Z" fill="#F0B3A1"/>
<path d="M40.8078 136.461C40.0299 137.324 39.2665 138.258 38.8776 139.397C38.4231 140.729 38.3408 142.155 38.2627 143.56C41.9132 144.041 45.6041 144.214 49.2835 144.078C50.6605 144.027 53.0118 143.894 53.5505 142.301C53.7292 141.773 53.5624 141.109 53.5945 140.561C53.6498 139.621 53.8227 138.709 53.8047 137.76C53.789 136.923 53.6607 136.013 53.0587 135.432C52.2992 134.698 51.0986 134.758 50.0482 134.867C48.1479 135.064 46.2473 135.261 44.3464 135.458C43.6441 135.53 42.9314 135.39 42.2333 135.466C41.4233 135.555 41.5236 135.675 41.0771 136.164C40.9878 136.262 40.8978 136.361 40.8078 136.461Z" fill="#F0B3A1"/>
<path d="M68.7606 121.421C69.0429 119.802 69.4099 118.24 69.2826 116.49C69.048 113.261 68.0789 109.522 70.282 107.15C72.082 105.212 75.1728 105.264 77.7279 105.948C86.6886 108.346 92.9793 116.197 100.861 121.09C102.82 122.306 104.899 123.35 106.696 124.796C111.164 128.388 111.464 134.173 108.718 139.04C107.168 141.786 104.479 143.766 101.545 144.921C96.2489 147.006 90.3915 146.674 84.8282 146.309C81.1 146.065 77.372 145.821 73.6438 145.577C64.6255 144.986 55.4066 145.28 46.0851 144.316C45.9993 144.307 47.0343 131.88 47.0494 131.137C51.6455 130.819 54.4269 132.053 58.9423 131.137C61.5934 130.599 64.3127 130.622 66.9532 130.146C68.5369 129.862 68.5356 130.249 68.8706 128.538C69.22 126.753 68.3617 124.991 68.5154 123.207C68.5678 122.596 68.6587 122.005 68.7606 121.421Z" fill="#D4E9FF"/>
<mask id="mask0_123_1116" style="mask-type:luminance" maskUnits="userSpaceOnUse" x="46" y="105" width="65" height="42">
<path d="M68.7577 121.421C69.0399 119.802 69.407 118.24 69.2797 116.49C69.0451 113.261 68.076 109.522 70.279 107.15C72.079 105.212 75.1699 105.264 77.7249 105.948C86.6857 108.346 92.9764 116.197 100.858 121.09C102.817 122.306 104.896 123.35 106.693 124.796C111.161 128.388 111.461 134.173 108.715 139.04C107.166 141.786 104.476 143.766 101.542 144.921C96.246 147.006 90.3886 146.674 84.8253 146.309C81.097 146.065 77.3691 145.821 73.6409 145.577C64.6225 144.986 55.4036 145.28 46.0822 144.316C45.9964 144.307 47.0314 131.88 47.0465 131.137C51.6426 130.819 54.4239 132.053 58.9394 131.137C61.5905 130.599 64.3098 130.622 66.9503 130.146C68.534 129.862 68.5327 130.249 68.8676 128.538C69.217 126.753 68.3588 124.991 68.5125 123.207C68.5648 122.596 68.6558 122.005 68.7577 121.421Z" fill="white"/>
</mask>
<g mask="url(#mask0_123_1116)">
<path opacity="0.81" d="M38.8784 141.339C38.9128 141.289 38.9497 141.24 38.9889 141.192C40.3823 139.497 44.1713 140.137 46.0318 140.192C49.221 140.286 52.4166 139.689 55.5933 139.987C57.4184 140.158 59.2029 140.622 61.0161 140.889C64.5191 141.407 68.0824 141.188 71.622 141.278C77.1493 141.417 82.6524 142.311 88.1794 142.153C91.7273 142.051 95.2473 141.516 98.7563 140.983C101.001 140.642 103.272 140.293 105.367 139.417C107.818 138.392 110.182 136.623 112.82 136.928C116.157 137.314 113.313 141.33 112.2 142.571C110.466 144.507 108.533 146.344 106.165 147.416C103.681 148.54 100.892 148.745 98.1681 148.879C85.1075 149.519 72.0218 148.874 58.9616 148.229C52.7901 147.924 46.6184 147.62 40.4469 147.315C39.3313 146.002 37.701 143.05 38.8784 141.339Z" fill="#D4E9FF"/>
</g>
<path d="M91.3365 137.346C92.0141 134.015 92.7196 129.795 95.8018 127.76C96.6478 127.201 97.722 127.141 98.7355 127.167C99.846 127.196 100.996 127.32 101.952 127.886C103.735 128.941 104.364 131.456 103.51 133.344C103.133 134.178 102.528 134.883 102.004 135.634C100.923 137.186 100.187 138.95 99.5551 140.732C99.279 141.511 98.9852 142.348 98.3176 142.835C97.2077 143.646 95.888 142.988 94.6775 143.104C93.5065 143.216 92.3378 143.511 91.4452 142.452C90.6869 141.553 90.8116 140.227 91.0122 139.068C91.1119 138.492 91.2202 137.918 91.3365 137.346Z" fill="#F0B3A1"/>
<path d="M89.1129 144.68C89.6899 143.176 90.531 141.725 90.6815 140.137C90.6892 140.054 90.6998 139.962 90.7666 139.907C90.8361 139.85 90.9396 139.855 91.0315 139.862C93.5396 140.075 96.0635 139.916 98.5758 140.062C98.9701 140.085 99.3771 140.111 99.7277 140.279C100.252 140.531 100.551 141.049 100.878 141.507C102.984 144.454 106.839 145.181 110.186 146.304C111.793 146.844 113.415 147.502 114.637 148.646C115.16 149.136 116.063 150.045 116.15 150.768C116.289 151.937 114.871 152.138 113.854 152.105C105.746 151.837 97.6295 151.49 89.5857 150.529C88.0657 150.347 88.1097 149.798 88.2248 148.507C88.3405 147.204 88.6398 145.913 89.1129 144.68Z" fill="#222221"/>
<path d="M105.039 143.255C104.836 143.068 104.561 143.077 104.357 143.255C103.738 143.796 103.299 144.568 103.159 145.38C103.136 145.511 103.138 145.633 103.207 145.751C103.266 145.851 103.38 145.947 103.495 145.973C103.729 146.026 104.042 145.902 104.088 145.636C104.119 145.459 104.162 145.286 104.221 145.117C104.236 145.074 104.253 145.031 104.269 144.988C104.27 144.986 104.27 144.987 104.27 144.985C104.276 144.972 104.281 144.96 104.286 144.948C104.325 144.864 104.366 144.783 104.411 144.702C104.454 144.626 104.5 144.552 104.548 144.48C104.574 144.442 104.6 144.405 104.627 144.368C104.63 144.364 104.636 144.357 104.641 144.35C104.647 144.342 104.653 144.335 104.655 144.332C104.771 144.189 104.9 144.058 105.039 143.937C105.23 143.77 105.222 143.423 105.039 143.255Z" fill="#F06B9A"/>
<path d="M107.038 143.897C106.946 143.813 106.825 143.75 106.697 143.756C106.562 143.762 106.46 143.812 106.356 143.897C105.709 144.424 105.234 145.135 104.953 145.918C104.868 146.155 105.049 146.456 105.29 146.511C105.561 146.572 105.792 146.428 105.883 146.174C105.898 146.132 105.913 146.091 105.929 146.049C105.932 146.043 105.934 146.037 105.937 146.03C105.933 146.039 105.931 146.041 105.943 146.015C105.944 146.013 105.944 146.012 105.945 146.011C105.949 146.001 105.955 145.991 105.957 145.981C105.956 145.985 105.953 145.992 105.951 145.999C105.987 145.919 106.024 145.84 106.064 145.762C106.149 145.601 106.244 145.446 106.349 145.297C106.372 145.266 106.395 145.235 106.418 145.203C106.429 145.189 106.441 145.174 106.452 145.16C106.509 145.092 106.567 145.025 106.627 144.96C106.755 144.824 106.892 144.697 107.037 144.579C107.127 144.505 107.178 144.349 107.178 144.237C107.179 144.12 107.126 143.979 107.038 143.897Z" fill="#F06B9A"/>
<path d="M105.938 146.031C105.941 146.023 105.947 146.012 105.951 145.999C105.949 146.003 105.947 146.008 105.945 146.012C105.942 146.018 105.94 146.025 105.938 146.031Z" fill="#F06B9A"/>
<path d="M108.887 145.201C108.856 145.089 108.77 144.968 108.666 144.913C108.448 144.798 108.126 144.844 108.006 145.086C107.797 145.509 107.588 145.933 107.379 146.356C107.321 146.473 107.295 146.598 107.331 146.728C107.362 146.839 107.448 146.961 107.552 147.016C107.77 147.131 108.092 147.084 108.212 146.843C108.421 146.419 108.63 145.996 108.839 145.572C108.897 145.455 108.923 145.33 108.887 145.201Z" fill="#F06B9A"/>
<path d="M94.0938 127.596C91.5204 127.88 88.5318 128.162 86.5563 127.068C84.259 125.796 82.6226 123.532 81.1601 121.42C76.2895 114.388 71.3771 107.278 68.0828 99.3953C67.9124 98.9877 67.7466 98.5779 67.5849 98.1661C63.9132 88.8007 61.3537 73.3326 69.5578 65.5013C72.2189 62.961 75.7659 61.4625 79.4009 60.8971C80.8538 60.6712 82.3282 60.5789 83.7974 60.639C85.7456 60.7187 87.6803 61.0685 89.5317 61.6808C91.3443 62.2806 93.0703 63.1282 94.6685 64.1712C95.4759 64.6983 96.2512 65.2747 96.9914 65.8921C97.7044 66.4868 98.5777 67.1255 98.8859 68.0364C99.001 68.3765 99.0643 68.732 99.182 69.0711C99.3604 69.585 99.6638 70.055 100.059 70.4291C100.517 70.8624 101.079 71.1568 101.616 71.4782C101.88 71.6364 102.141 71.8016 102.382 71.9941C102.634 72.196 102.776 72.4776 102.949 72.7485C102.62 72.2342 113.346 70.856 114.378 70.8785C124.5 71.1012 132.484 74.4781 137.123 84.0104C138.853 87.5645 139.646 91.6543 138.86 95.5282C138.028 99.6296 135.392 103.331 131.787 105.457C129.951 106.539 127.902 107.221 126.07 108.311C123.428 109.885 122.835 111.347 122.587 114.112C122.354 116.714 120.2 118.457 118.312 120.045C115.16 122.698 111.34 124.514 107.391 125.629C103.801 126.642 100.088 127.117 96.3733 127.369C95.6864 127.416 94.9111 127.506 94.0938 127.596Z" fill="#FFA3B8"/>
<path d="M137.123 84.0108C135.794 81.2799 134.189 79.0566 132.339 77.2656C132.71 79.0277 132.937 80.8184 132.962 82.6229C133.022 86.9043 133.304 92.8369 131.076 96.6352C128.736 100.624 123.799 102.302 120.787 105.811C119.101 107.777 118.096 110.228 116.633 112.366C113.036 117.625 106.846 120.652 100.577 121.79C94.2079 122.945 88.0921 121.607 81.7754 121.951C82.0817 123.822 84.91 126.157 86.5547 127.068C88.5302 128.162 91.5192 127.88 94.0922 127.597C94.9093 127.507 95.6846 127.416 96.3721 127.369C100.087 127.117 103.799 126.642 107.39 125.629C111.338 124.515 115.159 122.698 118.311 120.045C120.199 118.457 122.353 116.714 122.586 114.112C122.834 111.347 123.426 109.885 126.069 108.311C127.9 107.221 129.95 106.539 131.786 105.457C135.39 103.331 138.027 99.6297 138.859 95.5282C139.646 91.6547 138.853 87.5648 137.123 84.0108Z" fill="#F28FA6"/>
<path d="M72.7176 61.4684C72.6183 60.9557 72.4566 60.5006 72.2425 60.0985C70.3943 56.6283 64.6485 57.1175 61.645 58.7828C58.8065 60.3566 57.7233 62.7014 56.822 65.591C55.7092 69.1586 53.7816 72.2186 51.9491 75.439C51.6698 75.9301 51.3899 76.4216 51.1539 76.9349C50.8447 77.6067 50.6114 78.3132 50.46 79.037C50.6772 77.9988 52.431 76.4338 53.2162 75.7723C54.375 74.7958 55.7349 74.7476 57.2206 74.8051C57.919 74.8363 58.7429 74.8138 59.4162 75.015C60.0221 75.1953 60.9064 75.338 61.4117 75.7106C61.7832 74.9558 62.0825 74.1658 62.3049 73.3545C64.0683 73.5509 65.3787 72.891 66.6821 71.8023C69.5216 69.4298 73.5125 65.5769 72.7176 61.4684Z" fill="#F0B3A1"/>
<path d="M54.007 74.3607C54.3972 74.1685 54.8167 74.021 55.2689 73.9261C56.436 73.6822 57.6465 73.9345 58.7973 74.2473C61.1672 74.8911 63.4667 75.7943 65.6414 76.935C65.7552 76.9948 65.8783 77.0659 65.9198 77.1877C65.9687 77.331 65.8851 77.4821 65.8115 77.6149C64.6248 79.7475 65.465 82.2315 65.7613 84.4812C66.1168 87.1774 66.382 89.888 66.9426 92.5523C67.9098 97.1474 67.6635 101.87 64.9034 105.943C63.672 107.761 62.0234 109.357 59.9904 110.186C57.9574 111.014 55.5113 110.986 53.6669 109.795C52.9955 109.361 52.423 108.793 51.8644 108.222C48.7169 104.999 48.2589 100.617 47.724 96.2902C47.1574 91.7063 47.2062 86.9636 48.7758 82.5694C48.7902 82.5289 48.8047 82.4887 48.8195 82.4485C49.8407 79.6437 51.1193 75.7834 54.007 74.3607Z" fill="#83A8F7"/>
<path d="M86.348 123.052C88.2421 120.116 90.1135 117.165 91.9624 114.199C94.4393 110.226 96.4877 104.923 100.495 102.424C100.918 103.379 100.551 104.316 100.132 105.232C95.7404 114.849 92.3359 125.241 89.0759 135.314L103.59 135.957C105.936 132.236 107.807 127.417 110.121 123.646C111.712 121.158 113.555 118.707 114.939 116.095C116.127 113.855 116.854 111.277 117.631 108.868C119.047 104.479 120.119 99.3468 117.615 95.4944C116.59 93.9165 115.068 92.752 113.55 91.6611C111.334 90.0687 108.985 88.5304 106.326 87.9868C103.724 87.4549 101.031 87.9187 98.4436 88.522C92.3452 89.9446 86.5077 92.3692 81.2408 95.8184C78.5511 97.5799 76.0214 99.5875 73.6483 101.769C71.8766 103.398 71.704 103.547 70.632 101.268C69.7851 99.4663 68.9741 97.6461 68.1455 95.8358C68.0625 95.6545 67.9626 95.4565 67.7781 95.3871C67.6055 95.3221 67.4149 95.3916 67.2442 95.4616C61.3624 97.8695 55.8765 101.278 51.0824 105.503C50.8639 105.695 50.6379 105.903 50.5427 106.182C50.2271 107.114 51.0718 110.023 51.21 111.063C51.7693 115.266 52.668 119.472 53.3231 123.677C53.7252 126.258 54.1321 128.859 55.0193 131.311C55.954 133.894 57.3853 137.505 58.8192 139.839C60.0043 141.767 61.3562 142.569 63.4629 143.325C65.8202 144.171 68.5726 144.048 70.7121 142.732C72.7747 141.462 74.5258 139 76.2172 137.252C78.6337 134.753 80.5912 131.84 82.5124 128.928C83.8016 126.976 85.0799 125.018 86.348 123.052Z" fill="#D4E9FF"/>
<mask id="mask1_123_1116" style="mask-type:luminance" maskUnits="userSpaceOnUse" x="47" y="73" width="73" height="71">
<path d="M117.614 95.4949C116.588 93.917 115.067 92.7525 113.548 91.6615C111.333 90.0692 108.984 88.5308 106.325 87.9873C103.723 87.4553 101.029 87.9191 98.4422 88.5225C92.3438 89.9451 86.5063 92.3696 81.2394 95.8189C78.5497 97.5803 76.02 99.588 73.6469 101.77C71.8752 103.399 71.7026 103.547 70.6306 101.268C69.7837 99.4668 68.9727 97.6465 68.1441 95.8362C68.0611 95.655 67.9612 95.457 67.777 95.3879C67.6462 95.3387 67.5054 95.3666 67.3704 95.4136C67.2855 94.4589 67.1412 93.503 66.9413 92.5525C66.3804 89.8882 66.1152 87.1776 65.76 84.4815C65.4634 82.2318 64.6231 79.7478 65.8102 77.6151C65.8838 77.4827 65.9674 77.3316 65.9185 77.1879C65.877 77.0661 65.7539 76.9951 65.6401 76.9353C63.4654 75.7945 61.1659 74.8913 58.796 74.2475C57.6452 73.9347 56.4348 73.6824 55.2676 73.9264C54.8154 74.0209 54.3959 74.1687 54.0057 74.361C51.1183 75.7836 49.8394 79.6443 48.8185 82.4484C48.8037 82.4886 48.7892 82.5291 48.7748 82.5693C47.2052 86.9635 47.1564 91.7065 47.7231 96.2904C48.1673 99.8837 48.5639 103.512 50.4867 106.486C50.3768 107.631 51.0839 110.118 51.2099 111.063C51.7692 115.267 52.6679 119.472 53.323 123.678C53.7251 126.259 54.132 128.86 55.0192 131.312C55.9539 133.895 56.7424 136.541 58.1762 138.875C59.3614 140.803 61.3561 142.569 63.4628 143.325C65.8201 144.171 68.3729 144.025 70.5124 142.708C72.575 141.439 74.526 139.001 76.2171 137.252C78.6336 134.753 80.5911 131.84 82.5123 128.929C83.8005 126.977 85.0789 125.018 86.3469 123.052C88.2411 120.116 90.1124 117.166 91.9613 114.2C94.4382 110.227 96.4867 104.923 100.494 102.424C100.917 103.38 100.55 104.317 100.131 105.233C95.7394 114.849 92.3348 125.241 89.0749 135.314L103.589 135.957C105.935 132.237 107.806 127.418 110.12 123.647C111.711 121.158 113.554 118.708 114.938 116.096C116.126 113.856 116.853 111.278 117.63 108.869C119.046 104.479 120.118 99.3472 117.614 95.4949Z" fill="white"/>
</mask>
<g mask="url(#mask1_123_1116)">
<path opacity="0.81" d="M50.854 83.1465C50.5525 85.9426 50.4066 88.7551 50.4172 91.5673C50.4249 93.6967 50.5236 95.8361 50.944 97.9235C51.4082 100.228 52.2571 102.434 53.0179 104.658C54.427 108.778 55.544 112.999 56.3572 117.276C57.5716 123.663 58.2479 130.516 62.2133 135.668C63.2322 136.992 64.7031 138.258 66.3601 138.047C67.3816 137.917 68.2446 137.243 68.9974 136.54C73.0615 132.745 74.7838 127.577 78.026 123.24C81.41 118.713 83.8017 113.091 87.4114 108.814C88.6241 107.376 90.427 106.457 91.8172 105.139C94.0489 103.023 96.6946 100.037 99.7379 99.133C101.247 98.6846 103.09 98.9681 104.039 100.225C104.802 101.236 104.829 102.615 104.689 103.873C104.322 107.189 103.038 110.32 101.906 113.458C100.656 116.92 99.8285 120.49 98.681 123.975C98.16 125.557 97.5055 127.248 97.3381 128.91C97.2021 130.259 97.4567 131.701 98.3188 132.748C98.9828 133.554 99.9359 134.052 100.776 134.673C101.389 135.126 101.949 135.65 102.441 136.232C102.599 136.419 102.753 136.618 102.819 136.854C103.547 139.462 98.2609 138.998 97.1291 139.186C95.9427 139.383 94.7502 139.582 93.6124 139.971C91.9265 140.548 90.4119 141.524 88.8723 142.42C80.671 147.197 71.2738 149.901 61.7884 150.214C60.3256 150.263 58.8296 150.25 57.444 149.779C56.0168 149.293 54.7829 148.339 53.7816 147.212C50.4169 143.424 49.7046 137.974 49.8608 132.91C50.017 127.846 50.8814 122.744 50.0501 117.746C48.7596 109.986 43.4824 103.136 43.1957 95.2756C43.0051 90.0492 44.78 84.4875 47.0204 79.8223C47.5613 78.6956 48.2993 76.2184 49.864 76.9998C51.5744 77.8542 51.0077 81.7213 50.854 83.1465Z" fill="#D4E9FF"/>
</g>
<path d="M102.577 70.1632C100.978 69.369 99.3641 68.5959 97.701 67.9431C96.6216 68.8566 95.559 69.7862 94.6124 70.9067C92.2448 73.7086 89.7984 76.4439 87.2784 79.1095C86.8875 79.5229 86.4912 79.9379 86.0222 80.2603C85.271 80.7765 84.3743 81.0285 83.4958 81.2718C81.9253 81.707 80.3381 82.1451 78.71 82.2139C75.8403 82.3354 71.4821 79.6913 68.9058 78.4217C66.3296 77.152 63.2464 75.5497 60.5487 74.5645C57.8339 73.5729 56.7137 75.5748 54.4399 77.4838C52.7335 78.9164 52.9434 82.0509 52.9112 84.0599C52.9 84.7718 52.8932 85.5082 53.1735 86.1627C53.5885 87.1308 54.546 87.7364 55.4627 88.2552C58.6085 90.0349 61.9276 91.509 65.3576 92.6491C67.8512 93.478 70.2674 94.3938 72.717 94.9737C75.4623 95.6236 78.2494 95.8518 81.2336 95.0624C83.5649 94.4459 85.7381 93.3533 87.8917 92.2682C89.5409 91.4373 91.1979 90.6016 92.6993 89.5261C96.2989 86.9476 98.8132 83.1309 100.884 79.2169C102.248 76.639 103.464 73.9763 104.831 71.4027C104.105 70.9359 103.35 70.547 102.577 70.1632Z" fill="#83A8F7"/>
<mask id="mask2_123_1116" style="mask-type:luminance" maskUnits="userSpaceOnUse" x="52" y="67" width="53" height="29">
<path d="M102.579 70.1632C100.98 69.369 99.366 68.5959 97.703 67.9431C96.6236 68.8566 95.561 69.7862 94.6144 70.9067C92.2467 73.7086 89.8003 76.4439 87.2803 79.1095C86.8895 79.5229 86.4931 79.9379 86.0242 80.2603C85.273 80.7765 84.3762 81.0285 83.4977 81.2718C81.9272 81.707 80.34 82.1451 78.712 82.2139C75.8423 82.3354 71.484 79.6913 68.9078 78.4217C66.3315 77.152 63.2484 75.5497 60.5506 74.5645C57.8359 73.5729 56.7157 75.5748 54.4419 77.4838C52.7354 78.9164 52.9453 82.0509 52.9132 84.0599C52.9019 84.7718 52.8952 85.5082 53.1755 86.1627C53.5904 87.1308 54.548 87.7364 55.4647 88.2552C58.6105 90.0349 61.9296 91.509 65.3595 92.6491C67.8532 93.478 70.2694 94.3938 72.719 94.9737C75.4643 95.6236 78.2514 95.8518 81.2355 95.0624C83.5669 94.4459 85.74 93.3533 87.8936 92.2682C89.5429 91.4373 91.1998 90.6016 92.7012 89.5261C96.3009 86.9476 98.8151 83.1309 100.886 79.2169C102.25 76.639 103.466 73.9763 104.833 71.4027C104.107 70.9359 103.352 70.547 102.579 70.1632Z" fill="white"/>
</mask>
<g mask="url(#mask2_123_1116)">
<path opacity="0.81" d="M82.5449 91.3476C87.2458 90.4736 90.7783 86.6888 93.9347 83.0975C95.8713 80.8938 97.823 78.6515 99.1255 76.0225C100.259 73.7349 100.909 71.1468 102.599 69.2333C102.869 68.9279 103.188 68.63 103.589 68.5586C103.911 68.5011 104.238 68.5991 104.551 68.6962C105.326 68.9363 106.1 69.1764 106.874 69.4165C107.219 69.5232 107.612 69.6778 107.713 70.024C107.782 70.259 107.689 70.5078 107.595 70.7344C105.006 77.0186 101.426 82.8934 97.0282 88.0754C92.4957 93.416 86.3995 98.2879 79.3959 98.176C76.3468 98.1275 73.4038 97.1282 70.4049 96.5772C67.1012 95.9701 52.6806 94.0045 61.1207 88.8356C67.7923 84.7499 75.2755 92.6989 82.5449 91.3476Z" fill="#D4E9FF"/>
</g>
<path d="M63.0786 67.3269C62.5158 67.9502 62.5199 69.0044 63.0879 69.6232C63.4122 69.9764 63.8754 70.1789 64.3469 70.267C65.3356 70.4518 66.4703 70.0922 66.9814 69.2259" stroke="#222221" stroke-width="0.321429" stroke-miterlimit="10" stroke-linecap="round" stroke-linejoin="round"/>
<path d="M67.1379 93.3684C66.7895 93.5574 66.3369 93.4725 65.9795 93.3015C62.734 91.7484 59.5438 90.0805 56.416 88.302" stroke="#222221" stroke-width="0.321429" stroke-miterlimit="10" stroke-linecap="round" stroke-linejoin="round"/>
<path d="M70.6883 56.8587C70.8355 56.8121 70.9789 56.7616 71.1139 56.7063C72.5263 56.1258 73.5571 54.8449 73.3382 53.2609C73.1296 51.7531 71.9207 50.5163 70.4235 50.2598C68.7842 49.9791 66.927 50.693 65.9849 52.088C65.3902 52.9684 65.503 53.9896 65.8518 54.9407C65.9984 55.3403 66.1854 55.7363 66.4288 56.0873C65.9575 56.129 65.4889 56.202 65.0309 56.3C61.85 56.9805 58.8434 58.8888 57.3159 61.7605C56.971 62.4088 56.6988 63.1326 56.7801 63.8623C56.7997 64.0381 56.8505 64.2284 56.9961 64.329C57.1385 64.4274 57.3288 64.4113 57.4985 64.3775C59.1256 64.0529 60.2265 62.5766 61.1673 61.2099C61.0908 61.6226 61.4399 62.0228 61.8442 62.1356C62.2486 62.2484 62.6812 62.1407 63.0737 61.9919C63.8535 61.6962 64.567 61.2324 65.1601 60.6464C64.9081 61.1655 65.055 61.9115 65.5307 62.2911C66.1678 62.7993 67.1218 62.7257 67.8347 62.3307C68.5473 61.9356 69.0725 61.2806 69.5752 60.639C69.4206 60.8364 69.5418 61.6814 69.5514 61.934C69.5685 62.3882 69.6128 62.8463 69.7327 63.2863C69.9105 63.9394 70.426 64.9037 71.0223 65.2737C71.1409 65.3473 71.2868 65.365 71.426 65.354C71.8853 65.3184 72.2826 64.994 72.525 64.6022C72.6947 64.3277 72.8985 64.1477 72.9994 63.8263C73.2617 62.9912 73.3941 62.2253 73.2787 61.3555C73.1974 60.7415 73.1039 60.1514 72.8821 59.5686C72.4649 58.4723 71.723 57.4437 70.6883 56.8587Z" fill="#F06B9A"/>
<path d="M60.0634 63.7154C59.3348 62.4612 57.7353 61.7284 56.3847 62.4889C55.7733 62.8328 55.3143 63.4699 55.0385 64.1027C54.7065 64.8645 54.7692 65.6363 55.3262 66.2714C55.7897 66.7995 56.4888 67.1666 57.187 67.2364C57.9311 67.3109 58.5845 66.9326 58.9895 66.3232C59.3312 65.8089 59.5392 65.104 59.5308 64.4267C59.8834 64.4962 60.299 64.1211 60.0634 63.7154Z" fill="#F0B3A1"/>
<path d="M59.4062 63.2229C59.6669 63.4659 59.8643 63.7767 59.9732 64.1162" stroke="#222221" stroke-width="0.321429" stroke-miterlimit="10" stroke-linecap="round" stroke-linejoin="round"/>
<path d="M56.791 63.29C57.6582 63.4498 58.3696 64.2366 58.4412 65.1154" stroke="#222221" stroke-width="0.321429" stroke-miterlimit="10" stroke-linecap="round" stroke-linejoin="round"/>
<path d="M63.0215 65.2002C63.1922 64.719 63.7682 64.4937 64.2776 64.5242C64.6617 64.5474 65.0986 64.7518 65.149 65.1333C65.1857 65.4091 65.0057 65.6618 64.8353 65.8816" stroke="#222221" stroke-width="0.321429" stroke-miterlimit="10" stroke-linecap="round" stroke-linejoin="round"/>
<path d="M68.0312 67.2048C68.1319 66.8265 68.5163 66.5446 68.9075 66.5623C69.0762 66.57 69.2385 66.6263 69.3983 66.6825C69.4954 66.7166 69.595 66.752 69.6734 66.8188C69.8692 66.986 69.8676 67.3042 69.7396 67.5276C69.6117 67.751 69.3902 67.9023 69.1765 68.0454" stroke="#222221" stroke-width="0.321429" stroke-miterlimit="10" stroke-linecap="round" stroke-linejoin="round"/>
<path d="M67.0929 65.7297C66.6349 65.9538 66.3074 66.425 66.2566 66.9322C66.2434 67.0624 66.2473 67.1955 66.2109 67.3211C66.1367 67.578 65.9117 67.7573 65.6992 67.9193" stroke="#222221" stroke-width="0.321429" stroke-miterlimit="10" stroke-linecap="round" stroke-linejoin="round"/>
<path d="M93.8021 135.532C92.174 135.527 90.546 135.522 88.918 135.518C89.3165 133.869 90.6366 129.111 92.2094 126.476" stroke="#222221" stroke-width="0.321429" stroke-miterlimit="10" stroke-linecap="round" stroke-linejoin="round"/>
<path d="M84.8161 125.511C83.5294 127.914 81.1843 130.661 79.6893 132.985C78.0034 135.607 76.0009 138.026 73.7361 140.168C71.9885 141.821 69.9896 143.356 67.6319 143.832C65.2877 144.306 62.7713 143.639 60.8678 142.191C57.0032 139.252 55.7005 132.7 54.3276 128.287C52.4794 122.343 51.8459 116.633 50.8896 110.483" stroke="#222221" stroke-width="0.321429" stroke-miterlimit="10" stroke-linecap="round" stroke-linejoin="round"/>
<path d="M44.0064 140.372C44.3182 138.674 44.4548 136.943 44.4104 135.216C42.7531 134.621 41.0711 134.095 39.3698 133.641C39.0969 133.568 38.815 133.497 38.535 133.535C38.0786 133.597 37.7157 133.935 37.3798 134.25C35.7132 135.814 33.4632 138.131 31.2508 138.827C28.8321 139.588 26.3513 140.211 23.9419 141.075C22.8593 141.463 21.4289 142.005 20.9494 143.161C20.3071 144.71 21.5051 144.91 22.65 144.869C26.295 144.738 29.9317 144.795 33.5693 144.458C35.0626 144.319 36.5094 144.371 38.014 144.23C38.4598 144.188 42.9714 144.238 42.9862 144.196C43.4272 142.951 43.7679 141.671 44.0064 140.372Z" fill="#222221"/>
<path d="M94.8877 135.59C97.4218 135.684 99.9557 135.778 102.49 135.873C102.975 135.891 103.46 135.909 103.944 135.927C104.256 135.938 105.411 132.36 105.564 131.999C106.168 130.567 106.815 129.154 107.503 127.761C107.722 127.317 107.947 126.873 108.234 126.469C108.832 125.629 109.606 124.835 110.046 123.898" stroke="#222221" stroke-width="0.321429" stroke-miterlimit="10" stroke-linecap="round" stroke-linejoin="round"/>
<path d="M120.423 109.546C120.408 109.568 120.394 109.59 120.382 109.613C120.237 109.864 120.191 110.164 120.211 110.453C120.241 110.875 120.42 111.296 120.744 111.567C120.945 111.736 121.301 111.847 121.45 112.061C121.052 112.189 120.67 112.325 120.287 112.498C119.889 112.678 119.481 112.915 119.557 113.408C119.618 113.804 119.905 114.187 120.314 114.261C119.724 114.354 119.419 115.135 119.69 115.668C120.122 116.519 121.673 116.437 122.496 116.506C123.627 116.601 124.753 116.397 125.751 115.847C126.613 115.373 127.648 115.142 128.16 114.208C128.24 114.061 128.307 113.903 128.422 113.78C128.526 113.669 128.662 113.593 128.787 113.506C129.185 113.226 129.475 112.796 129.594 112.325C129.695 111.93 129.606 111.555 129.838 111.206C130.285 110.531 130.786 109.869 130.623 109.006C130.585 108.808 130.49 108.614 130.326 108.498C130.679 108.358 130.886 107.994 131.038 107.646C131.097 107.508 131.154 107.367 131.179 107.219C131.212 107.029 131.191 106.829 131.12 106.65C131.046 106.463 130.91 106.293 130.724 106.218C130.542 106.145 130.337 106.17 130.146 106.216C129.295 106.42 128.39 106.501 127.515 106.595C126.251 106.73 124.981 106.817 123.722 107.002C123.484 107.037 123.238 107.077 123.037 107.207C122.721 107.411 122.506 107.731 122.481 108.11C122.47 108.283 122.496 108.458 122.548 108.623C122.612 108.825 122.686 108.882 122.88 108.966C123.04 109.036 123.183 109.143 123.294 109.278C122.903 109.337 122.51 109.22 122.119 109.164C121.889 109.131 121.657 109.119 121.425 109.107C121.303 109.101 121.181 109.094 121.06 109.115C120.8 109.158 120.571 109.327 120.423 109.546Z" fill="#F0B3A1"/>
<path d="M123.389 109.44C125.228 109.685 126.973 109.31 128.641 108.457" stroke="#222221" stroke-width="0.321429" stroke-miterlimit="10" stroke-linecap="round" stroke-linejoin="round"/>
<path d="M121.123 112.137C123.104 112.547 125.186 112.455 127.123 111.873" stroke="#222221" stroke-width="0.321429" stroke-miterlimit="10" stroke-linecap="round" stroke-linejoin="round"/>
<path d="M120.503 114.609C123.066 114.583 124.169 115.042 125.944 114.588" stroke="#222221" stroke-width="0.321429" stroke-miterlimit="10" stroke-linecap="round" stroke-linejoin="round"/>
<path d="M130.459 106.226C129.142 106.617 126.738 106.822 125.364 106.777C124.718 106.756 124.052 106.688 123.44 106.898C122.828 107.107 122.347 107.691 122.382 108.337C122.424 109.118 123.291 109.255 123.709 109.44C122.878 109.588 121.329 108.809 120.642 109.299C120.165 109.639 120.082 110.354 120.32 110.89C120.557 111.426 121.039 111.811 121.533 112.126C121.046 112.153 120.565 112.291 120.138 112.525C119.737 112.745 119.348 113.136 119.415 113.588C119.495 114.13 120.281 114.466 120.817 114.583C120.409 114.68 119.796 114.723 119.664 115.121C119.548 115.471 119.773 115.859 120.086 116.053C120.399 116.246 120.778 116.29 121.144 116.329C121.744 116.394 122.344 116.458 122.944 116.523" stroke="#222221" stroke-width="0.321429" stroke-miterlimit="10" stroke-linecap="round" stroke-linejoin="round"/>
<path d="M104.299 71.1359C104.355 70.5024 104.323 69.8611 104.204 69.2366" stroke="#222221" stroke-width="0.321429" stroke-miterlimit="10" stroke-linecap="round" stroke-linejoin="round"/>
<path d="M99.0874 68.5503C98.9784 68.1974 98.8212 67.8592 98.6213 67.5487C98.5268 67.4018 98.4226 67.2611 98.3188 67.1206C98.2243 66.993 98.1289 66.8638 98.007 66.7616C97.8997 66.6716 97.775 66.605 97.6599 66.5253C97.2369 66.2322 96.9601 65.7751 96.5892 65.4183C96.2871 65.1281 95.9261 64.9075 95.5684 64.6899" stroke="#222221" stroke-width="0.321429" stroke-miterlimit="10" stroke-linecap="round" stroke-linejoin="round"/>
<path d="M116.012 100.687C116.671 100.251 116.849 98.8315 116.736 98.1823C116.601 97.3996 115.164 96.1553 114.682 97.4163C114.415 98.1151 115.23 98.8454 115.069 99.5763C114.91 100.297 114.956 101.387 116.012 100.687Z" fill="#222221"/>
<path d="M72.0804 102.403C71.3385 103.477 70.5964 104.55 69.8545 105.624C66.6688 110.233 67.0973 115.163 66.1738 120.69" stroke="#222221" stroke-width="0.321429" stroke-miterlimit="10" stroke-linecap="round" stroke-linejoin="round"/>
<path d="M55.8467 101.562C58.6984 99.4189 62.1663 97.8349 65.3745 96.304" stroke="#222221" stroke-width="0.321429" stroke-miterlimit="10" stroke-linecap="round" stroke-linejoin="round"/>
<path d="M50.3037 106.449C51.3471 104.969 53.2393 104.037 54.5205 102.749" stroke="#222221" stroke-width="0.321429" stroke-miterlimit="10" stroke-linecap="round" stroke-linejoin="round"/>
<path d="M64.8232 72.9909C66.4384 72.3718 67.7849 71.6046 70.6745 67.6542C71.1602 66.9902 71.8902 65.7366 72.0936 64.9395" stroke="#222221" stroke-width="0.321429" stroke-miterlimit="10" stroke-linecap="round" stroke-linejoin="round"/>
<path d="M73.2471 61.1838C73.5373 62.3191 73.2908 63.5798 72.5939 64.5219C72.2763 64.9513 71.8006 65.3406 71.2693 65.2882C70.5824 65.22 70.1623 64.4958 70.1523 63.8054" stroke="#222221" stroke-width="0.321429" stroke-miterlimit="10" stroke-linecap="round" stroke-linejoin="round"/>
<path d="M69.4421 60.71C69.266 60.9896 69.0898 61.2696 68.9137 61.5492C68.7697 61.7784 68.6218 62.0114 68.4123 62.1827C68.2027 62.3541 67.9166 62.4553 67.6572 62.3788" stroke="#222221" stroke-width="0.321429" stroke-miterlimit="10" stroke-linecap="round" stroke-linejoin="round"/>
<path d="M65.2909 59.6838C65.152 60.517 64.7538 61.3926 63.9775 61.7249" stroke="#222221" stroke-width="0.321429" stroke-miterlimit="10" stroke-linecap="round" stroke-linejoin="round"/>
<path d="M61.1799 60.6375C61.1982 61.1022 60.915 61.5207 60.6248 61.8843C60.2426 62.3622 59.8263 62.8129 59.3799 63.2314" stroke="#222221" stroke-width="0.321429" stroke-miterlimit="10" stroke-linecap="round" stroke-linejoin="round"/>
<path d="M67.7051 56.722C68.2161 56.9901 68.814 57.03 69.3913 57.0313C70.1396 57.0329 71.0457 56.9261 71.6635 56.4553C71.9084 56.2685 72.107 56.0287 72.3034 55.7915" stroke="#222221" stroke-width="0.321429" stroke-miterlimit="10" stroke-linecap="round" stroke-linejoin="round"/>
<path d="M72.3564 51.3574C73.0141 51.9241 73.3281 52.8611 73.1452 53.7096" stroke="#222221" stroke-width="0.321429" stroke-miterlimit="10" stroke-linecap="round" stroke-linejoin="round"/>
<mask id="mask3_123_1116" style="mask-type:luminance" maskUnits="userSpaceOnUse" x="50" y="57" width="23" height="23">
<path d="M72.7186 61.4684C72.6193 60.9557 72.4576 60.5006 72.2435 60.0985C70.3953 56.6283 64.6494 57.1175 61.646 58.7828C58.8075 60.3566 57.7243 62.7014 56.823 65.591C55.7102 69.1586 53.7826 72.2186 51.9501 75.439C51.6708 75.9301 51.3908 76.4216 51.1549 76.9349C50.8457 77.6067 50.6123 78.3132 50.4609 79.037C50.6782 77.9988 52.4319 76.4338 53.2172 75.7723C54.3759 74.7958 55.7359 74.7476 57.2215 74.8051C57.92 74.8363 58.7438 74.8138 59.4172 75.015C60.0231 75.1953 60.9074 75.338 61.4127 75.7106C61.7842 74.9558 62.0835 74.1658 62.3059 73.3545C64.0693 73.5509 65.3797 72.891 66.6831 71.8023C69.5226 69.4298 73.5135 65.5769 72.7186 61.4684Z" fill="white"/>
</mask>
<g mask="url(#mask3_123_1116)">
<path d="M63.9611 73.3872C63.4809 73.4393 62.9943 73.4329 62.5157 73.3686C62.0403 73.3046 61.734 73.105 61.3569 72.8122C61.2136 72.7007 61.1904 72.8158 61.0297 72.7315C60.869 72.647 60.6543 72.6065 60.5183 72.7264C60.4428 72.7932 60.409 72.8964 60.402 72.997C60.3852 73.2371 60.5042 73.4708 60.67 73.645C60.8362 73.8192 61.0464 73.9436 61.2537 74.0658C61.5324 74.23 61.7696 74.3297 62.0811 74.4203" fill="#222221"/>
</g>
<mask id="mask4_123_1116" style="mask-type:luminance" maskUnits="userSpaceOnUse" x="50" y="57" width="23" height="23">
<path d="M72.7186 61.4684C72.6193 60.9557 72.4576 60.5006 72.2435 60.0985C70.3953 56.6283 64.6494 57.1175 61.646 58.7828C58.8075 60.3566 57.7243 62.7014 56.823 65.591C55.7102 69.1586 53.7826 72.2186 51.9501 75.439C51.6708 75.9301 51.3908 76.4216 51.1549 76.9349C50.8457 77.6067 50.6123 78.3132 50.4609 79.037C50.6782 77.9988 52.4319 76.4338 53.2172 75.7723C54.3759 74.7958 55.7359 74.7476 57.2215 74.8051C57.92 74.8363 58.7438 74.8138 59.4172 75.015C60.0231 75.1953 60.9074 75.338 61.4127 75.7106C61.7842 74.9558 62.0835 74.1658 62.3059 73.3545C64.0693 73.5509 65.3797 72.891 66.6831 71.8023C69.5226 69.4298 73.5135 65.5769 72.7186 61.4684Z" fill="white"/>
</mask>
<g mask="url(#mask4_123_1116)">
<path d="M55.0315 67.1374C54.9977 67.2492 54.991 67.3971 55.0048 67.5125C55.0199 67.6391 55.1456 67.7294 55.1996 67.8394C55.277 67.9972 55.3359 68.1662 55.4046 68.3282C55.4378 68.4064 55.4737 68.4877 55.5396 68.5414C55.6165 68.604 55.7216 68.6185 55.8206 68.6198C56.3513 68.6262 56.845 68.3202 57.3753 68.3067C57.5601 68.3022 57.7607 68.3299 57.9166 68.2302C57.9944 68.1807 58.0513 68.1039 58.0937 68.0219C58.1734 67.8673 58.2049 67.6864 58.1731 67.5154C58.1561 67.4234 58.1191 67.3318 58.0503 67.2685C57.9555 67.1807 57.8186 67.1602 57.6906 67.1444C57.3435 67.102 56.9957 67.0676 56.6476 67.0345C56.5116 67.0216 56.3368 67.0377 56.2101 66.994C56.0758 66.9471 55.9597 66.8378 55.8334 66.7729C55.6322 66.67 55.5605 66.6025 55.3516 66.7314C55.2018 66.824 55.0826 66.968 55.0315 67.1374Z" fill="#222221"/>
</g>
<path d="M65.0699 56.8101C65.0262 56.9914 65.0528 57.1861 65.1602 57.3404C65.219 57.425 65.2907 57.5047 65.3849 57.5461C65.5832 57.6339 65.8085 57.5307 66.0065 57.4426C66.5224 57.2131 67.0801 57.0775 67.6439 57.0441C67.7432 57.0383 67.8554 57.0296 67.9187 56.9525C67.9978 56.8564 67.9492 56.7018 67.8522 56.6236C67.7551 56.5455 67.6265 56.5227 67.5047 56.497C67.1592 56.4244 66.8249 56.2685 66.4848 56.1746C66.3087 56.1261 66.3128 56.0737 66.1068 56.093C65.9104 56.1113 65.6831 56.2302 65.507 56.3135C65.4112 56.3588 65.3154 56.4096 65.2431 56.487C65.1573 56.579 65.0985 56.6915 65.0699 56.8101Z" fill="#222221"/>
<path d="M64.8331 120.308C64.816 120.073 64.8144 119.826 64.9138 119.612C64.9919 119.443 65.1262 119.307 65.2159 119.144C65.3837 118.839 65.3879 118.477 65.4798 118.148C65.5598 117.861 65.716 117.556 65.8298 117.276C66.0712 116.68 66.6508 116.247 66.7973 115.621C67.0284 116.141 66.9786 116.712 66.9291 117.263C66.8729 117.888 66.7867 118.511 66.6713 119.129C66.5855 119.588 66.483 120.046 66.4608 120.513C66.4566 120.601 66.455 120.69 66.4229 120.772C66.3975 120.838 66.3541 120.894 66.3091 120.948C66.2262 121.048 66.1342 121.142 66.0211 121.206C65.3306 121.59 64.8787 120.932 64.8331 120.308Z" fill="#222221"/>
<path d="M79.4955 93.1479C80.0515 92.4635 81.1743 92.7098 81.9409 92.2739C82.2131 92.119 82.4314 91.8814 82.704 91.7268C82.9762 91.5719 83.3516 91.5195 83.5818 91.732C83.9193 92.0434 83.6869 92.6095 83.3873 92.9579C82.7978 93.6441 81.6616 94.5094 80.6986 94.4982C80.1428 94.4914 78.9137 93.8634 79.4955 93.1479Z" fill="#222221"/>
<path d="M127.713 85.1996C126.214 82.6542 122.81 82.4951 120.394 83.6892C118.829 84.4619 117.559 85.7216 116.426 87.0231C116.02 87.4891 116.699 88.1738 117.107 87.7048C118.755 85.8135 120.841 83.8641 123.519 83.9132C124.651 83.9341 125.789 84.3346 126.542 85.2076C127.33 86.1218 127.554 87.4428 127.361 88.6083C127.122 90.0528 126.287 91.3119 125.147 92.209C124.66 92.5925 125.346 93.2703 125.829 92.8907C128.052 91.1418 129.232 87.7797 127.713 85.1996Z" fill="#F06B9A"/>
<path d="M84.1607 67.8304C81.9313 66.9629 79.3911 68.5118 77.9292 70.1273C77.0777 71.0682 76.4426 72.1745 76.053 73.3815C75.8621 73.9735 76.7926 74.2268 76.9829 73.638C77.7138 71.3738 79.6087 69.2502 81.9766 68.6664C83.2363 68.3559 84.4391 68.7812 85.2269 69.8107C86.0752 70.9197 86.1986 72.3687 86.069 73.7129C86.0096 74.33 86.9742 74.3262 87.0333 73.7129C87.2564 71.4031 86.5203 68.7484 84.1607 67.8304Z" fill="#F06B9A"/>
<path d="M80.96 130.976C82.5671 130.654 85.2189 130.298 87.3885 130.654" stroke="#222221" stroke-width="0.321429" stroke-miterlimit="10" stroke-linecap="round" stroke-linejoin="round"/>
<path d="M46.9021 132.76C46.6054 136.58 46.3087 140.4 46.012 144.22C46.0037 144.327 45.8864 144.257 45.951 144.342" stroke="#222221" stroke-width="0.321429" stroke-miterlimit="10" stroke-linecap="round" stroke-linejoin="round"/>
<path d="M30.7356 143.666C30.7047 143.554 30.6182 143.433 30.5141 143.378C30.2862 143.257 29.9863 143.316 29.8545 143.551C29.6517 143.912 29.4492 144.273 29.2464 144.634C29.1844 144.744 29.1641 144.883 29.1979 145.005C29.2287 145.117 29.3152 145.238 29.4193 145.293C29.6472 145.414 29.9471 145.355 30.0789 145.12C30.2817 144.76 30.4842 144.398 30.687 144.037C30.7487 143.927 30.7693 143.788 30.7356 143.666Z" fill="#F06B9A"/>
<path d="M32.9622 143.601C32.9313 143.489 32.8448 143.368 32.7407 143.313C32.5009 143.187 32.2274 143.26 32.0811 143.486C31.8603 143.828 31.6392 144.17 31.4183 144.512C31.3521 144.614 31.338 144.768 31.3698 144.884C31.4007 144.996 31.4871 145.117 31.5913 145.172C31.831 145.298 32.1046 145.225 32.2508 144.999C32.472 144.657 32.6928 144.315 32.9139 143.973C32.9795 143.871 32.994 143.717 32.9622 143.601Z" fill="#F06B9A"/>
<path d="M35.3876 143.489C35.3567 143.377 35.2703 143.256 35.1661 143.2C35.0543 143.141 34.9186 143.112 34.7946 143.152C34.7563 143.168 34.7177 143.184 34.6795 143.2C34.6072 143.243 34.5493 143.301 34.5066 143.373C34.3057 143.655 34.1045 143.937 33.9036 144.218C33.8348 144.315 33.8248 144.48 33.855 144.59C33.8859 144.702 33.9723 144.823 34.0765 144.878C34.1883 144.937 34.324 144.967 34.4481 144.926L34.5631 144.878C34.6355 144.835 34.6933 144.777 34.7361 144.705C34.937 144.423 35.1378 144.141 35.3391 143.86C35.4078 143.764 35.4178 143.599 35.3876 143.489Z" fill="#F06B9A"/>
<path d="M142.736 115.284C141.783 114.95 140.666 114.955 139.712 115.303C137.618 116.07 135.256 118.401 134.772 120.636C134.465 122.052 134.059 123.444 133.704 124.85C133.337 126.302 133.033 127.768 132.771 129.239C132.246 132.179 131.887 135.141 131.525 138.101C131.497 138.329 131.107 138.331 131.135 138.101C131.339 136.436 131.542 134.77 131.773 133.109C132.182 130.177 132.677 127.251 133.426 124.375C133.618 123.636 133.817 122.9 134.006 122.161C134.357 119.939 134.43 117.682 134.357 115.439C134.306 113.891 134.41 111.837 132.81 110.999C131.307 110.213 129.205 110.595 128.06 111.817C127.335 112.591 126.956 113.621 126.657 114.638C124.366 122.419 125.758 130.728 126.289 138.822C125.082 137.36 123.875 135.899 122.668 134.438C122.206 133.879 121.74 133.315 121.167 132.871C119.762 131.783 117.782 131.539 116.109 132.138C114.436 132.737 113.091 134.124 112.421 135.77C112.015 136.769 111.853 137.939 112.322 138.91C112.742 139.777 113.608 140.359 114.524 140.656C115.439 140.953 116.414 141.003 117.374 141.06C119.432 141.184 121.526 141.365 123.429 142.156C123.614 142.233 123.796 142.316 123.976 142.406C124.831 142.832 125.623 143.4 126.269 144.106C126.587 144.453 126.869 144.834 127.1 145.245C127.215 145.45 127.317 145.661 127.405 145.879C127.435 145.955 127.592 146.563 127.645 146.561C128.72 146.535 129.797 146.539 130.872 146.574C130.922 146.236 131.054 145.904 131.168 145.58C131.408 144.901 131.669 144.23 131.942 143.565C132.122 143.125 132.279 142.581 132.57 142.197C133.499 140.969 134.586 140.059 136.024 139.469C137.698 138.782 139.518 138.557 141.313 138.338C143.709 138.045 146.104 137.753 148.5 137.46C149.591 137.326 150.709 137.186 151.69 136.688C152.671 136.19 153.505 135.255 153.568 134.157C153.678 132.226 151.527 130.966 149.622 130.634C143.239 129.521 138.134 134.004 133.615 137.823C134.492 137.081 135.138 135.264 135.694 134.258C136.343 133.081 136.975 131.906 137.441 130.662C138.306 128.352 139.356 125.981 140.992 124.106C141.923 123.04 143.05 122.146 143.879 120.998C144.707 119.851 145.209 118.323 144.673 117.013C144.325 116.164 143.598 115.585 142.736 115.284Z" fill="#89CCCB"/>
<path d="M142.65 134.729C140.189 135.414 137.711 136.231 135.568 137.657C134.62 138.288 133.739 139.032 132.996 139.897C132.546 140.421 132.169 140.986 131.84 141.581C132.252 140.332 132.606 139.064 132.929 137.792C133.686 134.815 134.305 131.799 135.268 128.878C135.805 127.246 136.455 125.652 137.283 124.145C137.383 123.963 137.105 123.801 137.006 123.982C135.534 126.659 134.635 129.594 133.884 132.541C133.127 135.518 132.508 138.535 131.549 141.457C131.014 143.09 130.367 144.686 129.542 146.195C129.538 146.202 129.539 146.209 129.536 146.216L129.175 135.94C129.053 132.449 128.93 128.959 128.808 125.469C128.739 123.504 128.67 121.538 128.601 119.572C128.594 119.366 128.272 119.365 128.279 119.572L128.648 130.083C128.771 133.573 128.893 137.063 129.016 140.553C129.085 142.518 129.154 144.483 129.223 146.448C127.972 144.401 126.434 142.517 124.639 140.923C122.925 139.403 120.974 138.14 118.84 137.299C117.637 136.825 116.383 136.498 115.101 136.331C114.896 136.304 114.898 136.626 115.101 136.652C117.333 136.944 119.471 137.763 121.394 138.922C123.358 140.106 125.098 141.636 126.593 143.371C127.521 144.449 128.352 145.608 129.082 146.83C129.188 147.007 129.466 146.846 129.359 146.667C129.342 146.639 129.323 146.611 129.306 146.582C129.352 146.607 129.409 146.608 129.456 146.59C129.49 146.699 129.622 146.773 129.71 146.662C130.427 145.756 130.846 144.684 131.263 143.619C131.693 142.522 132.169 141.468 132.893 140.53C134.343 138.651 136.404 137.346 138.568 136.434C139.92 135.863 141.325 135.432 142.736 135.039C142.934 134.983 142.85 134.673 142.65 134.729Z" fill="#9FE3E2"/>
<path d="M125.697 146.642H134.044" stroke="#222221" stroke-width="0.321429" stroke-miterlimit="10" stroke-linecap="round" stroke-linejoin="round"/>
<path d="M63.5932 145.635C63.2538 144.616 62.321 144.12 61.3709 143.955C60.2812 143.766 59.125 143.99 58.1849 144.572C56.9834 145.316 56.148 146.802 55.5196 148.036C55.3389 144.06 56.7471 140.213 57.7214 136.354C57.9001 135.647 58.0646 134.923 58.154 134.197C58.254 133.383 58.2594 132.567 58.0839 131.769C57.6246 129.678 55.6147 127.732 53.1635 128.982C52.6052 129.267 52.125 129.694 51.7617 130.205C50.4513 132.047 50.6673 135.016 50.9096 137.163C51.1549 139.337 51.7489 141.455 52.1153 143.609C52.5769 145.238 52.89 146.917 53.2217 148.577C53.2734 148.836 52.8771 148.946 52.8254 148.687C52.5904 147.51 52.366 146.322 52.0909 145.15C51.7849 144.45 51.4789 143.75 51.1729 143.05C50.5564 141.64 49.8091 140.098 48.3781 139.531C46.2946 138.705 43.1613 140.24 43.1867 142.729C43.1947 143.527 43.6926 144.249 44.3011 144.766C44.9095 145.283 45.6327 145.643 46.2984 146.084C47.6018 146.949 48.6712 148.115 49.7268 149.269C50.5207 150.138 51.2526 151.02 51.7589 152.022H57.2694C58.389 150.59 59.8267 149.561 61.465 148.458C62.3345 147.873 63.3807 147.629 63.6372 146.385C63.6877 146.137 63.6729 145.875 63.5932 145.635Z" fill="#89CCCB"/>
<path d="M60.5266 146.957C58.3065 148.001 56.4573 149.77 55.3088 151.937C55.033 151.962 54.763 151.95 54.4924 151.901C54.5715 147.077 54.4001 142.249 53.9739 137.443C53.8531 136.081 53.7113 134.721 53.5506 133.363C53.5236 133.135 53.1626 133.133 53.19 133.363C53.764 138.204 54.0832 143.075 54.142 147.949C54.1584 149.316 54.1542 150.683 54.1305 152.051C54.1292 152.127 54.187 152.207 54.2629 152.224C54.6168 152.306 54.972 152.332 55.3336 152.297C55.3766 152.293 55.4088 152.274 55.4358 152.251C55.4959 152.258 55.5576 152.235 55.5952 152.164C56.7163 150.025 58.5237 148.297 60.7088 147.269C60.9184 147.17 60.7355 146.859 60.5266 146.957Z" fill="#9FE3E2"/>
<path d="M53.063 151.921C51.7975 149.287 50.2665 146.785 48.4964 144.459C48.3576 144.277 48.0442 144.456 48.185 144.642C49.9551 146.967 51.486 149.469 52.7515 152.104C52.8518 152.312 53.1629 152.13 53.063 151.921Z" fill="#9FE3E2"/>
<path d="M50.8643 152.188H57.6361" stroke="#222221" stroke-width="0.321429" stroke-miterlimit="10" stroke-linecap="round" stroke-linejoin="round"/>
</g>
<defs>
<clipPath id="clip0_123_1116">
<rect width="160.714" height="160.714" fill="white" transform="translate(9.64258 10.303)"/>
</clipPath>
</defs>
</svg>
