<svg width="145" height="42" viewBox="0 0 145 42" fill="none" xmlns="http://www.w3.org/2000/svg">
<path fill-rule="evenodd" clip-rule="evenodd" d="M17.3355 3.30243C16.9006 3.21299 16.452 3.21299 16.0171 3.30243C15.5144 3.40583 15.0651 3.6575 14.7079 3.85758L14.6105 3.91197L2.50373 10.638C2.47025 10.6566 2.43576 10.6755 2.40042 10.695C2.02228 10.9033 1.54682 11.1652 1.18169 11.5614C0.866016 11.9039 0.62712 12.31 0.48098 12.7523C0.311948 13.2639 0.313926 13.8067 0.315498 14.2384C0.315645 14.2787 0.315789 14.3181 0.315789 14.3564V27.6364C0.315789 27.6747 0.315645 27.7141 0.315498 27.7544C0.313926 28.1861 0.311948 28.7289 0.48098 29.2405C0.627121 29.6828 0.866019 30.0888 1.1817 30.4314C1.54682 30.8276 2.02228 31.0895 2.40043 31.2978C2.43577 31.3172 2.47026 31.3362 2.50373 31.3548L14.6105 38.0808L14.7079 38.1352C15.0651 38.3353 15.5144 38.5869 16.0171 38.6903C16.452 38.7798 16.9006 38.7798 17.3355 38.6903C17.8382 38.5869 18.2875 38.3353 18.6447 38.1352L18.7421 38.0808L30.8489 31.3548C30.8637 31.3466 30.8787 31.3383 30.8938 31.3299C30.913 31.3193 30.9324 31.3086 30.9522 31.2978C31.3303 31.0895 31.8058 30.8276 32.1709 30.4314C32.4866 30.0888 32.7255 29.6828 32.8716 29.2405C33.0406 28.7289 33.0387 28.1861 33.0371 27.7544C33.037 27.714 33.0368 27.6747 33.0368 27.6364V14.3564C33.0368 14.3181 33.037 14.2787 33.0371 14.2384C33.0387 13.8067 33.0406 13.2639 32.8716 12.7523C32.7255 12.31 32.4866 11.9039 32.1709 11.5614C31.8058 11.1652 31.3303 10.9033 30.9522 10.695L30.9508 10.6943C30.916 10.6751 30.8819 10.6563 30.8489 10.638L18.7421 3.91197L18.6447 3.85757C18.2875 3.65749 17.8382 3.40583 17.3355 3.30243ZM16.1996 6.7723C16.4475 6.63456 16.5741 6.56496 16.6685 6.51943L16.6763 6.51568L16.6841 6.51943C16.7785 6.56496 16.9051 6.63456 17.153 6.7723L28.0319 12.8161L16.6762 19.1248L5.32069 12.8161L16.1996 6.7723ZM3.58789 15.5966L15.0402 21.959L15.0402 34.5764L4.0928 28.4945C3.83111 28.3491 3.6975 28.2741 3.60376 28.2144L3.59585 28.2093L3.59525 28.1999C3.58857 28.089 3.58789 27.9357 3.58789 27.6364V15.5966Z" fill="white"/>
<path d="M47.9264 26.4636H53.1344V29.5326H43.9507V13.2111H47.9264V26.4636Z" fill="white"/>
<path d="M56.7978 15.2106C56.1003 15.2106 55.5268 15.0091 55.0773 14.6061C54.6433 14.1876 54.4263 13.6761 54.4263 13.0716C54.4263 12.4516 54.6433 11.9401 55.0773 11.5371C55.5268 11.1186 56.1003 10.9094 56.7978 10.9094C57.4798 10.9094 58.0378 11.1186 58.4718 11.5371C58.9213 11.9401 59.146 12.4516 59.146 13.0716C59.146 13.6761 58.9213 14.1876 58.4718 14.6061C58.0378 15.0091 57.4798 15.2106 56.7978 15.2106ZM58.774 16.5591V29.5326H54.7983V16.5591H58.774Z" fill="white"/>
<path d="M66.3517 16.3731C67.2662 16.3731 68.0644 16.5591 68.7464 16.9311C69.4439 17.3031 69.9787 17.7914 70.3507 18.3959V16.5591H74.3264V29.5094C74.3264 30.7029 74.0862 31.7801 73.6057 32.7411C73.1407 33.7176 72.4199 34.4926 71.4434 35.0661C70.4824 35.6396 69.2812 35.9264 67.8397 35.9264C65.9177 35.9264 64.3599 35.4691 63.1664 34.5546C61.9729 33.6556 61.2909 32.4311 61.1204 30.8811H65.0497C65.1737 31.3771 65.4682 31.7646 65.9332 32.0436C66.3982 32.3381 66.9717 32.4854 67.6537 32.4854C68.4752 32.4854 69.1262 32.2451 69.6067 31.7646C70.1027 31.2996 70.3507 30.5479 70.3507 29.5094V27.6726C69.9632 28.2771 69.4284 28.7731 68.7464 29.1606C68.0644 29.5326 67.2662 29.7186 66.3517 29.7186C65.2822 29.7186 64.3134 29.4474 63.4454 28.9049C62.5774 28.3469 61.8877 27.5641 61.3762 26.5566C60.8802 25.5336 60.6322 24.3556 60.6322 23.0226C60.6322 21.6896 60.8802 20.5194 61.3762 19.5119C61.8877 18.5044 62.5774 17.7294 63.4454 17.1869C64.3134 16.6444 65.2822 16.3731 66.3517 16.3731ZM70.3507 23.0459C70.3507 22.0539 70.0717 21.2711 69.5137 20.6976C68.9712 20.1241 68.3047 19.8374 67.5142 19.8374C66.7237 19.8374 66.0494 20.1241 65.4914 20.6976C64.9489 21.2556 64.6777 22.0306 64.6777 23.0226C64.6777 24.0146 64.9489 24.8051 65.4914 25.3941C66.0494 25.9676 66.7237 26.2544 67.5142 26.2544C68.3047 26.2544 68.9712 25.9676 69.5137 25.3941C70.0717 24.8206 70.3507 24.0379 70.3507 23.0459Z" fill="white"/>
<path d="M84.945 16.4196C86.433 16.4196 87.6265 16.9156 88.5255 17.9076C89.4245 18.8841 89.874 20.2326 89.874 21.9531V29.5326H85.9215V22.4879C85.9215 21.6199 85.6967 20.9456 85.2472 20.4651C84.7977 19.9846 84.1932 19.7444 83.4337 19.7444C82.6742 19.7444 82.0697 19.9846 81.6202 20.4651C81.1707 20.9456 80.946 21.6199 80.946 22.4879V29.5326H76.9702V12.3276H80.946V18.3029C81.349 17.7294 81.8992 17.2721 82.5967 16.9311C83.2942 16.5901 84.077 16.4196 84.945 16.4196Z" fill="white"/>
<path d="M99.635 26.1614V29.5326H97.6122C96.1707 29.5326 95.047 29.1839 94.241 28.4864C93.435 27.7734 93.032 26.6186 93.032 25.0221V19.8606H91.451V16.5591H93.032V13.3971H97.0077V16.5591H99.6117V19.8606H97.0077V25.0686C97.0077 25.4561 97.1007 25.7351 97.2867 25.9056C97.4727 26.0761 97.7827 26.1614 98.2167 26.1614H99.635Z" fill="white"/>
<path d="M105.593 18.3959C105.965 17.7914 106.5 17.3031 107.197 16.9311C107.895 16.5591 108.693 16.3731 109.592 16.3731C110.661 16.3731 111.63 16.6444 112.498 17.1869C113.366 17.7294 114.048 18.5044 114.544 19.5119C115.056 20.5194 115.311 21.6896 115.311 23.0226C115.311 24.3556 115.056 25.5336 114.544 26.5566C114.048 27.5641 113.366 28.3469 112.498 28.9049C111.63 29.4474 110.661 29.7186 109.592 29.7186C108.677 29.7186 107.879 29.5404 107.197 29.1839C106.515 28.8119 105.98 28.3236 105.593 27.7191V29.5326H101.617V12.3276H105.593V18.3959ZM111.266 23.0226C111.266 22.0306 110.987 21.2556 110.429 20.6976C109.886 20.1241 109.212 19.8374 108.406 19.8374C107.616 19.8374 106.941 20.1241 106.383 20.6976C105.841 21.2711 105.57 22.0539 105.57 23.0459C105.57 24.0379 105.841 24.8206 106.383 25.3941C106.941 25.9676 107.616 26.2544 108.406 26.2544C109.197 26.2544 109.871 25.9676 110.429 25.3941C110.987 24.8051 111.266 24.0146 111.266 23.0226Z" fill="white"/>
<path d="M123.07 29.7186C121.799 29.7186 120.652 29.4474 119.629 28.9049C118.622 28.3624 117.823 27.5874 117.234 26.5799C116.661 25.5724 116.374 24.3944 116.374 23.0459C116.374 21.7129 116.669 20.5426 117.258 19.5351C117.847 18.5121 118.653 17.7294 119.676 17.1869C120.699 16.6444 121.846 16.3731 123.117 16.3731C124.388 16.3731 125.535 16.6444 126.558 17.1869C127.581 17.7294 128.387 18.5121 128.976 19.5351C129.565 20.5426 129.859 21.7129 129.859 23.0459C129.859 24.3789 129.557 25.5569 128.952 26.5799C128.363 27.5874 127.55 28.3624 126.511 28.9049C125.488 29.4474 124.341 29.7186 123.07 29.7186ZM123.07 26.2776C123.83 26.2776 124.473 25.9986 125 25.4406C125.542 24.8826 125.814 24.0844 125.814 23.0459C125.814 22.0074 125.55 21.2091 125.023 20.6511C124.512 20.0931 123.876 19.8141 123.117 19.8141C122.342 19.8141 121.698 20.0931 121.187 20.6511C120.675 21.1936 120.42 21.9919 120.42 23.0459C120.42 24.0844 120.668 24.8826 121.164 25.4406C121.675 25.9986 122.311 26.2776 123.07 26.2776Z" fill="white"/>
<path d="M139.408 29.5326L136.921 25.9289L134.828 29.5326H130.527L134.805 22.9064L130.411 16.5591H134.875L137.362 20.1396L139.455 16.5591H143.756L139.408 23.0924L143.872 29.5326H139.408Z" fill="white"/>
</svg>
