<svg width="158" height="42" viewBox="0 0 158 42" fill="none" xmlns="http://www.w3.org/2000/svg">
<g clip-path="url(#clip0_1_6856)">
<path d="M24.3897 3.88277L20.7551 2.90887L17.6922 14.3398L14.9269 4.01989L11.2923 4.99378L14.28 16.1437L6.83837 8.70216L4.17766 11.3629L12.3402 19.5254L2.17506 16.8017L1.20117 20.4362L12.3078 23.4123C12.1806 22.8638 12.1134 22.2923 12.1134 21.7052C12.1134 17.5488 15.4827 14.1795 19.639 14.1795C23.7954 14.1795 27.1647 17.5488 27.1647 21.7052C27.1647 22.2886 27.0982 22.8565 26.9727 23.4017L37.0665 26.1064L38.0404 22.4718L26.8896 19.4839L37.0554 16.76L36.0814 13.1254L24.9311 16.1131L32.3727 8.67161L29.7119 6.01089L21.6627 14.0602L24.3897 3.88277Z" fill="white"/>
<path d="M26.962 23.4441C26.6504 24.7615 25.9925 25.945 25.0899 26.8933L32.4024 34.2059L35.0631 31.5452L26.962 23.4441Z" fill="white"/>
<path d="M25.016 26.9697C24.1025 27.9028 22.948 28.5991 21.6533 28.9579L24.3142 38.8885L27.9487 37.9146L25.016 26.9697Z" fill="white"/>
<path d="M21.5175 28.9943C20.9168 29.1487 20.2872 29.2308 19.6384 29.2308C18.9433 29.2308 18.2701 29.1365 17.6311 28.9601L14.9678 38.8997L18.6024 39.8736L21.5175 28.9943Z" fill="white"/>
<path d="M17.5026 28.9234C16.2277 28.5468 15.0937 27.8416 14.1988 26.9058L6.86823 34.2364L9.52895 36.8971L17.5026 28.9234Z" fill="white"/>
<path d="M14.1384 26.841C13.2588 25.8993 12.6181 24.7316 12.3132 23.4345L2.18632 26.148L3.1602 29.7826L14.1384 26.841Z" fill="white"/>
</g>
<path d="M59.9107 11.4497V24.5472L51.5148 11.4497H48.1565V29.533H51.5148V16.5389L59.9107 29.533H63.269V11.4497H59.9107Z" fill="white"/>
<path d="M64.7823 14.8339H68.2439V11.4497H64.7823V14.8339ZM64.8339 29.533V16.6164H68.1923V29.533H64.8339Z" fill="white"/>
<path d="M82.6418 23.0747C82.6418 18.6055 79.4643 16.4872 76.1059 16.4614C72.7218 16.4355 69.5959 18.6055 69.5959 23.0747C69.5959 27.5439 72.7218 29.7139 76.1059 29.688C79.1801 29.6622 81.2984 28.2414 82.2801 25.8905L79.6709 24.8055C78.8701 26.4072 77.6043 26.9755 76.1059 27.0014C74.8143 27.0272 73.3418 26.4072 73.0318 24.108H82.5643C82.6159 23.7722 82.6418 23.4364 82.6418 23.0747ZM76.1059 19.1222C77.3976 19.148 78.7151 19.8455 79.1284 21.7055H73.0834C73.5226 19.8197 74.8401 19.0964 76.1059 19.1222Z" fill="white"/>
<path d="M90.4031 19.0189V16.4614H88.2847V12.9997L84.9264 14.033V16.4614H82.8081V19.0189H84.9264V25.7097C84.9264 28.2414 85.1331 29.533 89.0597 29.533H89.9639V26.588H89.0597C88.4398 26.588 88.2847 26.4847 88.2847 25.7097V19.0189H90.4031Z" fill="white"/>
<path d="M95.3934 26.7172L102.523 19.4322V16.6164H91.8284V19.4322H98.7517L91.6217 26.7172V29.533H102.601V26.7172H95.3934Z" fill="white"/>
<path d="M103.805 25.8905L107.189 25.3739C107.422 26.6655 108.946 27.1564 109.876 27.1564C110.832 27.1564 112.485 26.9497 112.485 25.3997C112.485 22.3772 104.192 26.1489 104.192 20.3622C104.192 16.6422 108.507 16.4355 109.876 16.4355C111.167 16.4355 114.913 16.6422 115.688 19.6389L112.485 20.3105C112.201 18.9414 110.754 18.683 109.979 18.683C109.204 18.683 107.551 18.8639 107.551 20.3622C107.551 23.3589 115.843 19.5355 115.843 25.3997C115.843 29.3522 111.297 29.688 109.876 29.688C108.584 29.688 104.477 29.3522 103.805 25.8905Z" fill="white"/>
<path d="M120.206 23.0747C120.206 26.2264 121.885 27.1822 123.642 27.1564C125.218 27.1305 126.303 26.4847 126.949 24.6764L129.713 26.0197C128.705 28.6547 126.251 29.6622 123.642 29.688C120.258 29.7139 116.848 27.5439 116.848 23.0747C116.848 18.6055 120.258 16.4355 123.642 16.4614C126.251 16.4872 128.705 17.4947 129.713 20.1297L126.949 21.473C126.303 19.6647 125.218 19.0189 123.642 18.993C121.885 18.9672 120.206 19.923 120.206 23.0747Z" fill="white"/>
<path d="M138.728 16.4097C136.998 16.4097 135.422 17.3139 134.414 19.2514V11.4497H131.056V29.533H134.414V24.9605C134.414 19.0447 136.868 18.5539 137.773 18.5539C139.219 18.5539 139.426 20.0522 139.426 22.248V29.533H142.784V22.248C142.784 19.5097 142.345 16.4097 138.728 16.4097Z" fill="white"/>
<path d="M156.963 23.0747C156.963 18.6055 153.786 16.4872 150.427 16.4614C147.043 16.4355 143.917 18.6055 143.917 23.0747C143.917 27.5439 147.043 29.7139 150.427 29.688C153.501 29.6622 155.62 28.2414 156.601 25.8905L153.992 24.8055C153.191 26.4072 151.926 26.9755 150.427 27.0014C149.136 27.0272 147.663 26.4072 147.353 24.108H156.886C156.937 23.7722 156.963 23.4364 156.963 23.0747ZM150.427 19.1222C151.719 19.148 153.036 19.8455 153.45 21.7055H147.405C147.844 19.8197 149.161 19.0964 150.427 19.1222Z" fill="white"/>
<defs>
<clipPath id="clip0_1_6856">
<rect width="37.8889" height="37.8889" fill="white" transform="translate(0.907227 2.05518)"/>
</clipPath>
</defs>
</svg>
