<svg width="171" height="42" viewBox="0 0 171 42" fill="none" xmlns="http://www.w3.org/2000/svg">
<path d="M31.3092 9.9462C30.937 9.57401 30.5648 9.20182 30.1926 8.82963C29.0761 7.63863 27.885 6.44762 26.3963 5.70324C24.6842 4.80999 22.8233 5.03329 20.9623 5.03329C18.1337 5.03329 11.0621 5.03329 6.89355 5.03329L9.7222 8.82963C14.8584 8.82963 22.8977 8.82963 26.6196 8.82963C28.1828 8.82963 29.5227 9.12738 30.7881 9.9462C31.0114 10.0206 31.2348 10.0206 31.3092 9.9462Z" fill="white"/>
<path d="M34.4367 16.0497C34.0645 15.6775 33.6923 15.3053 33.3201 14.9331C32.2035 13.7421 31.0125 12.5511 29.5238 11.8067C27.8117 10.9135 25.9507 11.1368 24.0898 11.1368C21.6333 11.1368 15.7528 11.1368 11.5842 11.1368L14.4129 14.9331C19.4746 14.9331 26.3974 14.9331 29.8215 14.9331C31.3847 14.9331 32.7246 15.2309 33.99 16.0497C34.1389 16.1241 34.2878 16.1241 34.4367 16.0497Z" fill="white"/>
<path d="M37.9353 22.0048C37.5631 21.6326 37.1909 21.2604 36.8187 20.8882C35.7022 19.6972 34.5112 18.5062 33.0224 17.7618C31.3103 16.8686 29.4494 17.0919 27.5884 17.0919C25.2809 17.0919 20.2191 17.0919 16.125 17.0919L18.9536 20.8882C23.8665 20.8882 30.1193 20.8882 33.2457 20.8882C34.8089 20.8882 36.1488 21.186 37.4142 22.0048C37.6376 22.0792 37.7864 22.1537 37.9353 22.0048Z" fill="white"/>
<path d="M6.59717 32.0536C6.96936 32.4258 7.34155 32.7979 7.71374 33.1701C8.83031 34.3611 10.0213 35.5521 11.5101 36.2965C13.2221 37.1898 15.0831 36.9665 16.944 36.9665H31.0128L28.1842 33.1701C23.0479 33.1701 15.0087 33.1701 11.2868 33.1701C9.72356 33.1701 8.38368 32.8724 7.11823 32.0536C6.89492 31.9791 6.74604 31.9791 6.59717 32.0536Z" fill="white"/>
<path d="M3.47046 25.9501C3.84265 26.3222 4.21484 26.6944 4.58703 27.0666C5.7036 28.2576 6.8946 29.4486 8.38335 30.193C10.0954 31.0863 11.9564 30.863 13.8173 30.863H26.3229L23.4943 27.0666C18.4325 27.0666 11.5098 27.0666 8.08561 27.0666C6.52241 27.0666 5.18252 26.7689 3.91708 25.9501C3.7682 25.8756 3.61933 25.8756 3.47046 25.9501Z" fill="white"/>
<path d="M0.0463867 19.9201C0.418576 20.2923 0.790766 20.6645 1.16296 21.0367C2.27952 22.2277 3.47054 23.4187 4.95929 24.1631C6.67137 25.0563 8.5323 24.833 10.3933 24.833H21.8567L19.0281 21.0367C14.1152 21.0367 7.86237 21.0367 4.73598 21.0367C3.17278 21.0367 1.83289 20.7389 0.56745 19.9201C0.344136 19.8456 0.195263 19.8456 0.0463867 19.9201Z" fill="white"/>
<path d="M46.4875 12.3957V29.611H50.273V22.4982H57.4822V19.5567H50.273V15.5784H58.5913V12.3957H46.4875Z" fill="white"/>
<path d="M68.0856 22.0401H62.516C62.532 21.799 62.5803 21.5258 62.6606 21.2204C62.7571 20.915 62.9098 20.6256 63.1188 20.3524C63.3438 20.0791 63.6331 19.8541 63.9868 19.6772C64.3565 19.4844 64.8146 19.3879 65.3611 19.3879C66.1969 19.3879 66.8158 19.6129 67.2176 20.063C67.6356 20.5131 67.9249 21.1721 68.0856 22.0401ZM62.516 24.2101H71.5094C71.5737 23.2457 71.4933 22.3214 71.2683 21.4374C71.0433 20.5533 70.6736 19.7657 70.1592 19.0745C69.6609 18.3833 69.0179 17.8368 68.2303 17.4349C67.4427 17.017 66.5184 16.808 65.4575 16.808C64.5092 16.808 63.6412 16.9768 62.8535 17.3144C62.082 17.6519 61.4149 18.1181 60.8523 18.7128C60.2897 19.2915 59.8557 19.9827 59.5503 20.7864C59.2449 21.5901 59.0922 22.4581 59.0922 23.3904C59.0922 24.3548 59.2369 25.2389 59.5262 26.0426C59.8316 26.8463 60.2576 27.5375 60.8041 28.1161C61.3506 28.6948 62.0177 29.1449 62.8053 29.4664C63.5929 29.7718 64.477 29.9245 65.4575 29.9245C66.872 29.9245 68.0776 29.603 69.0742 28.96C70.0708 28.3171 70.8102 27.2481 71.2924 25.7532H68.2785C68.166 26.139 67.8606 26.5087 67.3623 26.8624C66.864 27.1999 66.2693 27.3687 65.5781 27.3687C64.6136 27.3687 63.8742 27.1195 63.3599 26.6212C62.8455 26.1229 62.5642 25.3192 62.516 24.2101Z" fill="white"/>
<path d="M72.672 20.9792C72.7203 20.1755 72.9212 19.5085 73.2748 18.978C73.6284 18.4476 74.0785 18.0216 74.625 17.7001C75.1715 17.3787 75.7824 17.1536 76.4575 17.025C77.1487 16.8804 77.8398 16.808 78.531 16.808C79.1579 16.808 79.7928 16.8562 80.4358 16.9527C81.0788 17.0331 81.6655 17.2018 82.1959 17.459C82.7264 17.7162 83.1604 18.0779 83.4979 18.544C83.8355 18.9941 84.0043 19.5969 84.0043 20.3524V26.8382C84.0043 27.4008 84.0364 27.9393 84.1007 28.4537C84.165 28.9681 84.2775 29.3538 84.4383 29.611H80.9663C80.902 29.4181 80.8457 29.2252 80.7975 29.0324C80.7653 28.8234 80.7412 28.6144 80.7251 28.4055C80.1786 28.9681 79.5357 29.3619 78.7963 29.5869C78.0568 29.8119 77.3014 29.9245 76.5298 29.9245C75.9351 29.9245 75.3805 29.8521 74.8661 29.7075C74.3518 29.5628 73.9017 29.3378 73.5159 29.0324C73.1301 28.7269 72.8247 28.3412 72.5997 27.875C72.3907 27.4089 72.2863 26.8543 72.2863 26.2114C72.2863 25.5041 72.4068 24.9254 72.6479 24.4754C72.9051 24.0092 73.2266 23.6395 73.6124 23.3662C74.0142 23.093 74.4643 22.8921 74.9626 22.7635C75.477 22.6188 75.9913 22.5063 76.5057 22.4259C77.0201 22.3455 77.5264 22.2812 78.0247 22.233C78.523 22.1848 78.965 22.1125 79.3508 22.016C79.7366 21.9196 80.042 21.7829 80.267 21.6061C80.4921 21.4132 80.5965 21.14 80.5805 20.7864C80.5805 20.4167 80.5162 20.1273 80.3876 19.9184C80.2751 19.6933 80.1143 19.5245 79.9054 19.412C79.7125 19.2834 79.4794 19.2031 79.2061 19.1709C78.949 19.1227 78.6677 19.0986 78.3623 19.0986C77.6871 19.0986 77.1567 19.2432 76.7709 19.5326C76.3851 19.8219 76.1601 20.3041 76.0958 20.9792H72.672ZM80.5805 23.5109C80.4358 23.6395 80.251 23.744 80.0259 23.8244C79.817 23.8887 79.5839 23.9449 79.3267 23.9931C79.0856 24.0414 78.8284 24.0815 78.5551 24.1137C78.2819 24.1458 78.0086 24.186 77.7354 24.2342C77.4782 24.2825 77.221 24.3468 76.9638 24.4271C76.7227 24.5075 76.5057 24.62 76.3128 24.7647C76.136 24.8933 75.9913 25.0621 75.8788 25.271C75.7663 25.48 75.71 25.7452 75.71 26.0667C75.71 26.3721 75.7663 26.6293 75.8788 26.8382C75.9913 27.0472 76.144 27.216 76.3369 27.3446C76.5298 27.4571 76.7548 27.5375 77.012 27.5857C77.2692 27.6339 77.5344 27.658 77.8077 27.658C78.4828 27.658 79.0052 27.5455 79.3749 27.3205C79.7446 27.0954 80.0179 26.8302 80.1947 26.5248C80.3715 26.2033 80.476 25.8818 80.5081 25.5604C80.5564 25.2389 80.5805 24.9817 80.5805 24.7888V23.5109Z" fill="white"/>
<path d="M90.2784 17.1456V13.4084H86.8546V17.1456H84.7811V19.4361H86.8546V26.79C86.8546 27.4169 86.9591 27.9232 87.1681 28.309C87.377 28.6948 87.6583 28.9922 88.012 29.2011C88.3817 29.4101 88.7996 29.5467 89.2657 29.611C89.748 29.6914 90.2543 29.7316 90.7847 29.7316C91.1223 29.7316 91.4679 29.7235 91.8215 29.7075C92.1752 29.6914 92.4966 29.6592 92.786 29.611V26.9588C92.6252 26.991 92.4565 27.0151 92.2796 27.0311C92.1028 27.0472 91.918 27.0552 91.7251 27.0552C91.1464 27.0552 90.7606 26.9588 90.5677 26.7659C90.3749 26.573 90.2784 26.1872 90.2784 25.6086V19.4361H92.786V17.1456H90.2784Z" fill="white"/>
<path d="M93.6916 12.3957V29.611H97.1154V23.0769C97.1154 21.8071 97.3244 20.8989 97.7423 20.3524C98.1602 19.7898 98.8354 19.5085 99.7676 19.5085C100.587 19.5085 101.158 19.7657 101.48 20.28C101.801 20.7783 101.962 21.5418 101.962 22.5706V29.611H105.386V21.9437C105.386 21.1721 105.313 20.4729 105.169 19.846C105.04 19.2031 104.807 18.6646 104.469 18.2306C104.132 17.7805 103.666 17.4349 103.071 17.1938C102.492 16.9366 101.745 16.808 100.829 16.808C100.186 16.808 99.5265 16.9768 98.8514 17.3144C98.1763 17.6358 97.6218 18.1582 97.1878 18.8816H97.1154V12.3957H93.6916Z" fill="white"/>
<path d="M115.651 22.0401H110.082C110.098 21.799 110.146 21.5258 110.226 21.2204C110.323 20.915 110.476 20.6256 110.685 20.3524C110.91 20.0791 111.199 19.8541 111.553 19.6772C111.922 19.4844 112.38 19.3879 112.927 19.3879C113.763 19.3879 114.382 19.6129 114.783 20.063C115.201 20.5131 115.491 21.1721 115.651 22.0401ZM110.082 24.2101H119.075C119.139 23.2457 119.059 22.3214 118.834 21.4374C118.609 20.5533 118.239 19.7657 117.725 19.0745C117.227 18.3833 116.584 17.8368 115.796 17.4349C115.008 17.017 114.084 16.808 113.023 16.808C112.075 16.808 111.207 16.9768 110.419 17.3144C109.648 17.6519 108.981 18.1181 108.418 18.7128C107.855 19.2915 107.421 19.9827 107.116 20.7864C106.811 21.5901 106.658 22.4581 106.658 23.3904C106.658 24.3548 106.803 25.2389 107.092 26.0426C107.397 26.8463 107.823 27.5375 108.37 28.1161C108.916 28.6948 109.583 29.1449 110.371 29.4664C111.159 29.7718 112.043 29.9245 113.023 29.9245C114.438 29.9245 115.643 29.603 116.64 28.96C117.637 28.3171 118.376 27.2481 118.858 25.7532H115.844C115.732 26.139 115.426 26.5087 114.928 26.8624C114.43 27.1999 113.835 27.3687 113.144 27.3687C112.179 27.3687 111.44 27.1195 110.926 26.6212C110.411 26.1229 110.13 25.3192 110.082 24.2101Z" fill="white"/>
<path d="M120.382 17.1456V29.611H123.806V23.9931C123.806 23.4305 123.862 22.9081 123.975 22.4259C124.088 21.9437 124.272 21.5258 124.53 21.1721C124.803 20.8024 125.156 20.5131 125.59 20.3041C126.024 20.0952 126.555 19.9907 127.182 19.9907C127.391 19.9907 127.608 20.0068 127.833 20.0389C128.058 20.055 128.251 20.0791 128.411 20.1112V16.9286C128.138 16.8482 127.889 16.808 127.664 16.808C127.23 16.808 126.812 16.8723 126.41 17.0009C126.008 17.1295 125.631 17.3144 125.277 17.5555C124.923 17.7805 124.61 18.0618 124.337 18.3994C124.063 18.7208 123.846 19.0745 123.686 19.4602H123.637V17.1456H120.382Z" fill="white"/>
<path d="M133.178 26.4284V15.5784H135.878C136.81 15.5784 137.59 15.715 138.217 15.9882C138.86 16.2454 139.374 16.6232 139.76 17.1215C140.146 17.6198 140.419 18.2225 140.58 18.9298C140.756 19.621 140.845 20.4006 140.845 21.2686C140.845 22.2169 140.724 23.0207 140.483 23.6797C140.242 24.3387 139.921 24.8772 139.519 25.2951C139.117 25.697 138.659 25.9863 138.144 26.1631C137.63 26.3399 137.1 26.4284 136.553 26.4284H133.178ZM129.392 12.3957V29.611H136.818C138.136 29.611 139.278 29.394 140.242 28.96C141.223 28.5099 142.034 27.8991 142.677 27.1276C143.336 26.356 143.827 25.4398 144.148 24.3789C144.47 23.318 144.63 22.1607 144.63 20.9069C144.63 19.4763 144.429 18.2306 144.028 17.1697C143.642 16.1088 143.095 15.2247 142.388 14.5175C141.697 13.8102 140.869 13.2798 139.905 12.9261C138.956 12.5725 137.927 12.3957 136.818 12.3957H129.392Z" fill="white"/>
<path d="M154.569 22.0401H149C149.016 21.799 149.064 21.5258 149.144 21.2204C149.241 20.915 149.393 20.6256 149.602 20.3524C149.827 20.0791 150.117 19.8541 150.47 19.6772C150.84 19.4844 151.298 19.3879 151.845 19.3879C152.68 19.3879 153.299 19.6129 153.701 20.063C154.119 20.5131 154.408 21.1721 154.569 22.0401ZM149 24.2101H157.993C158.057 23.2457 157.977 22.3214 157.752 21.4374C157.527 20.5533 157.157 19.7657 156.643 19.0745C156.144 18.3833 155.501 17.8368 154.714 17.4349C153.926 17.017 153.002 16.808 151.941 16.808C150.993 16.808 150.125 16.9768 149.337 17.3144C148.566 17.6519 147.898 18.1181 147.336 18.7128C146.773 19.2915 146.339 19.9827 146.034 20.7864C145.728 21.5901 145.576 22.4581 145.576 23.3904C145.576 24.3548 145.72 25.2389 146.01 26.0426C146.315 26.8463 146.741 27.5375 147.288 28.1161C147.834 28.6948 148.501 29.1449 149.289 29.4664C150.076 29.7718 150.961 29.9245 151.941 29.9245C153.356 29.9245 154.561 29.603 155.558 28.96C156.554 28.3171 157.294 27.2481 157.776 25.7532H154.762C154.65 26.139 154.344 26.5087 153.846 26.8624C153.348 27.1999 152.753 27.3687 152.062 27.3687C151.097 27.3687 150.358 27.1195 149.843 26.6212C149.329 26.1229 149.048 25.3192 149 24.2101Z" fill="white"/>
<path d="M166.196 29.611L170.415 17.1456H167.016L164.388 25.6568H164.339L161.711 17.1456H158.119L162.386 29.611H166.196Z" fill="white"/>
</svg>
