<svg width="180" height="181" viewBox="0 0 180 181" fill="none" xmlns="http://www.w3.org/2000/svg">
<rect y="0.660156" width="180" height="180" rx="6.42857" fill="white"/>
<rect x="0.200893" y="0.861049" width="179.598" height="179.598" rx="6.22768" stroke="black" stroke-opacity="0.3" stroke-width="0.401786"/>
<g clip-path="url(#clip0_123_1237)">
<path d="M170.357 10.303H9.64258V171.017H170.357V10.303Z" fill="#F9FBFC"/>
<path d="M163.059 140.711C162.568 141.289 161.3 141.718 159.583 142.032C157.866 142.351 155.695 142.555 153.403 142.682C146.469 143.072 138.436 142.759 138.436 142.759L131.947 142.599L123.844 142.401C123.844 142.401 16.2363 139.742 16.2356 139.742C15.3179 139.733 15.1376 128.857 15.1588 127.726C15.227 124.073 15.4292 120.424 15.7657 116.792C16.1157 113.013 15.8264 108.694 18.0292 105.577C19.0751 104.097 20.5016 103.176 21.302 101.451C22.1329 99.6584 22.3797 97.5228 22.4318 95.51C22.5282 91.7991 22.0988 88.0792 22.346 84.3783C22.5334 81.5764 23.1592 78.6733 24.587 76.3741C26.1173 73.9097 28.5984 73.8676 30.9953 73.333C32.8419 72.9213 34.8367 72.0206 35.6248 70.013C36.5059 67.7694 35.7833 65.2179 36.4779 62.9268C37.0986 60.8786 38.9802 59.9131 40.5874 59.1034C44.3172 57.2243 48.4238 56.7788 52.2912 55.433C53.3436 55.0669 54.4265 54.5966 55.1564 53.6324C57.0185 51.1731 56.6443 47.6885 58.9509 45.3446C61.2954 42.9622 64.581 42.3431 67.679 42.3367C70.8389 42.3303 73.9346 42.5074 77.0923 42.3113C80.4394 42.1034 83.9722 42.194 87.244 43.1024C91.5624 44.3013 95.4996 46.9987 99.9652 47.5117C104.876 48.0758 109.806 46.9495 114.694 46.5551C121.184 46.0315 128.089 46.4343 134.485 47.8553C137.18 48.4541 140.066 49.6788 141.46 52.6629C142.468 54.8191 142.6 57.4789 143.836 59.4647C146.15 63.1839 150.292 62.264 153.435 64.0952C156.906 66.1173 158.325 70.9622 159.419 75.3336C160.249 78.6475 161.7 82.9315 160.25 86.2628C159.481 88.0304 157.998 89.2004 156.978 90.7824C155.358 93.2941 155.504 96.1532 155.445 99.1354C155.368 103.015 155.529 105.662 158.676 107.587C161.862 109.537 163.387 111.475 163.835 115.762C164.411 121.279 164.836 126.87 164.836 132.432C164.836 135.155 164.815 138.644 163.059 140.711Z" fill="#D9E9F6"/>
<path d="M95.1214 50.5661C95.1596 51.5118 94.5663 52.2211 93.8022 52.1443C93.0382 52.0675 92.3802 51.2463 92.3275 50.3157C92.2748 49.3852 92.8614 48.6825 93.6402 48.7443C94.4187 48.806 95.0831 49.6205 95.1214 50.5661Z" fill="#F9FBFC"/>
<path d="M163.147 93.305C163.323 93.7692 163.341 94.2925 163.339 94.8006C163.337 95.2661 163.319 95.7315 163.286 96.1953C163.252 96.6668 163.198 97.1541 162.986 97.5562C162.854 97.8044 162.668 98.0075 162.466 98.1772C160.661 99.6908 158.414 98.3039 157.824 95.9935C157.271 93.8283 158.897 92.1955 160.628 91.9525C161.575 91.8194 162.728 92.199 163.147 93.305Z" fill="#D9E9F6"/>
<path d="M34.282 75.7561C34.9506 75.803 35.7239 75.9563 36.0482 76.6458C36.1774 76.9209 36.2118 77.2446 36.2109 77.5593C36.2093 78.071 36.1119 78.6036 35.8348 78.998C35.5143 79.4544 35.0046 79.6608 34.5102 79.7713C33.994 79.8871 33.4672 79.9214 32.9419 79.9501C32.5077 79.9738 32.0477 79.987 31.6678 79.7389C31.4614 79.6042 31.2937 79.4007 31.1432 79.1867C30.9044 78.8469 30.6971 78.4606 30.6283 78.0269C30.1966 75.2942 32.8918 75.6583 34.282 75.7561Z" fill="#F9FBFC"/>
<mask id="mask0_123_1237" style="mask-type:luminance" maskUnits="userSpaceOnUse" x="15" y="42" width="150" height="101">
<path d="M163.058 140.711C162.567 141.289 161.299 141.718 159.582 142.032C157.865 142.351 155.694 142.555 153.402 142.682C146.468 143.072 138.435 142.759 138.435 142.759L131.946 142.599L123.843 142.401C123.843 142.401 16.2353 139.742 16.2346 139.742C15.317 139.733 15.1366 128.857 15.1579 127.726C15.226 124.073 15.4282 120.424 15.7647 116.792C16.1147 113.013 15.8255 108.694 18.0282 105.577C19.0741 104.097 20.5006 103.176 21.301 101.451C22.1319 99.6584 22.3787 97.5228 22.4308 95.51C22.5272 91.7991 22.0978 88.0792 22.345 84.3783C22.5324 81.5764 23.1582 78.6733 24.586 76.3741C26.1163 73.9097 28.5974 73.8676 30.9943 73.333C32.8409 72.9213 34.8357 72.0206 35.6239 70.013C36.5049 67.7694 35.7823 65.2179 36.4769 62.9268C37.0976 60.8786 38.9792 59.9131 40.5864 59.1034C44.3162 57.2243 48.4228 56.7788 52.2902 55.433C53.3426 55.0669 54.4255 54.5966 55.1555 53.6324C57.0175 51.1731 56.6434 47.6885 58.9499 45.3446C61.2944 42.9622 64.5801 42.3431 67.678 42.3367C70.838 42.3303 73.9336 42.5074 77.0914 42.3113C80.4384 42.1034 83.9712 42.194 87.243 43.1024C91.5614 44.3013 95.4986 46.9987 99.9642 47.5117C104.875 48.0758 109.805 46.9495 114.693 46.5551C121.183 46.0315 128.088 46.4343 134.484 47.8553C137.179 48.4541 140.065 49.6788 141.459 52.6629C142.467 54.8191 142.599 57.4789 143.835 59.4647C146.149 63.1839 150.291 62.264 153.434 64.0952C156.905 66.1173 158.324 70.9622 159.418 75.3336C160.248 78.6475 161.699 82.9315 160.249 86.2628C159.48 88.0304 157.997 89.2004 156.977 90.7824C155.357 93.2941 155.503 96.1532 155.444 99.1354C155.367 103.015 155.528 105.662 158.675 107.587C161.861 109.537 163.386 111.475 163.834 115.762C164.41 121.279 164.835 126.87 164.835 132.432C164.835 135.155 164.814 138.644 163.058 140.711Z" fill="white"/>
</mask>
<g mask="url(#mask0_123_1237)">
<path d="M16.0968 71.2455L15.3379 70.6506C20.3882 64.2066 28.7771 60.945 36.71 62.3442C38.0957 62.5882 39.4672 62.9687 40.7937 63.3368C42.4497 63.7964 44.1623 64.2715 45.8752 64.4679C49.4842 64.8809 53.1919 64.0593 56.3159 62.1529C58.1065 61.0601 59.7227 59.604 61.2855 58.1958C62.9517 56.6948 64.6746 55.1423 66.6456 53.9851C70.7911 51.5513 75.9696 51.0254 80.4985 52.5776C82.0829 53.1208 83.5868 53.9048 85.0413 54.6633C86.7471 55.5527 88.5105 56.4723 90.3612 56.9683C94.318 58.0287 98.5156 57.1551 102.575 56.3097C103.998 56.0133 105.469 55.7067 106.916 55.4859C113.916 54.4165 121.09 55.2782 127.661 57.9789C130.016 58.9464 132.3 60.1556 134.509 61.3249C136.645 62.4557 138.854 63.6248 141.106 64.5627C147.482 67.2177 154.459 68.1402 161.281 67.2309L161.408 68.1868C154.417 69.1186 147.269 68.1739 140.735 65.4531C138.442 64.4981 136.213 63.3181 134.058 62.1774C131.869 61.0186 129.607 59.821 127.295 58.8708C120.885 56.2371 113.888 55.3962 107.062 56.4392C105.641 56.6562 104.182 56.9603 102.771 57.2541C98.6017 58.1219 94.2901 59.02 90.1118 57.8998C88.1588 57.3762 86.3476 56.4318 84.5958 55.5183C83.1728 54.7765 81.7016 54.0092 80.1861 53.4898C75.9198 52.027 71.0405 52.5233 67.1339 54.8167C65.2477 55.9243 63.5618 57.4431 61.9312 58.9123C60.3356 60.3497 58.6857 61.8363 56.8186 62.9758C53.512 64.9931 49.5874 65.8632 45.7659 65.4257C43.9781 65.221 42.2286 64.7356 40.5366 64.266C39.2322 63.9041 37.8835 63.5299 36.5435 63.2937C29.0725 61.9771 20.8559 65.1728 16.0968 71.2455Z" fill="#F9FBFC"/>
<path d="M155.305 74.8503C151.396 74.8503 147.875 74.4514 144.568 73.6494C139.423 72.4016 134.549 70.0748 129.836 67.8248C127.953 66.9261 126.006 65.9968 124.072 65.1508C115.514 61.4072 108.763 60.3165 102.827 61.7173C101.214 62.0982 99.6007 62.6861 98.0405 63.2544C95.2717 64.2634 92.4126 65.307 89.4133 65.2463C86.8843 65.1952 84.4579 64.3575 82.1114 63.5475C80.7431 63.075 79.3279 62.5865 77.9145 62.2628C73.9057 61.3451 69.6027 61.7167 65.7986 63.3084C63.9314 64.0898 62.1433 65.1746 60.4144 66.2238C58.0194 67.6769 55.5428 69.1799 52.7962 69.9179C48.1297 71.1715 43.2054 70.1175 38.4434 69.098C32.9052 67.9122 27.674 66.792 22.8082 68.9787L22.5449 68.3924C27.6026 66.1196 33.182 67.314 38.5781 68.4696C43.2658 69.4734 48.1126 70.5107 52.6297 69.2973C55.2879 68.583 57.7246 67.1045 60.081 65.6744C61.8302 64.6131 63.6389 63.5154 65.5505 62.7157C69.478 61.0719 73.9195 60.6888 78.0582 61.6363C79.5053 61.9674 80.9369 62.4618 82.3213 62.9397C84.6208 63.7337 86.9984 64.5546 89.4265 64.6034C92.3046 64.6616 95.1071 63.6388 97.8206 62.6504C99.3982 62.0757 101.029 61.4814 102.68 61.0918C110.664 59.2063 118.86 62.1693 124.33 64.562C126.274 65.4122 128.226 66.3437 130.113 67.2446C134.796 69.4805 139.64 71.7928 144.72 73.0249C150.513 74.4295 156.989 74.5787 165.1 73.4938L165.186 74.1312C161.606 74.6098 158.338 74.8503 155.305 74.8503Z" fill="#F9FBFC"/>
<path d="M47.8395 54.0169C45.702 54.0169 43.5847 53.8122 41.5967 53.62L41.6584 52.9803C45.6807 53.3696 50.2402 53.8109 54.3436 52.4676C56.9365 51.6197 59.3003 50.0778 61.586 48.5867C62.9125 47.7211 64.2847 46.8262 65.6987 46.0657C71.6705 42.855 78.858 41.9225 85.4174 43.5091C87.5648 44.0285 89.6834 44.8141 91.7321 45.574C95.0621 46.8089 98.5056 48.0856 102.057 48.1901C103.811 48.2402 105.597 48.0043 107.324 47.7745C108.952 47.5581 110.629 47.3322 112.313 47.3466C115.363 47.3682 118.362 48.164 121.261 48.9339C121.924 49.1097 122.586 49.2855 123.248 49.452C131.008 51.405 138.986 52.143 146.958 51.6454L146.998 52.287C138.958 52.7891 130.915 52.045 123.091 50.0752C122.427 49.9078 121.762 49.7313 121.097 49.5549C118.236 48.7956 115.277 48.0101 112.308 47.9892C110.68 47.9802 109.015 48.1981 107.409 48.4115C105.656 48.6442 103.842 48.8856 102.038 48.8323C98.3812 48.7249 94.8873 47.4296 91.5084 46.1766C89.477 45.4232 87.3765 44.6444 85.2663 44.134C78.8583 42.584 71.8373 43.495 66.0031 46.6318C64.6129 47.3791 63.2526 48.2666 61.937 49.1248C59.6163 50.6387 57.2165 52.2044 54.5432 53.0787C52.3713 53.7894 50.094 54.0169 47.8395 54.0169Z" fill="#F9FBFC"/>
<path d="M143.911 88.2712C140.232 88.2712 136.605 87.8887 133.118 87.1163C128.244 86.036 123.497 84.1913 118.906 82.4071C113.731 80.3959 108.38 78.3163 102.865 77.3478C96.6628 76.2591 90.1751 76.5815 84.1033 78.2806C81.6749 78.9604 79.2372 79.8762 76.8795 80.7617C71.9173 82.6257 66.7863 84.551 61.4317 84.3993C59.0023 84.3296 56.5868 83.8259 54.2509 83.3389C51.8666 82.842 49.4016 82.328 46.951 82.2872C43.4487 82.2232 39.9599 83.1313 36.5862 84.0039C34.3867 84.5729 32.1122 85.1611 29.8323 85.488C23.9373 86.3333 16.8428 84.7146 14.2852 79.1951L14.8682 78.9247C17.2867 84.1447 24.081 85.6625 29.7407 84.8516C31.9856 84.5298 34.2423 83.9461 36.4248 83.3813C39.84 82.4981 43.3712 81.5842 46.9613 81.6443C49.4729 81.6864 51.9685 82.2065 54.3818 82.7096C56.6903 83.1907 59.0775 83.6883 61.45 83.7568C66.6796 83.9075 71.7492 82.0021 76.6532 80.16C79.0234 79.2693 81.4743 78.3487 83.9297 77.6615C90.0934 75.9364 96.6795 75.6089 102.976 76.7146C108.554 77.694 113.935 79.7852 119.139 81.8076C123.707 83.5829 128.431 85.4189 133.257 86.4883C142.983 88.6431 153.825 87.7229 163.786 83.8976L164.017 84.4977C157.508 86.9981 150.623 88.2712 143.911 88.2712Z" fill="#F9FBFC"/>
<path d="M141.384 92.5166C135.604 92.5166 129.824 91.6732 124.283 89.9802C121.024 88.9848 117.797 87.6862 114.677 86.4304C109.335 84.2807 103.811 82.0577 98.0716 81.3547C91.9268 80.6013 85.1113 81.5488 77.8132 84.1694C76.8116 84.5291 75.7898 84.9222 74.8018 85.3022C70.5891 86.9228 66.2318 88.5978 61.673 88.4232C58.6249 88.3062 55.6613 87.3587 52.7955 86.4419C49.4095 85.359 46.212 84.3353 42.8444 84.5359C39.8692 84.7123 37.1242 85.8245 34.2179 87.0022C32.2195 87.8119 30.1531 88.6492 28.0214 89.1416C21.1325 90.733 13.4504 88.447 8.45215 83.3173L9.14258 82.6443C13.9106 87.5374 21.235 89.7186 27.8044 88.2021C29.8615 87.7267 31.8923 86.9042 33.8559 86.1083C36.7064 84.9534 39.6542 83.759 42.7875 83.5732C46.336 83.3639 49.7679 84.4613 53.0893 85.5236C55.8934 86.4204 58.7933 87.3477 61.71 87.4596C66.0737 87.6299 70.3342 85.9874 74.4556 84.4018C75.4485 84.02 76.4754 83.6249 77.4873 83.2617C84.928 80.5897 91.8924 79.6251 98.1889 80.3972C104.054 81.1155 109.637 83.3623 115.037 85.5352C118.138 86.7833 121.345 88.0742 124.565 89.0574C136.355 92.659 149.244 92.352 160.86 88.1924L161.185 89.1002C154.835 91.3752 148.109 92.5166 141.384 92.5166Z" fill="#F9FBFC"/>
<path d="M140.483 103.95C138.549 103.95 136.619 103.816 134.715 103.543C129.75 102.832 124.907 101.21 120.223 99.6425C116.144 98.2768 111.926 96.8644 107.657 96.066C95.4206 93.7774 82.8495 96.4874 72.1668 99.4394L72.0469 99.4725C67.3779 100.763 62.0852 102.226 57.3969 100.387C56.2114 99.9215 55.108 99.2581 54.0408 98.6168C53.4526 98.2633 52.8445 97.8981 52.2344 97.5731C47.0575 94.8175 40.7572 94.5553 35.3803 96.8718C34.1322 97.4099 32.9075 98.0932 31.7231 98.7541C29.7241 99.8701 27.657 101.024 25.3845 101.535C20.0562 102.735 14.6768 100.221 10.5859 97.8968L10.9035 97.3382C14.8934 99.6052 20.1298 102.059 25.2431 100.908C27.4246 100.417 29.4503 99.286 31.4094 98.1929C32.608 97.524 33.8474 96.8323 35.126 96.2817C40.6797 93.8883 47.1886 94.1589 52.5362 97.0055C53.1611 97.3382 53.7766 97.7082 54.3719 98.0659C55.4165 98.6933 56.4966 99.3426 57.6318 99.7881C62.1216 101.55 67.0802 100.179 71.8756 98.8528L71.9955 98.8193C82.7495 95.8474 95.4103 93.1223 107.776 95.4334C112.088 96.2402 116.328 97.6596 120.427 99.0324C125.084 100.591 129.899 102.203 134.806 102.906C142.634 104.027 150.903 102.78 158.089 99.3957L158.363 99.9771C152.812 102.592 146.625 103.95 140.483 103.95Z" fill="#F9FBFC"/>
<path d="M16.0033 117.55C12.4641 117.55 8.60886 116.464 6.29297 113.325L6.81015 112.943C9.7779 116.965 15.4897 117.396 19.4799 116.544C22.2664 115.949 24.9603 114.804 27.5658 113.697C29.2764 112.97 31.0452 112.218 32.8365 111.621C38.2221 109.828 44.0223 109.371 49.6103 110.301C51.8918 110.68 54.1749 111.295 56.3831 111.889C60.2721 112.936 64.2938 114.019 68.3287 113.801C72.6323 113.568 76.7498 111.87 80.7317 110.226C83.2719 109.178 85.8989 108.094 88.5793 107.381C98.766 104.672 109.277 107.292 119.441 109.826C124.4 111.062 129.528 112.34 134.571 112.992C144.602 114.289 154.94 113.128 164.464 109.637L164.686 110.24C155.064 113.768 144.623 114.939 134.488 113.629C129.408 112.973 124.262 111.69 119.286 110.449C109.201 107.935 98.7725 105.335 88.7445 108.003C86.105 108.705 83.4979 109.78 80.9769 110.821C76.9452 112.484 72.7763 114.204 68.3634 114.443C64.2269 114.666 60.1541 113.57 56.2163 112.51C54.0232 111.919 51.7555 111.309 49.5052 110.935C44.0203 110.023 38.3269 110.47 33.04 112.231C31.2728 112.82 29.5162 113.566 27.8174 114.288C25.184 115.407 22.4611 116.564 19.6143 117.173C18.5089 117.409 17.2765 117.55 16.0033 117.55Z" fill="#F9FBFC"/>
<path d="M13.0057 123.12C10.9196 123.12 8.8445 122.805 6.83203 122.037L7.06121 121.437C13.1092 123.744 19.8267 121.801 25.5999 119.596C26.3328 119.316 27.0672 119.029 27.804 118.741C33.1101 116.664 38.5959 114.517 44.2987 114.882C46.7069 115.037 49.0777 115.644 51.3705 116.232C53.362 116.743 55.4217 117.27 57.4802 117.491C63.5105 118.138 69.4836 116.202 75.2606 114.329C78.1098 113.405 81.056 112.449 83.9958 111.803C95.5476 109.265 107.513 111.36 119.084 113.387C120.917 113.708 122.812 114.04 124.667 114.346C137.533 116.471 152.316 117.709 164.406 110.78L164.725 111.337C152.461 118.367 137.541 117.124 124.563 114.98C122.704 114.673 120.807 114.341 118.973 114.02C107.463 112.004 95.5614 109.919 84.134 112.431C81.2247 113.07 78.294 114.021 75.4593 114.94C69.6176 116.834 63.5783 118.794 57.4117 118.13C55.3073 117.904 53.2248 117.371 51.211 116.854C48.9469 116.274 46.6056 115.674 44.2576 115.524C38.6981 115.168 33.2792 117.288 28.038 119.339C27.3 119.627 26.5639 119.916 25.8291 120.196C21.8379 121.721 17.3987 123.12 13.0057 123.12Z" fill="#F9FBFC"/>
<path d="M50.7272 138.986C44.902 138.986 39.1957 137.056 33.651 135.181C31.8301 134.565 29.9472 133.928 28.0999 133.375C22.0407 131.56 10.8482 129.508 3.97095 136.172L3.2998 135.479C10.5303 128.473 22.1146 130.574 28.3767 132.451C30.2397 133.009 32.131 133.649 33.9599 134.267C40.2782 136.404 46.811 138.613 53.3838 137.876C58.1783 137.337 62.7127 135.243 67.0979 133.217C69.9734 131.889 72.9473 130.516 76.006 129.565C87.0191 126.144 98.6352 128.228 109.868 130.243C115.497 131.253 121.317 132.298 127.004 132.642C141.584 133.525 156.484 129.709 168.96 121.894L169.472 122.711C156.827 130.632 141.725 134.504 126.946 133.605C121.202 133.257 115.354 132.208 109.698 131.193C98.5793 129.198 87.0815 127.135 76.2924 130.487C73.2944 131.418 70.3501 132.778 67.5026 134.093C63.0479 136.151 58.4415 138.279 53.4922 138.834C52.5677 138.937 51.6456 138.986 50.7272 138.986Z" fill="#F9FBFC"/>
</g>
<path d="M89.7931 84.0188H18.7236V144.142H89.7931V84.0188Z" fill="#C7DCEA"/>
<path d="M84.2405 89.0449H24.2754V144.142H84.2405V89.0449Z" fill="#D9E9F6"/>
<path d="M86.5329 115.256H22.585V119.398H86.5329V115.256Z" fill="#C7DCEA"/>
<path d="M81.6352 97.1462H78.2725V115.256H81.6352V97.1462Z" fill="#C7DCEA"/>
<path d="M81.0594 99.9675H78.8477V108.695H81.0594V99.9675Z" fill="#D9E9F6"/>
<path d="M78.2715 91.8357H75.2334V115.256H78.2715V91.8357Z" fill="#AFCDDD"/>
<path d="M77.7522 97.9023H75.7539V109.189H77.7522V97.9023Z" fill="#D9E9F6"/>
<path d="M77.7522 111.094H75.7539V113.943H77.7522V111.094Z" fill="#D9E9F6"/>
<path d="M75.234 93.4067H70.6514V115.256H75.234V93.4067Z" fill="#C7DCEA"/>
<path d="M74.4496 97.2095H71.4355V107.739H74.4496V97.2095Z" fill="#AFCDDD"/>
<path d="M74.4496 111.373H71.4355V114.031H74.4496V111.373Z" fill="#AFCDDD"/>
<path d="M75.234 109.568H70.6514V110.051H75.234V109.568Z" fill="#AFCDDD"/>
<path d="M75.234 108.56H70.6514V109.043H75.234V108.56Z" fill="#AFCDDD"/>
<path d="M84.2393 95.1785H81.6348V115.256H84.2393V95.1785Z" fill="#AFCDDD"/>
<path d="M84.2393 112.651H81.6348V113.709H84.2393V112.651Z" fill="#C7DCEA"/>
<path d="M83.7939 97.5625H82.0811V107.238H83.7939V97.5625Z" fill="#C7DCEA"/>
<path d="M83.7939 108.871H82.0811V111.313H83.7939V108.871Z" fill="#C7DCEA"/>
<path d="M81.1134 112.254C81.1134 112.894 80.5939 113.414 79.9533 113.414C79.3127 113.414 78.793 112.894 78.793 112.254C78.793 111.613 79.3124 111.094 79.9533 111.094C80.5942 111.094 81.1134 111.613 81.1134 112.254Z" fill="#D9E9F6"/>
<path d="M119.591 62.689C117.083 62.2393 113.323 65.6146 114.886 74.5468C116.449 83.479 119.724 94.2716 123.669 94.1973C127.614 94.1227 127.316 85.9353 126.2 79.4595C125.083 72.9834 124.445 63.5594 119.591 62.689Z" fill="#FC7808"/>
<path d="M118.382 61.3813L118.052 60.3244C118.96 60.22 119.835 60.0053 120.666 59.697C121.233 61.1611 121.998 62.2566 123.187 62.6751C123.776 62.8843 124.503 63.0768 125.317 63.2253C124.783 64.4252 121.602 71.3774 119.439 70.5571C117.116 69.6709 119.141 64.2822 119.219 64.062C119.224 64.0566 119.224 64.0566 119.224 64.0566L118.382 61.3813Z" fill="#FFC8AF"/>
<path d="M107.204 94.8813C105.341 94.8016 103.5 94.7058 101.639 94.5978C99.0123 94.4455 96.5444 94.6891 93.9836 95.2529C92.1733 95.6515 89.9988 95.0411 88.6478 93.7756C88.4759 93.6139 88.3142 93.442 88.1692 93.2565C88.1625 93.2465 88.1557 93.2398 88.149 93.2295C88.1255 93.2025 88.1053 93.1723 88.085 93.1453C86.6457 91.271 86.4435 90.1419 87.0706 89.5151C87.7077 88.878 88.6752 90.4826 90.92 89.8892C92.0257 89.5961 93.9662 88.5685 93.9662 88.5685C93.5532 87.7424 92.9592 86.7855 92.7451 86.088C92.5831 85.5602 92.4211 84.9868 92.6101 84.468C92.6287 84.4166 92.6512 84.3655 92.6892 84.3259C92.7348 84.278 92.7981 84.2517 92.8615 84.233C93.4297 84.0659 93.8839 84.5297 94.2163 84.9248C94.648 85.4381 95.0346 86.0099 95.52 86.4737C95.9873 86.9205 96.6357 87.0748 97.2104 87.3335C97.8066 87.6019 98.3576 87.9578 98.7687 88.474C98.9172 88.6604 99.0464 88.8626 99.1521 89.0763L101.097 88.7999L106.096 88.0921C106.096 88.0921 106.096 88.1021 106.099 88.1223L107.204 94.8813Z" fill="#FFC8AF"/>
<path d="M105.358 87.7708L106.946 95.9087C106.946 95.9087 120.48 95.0508 124.034 94.1647C127.589 93.2785 127.802 85.3392 120.724 85.6863C113.645 86.0338 105.358 87.7708 105.358 87.7708Z" fill="#FC7808"/>
<path d="M125.172 93.5566L124.364 90.6486C124.364 90.6486 112.926 87.299 116.052 89.1601C118.267 90.4786 120.17 93.1908 121.091 94.6607C122.324 94.5003 123.36 94.3332 124.034 94.1647C124.466 94.0574 124.847 93.8446 125.172 93.5566Z" fill="#232770"/>
<path d="M116.676 60.4124C117.144 60.4124 117.6 60.3848 118.052 60.3244L119.79 61.9579C119.471 62.3265 115.906 63.6049 112.795 65.1352L112.751 65.1628C111.469 63.1867 109.256 59.7632 108.105 56.5649C110.202 58.9262 113.268 60.4124 116.676 60.4124Z" fill="#232770"/>
<path d="M118.052 60.3245C118.052 60.3245 119.5 59.9555 120.443 59.5518L119.219 64.062L118.052 60.3245Z" fill="#232770"/>
<path d="M120.666 59.6971C119.835 60.0053 118.96 60.22 118.052 60.3245C117.6 60.3849 117.143 60.4126 116.676 60.4126C113.703 60.4126 110.99 59.2786 108.953 57.4236C108.656 57.1539 108.37 56.8675 108.105 56.5651C107.885 55.9486 107.704 55.343 107.571 54.7596C106.443 49.646 111.397 43.5032 111.397 43.5032C111.397 43.5032 114.997 46.1948 117.254 49.404C117.259 49.404 117.259 49.4094 117.259 49.4094C118.013 50.4827 118.614 51.6057 118.883 52.7121C119.494 55.2164 119.912 57.7759 120.666 59.6971Z" fill="#FFC8AF"/>
<path d="M163.848 142.032C161.828 142.351 159.274 142.555 156.577 142.681L131.334 142.599L121.772 142.566C121.772 142.566 121.783 142.511 121.8 142.4C122.02 141.068 123.528 132.046 124.244 127.208C139.227 129.724 158.674 123.333 160.474 122.722C162.543 130.335 163.584 139.505 163.848 142.032Z" fill="#5E60F4"/>
<path d="M157.595 115.066C154.953 110.348 153.599 107.392 152.647 104.266C151.379 100.766 150.118 93.957 150.118 93.957L123.242 96.9563C123.242 96.9563 124.75 104.719 125.138 107.526C126.372 116.706 125.042 121.536 124.425 125.948C124.37 126.322 124.31 126.746 124.244 127.208C139.227 129.724 158.674 123.333 160.474 122.722C159.67 119.777 158.718 117.069 157.595 115.066Z" fill="#FB5507"/>
<path d="M131.879 125.125C130.357 125.125 128.781 125.092 127.141 125.025C127.053 125.021 126.984 124.946 126.987 124.857C126.991 124.769 127.063 124.698 127.155 124.703C137.438 125.126 145.242 124.238 152.462 121.826C152.546 121.798 152.637 121.844 152.665 121.928C152.693 122.012 152.648 122.103 152.564 122.131C146.458 124.17 139.94 125.125 131.879 125.125Z" fill="#FC7808"/>
<path d="M137.808 94.2753L131.318 95.2496L131.406 95.7999L123.243 96.9557C122.412 93.9504 121.322 92.5412 119.043 91.2311C118.185 90.7358 117.414 90.334 116.726 89.965C114.32 88.6715 112.9 87.7908 111.937 84.8568C110.77 81.3063 118.184 65.9273 119.032 64.1822C119.037 64.1822 119.037 64.1768 119.037 64.1768H119.043C119.136 64.1163 119.197 64.0723 119.219 64.061C119.142 64.2812 117.533 69.7809 118.885 70.1849C122.144 71.1588 124.784 64.4243 125.318 63.2244C126.947 63.5272 128.918 63.6647 130.811 63.4114C128.362 66.8353 133.886 78.0393 134.14 78.6394C136.655 84.5235 139.431 94.0323 139.431 94.0323L137.808 94.2753Z" fill="#FB5507"/>
<path d="M133.024 103.361C130.897 103.269 125.844 103.607 123.72 103.484C123.25 103.457 122.78 103.44 122.31 103.435C120.162 103.411 118.019 103.629 115.912 104.038C115.43 104.132 114.985 104.296 114.499 104.373C113.988 104.455 113.471 104.494 112.955 104.492C111.931 104.487 110.32 104.324 109.351 103.994C109.159 103.928 108.957 103.848 108.839 103.683C108.797 103.623 108.767 103.547 108.786 103.476C108.807 103.4 108.877 103.35 108.946 103.312C109.312 103.113 109.752 103.12 110.169 103.132C109.49 102.98 108.831 102.741 108.212 102.423C107.91 102.268 107.508 101.945 107.433 101.593C107.399 101.436 107.463 101.247 107.612 101.187C107.132 100.908 106.253 100.314 106.415 99.6567C106.48 99.3938 106.7 99.1755 106.964 99.1132C106.786 98.921 106.734 98.623 106.835 98.3819C106.87 98.2967 106.924 98.218 106.998 98.1624C107.148 98.0492 107.352 98.0492 107.54 98.0537C108.11 98.0679 108.653 98.1865 109.219 98.2508C109.77 98.3131 110.985 98.1939 111.52 98.0524C112.782 97.7178 114.96 96.6015 114.96 96.6015C114.488 95.6588 113.81 94.5662 113.566 93.7701C113.38 93.1677 113.196 92.5129 113.411 91.9206C113.433 91.8621 113.459 91.8036 113.502 91.7586C113.554 91.7039 113.626 91.674 113.698 91.6525C114.347 91.4619 114.865 91.9913 115.245 92.4422C115.737 93.0282 116.179 93.6807 116.733 94.2101C117.267 94.7199 118.006 94.8963 118.662 95.1917C119.343 95.4981 119.972 95.9043 120.441 96.4935C120.611 96.7066 120.758 96.9371 120.879 97.1814L123.099 96.8657L131.757 95.6106C131.757 95.6106 131.757 95.6221 131.761 95.6453L133.024 103.361Z" fill="#FFC8AF"/>
<path d="M113.386 99.747C112.849 99.9186 112.306 100.066 111.756 100.186C111.482 100.25 111.205 100.301 110.927 100.353C110.654 100.397 110.362 100.451 110.059 100.432C109.474 100.386 108.921 100.237 108.388 100.03C107.865 99.8187 107.33 99.5535 106.964 99.1128C107.411 99.4564 107.948 99.6242 108.47 99.7933C108.999 99.9456 109.542 100.075 110.077 100.111C110.336 100.135 110.601 100.087 110.881 100.053L111.711 99.9402C112.266 99.8617 112.824 99.7968 113.386 99.747Z" fill="#E8A289"/>
<path d="M113.953 101.396C113.435 101.57 112.909 101.719 112.377 101.84C111.844 101.963 111.313 102.068 110.756 102.126C110.17 102.15 109.635 102.029 109.102 101.882C108.576 101.728 108.048 101.524 107.611 101.187C108.11 101.411 108.638 101.523 109.162 101.635C109.426 101.684 109.689 101.734 109.954 101.764C110.216 101.8 110.484 101.822 110.731 101.807C111.256 101.759 111.796 101.67 112.332 101.598C112.87 101.52 113.41 101.452 113.953 101.396Z" fill="#E8A289"/>
<path d="M114.518 102.811C114.068 103.034 113.6 103.211 113.118 103.349C112.877 103.417 112.632 103.477 112.381 103.518C112.13 103.559 111.874 103.592 111.598 103.558C111.085 103.48 110.614 103.333 110.136 103.186C109.662 103.033 109.194 102.862 108.734 102.669C109.225 102.762 109.71 102.864 110.194 102.969C110.676 103.071 111.165 103.187 111.634 103.249C112.079 103.277 112.577 103.169 113.055 103.083C113.538 102.991 114.024 102.895 114.518 102.811Z" fill="#E8A289"/>
<path d="M152.21 99.0588C151.904 100.153 150.884 101.025 149.474 101.716C144.36 104.23 132.339 104.37 132.339 104.37L132.247 103.801L132.041 102.553L130.849 95.2367L138.962 93.5775C138.962 93.5775 133.894 80.1591 131.893 75.4788C130.303 71.7441 128.456 66.2361 130.689 63.1144V63.1099C131.923 62.9434 133.119 62.5625 134.091 61.884C134.629 61.5076 135.128 61.1791 135.575 60.8638C140.111 60.9425 143.285 66.1966 144.857 69.8786C145.672 71.7917 147.226 75.5746 148.57 79.6333C150.237 84.6771 153.003 96.2434 152.21 99.0588Z" fill="#FC7808"/>
<path d="M155.932 122.918C155.866 122.918 155.804 122.877 155.781 122.81C154.863 120.169 153.377 117.835 151.94 115.577C150.87 113.895 149.764 112.156 148.887 110.291C148.227 108.885 147.608 107.433 147.009 106.029C146.563 104.983 146.103 103.902 145.628 102.849C145.592 102.768 145.628 102.673 145.709 102.637C145.79 102.6 145.885 102.637 145.922 102.718C146.397 103.774 146.859 104.856 147.305 105.903C147.903 107.304 148.52 108.753 149.178 110.155C150.045 112.001 151.146 113.732 152.211 115.404C153.658 117.678 155.154 120.029 156.084 122.705C156.113 122.789 156.069 122.881 155.985 122.91C155.968 122.916 155.95 122.918 155.932 122.918Z" fill="#FC7808"/>
<path d="M108.105 56.565C109.304 58.5807 113.621 62.3395 115.035 62.4514C116.449 62.5629 120.667 59.697 120.667 59.697L112.43 51.958L108.105 56.565Z" fill="#FFC8AF"/>
<path d="M125.313 63.2469C125.191 63.2238 125.069 63.1993 124.948 63.1733C124.106 62.9943 123.263 62.7526 122.532 62.2987C121.545 61.6867 121.072 60.7439 120.666 59.6967C119.912 57.7759 119.494 55.216 118.883 52.7118C117.804 48.2973 111.397 43.5028 111.397 43.5028C111.397 43.5028 106.443 49.6457 107.571 54.7593C107.704 55.3427 107.885 55.9482 108.105 56.5647C109.256 59.7626 111.468 63.1865 112.751 65.1626C112.935 65.4481 113.12 65.7325 113.301 66.0192C113.446 66.2481 113.572 66.5158 113.324 66.736C113.198 66.8482 113.029 66.8958 112.866 66.9401C112.724 66.9787 112.582 67.0173 112.44 67.0558C112.3 67.0938 112.159 67.132 112.016 67.1532C111.874 67.1741 111.731 67.1786 111.588 67.1822C110.631 67.204 109.666 67.1728 108.73 66.971C108.115 66.8386 107.503 66.539 106.968 66.2044C106.152 65.6943 105.476 64.9939 104.967 64.1797C104.432 63.325 104.078 62.3684 103.826 61.3961C103.543 60.3029 103.384 59.1805 103.273 58.0584C103.151 56.8325 103.089 55.6017 103.032 54.3713C102.973 53.1001 102.921 51.8288 102.832 50.5592C102.434 44.8808 104.814 38.4886 109.739 35.2717C112.252 33.6302 115.744 33.6337 118.285 35.2109C118.857 34.5999 119.787 34.4964 120.622 34.562C122.764 34.7301 124.782 35.7583 126.379 37.1948C128.446 39.053 129.554 41.5052 131.054 43.7783C132.846 46.4931 135.597 48.1362 137.702 50.5563C139.642 52.7867 140.365 55.5358 139.069 58.2773C136.849 62.9734 129.887 64.1138 125.313 63.2469Z" fill="#232770"/>
<path d="M132.577 77.1213L137.105 93.9571L138.963 93.5772L132.577 77.1213Z" fill="#232770"/>
<path d="M161.07 125.072C160.882 124.279 160.684 123.492 160.474 122.722C159.127 123.18 147.89 126.875 136.04 127.65C143.693 127.987 157.675 125.662 161.07 125.072Z" fill="#232770"/>
<path d="M132.171 103.345L131.211 103.354L131.475 99.0823L132.171 103.345Z" fill="#232770"/>
<path d="M106.742 94.861L106.05 91.3147L106.151 94.8343L106.742 94.861Z" fill="#232770"/>
<path d="M95.8808 92.1565L88.8164 93.9263L88.3574 93.4798L95.8808 92.1565Z" fill="#232770"/>
<path d="M94.6045 89.519C94.6045 89.519 95.5961 90.8597 96.5019 91.0953L95.572 91.5164L94.6045 89.519Z" fill="#E8A289"/>
<path d="M134.983 103.515C134.908 103.515 134.841 103.461 134.825 103.385L133.238 95.3997C133.22 95.3126 133.277 95.2281 133.364 95.2107C133.451 95.1914 133.535 95.2499 133.553 95.337L135.141 103.323C135.158 103.41 135.101 103.494 135.014 103.512C135.004 103.514 134.993 103.515 134.983 103.515Z" fill="#FB5507"/>
<path d="M108.883 94.7462C108.81 94.7462 108.743 94.6954 108.727 94.6205L107.249 88.054C107.23 87.9672 107.284 87.8814 107.371 87.8618C107.458 87.8425 107.543 87.8968 107.563 87.9833L109.04 94.5501C109.06 94.6365 109.006 94.7224 108.919 94.7423C108.907 94.7449 108.895 94.7462 108.883 94.7462Z" fill="#FB5507"/>
<path d="M119.585 72.0726C119.224 72.0726 118.853 72.0314 118.474 71.9495C118.388 71.9305 118.333 71.845 118.351 71.7582C118.37 71.6714 118.457 71.6171 118.543 71.6351C121.791 72.3406 124.402 69.774 126.3 64.0115C126.328 63.9272 126.419 63.8813 126.503 63.9089C126.587 63.9366 126.633 64.0275 126.605 64.1117C124.862 69.4018 122.505 72.0726 119.585 72.0726Z" fill="#FC7808"/>
<path d="M113.363 66.869C115.322 66.0805 116.344 63.897 118.118 62.7521C118.282 62.646 118.478 62.4895 118.423 62.3018C118.361 62.089 118.061 62.0938 117.845 62.1446C116.647 62.4246 115.45 62.7045 114.252 62.9848C112.66 63.357 111.01 63.7569 109.734 64.7784C109.426 65.0246 109.136 65.3177 109.005 65.6893C108.299 67.687 112.421 67.2482 113.363 66.869Z" fill="#232770"/>
<path d="M77.1719 80.5475L89.2891 78.7285L95.7623 92.0961L82.1244 94.4946L77.1719 80.5475Z" fill="#F0F5F7"/>
<path d="M89.2427 78.8168L95.6437 92.035L82.1774 94.4036L77.2804 80.6123L89.2427 78.8168ZM89.3356 78.6404L77.0635 80.4825L82.071 94.5855L95.8806 92.1565L89.3356 78.6404Z" fill="#F9FBFC"/>
<path d="M131.359 129.025C131.359 129.025 129.925 127.206 132.128 123.429C134.332 119.651 138.879 118.742 139.089 119.231C139.299 119.721 136.78 120.665 136.081 123.568C135.381 126.472 135.288 128.08 134.413 128.955C133.539 129.829 132.35 130.179 131.359 129.025Z" fill="#2270E0"/>
<path d="M131.943 128.464C131.93 128.464 131.918 128.462 131.906 128.459C131.831 128.438 131.787 128.361 131.808 128.286C131.872 128.055 133.408 122.604 136.249 120.522C136.311 120.476 136.398 120.49 136.444 120.552C136.49 120.615 136.476 120.702 136.414 120.748C133.652 122.772 132.093 128.305 132.077 128.361C132.06 128.423 132.004 128.464 131.943 128.464Z" fill="#3887FE"/>
<path d="M129.853 128.883C129.853 128.883 130.666 127.172 128.222 124.559C125.779 121.946 121.987 122.047 121.908 122.476C121.83 122.905 124.01 123.2 125.096 125.389C126.181 127.577 126.548 128.844 127.404 129.382C128.26 129.92 129.272 129.984 129.853 128.883Z" fill="#2270E0"/>
<path d="M128.582 129.143C128.531 129.114 128.507 129.04 128.429 128.798C127.541 126.073 126.217 124.264 124.492 123.419C124.427 123.388 124.402 123.31 124.433 123.246C124.464 123.182 124.542 123.155 124.606 123.186C126.398 124.061 127.764 125.923 128.674 128.718C128.706 128.815 128.738 128.915 128.753 128.95C128.777 128.979 128.788 129.018 128.78 129.058C128.766 129.127 128.698 129.173 128.628 129.159C128.61 129.155 128.595 129.151 128.582 129.143Z" fill="#3887FE"/>
<path d="M132.567 128.883C132.567 128.883 131.754 127.172 134.198 124.559C136.642 121.946 140.434 122.047 140.512 122.476C140.591 122.905 138.41 123.2 137.325 125.389C136.239 127.577 135.873 128.844 135.016 129.382C134.16 129.921 133.148 129.984 132.567 128.883Z" fill="#3887FE"/>
<path d="M133.838 129.143C133.889 129.114 133.913 129.04 133.992 128.798C134.879 126.073 136.204 124.264 137.928 123.419C137.993 123.388 138.018 123.31 137.987 123.246C137.956 123.182 137.879 123.155 137.814 123.186C136.022 124.061 134.656 125.923 133.746 128.718C133.715 128.815 133.682 128.915 133.667 128.95C133.643 128.979 133.632 129.018 133.64 129.058C133.654 129.127 133.723 129.173 133.792 129.159C133.81 129.155 133.825 129.151 133.838 129.143Z" fill="#2270E0"/>
<path d="M131.565 129.737C131.565 129.737 134.35 127.71 132.446 123.231C130.542 118.752 124.701 117.333 124.401 117.844C124.101 118.355 126.4 119.876 126.766 123.179C127.133 126.482 127.359 128.145 128.203 129.233C129.046 130.321 130.309 130.873 131.565 129.737Z" fill="#3887FE"/>
<path d="M130.167 129.197C130.11 129.186 130.063 129.134 130.055 129.074C130.052 129.05 130.053 129.037 130.067 128.929C130.294 127.117 130.684 121.034 126.138 118.852C126.072 118.82 126.044 118.74 126.076 118.674C126.107 118.608 126.187 118.58 126.253 118.612C130.959 120.871 130.564 127.106 130.331 128.963C130.325 129.012 130.32 129.044 130.319 129.058C130.329 129.131 130.277 129.188 130.204 129.198C130.192 129.199 130.179 129.199 130.167 129.197Z" fill="#2270E0"/>
<path d="M128.288 139.204H133.514C134.808 139.204 135.857 138.155 135.857 136.861V129.292H125.945V136.861C125.945 138.155 126.994 139.204 128.288 139.204Z" fill="#A5B7C6"/>
<path d="M65.463 91.7626C68.7049 94.6934 70.2243 99.7347 71.9385 103.928C73.959 108.87 75.8605 113.897 77.7917 118.895C78.403 120.478 79.0218 122.09 79.2166 123.797C79.4445 125.793 78.9565 128.39 77.3009 129.275C75.4478 130.266 73.273 130.236 71.3879 129.082C67.7773 126.872 65.8127 122.549 64.3865 118.294C63.2364 114.863 61.9398 111.484 60.711 108.086C59.6451 105.139 58.5651 102.129 58.3189 98.9716C58.0656 95.7229 59.3041 90.0594 62.816 90.393C63.7665 90.4833 64.661 91.0436 65.434 91.7369C65.4437 91.7453 65.4533 91.7539 65.463 91.7626Z" fill="#9962EF"/>
<path d="M62.9449 111.391L62.5518 113.106C63.1821 114.828 63.8031 116.554 64.3862 118.294C64.5694 118.84 64.7619 119.387 64.965 119.931C65.6191 117.626 67.5114 110.664 67.6345 106.851C67.7833 102.236 64.7436 98.2908 64.7436 98.2908L62.9449 111.391Z" fill="#232770"/>
<path d="M69.3983 121.241C71.0411 120.06 73.6965 119.107 75.6183 119.479C78.8406 120.105 81.8116 122.025 84.6697 123.556C88.217 125.456 91.5499 128.183 94.7205 130.667C94.8298 130.753 94.9416 130.841 95.0104 130.962C95.1113 131.137 95.1059 131.353 95.0879 131.555C94.922 133.413 93.8841 135.175 92.3393 136.221C91.9539 136.482 91.4306 136.79 90.9504 136.703C90.3815 136.598 89.8004 136.354 89.2395 136.2C88.9569 136.122 88.668 136.045 88.3758 136.062C88.1456 136.076 87.9232 136.147 87.6979 136.195C86.5311 136.445 85.3283 136.074 84.2081 135.663C82.4204 135.008 80.6734 134.243 78.9798 133.374C78.1245 132.935 77.2826 132.47 76.4563 131.978C75.6835 131.519 74.843 131.158 74.0578 130.699C73.4149 130.323 72.7817 129.93 72.1591 129.522C71.1684 128.871 70.1926 128.168 69.4408 127.252C68.5247 126.136 67.6443 124.244 68.1692 122.801C68.4045 122.153 68.8451 121.639 69.3983 121.241Z" fill="#9962EF"/>
<path d="M61.2858 122.959C62.4031 120.13 63.5098 117.284 64.4564 114.73C65.8546 110.965 66.9114 107.838 67.1757 106.358C68.1444 100.919 64.1594 93.0039 64.1594 93.0039C62.9428 93.4333 60.2842 91.3527 60.2842 91.3527L58.4897 94.0058C51.4552 95.4095 48.4001 88.1931 48.6533 87.2243C48.7138 86.9932 48.9671 86.4979 49.3193 85.8759L49.2644 85.8428C42.0592 85.7329 37.5072 90.2795 36.4612 91.4408C38.9051 89.4814 41.652 88.8372 45.0646 90.2023C52.9579 93.362 44.9216 106.215 43.1987 109.589C42.5391 110.88 41.6906 112.392 40.8937 113.767C36.9218 114.447 33.0692 115.82 29.5721 117.822L27.8566 119.768C26.405 121.095 25.6609 123.071 25.5195 125.033C25.3781 126.996 25.7892 128.958 26.3549 130.842C26.5493 131.49 26.7669 132.131 27.0173 132.759C23.6452 131.881 22.1538 130.628 21.3351 128.567C19.4252 133.67 17.0527 139.862 17.0527 139.862H54.0424C54.0424 139.862 55.5396 137.077 56.9102 133.753L61.2858 122.959Z" fill="#8338EA"/>
<path d="M50.9163 133.944L25.6102 127.519C25.7575 128.643 26.0281 129.756 26.3544 130.843C26.5488 131.49 26.7664 132.132 27.0168 132.759C23.6447 131.881 22.1533 130.628 21.3346 128.568C20.8785 129.787 20.396 131.067 19.9258 132.311C20.6612 132.873 22.8395 133.84 29.3009 134.511C38.9026 135.507 50.9163 133.944 50.9163 133.944Z" fill="#232770"/>
<path d="M79.3979 128.739C79.3966 128.754 79.3947 128.769 79.3918 128.783C79.3713 128.887 79.2928 128.987 79.1877 128.997C79.1945 129.163 79.1781 129.338 79.0871 129.477C78.9961 129.616 78.8129 129.706 78.658 129.645C78.6146 129.628 78.5738 129.6 78.5272 129.599C78.4703 129.598 78.4224 129.638 78.3745 129.668C78.207 129.774 77.9936 129.775 77.7985 129.741C77.3871 129.669 77.0801 129.428 76.7227 129.237C76.3726 129.05 76.0233 128.86 75.6594 128.7C74.9079 128.37 74.0838 128.185 73.277 128.424C70.7538 129.171 69.6198 131.525 67.6234 131.801C65.6311 132.081 63.915 131.278 63.915 131.278C64.6755 129.231 65.0024 126.274 65.113 125.013L65.1596 125.017C65.1596 125.017 70.1083 123.845 70.8515 123.628C72.2191 123.225 73.9311 122.953 74.8825 123.437C75.4408 123.72 75.9445 124.128 76.4189 124.532C77.6272 125.558 78.9679 126.882 79.3619 128.471C79.3841 128.559 79.405 128.65 79.3979 128.739Z" fill="#FFC8AF"/>
<path d="M72.3701 126.277C73.0805 126.213 73.7928 126.203 74.506 126.221C74.6844 126.226 74.8634 126.231 75.0428 126.244C75.1325 126.25 75.2225 126.259 75.3134 126.269L75.4529 126.289C75.5243 126.305 75.5693 126.326 75.6146 126.347C75.9576 126.519 76.2363 126.734 76.5288 126.945C77.0987 127.38 77.6444 127.845 78.1304 128.379C78.25 128.515 78.3667 128.654 78.4728 128.804C78.5685 128.956 78.7007 129.11 78.6897 129.344C78.6794 129.444 78.6405 129.549 78.5666 129.624C78.4937 129.7 78.3992 129.74 78.3079 129.761C78.123 129.803 77.9408 129.781 77.7672 129.744C77.9443 129.747 78.1253 129.736 78.2831 129.679C78.4451 129.623 78.5435 129.49 78.5309 129.334C78.5322 129.205 78.4146 129.058 78.3095 128.929C78.1989 128.798 78.0758 128.675 77.9495 128.554C77.4403 128.075 76.8942 127.626 76.3359 127.2C76.0595 126.988 75.7676 126.775 75.4832 126.613C75.4491 126.594 75.4124 126.579 75.3977 126.574L75.2742 126.551L75.0158 126.517L74.4909 126.457C73.7873 126.39 73.0798 126.336 72.3701 126.277Z" fill="#E8A289"/>
<path d="M72.501 125.1C73.2763 124.995 74.0612 125.034 74.839 125.094C75.0342 125.11 75.2289 125.129 75.4244 125.16C75.615 125.189 75.8249 125.222 76.0209 125.301C76.4009 125.455 76.7377 125.666 77.0627 125.894C77.7065 126.352 78.2732 126.933 78.7258 127.571C78.9527 127.893 79.1684 128.242 79.258 128.643C79.2957 128.848 79.2828 129.056 79.2185 129.25C79.1574 129.441 79.0202 129.619 78.8334 129.686C79.1751 129.47 79.2092 129.016 79.105 128.681C78.9951 128.327 78.772 128.014 78.5297 127.722C78.0373 127.129 77.5008 126.594 76.8753 126.155C76.5693 125.932 76.2427 125.73 75.9065 125.582C75.5864 125.447 75.1833 125.409 74.8095 125.339C74.4286 125.279 74.0445 125.23 73.66 125.191C73.2756 125.143 72.8902 125.112 72.501 125.1Z" fill="#E8A289"/>
<path d="M72.501 123.971C73.0947 123.911 73.6899 123.879 74.2862 123.884C74.5845 123.881 74.8828 123.896 75.1827 123.913C75.3324 123.921 75.4832 123.94 75.6346 123.958C75.795 123.992 75.9229 123.983 76.1315 124.095C76.2794 124.206 76.3649 124.308 76.4767 124.415L76.7895 124.735C76.9926 124.952 77.198 125.167 77.3941 125.39C77.793 125.831 78.1742 126.288 78.5393 126.76C78.0842 126.375 77.6425 125.976 77.2144 125.565L76.5735 124.949L76.2566 124.639C76.1537 124.543 76.0373 124.422 75.947 124.358C75.9277 124.346 75.857 124.324 75.7947 124.308C75.7288 124.293 75.6571 124.282 75.5886 124.268C75.4459 124.247 75.3019 124.231 75.1557 124.215C74.8644 124.181 74.57 124.16 74.2753 124.133C73.6861 124.087 73.0943 124.036 72.501 123.971Z" fill="#E8A289"/>
<path d="M104.785 136.453C104.734 136.678 104.63 136.868 104.451 137.004C103.894 137.444 103.365 137.189 102.781 136.737C101.91 136.068 100.917 134.965 99.5247 135.082C97.196 135.279 95.7868 137.122 94.001 137.003C92.7059 136.921 90.5971 136.302 90.4952 134.725C90.4373 133.83 90.8986 132.741 91.3756 132.004C92.4032 130.415 94.1058 130.633 95.7653 130.577C96.601 130.55 97.4425 130.542 98.2766 130.475C99.5386 130.37 101.076 130.441 101.817 131.033C102.816 131.829 105.127 134.945 104.785 136.453Z" fill="#FFC8AF"/>
<path d="M59.541 109.64L59.2395 108.458C59.2299 108.421 58.2408 104.606 55.7694 99.9046C54.592 97.6652 52.7885 95.2931 51.1967 93.2006C49.2778 90.6771 47.7616 88.6836 47.5328 87.3152L47.4736 86.9629L47.7938 86.8038C47.986 86.7084 52.5448 84.4822 56.3721 85.9823C60.6307 87.6511 62.196 93.5998 62.2423 98.1869C62.3066 104.543 60.2183 108.41 60.1292 108.572L59.541 109.64ZM48.5761 87.5084C48.9811 88.6942 50.4343 90.6051 51.9643 92.6169C53.5785 94.7396 55.4078 97.1455 56.6228 99.4556C58.3077 102.66 59.3061 105.416 59.7966 106.944C60.4012 105.381 61.3195 102.315 61.2777 98.1966C61.2311 93.5709 59.5873 88.2779 56.0201 86.8797C53.1578 85.7582 49.6799 87.0382 48.5761 87.5084Z" fill="#5E60F4"/>
<path d="M64.8644 124.206C64.9377 124.252 65.0017 124.31 65.0508 124.384C65.1418 124.52 65.1656 124.689 65.1817 124.852C65.28 125.853 65.0087 126.924 64.8387 127.915C64.631 129.123 64.4469 130.458 63.9856 131.598C63.9229 131.753 63.8471 131.911 63.7153 132.014C63.5976 132.106 63.4472 132.145 63.3003 132.172C62.2007 132.377 60.9674 132.082 60.0173 132.672C59.7354 132.847 59.5014 133.09 59.2282 133.278C58.5053 133.777 57.7274 133.656 56.91 133.754C51.9835 134.332 44.9323 134.838 37.8483 134.249C26.1625 133.28 22.7499 132.13 21.3353 128.568C21.1813 128.194 21.0547 127.792 20.9389 127.358C20.1849 124.473 20.9168 119.8 22.926 114.301C22.9315 114.29 22.9369 114.273 22.9369 114.263C24.0764 111.141 25.6231 107.751 27.544 104.278C30.5548 98.8227 33.241 94.0174 36.4446 91.4582C36.4501 91.4527 36.4556 91.4472 36.461 91.4418C38.9049 89.4823 41.6518 88.8382 45.0644 90.2033C52.9577 93.363 44.9214 106.216 43.1985 109.59C42.4033 111.148 41.5345 112.669 40.6534 114.181C39.7409 115.746 38.6426 117.185 37.8001 118.807C38.1907 118.899 38.5812 118.991 38.9717 119.083C38.9942 119.46 39.0164 119.837 39.0389 120.214C39.0389 120.457 44.3045 121.198 44.8465 121.246C46.8188 121.42 48.7869 121.67 50.7559 121.876C52.2348 122.03 53.714 122.184 55.1936 122.336C56.6088 122.482 58.0366 122.579 59.4371 122.83C59.5994 122.859 59.7617 122.89 59.9234 122.922C60.0915 122.955 60.2622 122.991 60.4113 123.075C60.5357 123.145 60.6399 123.246 60.7594 123.323C61.0378 123.503 61.3795 123.546 61.708 123.589C62.5855 123.705 63.4591 123.85 64.327 124.024C64.5115 124.061 64.7088 124.107 64.8644 124.206Z" fill="#9962EF"/>
<path d="M58.4898 94.0059C58.4898 94.0059 60.7247 93.6388 61.7604 92.9316C62.796 92.2245 61.6594 87.9804 60.1249 88.1671C58.5904 88.3539 58.3301 92.8571 58.3301 92.8571L58.4898 94.0059Z" fill="#B18DF7"/>
<path d="M61.3444 91.6291C60.079 87.7957 56.9158 83.9997 53.8265 82.1016C50.7376 80.2036 43.5874 81.1994 41.5846 82.1842C39.5818 83.1691 52.2634 91.0836 52.2634 91.0836L57.6663 94.1864L60.2837 93.1922L61.3444 91.6291Z" fill="#B18DF7"/>
<path d="M50.921 83.2119C50.8329 82.8101 51.9389 79.9938 52.5117 77.0103C53.1639 73.6118 53.5435 70.3339 55.8298 67.8203C58.0876 65.3379 60.7734 62.8153 64.3297 62.6909C65.1715 62.6617 66.0673 62.9561 66.5691 63.633C67.5128 62.7642 69.0322 63.0853 70.1819 63.6546C73.3066 65.2019 78.8943 73.3784 78.9483 73.579C79.0055 73.7924 79.269 76.3083 77.5587 78.566C76.3511 80.1599 74.5855 80.8796 73.2339 82.3534C73.3901 81.237 73.5463 80.1207 73.7026 79.0044C74.0388 76.6021 72.3834 75.9746 70.7354 74.6822C70.5326 74.523 67.6462 72.2853 67.7484 72.1094C67.7484 72.1094 65.5248 75.9351 64.7154 76.1498C63.9118 76.3645 62.7778 75.181 62.5082 75.2855C62.2385 75.3954 61.4127 77.1735 60.7853 77.8341C60.1579 78.5001 59.5632 79.3808 58.9194 79.0009C58.2753 78.6264 58.9744 77.6907 59.5635 76.6506C60.1579 75.6104 58.76 73.6343 57.626 73.7992C56.7745 73.9233 55.9713 74.9477 55.5428 75.6092C54.96 76.5088 54.4358 78.1324 55.133 79.1137C55.1645 79.1584 55.2011 79.2066 55.1957 79.2609C55.1915 79.3046 55.1606 79.3403 55.1317 79.3731C54.4448 80.1429 53.7399 80.8967 53.0177 81.6337C52.6618 81.9969 52.3031 82.4585 51.8907 82.7561C51.7975 82.8233 50.9239 83.2283 50.9329 83.2556C50.9319 83.2556 50.9264 83.2392 50.921 83.2119Z" fill="#232770"/>
<path d="M74.8818 77.3606C74.5844 79.0562 73.9956 81.1091 72.8506 83.1679C70.6158 87.1642 67.0325 90.9236 65.1389 92.3877C64.715 92.7124 64.3794 92.9271 64.1592 93.0042C62.9426 93.4337 60.2841 91.3531 60.2841 91.3531L58.4895 94.0061C51.4551 95.4098 48.3999 88.1934 48.6532 87.2246C48.7136 86.9935 48.9669 86.4982 49.3192 85.8759C50.6406 83.5468 52.1076 81.3055 53.5296 79.0375C54.2268 77.9257 54.8837 76.793 55.5141 75.6532C55.8892 74.975 56.7946 73.9159 57.6252 73.7992C58.7592 73.634 60.1574 75.6101 59.5628 76.6506C58.9739 77.6911 58.2748 78.6267 58.9186 79.0009C59.5628 79.3808 60.1571 78.5001 60.7845 77.8338C61.412 77.1732 62.2377 75.3954 62.5074 75.2852C62.7771 75.1807 63.9111 76.3642 64.7146 76.1495C65.5237 75.9348 67.7476 72.1091 67.7476 72.1091C67.7476 72.1091 71.6446 75.8576 74.8319 77.3385C74.8486 77.3497 74.8654 77.3552 74.8818 77.3606Z" fill="#FFC8AF"/>
<path d="M60.2846 91.3528L58.4901 94.0058C57.0976 91.5344 55.171 87.4886 55.0498 87.2356C57.2792 89.5968 60.2846 91.3528 60.2846 91.3528Z" fill="#E8A289"/>
<path d="M58.7112 76.1368C58.7006 75.7337 58.4389 75.3249 58.0481 75.2265C57.7973 75.1632 57.5289 75.2301 57.2988 75.348C56.6704 75.6695 56.2914 76.3303 56.034 76.9876C55.917 77.2863 55.8164 77.6006 55.8341 77.9208C55.8517 78.2409 56.0099 78.57 56.2966 78.7137C56.4039 78.7674 56.5235 78.7931 56.6428 78.8072C56.8196 78.8281 57.0041 78.8246 57.168 78.7555C57.3319 78.6864 57.4721 78.5424 57.4994 78.3666C57.5601 77.9786 57.0831 77.6398 57.1837 77.2602C57.2368 77.06 57.4483 76.9301 57.6553 76.9227C57.9057 76.9137 58.168 77.1799 58.3881 77.0477C58.6205 76.9079 58.7176 76.3779 58.7112 76.1368Z" fill="#E8A289"/>
<path d="M55.5137 75.6531C54.4218 77.5681 54.7941 79.273 54.7941 79.273L50.916 83.1906L53.2226 76.1468L55.5137 75.6531Z" fill="#232770"/>
<path d="M54.7942 79.2732C55.0732 80.4454 56.9899 81.32 56.9899 81.32C56.9899 81.32 54.9244 83.6286 54.2173 83.2557C53.5105 82.8832 54.7942 79.2732 54.7942 79.2732Z" fill="#E8A289"/>
<path d="M60.2839 91.3526C60.2839 91.3526 58.7221 90.4378 57.0156 89.0444L59.5388 92.4541L60.2839 91.3526Z" fill="#232770"/>
<path d="M57.8834 94.1865C56.804 92.8201 54.7465 90.6209 52.2635 88.5776C50.7727 87.3504 47.6857 84.4466 48.3559 82.9577C49.0258 81.4692 42.8106 81.3573 40.4288 82.6228C38.0471 83.8883 36.186 87.126 36.7443 88.3169C37.3026 89.5078 38.0593 89.4979 41.26 89.045C44.4605 88.5921 48.4861 91.3509 50.5355 92.4547C55.049 94.8856 57.8834 94.1865 57.8834 94.1865Z" fill="#B18DF7"/>
<path d="M57.0645 108.339H62.3989V117.785L57.0645 118.226V108.339Z" fill="#F0F5F7"/>
<path d="M57.4268 117.832V108.702H62.037V117.452L57.4268 117.832ZM57.5875 108.863V117.658L61.8763 117.303V108.863H57.5875Z" fill="#C3D3DD"/>
<path d="M58.832 109.81H60.8789V112.466L58.832 112.523V109.81Z" fill="#C3D3DD"/>
<path d="M57.8086 115.143L61.7535 114.94V115.311L57.8086 115.571V115.143Z" fill="#C3D3DD"/>
<path d="M57.8086 114.305L61.7535 114.183V114.555L57.8086 114.734V114.305Z" fill="#C3D3DD"/>
<path d="M57.8086 115.943L61.7535 115.647V116.019L57.8086 116.371V115.943Z" fill="#C3D3DD"/>
<path d="M49.4797 85.8409C47.6855 84.0187 46.6685 82.8336 47.5367 82.3125C48.4052 81.7915 50.9158 83.1907 50.9158 83.1907L49.4797 85.8409Z" fill="#9962EF"/>
<path d="M60.3113 131.875C60.2978 131.875 60.2846 131.873 60.2711 131.869C60.1853 131.848 60.1335 131.76 60.1554 131.674C60.7732 129.268 61.1001 126.788 61.1274 124.303C61.128 124.215 61.1981 124.144 61.2897 124.145C61.3784 124.145 61.4498 124.218 61.4488 124.307C61.4212 126.817 61.0908 129.323 60.4665 131.754C60.4482 131.826 60.383 131.875 60.3113 131.875Z" fill="#8338EA"/>
<path d="M88.1569 134.958C88.0807 134.958 88.0129 134.903 87.9988 134.826C87.5996 132.607 89.3404 129.838 91.4484 129.339C91.5345 129.316 91.6213 129.372 91.6419 129.458C91.6624 129.544 91.6091 129.631 91.5226 129.652C89.5985 130.107 87.9503 132.738 88.3157 134.769C88.3315 134.856 88.2733 134.94 88.1859 134.955C88.1759 134.957 88.1662 134.958 88.1569 134.958Z" fill="#8338EA"/>
<path d="M95.0853 138.011H65.2002V139.204H95.0853V138.011Z" fill="#A5B7C6"/>
<path d="M95.0863 139.204H120.018V138.011H95.0863V139.204Z" fill="#232770"/>
<path d="M103.338 110.344L127.036 111.332L118.294 138.011H94.2705L103.338 110.344Z" fill="#A5B7C6"/>
<path d="M104.154 110.344L128.19 111.381L120.017 138.011H95.0859L104.154 110.344Z" fill="#758D9E"/>
<path d="M102.597 134.562C102.109 135.733 101.156 136.45 100.468 136.164C99.7802 135.878 99.6179 134.696 100.106 133.525C100.593 132.354 101.546 131.636 102.234 131.923C102.922 132.21 103.084 133.391 102.597 134.562Z" fill="#A5B7C6"/>
<path d="M59.6006 139.204H14.4766V144.141H59.6006V139.204Z" fill="#5E60F4"/>
<path d="M59.6006 144.142H157.782V139.204H59.6006V144.142Z" fill="#232770"/>
<path d="M46.662 135.4H24.5461H24.2916H22.9795V135.749H24.2916V138.854H22.9795V139.204H24.2916H24.5461H46.662C47.7125 139.204 48.5642 138.352 48.5642 137.302C48.5642 136.251 47.7125 135.4 46.662 135.4Z" fill="#3887FE"/>
<path d="M34.7495 135.749C35.6058 135.749 36.302 136.446 36.302 137.302C36.302 138.158 35.6055 138.854 34.7495 138.854H23.7432C24.1896 137.819 24.1896 136.784 23.7432 135.749H34.7495Z" fill="#F9F8F7"/>
<path d="M23.9414 138.291H35.9448C35.9744 138.256 36.0021 138.218 36.0284 138.18L36.0294 138.179H23.9697C23.9607 138.216 23.9517 138.254 23.9414 138.291ZM24.0764 137.358H36.2991C36.2997 137.339 36.3019 137.321 36.3019 137.302C36.3019 137.283 36.2997 137.265 36.2991 137.246H24.0764C24.077 137.283 24.077 137.321 24.0764 137.358ZM24.0388 137.825H36.2094C36.2226 137.788 36.2344 137.75 36.2451 137.712H24.0539C24.0497 137.75 24.0443 137.787 24.0388 137.825ZM36.029 136.425C36.0024 136.386 35.9744 136.348 35.9445 136.312H23.9414C23.9517 136.35 23.9607 136.387 23.9697 136.425H36.029ZM24.0539 136.891H36.2451C36.2344 136.854 36.2226 136.816 36.2094 136.779H24.0388C24.0443 136.817 24.0497 136.854 24.0539 136.891Z" fill="#E9E5D9"/>
<path d="M49.1962 131.595H27.0803H26.8257H25.5137V131.945H26.8257V135.05H25.5137V135.4H26.8257H27.0803H49.1962C50.2466 135.4 51.0984 134.548 51.0984 133.497C51.0984 132.447 50.2466 131.595 49.1962 131.595Z" fill="#FB5507"/>
<path d="M37.2837 131.945C38.14 131.945 38.8362 132.641 38.8362 133.498C38.8362 134.354 38.1397 135.05 37.2837 135.05H26.2773C26.7238 134.015 26.7238 132.98 26.2773 131.945H37.2837Z" fill="#F9F8F7"/>
<path d="M26.4756 134.487H38.479C38.5086 134.451 38.5362 134.414 38.5626 134.376L38.5636 134.375H26.5039C26.4949 134.412 26.4859 134.449 26.4756 134.487ZM26.6106 133.553H38.8332C38.8339 133.535 38.8361 133.516 38.8361 133.497C38.8361 133.478 38.8339 133.46 38.8332 133.441H26.6106C26.6112 133.479 26.6112 133.516 26.6106 133.553ZM26.573 134.02H38.7436C38.7567 133.983 38.7686 133.946 38.7792 133.908H26.5881C26.5839 133.945 26.5784 133.983 26.573 134.02ZM38.5632 132.62C38.5366 132.581 38.5086 132.544 38.4787 132.508H26.4756C26.4859 132.545 26.4949 132.582 26.5039 132.62H38.5632ZM26.5881 133.087H38.7792C38.7686 133.049 38.7567 133.011 38.7436 132.974H26.573C26.5784 133.012 26.5839 133.049 26.5881 133.087Z" fill="#E9E5D9"/>
<path d="M47.6233 127.791H25.5071H25.2525H23.9404V128.14H25.2525V131.246H23.9404V131.595H25.2525H25.5071H47.623C48.6734 131.595 49.5252 130.744 49.5252 129.693C49.5252 128.643 48.6737 127.791 47.6233 127.791Z" fill="#FFBF0B"/>
<path d="M35.7114 128.141C36.5677 128.141 37.2639 128.837 37.2639 129.693C37.2639 130.55 36.5674 131.246 35.7114 131.246H24.7051C25.1515 130.211 25.1515 129.176 24.7051 128.141H35.7114Z" fill="#F9F8F7"/>
<path d="M24.9023 130.683H36.9058C36.9353 130.647 36.963 130.61 36.9893 130.572L36.9903 130.571H24.9306C24.9216 130.608 24.9126 130.645 24.9023 130.683ZM25.0373 129.75H37.26C37.2606 129.731 37.2629 129.712 37.2629 129.693C37.2629 129.674 37.2606 129.656 37.26 129.637H25.0373C25.038 129.675 25.038 129.712 25.0373 129.75ZM24.9997 130.216H37.1703C37.1835 130.179 37.1954 130.142 37.206 130.104H25.0152C25.0107 130.141 25.0052 130.179 24.9997 130.216ZM36.9903 128.816C36.9636 128.778 36.9357 128.74 36.9058 128.704H24.9023C24.9126 128.741 24.9216 128.779 24.9306 128.816H36.9903ZM25.0152 129.283H37.2063C37.1957 129.245 37.1838 129.207 37.1706 129.17H24.9997C25.0052 129.208 25.0107 129.245 25.0152 129.283Z" fill="#E9E5D9"/>
<path d="M58.0799 139.204H51.2296C50.5131 138.487 50.1117 138.086 49.3955 137.37V128.986H59.9143V137.37C59.1978 138.086 58.7963 138.488 58.0799 139.204Z" fill="#F9F8F7"/>
<path d="M49.3952 129.645H47.7411C47.6042 129.645 47.4701 129.7 47.3731 129.797C47.276 129.894 47.2207 130.028 47.2207 130.165V133.558C47.221 134.876 48.2891 135.944 49.6076 135.945V134.904C48.8645 134.903 48.2628 134.301 48.2615 133.558V130.686H49.3952V129.645Z" fill="#F9F8F7"/>
</g>
<defs>
<clipPath id="clip0_123_1237">
<rect width="160.714" height="160.714" fill="white" transform="translate(9.64258 10.303)"/>
</clipPath>
</defs>
</svg>
