<svg width="166" height="59" viewBox="0 0 166 59" fill="none" xmlns="http://www.w3.org/2000/svg">
<rect x="1.66659" y="1.99972" width="162.667" height="55.3333" rx="27.6667" stroke="white" stroke-width="2.66667"/>
<path d="M28.7043 37.6663V22.1511H31.0452V35.6511H38.0755V37.6663H28.7043ZM45.1526 37.9011C44.0062 37.9011 43.0188 37.6562 42.1905 37.1663C41.3673 36.6713 40.7309 35.9769 40.2814 35.0829C39.837 34.1839 39.6148 33.1309 39.6148 31.9238C39.6148 30.7319 39.837 29.6814 40.2814 28.7723C40.7309 27.8632 41.3572 27.1536 42.1602 26.6435C42.9683 26.1334 43.9127 25.8784 44.9935 25.8784C45.6501 25.8784 46.2865 25.987 46.9026 26.2041C47.5188 26.4213 48.0718 26.7622 48.5617 27.2269C49.0516 27.6915 49.438 28.295 49.7208 29.0375C50.0036 29.7748 50.1451 30.6713 50.1451 31.7269V32.5299H40.8951V30.8329H47.9254C47.9254 30.237 47.8042 29.7092 47.5617 29.2496C47.3193 28.7849 46.9784 28.4188 46.539 28.1511C46.1047 27.8834 45.5946 27.7496 45.0087 27.7496C44.3723 27.7496 43.8168 27.9062 43.342 28.2193C42.8723 28.5274 42.5087 28.9314 42.2511 29.4314C41.9986 29.9264 41.8723 30.4642 41.8723 31.045V32.3708C41.8723 33.1486 42.0087 33.8102 42.2814 34.3557C42.5592 34.9011 42.9456 35.3178 43.4405 35.6057C43.9355 35.8885 44.5137 36.0299 45.1754 36.0299C45.6047 36.0299 45.9961 35.9693 46.3496 35.8481C46.7031 35.7218 47.0087 35.5349 47.2663 35.2875C47.5238 35.04 47.7208 34.7344 47.8572 34.3708L50.0011 34.7572C49.8294 35.3885 49.5213 35.9415 49.0769 36.4163C48.6375 36.886 48.0845 37.2521 47.4178 37.5147C46.7562 37.7723 46.0011 37.9011 45.1526 37.9011ZM55.618 37.9238C54.8806 37.9238 54.214 37.7875 53.618 37.5147C53.0221 37.237 52.5498 36.8355 52.2013 36.3102C51.8579 35.7849 51.6862 35.141 51.6862 34.3784C51.6862 33.7218 51.8125 33.1814 52.065 32.7572C52.3175 32.3329 52.6584 31.9971 53.0877 31.7496C53.517 31.5021 53.9968 31.3152 54.5271 31.189C55.0574 31.0627 55.5978 30.9668 56.1483 30.9011C56.8453 30.8203 57.4109 30.7546 57.8453 30.7041C58.2796 30.6486 58.5953 30.5602 58.7923 30.439C58.9892 30.3178 59.0877 30.1208 59.0877 29.8481V29.795C59.0877 29.1334 58.9008 28.6208 58.5271 28.2572C58.1584 27.8935 57.6079 27.7117 56.8756 27.7117C56.113 27.7117 55.512 27.8809 55.0726 28.2193C54.6382 28.5526 54.3377 28.9238 54.171 29.3329L52.0423 28.8481C52.2948 28.141 52.6635 27.5703 53.1483 27.136C53.6382 26.6966 54.2013 26.3784 54.8377 26.1814C55.4741 25.9794 56.1433 25.8784 56.8453 25.8784C57.3099 25.8784 57.8024 25.9339 58.3226 26.045C58.8478 26.1511 59.3377 26.3481 59.7923 26.636C60.2519 26.9238 60.6281 27.3355 60.921 27.8708C61.214 28.4011 61.3604 29.0905 61.3604 29.939V37.6663H59.1483V36.0754H59.0574C58.9109 36.3683 58.6912 36.6562 58.3983 36.939C58.1054 37.2218 57.7291 37.4567 57.2695 37.6435C56.8099 37.8304 56.2594 37.9238 55.618 37.9238ZM56.1104 36.1057C56.7367 36.1057 57.2721 35.9819 57.7165 35.7344C58.166 35.487 58.5069 35.1637 58.7392 34.7647C58.9766 34.3607 59.0953 33.9289 59.0953 33.4693V31.9693C59.0145 32.0501 58.8579 32.1259 58.6256 32.1966C58.3983 32.2622 58.1382 32.3203 57.8453 32.3708C57.5524 32.4163 57.267 32.4592 56.9892 32.4996C56.7114 32.5349 56.4791 32.5652 56.2923 32.5905C55.8529 32.6461 55.4513 32.7395 55.0877 32.8708C54.7291 33.0021 54.4412 33.1915 54.2241 33.439C54.012 33.6814 53.9059 34.0046 53.9059 34.4087C53.9059 34.9693 54.113 35.3935 54.5271 35.6814C54.9412 35.9642 55.469 36.1057 56.1104 36.1057ZM63.9508 37.6663V26.0299H66.1402V27.8784H66.2614C66.4735 27.2521 66.8473 26.7597 67.3826 26.4011C67.923 26.0375 68.5342 25.8557 69.216 25.8557C69.3574 25.8557 69.524 25.8607 69.716 25.8708C69.9129 25.8809 70.067 25.8935 70.1781 25.9087V28.0754C70.0872 28.0501 69.9256 28.0223 69.6932 27.992C69.4609 27.9567 69.2286 27.939 68.9963 27.939C68.4609 27.939 67.9836 28.0526 67.5645 28.2799C67.1503 28.5021 66.822 28.8127 66.5796 29.2117C66.3372 29.6057 66.216 30.0551 66.216 30.5602V37.6663H63.9508ZM73.9768 30.7572V37.6663H71.7117V26.0299H73.8859V27.9238H74.0298C74.2975 27.3077 74.7167 26.8127 75.2874 26.439C75.8632 26.0652 76.5879 25.8784 77.4617 25.8784C78.2546 25.8784 78.949 26.045 79.545 26.3784C80.1409 26.7067 80.6031 27.1966 80.9313 27.8481C81.2596 28.4996 81.4238 29.3051 81.4238 30.2647V37.6663H79.1586V30.5375C79.1586 29.694 78.9389 29.0349 78.4995 28.5602C78.0601 28.0804 77.4566 27.8405 76.6889 27.8405C76.1637 27.8405 75.6965 27.9541 75.2874 28.1814C74.8834 28.4087 74.5627 28.742 74.3253 29.1814C74.093 29.6158 73.9768 30.141 73.9768 30.7572ZM89.436 22.1511H92.2769L97.2163 34.2117H97.3981L102.337 22.1511H105.178V37.6663H102.951V26.439H102.807L98.2314 37.6435H96.3829L91.8072 26.4314H91.6632V37.6663H89.436V22.1511ZM112.875 37.9011C111.784 37.9011 110.832 37.6511 110.019 37.1511C109.206 36.6511 108.574 35.9516 108.125 35.0526C107.675 34.1536 107.451 33.1031 107.451 31.9011C107.451 30.694 107.675 29.6385 108.125 28.7344C108.574 27.8304 109.206 27.1284 110.019 26.6284C110.832 26.1284 111.784 25.8784 112.875 25.8784C113.966 25.8784 114.918 26.1284 115.731 26.6284C116.544 27.1284 117.175 27.8304 117.625 28.7344C118.074 29.6385 118.299 30.694 118.299 31.9011C118.299 33.1031 118.074 34.1536 117.625 35.0526C117.175 35.9516 116.544 36.6511 115.731 37.1511C114.918 37.6511 113.966 37.9011 112.875 37.9011ZM112.882 35.9996C113.589 35.9996 114.175 35.8127 114.64 35.439C115.105 35.0652 115.448 34.5678 115.67 33.9466C115.898 33.3254 116.011 32.641 116.011 31.8935C116.011 31.1511 115.898 30.4693 115.67 29.8481C115.448 29.2218 115.105 28.7193 114.64 28.3405C114.175 27.9617 113.589 27.7723 112.882 27.7723C112.17 27.7723 111.579 27.9617 111.11 28.3405C110.645 28.7193 110.299 29.2218 110.072 29.8481C109.85 30.4693 109.738 31.1511 109.738 31.8935C109.738 32.641 109.85 33.3254 110.072 33.9466C110.299 34.5678 110.645 35.0652 111.11 35.439C111.579 35.8127 112.17 35.9996 112.882 35.9996ZM120.401 37.6663V26.0299H122.59V27.8784H122.711C122.924 27.2521 123.297 26.7597 123.833 26.4011C124.373 26.0375 124.984 25.8557 125.666 25.8557C125.807 25.8557 125.974 25.8607 126.166 25.8708C126.363 25.8809 126.517 25.8935 126.628 25.9087V28.0754C126.537 28.0501 126.376 28.0223 126.143 27.992C125.911 27.9567 125.679 27.939 125.446 27.939C124.911 27.939 124.434 28.0526 124.014 28.2799C123.6 28.5021 123.272 28.8127 123.03 29.2117C122.787 29.6057 122.666 30.0551 122.666 30.5602V37.6663H120.401ZM132.76 37.9011C131.614 37.9011 130.626 37.6562 129.798 37.1663C128.975 36.6713 128.338 35.9769 127.889 35.0829C127.444 34.1839 127.222 33.1309 127.222 31.9238C127.222 30.7319 127.444 29.6814 127.889 28.7723C128.338 27.8632 128.965 27.1536 129.768 26.6435C130.576 26.1334 131.52 25.8784 132.601 25.8784C133.258 25.8784 133.894 25.987 134.51 26.2041C135.126 26.4213 135.679 26.7622 136.169 27.2269C136.659 27.6915 137.045 28.295 137.328 29.0375C137.611 29.7748 137.753 30.6713 137.753 31.7269V32.5299H128.503V30.8329H135.533C135.533 30.237 135.412 29.7092 135.169 29.2496C134.927 28.7849 134.586 28.4188 134.147 28.1511C133.712 27.8834 133.202 27.7496 132.616 27.7496C131.98 27.7496 131.424 27.9062 130.95 28.2193C130.48 28.5274 130.116 28.9314 129.859 29.4314C129.606 29.9264 129.48 30.4642 129.48 31.045V32.3708C129.48 33.1486 129.616 33.8102 129.889 34.3557C130.167 34.9011 130.553 35.3178 131.048 35.6057C131.543 35.8885 132.121 36.0299 132.783 36.0299C133.212 36.0299 133.604 35.9693 133.957 35.8481C134.311 35.7218 134.616 35.5349 134.874 35.2875C135.131 35.04 135.328 34.7344 135.465 34.3708L137.609 34.7572C137.437 35.3885 137.129 35.9415 136.684 36.4163C136.245 36.886 135.692 37.2521 135.025 37.5147C134.364 37.7723 133.609 37.9011 132.76 37.9011Z" fill="white"/>
</svg>
