<svg width="40" height="41" viewBox="0 0 40 41" fill="none" xmlns="http://www.w3.org/2000/svg">
<g filter="url(#filter0_d_123_460)">
<g clip-path="url(#clip0_123_460)">
<path d="M4 20.6602C4 11.8236 11.1634 4.66016 20 4.66016C28.8366 4.66016 36 11.8236 36 20.6602C36 29.4967 28.8366 36.6602 20 36.6602C11.1634 36.6602 4 29.4967 4 20.6602Z" fill="#F9F5FF"/>
<path d="M4 20.6602C4 11.8236 11.1634 4.66016 20 4.66016C28.8366 4.66016 36 11.8236 36 20.6602C36 29.4967 28.8366 36.6602 20 36.6602C11.1634 36.6602 4 29.4967 4 20.6602Z" fill="#EF5744"/>
<circle cx="20" cy="20.6602" r="5" fill="white"/>
</g>
</g>
<defs>
<filter id="filter0_d_123_460" x="0" y="0.660156" width="40" height="40" filterUnits="userSpaceOnUse" color-interpolation-filters="sRGB">
<feFlood flood-opacity="0" result="BackgroundImageFix"/>
<feColorMatrix in="SourceAlpha" type="matrix" values="0 0 0 0 0 0 0 0 0 0 0 0 0 0 0 0 0 0 127 0" result="hardAlpha"/>
<feMorphology radius="4" operator="dilate" in="SourceAlpha" result="effect1_dropShadow_123_460"/>
<feOffset/>
<feComposite in2="hardAlpha" operator="out"/>
<feColorMatrix type="matrix" values="0 0 0 0 0.937255 0 0 0 0 0.341176 0 0 0 0 0.266667 0 0 0 0.2 0"/>
<feBlend mode="normal" in2="BackgroundImageFix" result="effect1_dropShadow_123_460"/>
<feBlend mode="normal" in="SourceGraphic" in2="effect1_dropShadow_123_460" result="shape"/>
</filter>
<clipPath id="clip0_123_460">
<path d="M4 20.6602C4 11.8236 11.1634 4.66016 20 4.66016C28.8366 4.66016 36 11.8236 36 20.6602C36 29.4967 28.8366 36.6602 20 36.6602C11.1634 36.6602 4 29.4967 4 20.6602Z" fill="white"/>
</clipPath>
</defs>
</svg>
