<svg width="33" height="32" viewBox="0 0 33 32" fill="none" xmlns="http://www.w3.org/2000/svg">
<g clip-path="url(#clip0_65_2463)">
<path d="M0.5 16C0.5 7.16344 7.66344 0 16.5 0C25.3366 0 32.5 7.16344 32.5 16C32.5 24.8366 25.3366 32 16.5 32C7.66344 32 0.5 24.8366 0.5 16Z" fill="#F9F5FF"/>
<path d="M0.5 16C0.5 7.16344 7.66344 0 16.5 0C25.3366 0 32.5 7.16344 32.5 16C32.5 24.8366 25.3366 32 16.5 32C7.66344 32 0.5 24.8366 0.5 16Z" fill="#EF5744"/>
<path fill-rule="evenodd" clip-rule="evenodd" d="M23.2953 9.85334L13.7487 19.0667L11.2153 16.36C10.7487 15.92 10.0153 15.8933 9.482 16.2667C8.962 16.6533 8.81534 17.3333 9.13534 17.88L12.1353 22.76C12.4287 23.2133 12.9353 23.4933 13.5087 23.4933C14.0553 23.4933 14.5753 23.2133 14.8687 22.76C15.3487 22.1333 24.5087 11.2133 24.5087 11.2133C25.7087 9.98668 24.2553 8.90668 23.2953 9.84001V9.85334Z" fill="white"/>
</g>
<defs>
<clipPath id="clip0_65_2463">
<path d="M0.5 16C0.5 7.16344 7.66344 0 16.5 0C25.3366 0 32.5 7.16344 32.5 16C32.5 24.8366 25.3366 32 16.5 32C7.66344 32 0.5 24.8366 0.5 16Z" fill="white"/>
</clipPath>
</defs>
</svg>
