<svg width="348" height="72" viewBox="0 0 348 72" fill="none" xmlns="http://www.w3.org/2000/svg">
<path d="M43.8334 35.25C42.7834 35.25 41.8954 34.887 41.1694 34.161C40.4434 33.435 40.0814 32.548 40.0834 31.5C40.0854 30.452 40.4484 29.564 41.1724 28.836C41.8964 28.108 42.7834 27.746 43.8334 27.75C44.8834 27.754 45.7714 28.117 46.4974 28.839C47.2234 29.561 47.5854 30.448 47.5834 31.5C47.5814 32.552 47.2184 33.44 46.4944 34.164C45.7704 34.888 44.8834 35.25 43.8334 35.25ZM28.8334 35.25C27.7834 35.25 26.8954 34.887 26.1694 34.161C25.4434 33.435 25.0814 32.548 25.0834 31.5C25.0854 30.452 25.4484 29.564 26.1724 28.836C26.8964 28.108 27.7834 27.746 28.8334 27.75C29.8834 27.754 30.7714 28.117 31.4974 28.839C32.2234 29.561 32.5854 30.448 32.5834 31.5C32.5814 32.552 32.2184 33.44 31.4944 34.164C30.7704 34.888 29.8834 35.25 28.8334 35.25ZM36.3334 51C33.3334 51 30.6204 50.175 28.1944 48.525C25.7684 46.875 23.9814 44.7 22.8334 42H49.8334C48.6834 44.7 46.8964 46.875 44.4724 48.525C42.0484 50.175 39.3354 51 36.3334 51ZM36.3334 63C32.5834 63 29.0714 62.288 25.7974 60.864C22.5234 59.44 19.6734 57.515 17.2474 55.089C14.8214 52.663 12.8964 49.813 11.4724 46.539C10.0484 43.265 9.33538 39.752 9.33338 36C9.33138 32.248 10.0444 28.736 11.4724 25.464C12.9004 22.192 14.8244 19.342 17.2444 16.914C19.6644 14.486 22.5144 12.561 25.7944 11.139C29.0744 9.71702 32.5874 9.00402 36.3334 9.00002C40.0794 8.99602 43.5924 9.70902 46.8724 11.139C50.1524 12.569 53.0024 14.493 55.4224 16.911C57.8424 19.329 59.7674 22.179 61.1974 25.461C62.6274 28.743 63.3394 32.256 63.3334 36C63.3274 39.744 62.6154 43.257 61.1974 46.539C59.7794 49.821 57.8544 52.671 55.4224 55.089C52.9904 57.507 50.1404 59.432 46.8724 60.864C43.6044 62.296 40.0914 63.008 36.3334 63ZM36.3334 57C42.1334 57 47.0834 54.95 51.1834 50.85C55.2834 46.75 57.3334 41.8 57.3334 36C57.3334 30.2 55.2834 25.25 51.1834 21.15C47.0834 17.05 42.1334 15 36.3334 15H35.4334C35.1334 15 34.8334 15.05 34.5334 15.15C34.2334 15.45 34.0334 15.775 33.9334 16.125C33.8334 16.475 33.7834 16.85 33.7834 17.25C33.7834 18.3 34.1454 19.188 34.8694 19.914C35.5934 20.64 36.4814 21.002 37.5334 21C37.9834 21 38.3964 20.925 38.7724 20.775C39.1484 20.625 39.5354 20.55 39.9334 20.55C40.5334 20.55 41.0334 20.775 41.4334 21.225C41.8334 21.675 42.0334 22.2 42.0334 22.8C42.0334 23.95 41.4954 24.688 40.4194 25.014C39.3434 25.34 38.3814 25.502 37.5334 25.5C35.2834 25.5 33.3464 24.688 31.7224 23.064C30.0984 21.44 29.2854 19.502 29.2834 17.25V16.8C29.2834 16.65 29.3084 16.45 29.3584 16.2C25.2084 17.7 21.8334 20.225 19.2334 23.775C16.6334 27.325 15.3334 31.4 15.3334 36C15.3334 41.8 17.3834 46.75 21.4834 50.85C25.5834 54.95 30.5334 57 36.3334 57Z" fill="#E7E7E7"/>
<path d="M103.71 31.9844H98.1104C98.0081 31.2599 97.7993 30.6165 97.4839 30.054C97.1686 29.483 96.7638 28.9972 96.2695 28.5966C95.7751 28.196 95.2041 27.8892 94.5564 27.6761C93.9172 27.4631 93.2226 27.3565 92.4726 27.3565C91.1175 27.3565 89.9371 27.6932 88.9314 28.3665C87.9257 29.0312 87.1459 30.0028 86.5919 31.2812C86.0379 32.5511 85.7609 34.0937 85.7609 35.9091C85.7609 37.7756 86.0379 39.3437 86.5919 40.6136C87.1544 41.8835 87.9385 42.8423 88.9442 43.4901C89.9499 44.1378 91.1132 44.4616 92.4342 44.4616C93.1757 44.4616 93.8618 44.3636 94.4925 44.1676C95.1317 43.9716 95.6984 43.6861 96.1927 43.3111C96.6871 42.9276 97.0962 42.4631 97.42 41.9176C97.7524 41.3722 97.9825 40.75 98.1104 40.0511L103.71 40.0767C103.565 41.2784 103.203 42.4375 102.623 43.554C102.052 44.6619 101.281 45.6548 100.309 46.5327C99.3462 47.402 98.1956 48.0923 96.8575 48.6037C95.528 49.1065 94.0237 49.358 92.3447 49.358C90.0095 49.358 87.9214 48.8295 86.0805 47.7727C84.2481 46.7159 82.7993 45.1861 81.7339 43.1832C80.6771 41.1804 80.1487 38.7557 80.1487 35.9091C80.1487 33.054 80.6856 30.625 81.7595 28.6222C82.8334 26.6193 84.2908 25.0937 86.1317 24.0455C87.9726 22.9886 90.0436 22.4602 92.3447 22.4602C93.8618 22.4602 95.268 22.6733 96.5635 23.0994C97.8675 23.5256 99.0223 24.1477 100.028 24.9659C101.034 25.7756 101.852 26.7685 102.483 27.9446C103.122 29.1207 103.531 30.4673 103.71 31.9844ZM113.176 49.3707C111.924 49.3707 110.807 49.1534 109.827 48.7188C108.847 48.2756 108.071 47.6236 107.5 46.7628C106.938 45.8935 106.657 44.8111 106.657 43.5156C106.657 42.4247 106.857 41.5085 107.257 40.767C107.658 40.0256 108.203 39.429 108.894 38.9773C109.584 38.5256 110.368 38.1847 111.246 37.9545C112.132 37.7244 113.061 37.5625 114.033 37.4688C115.175 37.3494 116.095 37.2386 116.794 37.1364C117.493 37.0256 118 36.8636 118.316 36.6506C118.631 36.4375 118.789 36.1222 118.789 35.7045V35.6278C118.789 34.8182 118.533 34.1918 118.022 33.7486C117.519 33.3054 116.803 33.0838 115.874 33.0838C114.894 33.0838 114.114 33.3011 113.534 33.7358C112.955 34.1619 112.571 34.6989 112.384 35.3466L107.347 34.9375C107.603 33.7443 108.105 32.7131 108.855 31.8438C109.605 30.9659 110.573 30.2926 111.757 29.8239C112.951 29.3466 114.331 29.108 115.899 29.108C116.99 29.108 118.034 29.2358 119.032 29.4915C120.037 29.7472 120.928 30.1435 121.703 30.6804C122.487 31.2173 123.105 31.9077 123.557 32.7514C124.009 33.5866 124.235 34.5881 124.235 35.7557V49H119.07V46.277H118.916C118.601 46.8906 118.179 47.4318 117.651 47.9006C117.122 48.3608 116.487 48.723 115.746 48.9872C115.005 49.2429 114.148 49.3707 113.176 49.3707ZM114.736 45.6122C115.537 45.6122 116.245 45.4545 116.858 45.1392C117.472 44.8153 117.953 44.3807 118.303 43.8352C118.652 43.2898 118.827 42.6719 118.827 41.9815V39.8977C118.657 40.0085 118.422 40.1108 118.124 40.2045C117.834 40.2898 117.506 40.3707 117.139 40.4474C116.773 40.5156 116.407 40.5795 116.04 40.6392C115.674 40.6903 115.341 40.7372 115.043 40.7798C114.404 40.8736 113.845 41.0227 113.368 41.2273C112.891 41.4318 112.52 41.7088 112.256 42.0582C111.992 42.3991 111.86 42.8253 111.86 43.3366C111.86 44.0781 112.128 44.6449 112.665 45.0369C113.211 45.4205 113.901 45.6122 114.736 45.6122ZM128.46 49V29.3636H133.74V32.7898H133.944C134.302 31.571 134.903 30.6506 135.747 30.0284C136.59 29.3977 137.562 29.0824 138.661 29.0824C138.934 29.0824 139.228 29.0994 139.544 29.1335C139.859 29.1676 140.136 29.2145 140.375 29.2741V34.1065C140.119 34.0298 139.765 33.9616 139.313 33.902C138.862 33.8423 138.448 33.8125 138.073 33.8125C137.272 33.8125 136.556 33.9872 135.926 34.3366C135.304 34.6776 134.809 35.1548 134.443 35.7685C134.085 36.3821 133.906 37.0895 133.906 37.8906V49H128.46ZM151.225 49.3835C149.205 49.3835 147.467 48.9744 146.009 48.1562C144.56 47.3295 143.444 46.1619 142.66 44.6534C141.876 43.1364 141.484 41.3423 141.484 39.2713C141.484 37.2514 141.876 35.4787 142.66 33.9531C143.444 32.4276 144.548 31.2386 145.971 30.3864C147.403 29.5341 149.082 29.108 151.008 29.108C152.303 29.108 153.509 29.3168 154.626 29.7344C155.751 30.1435 156.731 30.7614 157.566 31.5881C158.41 32.4148 159.066 33.4545 159.535 34.7074C160.003 35.9517 160.238 37.4091 160.238 39.0795V40.5753H143.657V37.2003H155.111C155.111 36.4162 154.941 35.7216 154.6 35.1165C154.259 34.5114 153.786 34.0384 153.181 33.6974C152.584 33.348 151.89 33.1733 151.097 33.1733C150.271 33.1733 149.538 33.3651 148.898 33.7486C148.268 34.1236 147.773 34.6307 147.415 35.2699C147.057 35.9006 146.874 36.6037 146.866 37.3793V40.5881C146.866 41.5597 147.045 42.3991 147.403 43.1065C147.769 43.8139 148.285 44.3594 148.949 44.7429C149.614 45.1264 150.403 45.3182 151.315 45.3182C151.92 45.3182 152.474 45.233 152.976 45.0625C153.479 44.892 153.91 44.6364 154.268 44.2955C154.626 43.9545 154.898 43.5369 155.086 43.0426L160.123 43.375C159.867 44.5852 159.343 45.642 158.55 46.5455C157.766 47.4403 156.752 48.1392 155.508 48.642C154.272 49.1364 152.844 49.3835 151.225 49.3835ZM163.894 49V22.8182H181.229V27.3821H169.43V33.6207H180.079V38.1847H169.43V49H163.894ZM192.281 49.3835C190.295 49.3835 188.578 48.9616 187.129 48.1179C185.689 47.2656 184.577 46.081 183.793 44.5639C183.008 43.0384 182.616 41.2699 182.616 39.2585C182.616 37.2301 183.008 35.4574 183.793 33.9403C184.577 32.4148 185.689 31.2301 187.129 30.3864C188.578 29.5341 190.295 29.108 192.281 29.108C194.267 29.108 195.98 29.5341 197.42 30.3864C198.869 31.2301 199.986 32.4148 200.77 33.9403C201.554 35.4574 201.946 37.2301 201.946 39.2585C201.946 41.2699 201.554 43.0384 200.77 44.5639C199.986 46.081 198.869 47.2656 197.42 48.1179C195.98 48.9616 194.267 49.3835 192.281 49.3835ZM192.307 45.1648C193.21 45.1648 193.964 44.9091 194.57 44.3977C195.175 43.8778 195.631 43.1705 195.937 42.2756C196.253 41.3807 196.41 40.3622 196.41 39.2202C196.41 38.0781 196.253 37.0597 195.937 36.1648C195.631 35.2699 195.175 34.5625 194.57 34.0426C193.964 33.5227 193.21 33.2628 192.307 33.2628C191.395 33.2628 190.628 33.5227 190.006 34.0426C189.392 34.5625 188.927 35.2699 188.612 36.1648C188.305 37.0597 188.152 38.0781 188.152 39.2202C188.152 40.3622 188.305 41.3807 188.612 42.2756C188.927 43.1705 189.392 43.8778 190.006 44.3977C190.628 44.9091 191.395 45.1648 192.307 45.1648ZM205.487 49V29.3636H210.767V32.7898H210.972C211.329 31.571 211.93 30.6506 212.774 30.0284C213.618 29.3977 214.589 29.0824 215.689 29.0824C215.962 29.0824 216.256 29.0994 216.571 29.1335C216.886 29.1676 217.163 29.2145 217.402 29.2741V34.1065C217.146 34.0298 216.793 33.9616 216.341 33.902C215.889 33.8423 215.476 33.8125 215.101 33.8125C214.3 33.8125 213.584 33.9872 212.953 34.3366C212.331 34.6776 211.837 35.1548 211.47 35.7685C211.112 36.3821 210.933 37.0895 210.933 37.8906V49H205.487ZM225.855 22.8182V49H220.32V22.8182H225.855ZM235.753 37.6477V49H230.307V29.3636H235.498V32.8281H235.728C236.163 31.6861 236.891 30.7827 237.914 30.1179C238.937 29.4446 240.177 29.108 241.634 29.108C242.998 29.108 244.187 29.4062 245.201 30.0028C246.215 30.5994 247.003 31.4517 247.566 32.5597C248.128 33.6591 248.41 34.9716 248.41 36.4972V49H242.964V37.4688C242.972 36.267 242.665 35.3295 242.043 34.6562C241.421 33.9744 240.565 33.6335 239.474 33.6335C238.741 33.6335 238.093 33.7912 237.53 34.1065C236.976 34.4219 236.542 34.8821 236.226 35.4872C235.92 36.0838 235.762 36.804 235.753 37.6477ZM259.938 49.3196C258.446 49.3196 257.095 48.9361 255.885 48.169C254.684 47.3935 253.729 46.2557 253.022 44.7557C252.323 43.2472 251.973 41.3977 251.973 39.2074C251.973 36.9574 252.336 35.0866 253.06 33.5952C253.784 32.0952 254.747 30.9744 255.949 30.233C257.159 29.483 258.485 29.108 259.925 29.108C261.024 29.108 261.941 29.2955 262.674 29.6705C263.415 30.0369 264.012 30.4972 264.463 31.0511C264.924 31.5966 265.273 32.1335 265.512 32.6619H265.678V22.8182H271.111V49H265.742V45.8551H265.512C265.256 46.4006 264.894 46.9418 264.425 47.4787C263.965 48.0071 263.364 48.446 262.622 48.7955C261.889 49.1449 260.995 49.3196 259.938 49.3196ZM261.664 44.9858C262.541 44.9858 263.283 44.7472 263.888 44.2699C264.502 43.7841 264.97 43.1065 265.294 42.2372C265.627 41.3679 265.793 40.3494 265.793 39.1818C265.793 38.0142 265.631 37 265.307 36.1392C264.983 35.2784 264.514 34.6136 263.901 34.1449C263.287 33.6761 262.541 33.4418 261.664 33.4418C260.769 33.4418 260.014 33.6847 259.401 34.1705C258.787 34.6562 258.323 35.3295 258.007 36.1903C257.692 37.0511 257.534 38.0483 257.534 39.1818C257.534 40.3239 257.692 41.3338 258.007 42.2116C258.331 43.081 258.796 43.7628 259.401 44.2571C260.014 44.7429 260.769 44.9858 261.664 44.9858ZM275.589 49V29.3636H281.035V49H275.589ZM278.324 26.8324C277.515 26.8324 276.82 26.5639 276.241 26.027C275.67 25.4815 275.384 24.8295 275.384 24.071C275.384 23.321 275.67 22.6776 276.241 22.1406C276.82 21.5952 277.515 21.3224 278.324 21.3224C279.134 21.3224 279.824 21.5952 280.396 22.1406C280.975 22.6776 281.265 23.321 281.265 24.071C281.265 24.8295 280.975 25.4815 280.396 26.027C279.824 26.5639 279.134 26.8324 278.324 26.8324ZM290.997 49.3707C289.744 49.3707 288.627 49.1534 287.647 48.7188C286.667 48.2756 285.892 47.6236 285.321 46.7628C284.758 45.8935 284.477 44.8111 284.477 43.5156C284.477 42.4247 284.677 41.5085 285.078 40.767C285.478 40.0256 286.024 39.429 286.714 38.9773C287.404 38.5256 288.188 38.1847 289.066 37.9545C289.953 37.7244 290.882 37.5625 291.853 37.4688C292.995 37.3494 293.916 37.2386 294.615 37.1364C295.313 37.0256 295.821 36.8636 296.136 36.6506C296.451 36.4375 296.609 36.1222 296.609 35.7045V35.6278C296.609 34.8182 296.353 34.1918 295.842 33.7486C295.339 33.3054 294.623 33.0838 293.694 33.0838C292.714 33.0838 291.934 33.3011 291.355 33.7358C290.775 34.1619 290.392 34.6989 290.204 35.3466L285.167 34.9375C285.423 33.7443 285.926 32.7131 286.676 31.8438C287.426 30.9659 288.393 30.2926 289.578 29.8239C290.771 29.3466 292.152 29.108 293.72 29.108C294.811 29.108 295.855 29.2358 296.852 29.4915C297.858 29.7472 298.748 30.1435 299.524 30.6804C300.308 31.2173 300.926 31.9077 301.377 32.7514C301.829 33.5866 302.055 34.5881 302.055 35.7557V49H296.89V46.277H296.737C296.421 46.8906 296 47.4318 295.471 47.9006C294.943 48.3608 294.308 48.723 293.566 48.9872C292.825 49.2429 291.968 49.3707 290.997 49.3707ZM292.556 45.6122C293.358 45.6122 294.065 45.4545 294.679 45.1392C295.292 44.8153 295.774 44.3807 296.123 43.8352C296.473 43.2898 296.647 42.6719 296.647 41.9815V39.8977C296.477 40.0085 296.242 40.1108 295.944 40.2045C295.654 40.2898 295.326 40.3707 294.96 40.4474C294.593 40.5156 294.227 40.5795 293.86 40.6392C293.494 40.6903 293.161 40.7372 292.863 40.7798C292.224 40.8736 291.666 41.0227 291.188 41.2273C290.711 41.4318 290.34 41.7088 290.076 42.0582C289.812 42.3991 289.68 42.8253 289.68 43.3366C289.68 44.0781 289.948 44.6449 290.485 45.0369C291.031 45.4205 291.721 45.6122 292.556 45.6122ZM311.726 37.6477V49H306.28V29.3636H311.47V32.8281H311.701C312.135 31.6861 312.864 30.7827 313.887 30.1179C314.909 29.4446 316.149 29.108 317.607 29.108C318.97 29.108 320.159 29.4062 321.174 30.0028C322.188 30.5994 322.976 31.4517 323.539 32.5597C324.101 33.6591 324.382 34.9716 324.382 36.4972V49H318.936V37.4688C318.945 36.267 318.638 35.3295 318.016 34.6562C317.394 33.9744 316.537 33.6335 315.446 33.6335C314.713 33.6335 314.066 33.7912 313.503 34.1065C312.949 34.4219 312.514 34.8821 312.199 35.4872C311.892 36.0838 311.735 36.804 311.726 37.6477ZM345.013 34.9631L340.027 35.2699C339.942 34.8437 339.758 34.4602 339.477 34.1193C339.196 33.7699 338.825 33.4929 338.365 33.2884C337.913 33.0753 337.372 32.9688 336.741 32.9688C335.898 32.9688 335.186 33.1477 334.606 33.5057C334.027 33.8551 333.737 34.3239 333.737 34.9119C333.737 35.3807 333.925 35.777 334.3 36.1009C334.675 36.4247 335.318 36.6847 336.23 36.8807L339.784 37.5966C341.693 37.9886 343.116 38.6193 344.054 39.4886C344.991 40.358 345.46 41.5 345.46 42.9148C345.46 44.2017 345.081 45.331 344.322 46.3026C343.572 47.2741 342.541 48.0327 341.229 48.5781C339.925 49.1151 338.42 49.3835 336.716 49.3835C334.116 49.3835 332.045 48.8423 330.503 47.7599C328.969 46.669 328.07 45.1861 327.805 43.3111L333.162 43.0298C333.324 43.8224 333.716 44.4276 334.338 44.8452C334.96 45.2543 335.757 45.4588 336.729 45.4588C337.683 45.4588 338.45 45.2756 339.03 44.9091C339.618 44.5341 339.916 44.0526 339.925 43.4645C339.916 42.9702 339.707 42.5653 339.298 42.25C338.889 41.9261 338.258 41.679 337.406 41.5085L334.006 40.831C332.088 40.4474 330.66 39.7827 329.723 38.8366C328.794 37.8906 328.329 36.6847 328.329 35.2188C328.329 33.9574 328.67 32.8707 329.352 31.9588C330.043 31.0469 331.01 30.3438 332.254 29.8494C333.507 29.3551 334.973 29.108 336.652 29.108C339.132 29.108 341.084 29.6321 342.507 30.6804C343.939 31.7287 344.774 33.1562 345.013 34.9631Z" fill="#E7E7E7"/>
</svg>
