<svg width="32" height="32" viewBox="0 0 32 32" fill="none" xmlns="http://www.w3.org/2000/svg">
<g clip-path="url(#clip0_33_527)">
<path d="M0.000976562 23.9991C0.000976563 24.9421 0.375579 25.8465 1.04237 26.5133C1.70917 27.1801 2.61354 27.5547 3.55653 27.5547H28.4454C29.3884 27.5547 30.2928 27.1801 30.9596 26.5133C31.6264 25.8465 32.001 24.9421 32.001 23.9991V19.5547H0.000976562V23.9991Z" fill="#138808"/>
<path d="M32.001 12.4432V7.99879C32.001 7.0558 31.6264 6.15143 30.9596 5.48464C30.2928 4.81784 29.3884 4.44324 28.4454 4.44324H3.55653C2.61354 4.44324 1.70917 4.81784 1.04237 5.48464C0.375579 6.15143 0.000976563 7.0558 0.000976562 7.99879L0.000976563 12.4432H32.001Z" fill="#FF9933"/>
<path d="M0.000976562 12.1475H32.001V19.8515H0.000976562V12.1475Z" fill="#F7F7F7"/>
<path d="M16.0038 19.5545C17.9675 19.5545 19.5594 17.9626 19.5594 15.9989C19.5594 14.0352 17.9675 12.4434 16.0038 12.4434C14.0401 12.4434 12.4482 14.0352 12.4482 15.9989C12.4482 17.9626 14.0401 19.5545 16.0038 19.5545Z" fill="#000080"/>
<path d="M16.001 18.9988C17.6578 18.9988 19.001 17.6556 19.001 15.9988C19.001 14.3419 17.6578 12.9988 16.001 12.9988C14.3441 12.9988 13.001 14.3419 13.001 15.9988C13.001 17.6556 14.3441 18.9988 16.001 18.9988Z" fill="#F7F7F7"/>
<path d="M16.0906 14.8875L16.0017 15.4653L15.9128 14.8875L16.0017 13.1542L16.0906 14.8875ZM15.2657 13.2511L15.6283 14.948L15.8639 15.4831L15.7999 14.9026L15.2657 13.2511ZM14.5794 13.5355L15.3688 15.0804L15.735 15.5364L15.5234 14.9915L14.5794 13.5355ZM13.9901 13.9871L15.1528 15.276L15.6248 15.6217L15.279 15.1497L13.9901 13.9871ZM13.5386 14.5764L14.9946 15.5204L15.5394 15.732L15.0834 15.3657L13.5386 14.5764ZM13.2541 15.2626L14.9057 15.7968L15.4861 15.8608L14.951 15.6253L13.2541 15.2626ZM13.1572 15.9986L14.8906 16.0875L15.4683 15.9986L14.8906 15.9097L13.1572 15.9986ZM13.2541 16.7346L14.951 16.372L15.4861 16.1364L14.9057 16.2004L13.2541 16.7346ZM13.5386 17.4208L15.0834 16.6315L15.5394 16.2653L14.9946 16.4768L13.5386 17.4208ZM13.9901 18.0102L15.279 16.8475L15.6248 16.3755L15.1528 16.7213L13.9901 18.0102ZM14.5794 18.4617L15.5234 17.0057L15.735 16.4608L15.3688 16.9168L14.5794 18.4617ZM15.2657 18.7462L15.7999 17.0946L15.8639 16.5142L15.6283 17.0493L15.2657 18.7462ZM16.0017 18.8431L16.0906 17.1097L16.0017 16.532L15.9128 17.1097L16.0017 18.8431ZM16.7377 18.7462L16.375 17.0493L16.1394 16.5142L16.2034 17.0946L16.7377 18.7462ZM17.4239 18.4617L16.6346 16.9168L16.2683 16.4608L16.4799 17.0057L17.4239 18.4617ZM18.0132 18.0102L16.8506 16.7213L16.3786 16.3755L16.7243 16.8475L18.0132 18.0102ZM18.4648 17.4208L17.0088 16.4768L16.4639 16.2653L16.9199 16.6315L18.4648 17.4208ZM18.7492 16.7346L17.0977 16.2004L16.5172 16.1364L17.0523 16.372L18.7492 16.7346ZM18.8461 15.9986L17.1128 15.9097L16.535 15.9986L17.1128 16.0875L18.8461 15.9986ZM18.7492 15.2626L17.0523 15.6253L16.5172 15.8608L17.0977 15.7968L18.7492 15.2626ZM18.4648 14.5764L16.9199 15.3657L16.4639 15.732L17.0088 15.5204L18.4648 14.5764ZM18.0132 13.9871L16.7243 15.1497L16.3786 15.6217L16.8506 15.276L18.0132 13.9871ZM17.4239 13.5355L16.4799 14.9915L16.2683 15.5364L16.6346 15.0804L17.4239 13.5355ZM16.7377 13.2511L16.2034 14.9026L16.1394 15.4831L16.375 14.948L16.7377 13.2511Z" fill="#6666B3"/>
<path d="M15.6123 13.2066C15.7105 13.2066 15.7901 13.127 15.7901 13.0289C15.7901 12.9307 15.7105 12.8511 15.6123 12.8511C15.5142 12.8511 15.4346 12.9307 15.4346 13.0289C15.4346 13.127 15.5142 13.2066 15.6123 13.2066Z" fill="#000080"/>
<path d="M14.8506 13.4095C14.9488 13.4095 15.0284 13.3299 15.0284 13.2317C15.0284 13.1335 14.9488 13.054 14.8506 13.054C14.7524 13.054 14.6729 13.1335 14.6729 13.2317C14.6729 13.3299 14.7524 13.4095 14.8506 13.4095Z" fill="#000080"/>
<path d="M14.1788 13.7996C14.2769 13.7996 14.3565 13.7201 14.3565 13.6219C14.3565 13.5237 14.2769 13.4441 14.1788 13.4441C14.0806 13.4441 14.001 13.5237 14.001 13.6219C14.001 13.7201 14.0806 13.7996 14.1788 13.7996Z" fill="#000080"/>
<path d="M13.6241 14.3531C13.7223 14.3531 13.8018 14.2735 13.8018 14.1753C13.8018 14.0772 13.7223 13.9976 13.6241 13.9976C13.5259 13.9976 13.4463 14.0772 13.4463 14.1753C13.4463 14.2735 13.5259 14.3531 13.6241 14.3531Z" fill="#000080"/>
<path d="M13.2373 15.0294C13.3355 15.0294 13.4151 14.9498 13.4151 14.8516C13.4151 14.7534 13.3355 14.6738 13.2373 14.6738C13.1392 14.6738 13.0596 14.7534 13.0596 14.8516C13.0596 14.9498 13.1392 15.0294 13.2373 15.0294Z" fill="#000080"/>
<path d="M13.0303 15.785C13.1285 15.785 13.2081 15.7054 13.2081 15.6072C13.2081 15.509 13.1285 15.4294 13.0303 15.4294C12.9321 15.4294 12.8525 15.509 12.8525 15.6072C12.8525 15.7054 12.9321 15.785 13.0303 15.785Z" fill="#000080"/>
<path d="M13.0303 16.567C13.1285 16.567 13.2081 16.4874 13.2081 16.3892C13.2081 16.291 13.1285 16.2114 13.0303 16.2114C12.9321 16.2114 12.8525 16.291 12.8525 16.3892C12.8525 16.4874 12.9321 16.567 13.0303 16.567Z" fill="#000080"/>
<path d="M13.2373 17.3233C13.3355 17.3233 13.4151 17.2437 13.4151 17.1456C13.4151 17.0474 13.3355 16.9678 13.2373 16.9678C13.1392 16.9678 13.0596 17.0474 13.0596 17.1456C13.0596 17.2437 13.1392 17.3233 13.2373 17.3233Z" fill="#000080"/>
<path d="M13.6241 18.0012C13.7223 18.0012 13.8018 17.9216 13.8018 17.8234C13.8018 17.7252 13.7223 17.6456 13.6241 17.6456C13.5259 17.6456 13.4463 17.7252 13.4463 17.8234C13.4463 17.9216 13.5259 18.0012 13.6241 18.0012Z" fill="#000080"/>
<path d="M14.1788 18.5529C14.2769 18.5529 14.3565 18.4733 14.3565 18.3752C14.3565 18.277 14.2769 18.1974 14.1788 18.1974C14.0806 18.1974 14.001 18.277 14.001 18.3752C14.001 18.4733 14.0806 18.5529 14.1788 18.5529Z" fill="#000080"/>
<path d="M14.8506 18.9433C14.9488 18.9433 15.0284 18.8637 15.0284 18.7655C15.0284 18.6674 14.9488 18.5878 14.8506 18.5878C14.7524 18.5878 14.6729 18.6674 14.6729 18.7655C14.6729 18.8637 14.7524 18.9433 14.8506 18.9433Z" fill="#000080"/>
<path d="M15.6123 19.1461C15.7105 19.1461 15.7901 19.0665 15.7901 18.9683C15.7901 18.8701 15.7105 18.7905 15.6123 18.7905C15.5142 18.7905 15.4346 18.8701 15.4346 18.9683C15.4346 19.0665 15.5142 19.1461 15.6123 19.1461Z" fill="#000080"/>
<path d="M16.3946 19.1461C16.4928 19.1461 16.5724 19.0665 16.5724 18.9683C16.5724 18.8701 16.4928 18.7905 16.3946 18.7905C16.2964 18.7905 16.2168 18.8701 16.2168 18.9683C16.2168 19.0665 16.2964 19.1461 16.3946 19.1461Z" fill="#000080"/>
<path d="M17.1485 18.9433C17.2467 18.9433 17.3263 18.8637 17.3263 18.7655C17.3263 18.6674 17.2467 18.5878 17.1485 18.5878C17.0503 18.5878 16.9707 18.6674 16.9707 18.7655C16.9707 18.8637 17.0503 18.9433 17.1485 18.9433Z" fill="#000080"/>
<path d="M17.8223 18.5528C17.9205 18.5528 18.0001 18.4732 18.0001 18.375C18.0001 18.2769 17.9205 18.1973 17.8223 18.1973C17.7241 18.1973 17.6445 18.2769 17.6445 18.375C17.6445 18.4732 17.7241 18.5528 17.8223 18.5528Z" fill="#000080"/>
<path d="M18.377 18.0012C18.4752 18.0012 18.5548 17.9216 18.5548 17.8234C18.5548 17.7252 18.4752 17.6456 18.377 17.6456C18.2788 17.6456 18.1992 17.7252 18.1992 17.8234C18.1992 17.9216 18.2788 18.0012 18.377 18.0012Z" fill="#000080"/>
<path d="M18.7696 17.3233C18.8678 17.3233 18.9474 17.2437 18.9474 17.1456C18.9474 17.0474 18.8678 16.9678 18.7696 16.9678C18.6714 16.9678 18.5918 17.0474 18.5918 17.1456C18.5918 17.2437 18.6714 17.3233 18.7696 17.3233Z" fill="#000080"/>
<path d="M18.9688 16.567C19.067 16.567 19.1466 16.4874 19.1466 16.3892C19.1466 16.291 19.067 16.2114 18.9688 16.2114C18.8706 16.2114 18.791 16.291 18.791 16.3892C18.791 16.4874 18.8706 16.567 18.9688 16.567Z" fill="#000080"/>
<path d="M18.9688 15.785C19.067 15.785 19.1466 15.7054 19.1466 15.6072C19.1466 15.509 19.067 15.4294 18.9688 15.4294C18.8706 15.4294 18.791 15.509 18.791 15.6072C18.791 15.7054 18.8706 15.785 18.9688 15.785Z" fill="#000080"/>
<path d="M18.7696 15.0294C18.8678 15.0294 18.9474 14.9498 18.9474 14.8516C18.9474 14.7534 18.8678 14.6738 18.7696 14.6738C18.6714 14.6738 18.5918 14.7534 18.5918 14.8516C18.5918 14.9498 18.6714 15.0294 18.7696 15.0294Z" fill="#000080"/>
<path d="M18.377 14.3531C18.4752 14.3531 18.5548 14.2735 18.5548 14.1753C18.5548 14.0772 18.4752 13.9976 18.377 13.9976C18.2788 13.9976 18.1992 14.0772 18.1992 14.1753C18.1992 14.2735 18.2788 14.3531 18.377 14.3531Z" fill="#000080"/>
<path d="M17.8223 13.7999C17.9205 13.7999 18.0001 13.7203 18.0001 13.6221C18.0001 13.5239 17.9205 13.4443 17.8223 13.4443C17.7241 13.4443 17.6445 13.5239 17.6445 13.6221C17.6445 13.7203 17.7241 13.7999 17.8223 13.7999Z" fill="#000080"/>
<path d="M17.1485 13.4095C17.2467 13.4095 17.3263 13.3299 17.3263 13.2317C17.3263 13.1335 17.2467 13.054 17.1485 13.054C17.0503 13.054 16.9707 13.1335 16.9707 13.2317C16.9707 13.3299 17.0503 13.4095 17.1485 13.4095Z" fill="#000080"/>
<path d="M16.3946 13.2066C16.4928 13.2066 16.5724 13.127 16.5724 13.0289C16.5724 12.9307 16.4928 12.8511 16.3946 12.8511C16.2964 12.8511 16.2168 12.9307 16.2168 13.0289C16.2168 13.127 16.2964 13.2066 16.3946 13.2066Z" fill="#000080"/>
<path d="M15.9992 16.7998C16.441 16.7998 16.7992 16.4417 16.7992 15.9998C16.7992 15.558 16.441 15.1998 15.9992 15.1998C15.5574 15.1998 15.1992 15.558 15.1992 15.9998C15.1992 16.4417 15.5574 16.7998 15.9992 16.7998Z" fill="#000080"/>
</g>
<defs>
<clipPath id="clip0_33_527">
<rect width="32" height="32" fill="white"/>
</clipPath>
</defs>
</svg>
