<svg width="25" height="24" viewBox="0 0 25 24" fill="none" xmlns="http://www.w3.org/2000/svg">
<path d="M22.9335 24.0001C20.1557 24.0001 17.4113 23.3948 14.7002 22.1841C11.9891 20.9735 9.52239 19.2566 7.30016 17.0335C5.07794 14.8103 3.3615 12.3437 2.15083 9.63346C0.940163 6.92323 0.334385 4.17879 0.333496 1.40012C0.333496 1.00012 0.466829 0.666789 0.733496 0.400122C1.00016 0.133455 1.3335 0.00012207 1.7335 0.00012207H7.1335C7.44461 0.00012207 7.72239 0.1059 7.96683 0.317455C8.21127 0.529011 8.35572 0.778789 8.40016 1.06679L9.26683 5.73346C9.31127 6.08901 9.30016 6.38901 9.2335 6.63346C9.16683 6.8779 9.04461 7.08901 8.86683 7.26679L5.6335 10.5335C6.07794 11.3557 6.6055 12.1499 7.21616 12.9161C7.82683 13.6823 8.49927 14.4215 9.2335 15.1335C9.92239 15.8223 10.6446 16.4615 11.4002 17.0508C12.1557 17.6401 12.9557 18.1788 13.8002 18.6668L16.9335 15.5335C17.1335 15.3335 17.3948 15.1837 17.7175 15.0841C18.0402 14.9846 18.3566 14.9566 18.6668 15.0001L23.2668 15.9335C23.5779 16.0223 23.8335 16.1837 24.0335 16.4175C24.2335 16.6512 24.3335 16.9121 24.3335 17.2001V22.6001C24.3335 23.0001 24.2002 23.3335 23.9335 23.6001C23.6668 23.8668 23.3335 24.0001 22.9335 24.0001Z" fill="white"/>
</svg>
