<svg width="33" height="33" viewBox="0 0 33 33" fill="none" xmlns="http://www.w3.org/2000/svg">
<g clip-path="url(#clip0_1_6938)">
<path d="M15.9278 2.79224C16.2011 2.13521 17.1319 2.13521 17.4052 2.79224L20.7109 10.7402C20.8261 11.0172 21.0866 11.2064 21.3856 11.2304L29.9661 11.9183C30.6755 11.9752 30.9631 12.8604 30.4226 13.3233L23.8852 18.9233C23.6574 19.1185 23.5579 19.4247 23.6275 19.7165L25.6248 28.0896C25.7899 28.7818 25.0369 29.3289 24.4296 28.958L17.0835 24.471C16.8275 24.3146 16.5055 24.3146 16.2495 24.471L8.9034 28.958C8.29612 29.3289 7.54312 28.7818 7.70823 28.0896L9.70552 19.7165C9.77513 19.4247 9.67563 19.1185 9.4478 18.9233L2.91037 13.3233C2.36994 12.8604 2.65756 11.9752 3.36688 11.9183L11.9474 11.2304C12.2464 11.2064 12.5069 11.0172 12.6221 10.7402L15.9278 2.79224Z" fill="#F2F4F7"/>
<g clip-path="url(#clip1_1_6938)">
<path d="M15.9278 2.79224C16.2011 2.13521 17.1319 2.13521 17.4052 2.79224L20.7109 10.7402C20.8261 11.0172 21.0866 11.2064 21.3856 11.2304L29.9661 11.9183C30.6755 11.9752 30.9631 12.8604 30.4226 13.3233L23.8852 18.9233C23.6574 19.1185 23.5579 19.4247 23.6275 19.7165L25.6248 28.0896C25.7899 28.7818 25.0369 29.3289 24.4296 28.958L17.0835 24.471C16.8275 24.3146 16.5055 24.3146 16.2495 24.471L8.9034 28.958C8.29612 29.3289 7.54312 28.7818 7.70823 28.0896L9.70552 19.7165C9.77513 19.4247 9.67563 19.1185 9.4478 18.9233L2.91037 13.3233C2.36994 12.8604 2.65756 11.9752 3.36688 11.9183L11.9474 11.2304C12.2464 11.2064 12.5069 11.0172 12.6221 10.7402L15.9278 2.79224Z" fill="#FFB300"/>
</g>
</g>
<defs>
<clipPath id="clip0_1_6938">
<rect width="32" height="32" fill="white" transform="translate(0.666504 0.216309)"/>
</clipPath>
<clipPath id="clip1_1_6938">
<rect width="32" height="32" fill="white" transform="translate(0.666504 0.216309)"/>
</clipPath>
</defs>
</svg>
