<svg width="44" height="45" viewBox="0 0 44 45" fill="none" xmlns="http://www.w3.org/2000/svg">
<g filter="url(#filter0_d_212_523)">
<path d="M2.5 9.66003C2.5 5.5179 5.85786 2.16003 10 2.16003H34C38.1421 2.16003 41.5 5.5179 41.5 9.66003V33.66C41.5 37.8022 38.1421 41.16 34 41.16H10C5.85786 41.16 2.5 37.8022 2.5 33.66V9.66003Z" stroke="#EAECF0" shape-rendering="crispEdges"/>
<path d="M18.667 24.9934L22.0003 21.66M22.0003 21.66L25.3337 24.9934M22.0003 21.66V29.16M28.667 25.6124C29.6849 24.7717 30.3337 23.5 30.3337 22.0767C30.3337 19.5454 28.2816 17.4934 25.7503 17.4934C25.5682 17.4934 25.3979 17.3984 25.3054 17.2415C24.2187 15.3974 22.2124 14.16 19.917 14.16C16.4652 14.16 13.667 16.9583 13.667 20.41C13.667 22.1318 14.3632 23.6909 15.4894 24.8213" stroke="#344054" stroke-width="1.66667" stroke-linecap="round" stroke-linejoin="round"/>
</g>
<defs>
<filter id="filter0_d_212_523" x="0" y="0.660034" width="44" height="44" filterUnits="userSpaceOnUse" color-interpolation-filters="sRGB">
<feFlood flood-opacity="0" result="BackgroundImageFix"/>
<feColorMatrix in="SourceAlpha" type="matrix" values="0 0 0 0 0 0 0 0 0 0 0 0 0 0 0 0 0 0 127 0" result="hardAlpha"/>
<feOffset dy="1"/>
<feGaussianBlur stdDeviation="1"/>
<feComposite in2="hardAlpha" operator="out"/>
<feColorMatrix type="matrix" values="0 0 0 0 0.0627451 0 0 0 0 0.0941176 0 0 0 0 0.156863 0 0 0 0.05 0"/>
<feBlend mode="normal" in2="BackgroundImageFix" result="effect1_dropShadow_212_523"/>
<feBlend mode="normal" in="SourceGraphic" in2="effect1_dropShadow_212_523" result="shape"/>
</filter>
</defs>
</svg>
